<?xml version="1.0" encoding="utf-8"?>
<!-- Generator: Adobe Illustrator 19.0.0, SVG Export Plug-In . SVG Version: 6.00 Build 0)  -->
<!DOCTYPE svg PUBLIC "-//W3C//DTD SVG 1.1//EN" "http://www.w3.org/Graphics/SVG/1.1/DTD/svg11.dtd">
<svg version="1.1" id="Layer_1" xmlns="http://www.w3.org/2000/svg" xmlns:xlink="http://www.w3.org/1999/xlink" x="0px" y="0px"
	 viewBox="-299 -95 360 750" style="enable-background:new -299 -95 360 750;" xml:space="preserve">
<style type="text/css">
	.st0{fill:#F1E0C2;stroke:#5A4941;stroke-width:3.3163;stroke-linecap:round;stroke-linejoin:round;stroke-miterlimit:10;}
	.st1{fill:#F1E0C2;stroke:#5A4941;stroke-width:3.3163;stroke-miterlimit:10;}
	.st2{fill:#F1E0C2;stroke:#5A4941;stroke-width:3.3163;stroke-linecap:round;stroke-miterlimit:10;}
	.st3{fill:none;stroke:#5A4941;stroke-width:3.3163;stroke-linecap:round;stroke-miterlimit:10;}
	.st4{fill:#E0A328;}
	.st5{fill:none;stroke:#5A4941;stroke-width:3.3163;stroke-miterlimit:10;}
	.st6{fill:none;}
	.st7{fill:#5A4941;}
	.st8{fill:#F7ECDA;}
	.st9{fill:#F1E0C2;}
	.st10{fill:#F5A623;stroke:#5A4941;stroke-width:1.1054;stroke-miterlimit:10;}
	.st11{fill:#F5A623;}
	.st12{fill:#7C6157;}
	.st13{fill:none;stroke:#5A4941;stroke-width:3.3163;stroke-linecap:round;stroke-linejoin:round;stroke-miterlimit:10;}
	.st14{fill:#8E3728;}
	.st15{fill:#C17529;stroke:#5A4941;stroke-width:3.3163;stroke-miterlimit:10;}
	.st16{fill:#8E8D8B;}
	.st17{fill:#FAFAFA;}
	.st18{display:none;}
	.st19{display:inline;fill:none;stroke:#5A4941;stroke-width:3.3163;stroke-miterlimit:10;}
	.st20{display:inline;fill:none;stroke:#F7ECDA;stroke-width:11.0544;stroke-linecap:round;stroke-miterlimit:10;}
	.st21{display:inline;}
	.st22{enable-background:new    ;}
	.st23{fill:#AAAAAA;}
	.st24{fill:#FFFFFF;}
</style>
<g id="Objects">
	<path class="st0" d="M49.9,734.1"/>
	<path class="st0" d="M60,734.1"/>
	<g>
		<path class="st1" d="M-73.5,159.4L-84.7,29.7c-0.2-1.8,1.3-3.3,3.1-3.2c41.9,1.6,69,0.6,78,0.1c1.8-0.1,3.2,1.4,3,3.2l-11.2,129.6
			c-0.2,2.2-1.7,4-3.8,4.5c-8.6,2.2-31.4,6.7-54.2,0.1C-71.8,163.3-73.3,161.5-73.5,159.4z"/>
		<g>
			<g>
				<path class="st2" d="M-36.2,23.5c8.5,12.7,23.2,10.7,30.6,7.7C1.8,28.3,9.9,10.6-6.3,1s-34.8,1.5-34.8,1.5
					c-20.6-9.2-28,6.6-28,6.6C-90.5,8-83.2,26.9-83.2,26.9l45.6,0.4"/>
				<g>
					<path class="st3" d="M-20.3,3.6c0,0,18.8,0.4,16.4,14.9c0,0-0.9,5.3-6.4,6.6"/>
					<path class="st3" d="M-71,16.4c0,0-2.5-0.9-5.3,2.2s-0.5,6.6-0.5,6.6"/>
				</g>
			</g>
			<g>
				<path class="st4" d="M-76.5,60.4l7.9,91.3c0.4,4.3,3.6,7.9,7.9,8.6c5.3,1,10.8,1.5,16.6,1.5c7.5,0,14.2-0.8,19.4-1.7
					c4.3-0.8,7.6-4.3,8-8.7l7.9-91.1C-40.2,63.1-64.7,61.6-76.5,60.4z"/>
				<g>
					<path class="st5" d="M-82,60.2c0,0,40.9,3.8,78.9,0"/>
					<g>
						<g>
							<g>
								<line class="st6" x1="-8.8" y1="32" x2="-16.8" y2="125.1"/>
								<polygon class="st7" points="-7.1,32.2 -16.8,125.1 -10.4,31.9 								"/>
							</g>
							<g>
								<line class="st6" x1="-15" y1="33.4" x2="-20.3" y2="101.2"/>
								<polygon class="st7" points="-13.4,33.5 -20.3,101.2 -16.7,33.3 								"/>
							</g>
						</g>
						<g>
							<path class="st8" d="M-63.1,38.8L-65,117l-9.1-77.7c-0.4-3,1.8-5.8,4.9-6.2c3-0.4,5.8,1.8,6.2,4.9
								C-63.1,38.3-63.1,38.5-63.1,38.8z"/>
						</g>
					</g>
				</g>
			</g>
		</g>
	</g>
	<g>
		<g>
			<g>
				<path class="st9" d="M-201.8,169c-15.3,0-27.6-2.2-35.2-4.1c-4.1-1-6.6-5-5.8-9.1c0.8-3.8,1.8-10,2.6-17.9l0.2-1.9l1.9,0.5
					c4.5,1.1,16.8,3.6,34.7,3.6c12.6,0,25.5-1.3,38.3-3.7l1.8-0.3l0.2,1.8c0.7,8,1.8,14.2,2.5,18c0.8,4.1-1.7,8.1-5.8,9.1
					C-177.9,167.6-189.8,169-201.8,169z"/>
				<path class="st7" d="M-164.9,137.8c0.7,7.9,1.7,14.1,2.6,18.1c0.7,3.3-1.4,6.4-4.6,7.2c-12.6,3.1-24.4,4.1-34.9,4.1
					c-15.6,0-28-2.4-34.8-4.1c-3.2-0.8-5.2-4-4.6-7.2c0.8-4.1,1.9-10.2,2.6-18.1c4.4,1.1,16.9,3.6,35.1,3.6
					C-192.5,141.6-179.5,140.6-164.9,137.8 M-241.6,133.8l-0.3,3.8c-0.7,7.9-1.8,14-2.5,17.7c-1,5,2.1,9.8,7,11.1
					c7.7,1.9,20.1,4.2,35.6,4.2c12.2,0,24.1-1.4,35.6-4.2c5-1.2,8.1-6.1,7.1-11.1c-0.8-3.7-1.8-9.9-2.5-17.8l-0.3-3.7l-3.6,0.7
					c-12.7,2.5-25.5,3.7-38,3.7c-17.7,0-29.9-2.5-34.3-3.5L-241.6,133.8L-241.6,133.8z"/>
			</g>
			<g>
				<path class="st9" d="M-150.1-8c-16.6-1.4-34-2.1-51.8-2.1c-25.5,0-44.6,1.5-51.6,2.1l-1.7,0.2l-0.1-1.8
					c-0.5-15.7-0.3-28.6-0.2-34.8c0.1-4,3.2-7.3,7.3-7.6c16.2-1.1,32.6-1.7,48.6-1.7c21.2,0,36.8,1,44.2,1.6c4,0.3,7.1,3.6,7.2,7.6
					c0.2,6.3,0.4,19.1-0.2,34.9l-0.1,1.7L-150.1-8z"/>
				<path class="st7" d="M-199.5-52.1c21,0,36.4,1,44.1,1.6c3.1,0.3,5.6,2.8,5.6,6c0.2,6.8,0.4,19.4-0.2,34.8
					c-18.8-1.6-36.5-2.1-51.9-2.1c-25.7,0-44.9,1.5-51.7,2.1c-0.5-15.3-0.3-27.9-0.2-34.7c0.1-3.2,2.6-5.8,5.7-6
					C-229.8-51.6-213.4-52.1-199.5-52.1 M-199.5-55.4v3.3V-55.4c-16.1,0-32.4,0.6-48.7,1.7c-4.9,0.3-8.7,4.3-8.8,9.2
					c-0.2,6.3-0.4,19.1,0.2,34.9l0.1,3.5l3.5-0.3c7-0.6,26-2.1,51.4-2.1c17.7,0,35.1,0.7,51.6,2.1l3.5,0.3l0.1-3.5
					c0.5-15.8,0.3-28.8,0.2-35c-0.1-4.8-3.9-8.8-8.7-9.2C-162.6-54.4-178.2-55.4-199.5-55.4L-199.5-55.4z"/>
			</g>
			<g>
				<path class="st9" d="M-203.5,143.2c-18.3,0-30.9-2.6-35.5-3.7l-1.4-0.3l0.1-1.4c1.4-15.5,1.6-39.9-5.3-67.9
					c-6.7-27.1-8.9-58.2-9.7-79.5l-0.1-1.6l1.6-0.1c7.1-0.6,26.3-2.1,51.9-2.1c17.8,0,35.3,0.7,52,2.1l1.6,0.1l-0.1,1.6
					c-0.7,21.3-3,52.3-9.7,79.4c-6.9,28-6.7,52.3-5.3,67.8l0.1,1.5l-1.5,0.3C-177.6,142-190.7,143.2-203.5,143.2L-203.5,143.2z"/>
				<path class="st7" d="M-201.8-11.7c15.4,0,33.2,0.5,51.9,2.1c-0.8,23.3-3.2,53-9.6,79.1c-6.8,27.6-6.8,51.7-5.3,68.4
					c-14.6,2.8-27.7,3.8-38.7,3.8c-18.1,0-30.7-2.6-35.1-3.6c1.5-16.6,1.5-40.8-5.3-68.5c-6.4-26.1-8.8-55.8-9.6-79.1
					C-246.7-10.3-227.5-11.7-201.8-11.7 M-201.8-15.1c-25.7,0-44.9,1.5-52,2.1l-3.1,0.3l0.1,3.1c0.7,21.4,3,52.6,9.7,79.8
					c6.9,27.8,6.6,52,5.3,67.4l-0.3,2.8l2.8,0.7c4.6,1.1,17.4,3.7,35.8,3.7c12.9,0,26.1-1.3,39.3-3.8l2.9-0.6l-0.3-3
					c-1.4-15.4-1.6-39.5,5.3-67.3c6.7-27.2,9-58.4,9.7-79.8l0.1-3.2l-3.1-0.3C-166.4-14.4-184-15.1-201.8-15.1L-201.8-15.1z"/>
			</g>
		</g>
		<g>
			<g>
				<path class="st1" d="M-249.9-50.4c-6.8,1.7-13.4,0.6-16-4.4c-4.7-9.1,4.7-17.7,4.7-17.7c19.9-17.7,55.8,0.8,55.8,0.8
					c19.6-11.6,32.1,1.7,32.1,1.7s22-1.2,20.7,18.3c0,0-34.1-4.2-92.5-0.3C-245.2-52.1-247.8-52.4-249.9-50.4z"/>
				<g>
					<path class="st2" d="M-256-49.7c0,0,16-1.8,26.3-13.4"/>
					<g>
						<path class="st2" d="M-246.9-73.6c0,0-14.2,4.9-14.1,14.9"/>
						<path class="st2" d="M-158.1-52.3c0,0,0.6-8.1-7.7-10.8"/>
					</g>
				</g>
			</g>
			<g>
				<g>
					<path class="st10" d="M-201.8,162.9c-12.7,0-23.3-1.7-30-3.1c-3-0.6-4.9-3.5-4.4-6.4c0.3-1.8,0.6-3.8,1-6.1
						c0.3-2.1,2.3-3.6,4.4-3.3c6.5,1,15.8,2,27.3,2c10.2,0,20.5-0.8,30.9-2.4c2.1-0.3,4.1,1.2,4.4,3.3c0.6,4.1,1.2,7.5,1.7,9.9
						c0.2,0.9-0.4,1.8-1.3,2C-178.9,161.5-190.2,162.9-201.8,162.9z"/>
					<path class="st11" d="M-154.3-9.9c-44.2-3.5-82.2-1-94.8,0c0.8,22.5,3.1,51.3,9.5,76.4c6,23.6,6.8,44.7,6,60.1
						c-0.1,2.6,1.8,4.8,4.4,5.2c6.1,0.9,14.9,1.8,25.7,1.8l0,0c9.6,0,19.4-0.7,29.2-2.2c2.6-0.4,4.6-2.6,4.4-5.2
						c-0.7-15.3,0.1-36.3,6-59.8C-157.5,41.4-155.1,12.6-154.3-9.9z"/>
				</g>
				<g>
					<g>
						<path class="st8" d="M-233.8-40.6c0,0-0.1,0.5-0.2,1.3s-0.3,2.2-0.5,3.7c-0.2,1.6-0.4,3.5-0.6,5.7s-0.4,4.7-0.6,7.5
							c-0.2,2.7-0.4,5.7-0.5,8.9s-0.2,6.5-0.3,10s-0.1,7,0,10.7c0,3.6,0.1,7.3,0.2,11.1c0.5,14.8,1.6,29.7,2.8,40.8
							c0.1,1.4,0.3,2.7,0.4,3.9c0.2,1.3,0.4,2.4,0.6,3.6c0.4,2.2,0.7,4.2,1,5.8c0.6,3.2,0.9,5.1,0.9,5.1s-0.5-1.8-1.4-4.9
							c-0.4-1.6-1-3.5-1.6-5.7c-0.3-1.1-0.6-2.3-1-3.5c-0.3-1.3-0.6-2.6-0.9-4c-2.3-11-5-25.7-7-40.6c-0.5-3.7-1-7.4-1.4-11.1
							s-0.8-7.3-1.1-10.8s-0.5-6.9-0.7-10.2c-0.2-3.2-0.3-6.3-0.4-9.2c-0.1-2.8-0.1-5.5-0.1-7.8s0-4.4,0-6.1s0.1-2.9,0.1-3.8
							s0-1.3,0-1.3c0.1-3.4,2.9-6,6.3-5.9s6,2.9,5.9,6.3C-233.8-41-233.8-40.8-233.8-40.6z"/>
					</g>
					<g>
						<g>
							<path class="st7" d="M-155.1-52.3c0,0,0,1.8,0.1,4.8c0,3.1,0,7.5,0,12.8c-0.1,5.3-0.2,11.4-0.5,18c-0.1,3.3-0.3,6.7-0.5,10.2
								s-0.5,7-0.8,10.5s-0.6,7-1,10.5c-0.4,3.4-0.8,6.8-1.2,10.1s-0.9,6.4-1.3,9.4c-0.5,3-0.9,5.8-1.4,8.4c-1,5.2-1.9,9.5-2.6,12.5
								c-0.7,3-1.1,4.7-1.1,4.7s0.4-1.7,1-4.7s1.4-7.3,2.2-12.5c0.4-2.6,0.8-5.4,1.2-8.4s0.7-6.2,1.1-9.4c0.3-3.3,0.6-6.7,0.9-10.1
								c0.3-3.4,0.5-6.9,0.7-10.4s0.3-7,0.4-10.5c0.1-3.4,0.2-6.8,0.2-10.1c0.1-6.6,0.1-12.7,0-18s-0.2-9.6-0.3-12.7
								s-0.2-4.8-0.2-4.8L-155.1-52.3z"/>
						</g>
						<g>
							<path class="st7" d="M-161-52.3c0,0,0.1,4.9,0.1,12.3s-0.3,17.3-0.8,27.1s-1.3,19.7-2.1,27s-1.5,12.2-1.5,12.2
								s0.5-4.9,1-12.3s0.9-17.2,1-27s-0.1-19.7-0.4-27c-0.3-7.4-0.6-12.3-0.6-12.3H-161z"/>
						</g>
					</g>
				</g>
				<g>
					<circle class="st12" cx="-212.8" cy="22" r="2.4"/>
					<circle class="st12" cx="-218.5" cy="45.4" r="1.5"/>
				</g>
			</g>
		</g>
	</g>
	<g>
		<g>
			<path class="st0" d="M-151.7,370.7l2.9-31.2c0.3-3-2.1-5.5-5.1-5.5h-97.8c-3,0-5.3,2.6-5.1,5.5l2.9,31.2c-5,1.6-8.4,8.1-7.7,15.5
				s5.2,13.1,10.4,13.8l10.4,111.7c0.2,2.3,1.9,4.1,4.2,4.5c27.4,4.9,56.9,1.4,67.4-0.1c2.3-0.3,4.1-2.2,4.3-4.6l10.4-111.6
				c5.2-0.7,9.7-6.4,10.4-13.8C-143.3,378.8-146.7,372.3-151.7,370.7z"/>
			<g>
				<path class="st0" d="M-153.9,333.9c0,0,3.8-19-11.3-30.3c-15.1-11.2-35.9-1.3-37.6,5.6c0,0-13.4-16-26.8,2.2
					c0,0-22.6,0-22.1,22.5L-153.9,333.9L-153.9,333.9z"/>
				<g>
					<path class="st13" d="M-215.7,309.3c4.1,0,7.9,4.1,7.9,4.2c1.2,1.5,3.1,2.3,5,2.3c0.5,0,1-0.1,1.5-0.2c1.8-0.4,3.4-1.6,4.3-3.3
						c1.1-2,2.8-3.5,4.8-4.5c2.9-1.5,6.9-2.8,11.4-2.8s8.5,1.3,11.9,3.8c3,2.2,5.1,4.9,6.4,7.6"/>
					<path class="st13" d="M-244.4,327.5c0.6-1.9,1.5-3.5,2.8-4.8c4.4-4.5,11.9-4.7,12-4.7"/>
				</g>
			</g>
		</g>
		<g>
			<path class="st14" d="M-254.7,387.8c0.9,3.4,3,5.5,4.3,5.7c3,0.4,5.3,2.8,5.6,5.8l9.8,105.6c0.3,3,2.6,5.4,5.5,5.8
				c7.4,1,15.4,1.5,24,1.5l0,0c11.5,0,21.8-0.9,29-1.7c3-0.4,5.4-2.8,5.7-5.8l9.8-105.4c0.3-3,2.6-5.4,5.6-5.8
				c1.4-0.2,3.5-2.3,4.4-5.8C-209.6,392-246.3,388.7-254.7,387.8z"/>
			<g>
				<path class="st13" d="M-261.5,386.2c0,0,40.9,7.7,117.5,0"/>
				<g>
					<g>
						<circle class="st5" cx="-212" cy="403.6" r="3.7"/>
						<circle class="st5" cx="-208.3" cy="423.9" r="2.8"/>
						<circle class="st5" cx="-212" cy="435.3" r="1.2"/>
					</g>
					<g>
						<g>
							<g>
								<line class="st6" x1="-159.8" y1="333.2" x2="-169.2" y2="442.4"/>
								<polygon class="st7" points="-158.1,333.3 -169.2,442.4 -161.4,333 								"/>
							</g>
							<g>
								<line class="st6" x1="-167.3" y1="334.8" x2="-173.1" y2="414.4"/>
								<polygon class="st7" points="-165.7,334.9 -173.1,414.4 -169,334.7 								"/>
							</g>
						</g>
						<g>
							<path class="st8" d="M-231.5,349.1l1.9,125.8l-12.9-125.2c-0.3-3,1.9-5.8,4.9-6.1s5.8,1.9,6.1,4.9
								C-231.5,348.7-231.5,348.9-231.5,349.1z"/>
						</g>
					</g>
				</g>
			</g>
		</g>
	</g>
	<g>
		<g>
			<g>
				<g>
					<path class="st0" d="M-78.6,517.6c-1.1,0-1.9-0.9-1.9-1.9l0,0c0-1.1,0.8-2.1,1.9-2.3c33.2-5.9,30.8-34.3,30.8-34.3v-26
						c4.6,0,13.4,0,13.4,0V479c0,0-2.4,28.4,30.8,34.3c1.1,0.2,1.9,1.2,1.9,2.3l0,0c0,1.1-0.9,1.9-1.9,1.9
						C-3.6,517.6-42.3,521.5-78.6,517.6z"/>
					<g>
						<path class="st9" d="M-74.9,512.6c0,0,25.7,2.4,53.9,1"/>
						<path class="st7" d="M-74.7,511c0,0,3.3,0.4,8.3,0.9s11.7,1,18.5,1.3c3.4,0.2,6.7,0.3,9.9,0.4c3.2,0.1,6.1,0.1,8.6,0.1
							s4.6,0,6.1,0s2.3,0,2.3,0s-0.8,0.1-2.3,0.2c-1.5,0.1-3.6,0.3-6.1,0.4c-2.5,0.2-5.5,0.3-8.6,0.4c-3.2,0.1-6.5,0.2-9.9,0.2
							c-6.8,0.1-13.5,0-18.6-0.2s-8.5-0.4-8.5-0.4c-0.9-0.1-1.6-0.8-1.6-1.8C-76.6,511.5-75.8,510.9-74.7,511
							C-74.8,511-74.7,511-74.7,511z"/>
					</g>
				</g>
				<g>
					<path class="st9" d="M-39.2,454.3v24.4c-0.4,5.6,0.8,14,5.8,21.7"/>
					<path class="st7" d="M-37.6,454.3l-0.9,24.4v0.1l0,0c-0.4,3.7-0.1,7.5,0.8,11.1c0.2,0.9,0.5,1.8,0.7,2.7
						c0.1,0.5,0.3,0.9,0.5,1.3c0.1,0.4,0.3,0.9,0.5,1.3s0.4,0.9,0.6,1.3s0.4,0.9,0.6,1.3c0.4,0.9,0.9,1.7,1.4,2.5
						c-0.5-0.8-1.1-1.6-1.5-2.4c-0.3-0.4-0.5-0.8-0.7-1.2s-0.4-0.8-0.7-1.3c-0.2-0.4-0.4-0.9-0.6-1.3s-0.4-0.9-0.6-1.3
						c-0.4-0.9-0.7-1.8-1-2.7c-1.1-3.7-1.7-7.5-1.6-11.4v0.1l-0.9-24.4c0-0.9,0.7-1.7,1.6-1.7C-38.5,452.7-37.7,453.4-37.6,454.3
						L-37.6,454.3z"/>
				</g>
			</g>
			<g>
				<path class="st0" d="M-78,325.1c-1.2-17.9,17-16.4,17-16.4s3.3-10.6,17-10.3c13.7,0.3,17.3,11.6,17.3,11.6
					c24-0.9,21.9,15.2,21.9,15.2H-78V325.1z"/>
				<g>
					<path class="st13" d="M-71.2,319c0.3-0.6,0.6-1.1,1-1.6c2.4-2.5,6.8-2.7,8.1-2.7c0.3,0,0.5,0,0.6,0c0.2,0,0.3,0,0.5,0
						c2.7,0,5.1-1.6,5.8-4.3c2.1-5.8,9.2-6.1,10.7-6.1h0.4c4.3,0.1,7.1,1.7,8.9,3.4"/>
					<path class="st13" d="M-24.7,316c5.4,0,9.5,1.1,11.7,3.1"/>
				</g>
			</g>
			<path class="st0" d="M-81.6,325.1c0,0,3.2,18.7-7.3,56.8s1.2,64.6,34.5,70c16.6,2.7,26.7,0,26.7,0c33.2-5.4,45-31.9,34.5-70
				c-10.6-38.1-7.4-56.8-7.4-56.8H-81.6z"/>
		</g>
		<g>
			<path class="st7" d="M0.9,383.5c-2.5-8.9-4.2-16.8-5.4-23.7c-32.3,1.8-61,0.7-73.1,0c-1.2,6.9-2.9,14.7-5.4,23.6
				c-5.4,19.6-4.6,35.7,2.4,46.6c5.4,8.5,14.6,13.8,27.2,15.8c4.6,0.8,9.1,1.1,13.3,1.1l0,0c6.8,0,10.8-1,10.8-1
				c0.2-0.1,0.4-0.1,0.6-0.1c12.6-2,21.7-7.4,27.2-15.8C5.5,419.2,6.3,403.1,0.9,383.5z"/>
			<g>
				<path class="st13" d="M-83.7,359.5c0,0,39.9,3,85.3,0"/>
				<g>
					<g>
						<path class="st8" d="M-60.6,340.3c0,0-0.2,1.5-0.5,4.2s-0.8,6.5-1.7,11.1s-2.1,9.9-3.8,15.4c-0.9,2.8-1.9,5.6-3.1,8.5
							c-0.3,0.7-0.6,1.4-0.9,2.1s-0.6,1.4-0.9,2c-0.3,0.7-0.6,1.4-0.9,2l-0.8,2c-2.1,5.4-3.3,11.1-3.7,16.5s0.1,10.6,1.2,14.9
							s2.7,7.7,4.3,9.7c0.8,1,1.5,1.7,2.1,2.1c0.3,0.2,0.5,0.3,0.7,0.4c0.2,0.1,0.2,0.1,0.2,0.1s-0.1,0-0.3-0.1
							c-0.2-0.1-0.4-0.2-0.7-0.4c-0.6-0.3-1.5-1-2.4-1.9c-1.9-1.9-4-5.2-5.6-9.5s-2.8-9.6-3.1-15.4c-0.3-5.8,0.4-12.1,1.9-18.1
							l0.6-2.3c0.2-0.8,0.4-1.4,0.7-2.2c0.2-0.7,0.5-1.4,0.7-2.1s0.4-1.4,0.6-2.1c0.8-2.7,1.4-5.5,1.9-8.1c1-5.3,1.6-10.4,1.9-14.8
							s0.4-8,0.4-10.5c0-2.6,0-4,0-4v-0.1c0-3.1,2.4-5.6,5.5-5.6c3.1,0,5.6,2.4,5.6,5.5C-60.6,339.9-60.6,340.1-60.6,340.3z"/>
					</g>
					<g>
						<g>
							<path class="st7" d="M-7.8,325.2c0,0,0,0.4-0.1,1.1c0,0.8-0.1,1.9-0.1,3.3s-0.1,3.2,0,5.2c0,2,0.1,4.2,0.2,6.7
								c0.1,1.2,0.2,2.5,0.3,3.8c0.1,1.3,0.2,2.7,0.4,4.1c0.1,1.4,0.3,2.8,0.5,4.3c0.2,1.5,0.4,3,0.6,4.5c0.2,1.5,0.5,3.1,0.7,4.6
								c0.3,1.6,0.5,3.2,0.9,4.7c0.6,3.2,1.3,6.4,2.1,9.6s1.5,6.4,2.2,9.6c0.3,1.6,0.7,3.2,1,4.8c0.3,1.6,0.6,3.1,0.8,4.7
								c0.5,3.1,0.9,6.1,1,8.9c0.1,2.9,0.1,5.6-0.3,8.1c-0.3,2.5-0.9,4.7-1.6,6.6c-0.2,0.5-0.3,0.9-0.5,1.4
								c-0.2,0.4-0.4,0.9-0.5,1.3c-0.3,0.8-0.7,1.5-1,2.2c-0.6,1.3-1.2,2.3-1.5,3c-0.4,0.7-0.6,1-0.6,1s0.2-0.4,0.5-1.1
								c0.3-0.7,0.9-1.7,1.4-3c0.3-0.7,0.6-1.4,0.9-2.2c0.2-0.4,0.3-0.8,0.5-1.3c0.1-0.4,0.3-0.9,0.4-1.4c0.6-1.9,1.1-4.1,1.4-6.6
								c0.3-2.4,0.2-5.1,0-7.9s-0.7-5.8-1.3-8.8c-0.3-1.5-0.6-3-1-4.6c-0.4-1.5-0.7-3.1-1.1-4.7c-0.8-3.1-1.6-6.3-2.5-9.5
								c-0.8-3.2-1.7-6.4-2.4-9.6c-0.4-1.6-0.7-3.2-1-4.8c-0.3-1.6-0.6-3.1-0.9-4.7c-0.3-1.5-0.5-3-0.8-4.5
								c-0.2-1.5-0.5-2.9-0.6-4.4c-0.2-1.4-0.4-2.8-0.5-4.1c-0.1-1.3-0.3-2.6-0.4-3.9c-0.2-2.5-0.4-4.8-0.5-6.8
								c-0.1-2-0.1-3.8-0.2-5.3c0-1.5,0-2.6,0-3.4s0-1.2,0-1.2L-7.8,325.2z"/>
						</g>
						<g>
							<path class="st7" d="M-14.6,325.3c0,0,0,0.3,0,0.7c0,0.5-0.1,1.2-0.1,2.1c-0.1,1.8-0.1,4.4,0,7.6c0.2,6.3,0.8,14.6,2.1,22.9
								c0.3,2.1,0.7,4.1,1,6.2c0.4,2,0.8,4,1.2,6c0.9,3.9,1.7,7.4,2.4,10.5c1.4,6.2,2.4,10.3,2.4,10.3s-1.1-4.1-2.9-10.2
								c-0.9-3-1.9-6.6-2.9-10.4c-0.5-1.9-1-3.9-1.5-5.9s-1-4.1-1.3-6.2c-1.7-8.3-2.8-16.7-3.3-23.1c-0.2-3.2-0.3-5.8-0.4-7.7
								c0-0.9,0-1.7,0-2.2s0-0.8,0-0.8L-14.6,325.3z"/>
						</g>
					</g>
				</g>
				<g>
					<circle class="st15" cx="-47.4" cy="383.4" r="1.3"/>
					<circle class="st7" cx="-53.2" cy="397.5" r="1.5"/>
				</g>
			</g>
		</g>
	</g>
</g>
<g id="Background">
	<g>
		<path class="st16" d="M-244.7,585.2c0.1-0.1,0.2-0.1,0.3-0.1h0.4c0.1,0,0.2,0,0.3,0.1s0.1,0.2,0.1,0.3v0.2L-248,598
			c-0.1,0.3-0.3,0.5-0.6,0.5h-0.5c-0.3,0-0.5-0.2-0.6-0.5l-4.4-12.3v-0.2c0-0.1,0-0.2,0.1-0.3s0.2-0.1,0.3-0.1h0.4
			c0.1,0,0.2,0,0.3,0.1s0.1,0.1,0.1,0.2l4.2,11.6l4.2-11.6C-244.8,585.4-244.7,585.3-244.7,585.2z"/>
		<path class="st16" d="M-234.4,593.5c0,0.4,0,0.7,0,0.8c0,1.3-0.4,2.3-1.1,3.1s-1.8,1.2-3.1,1.2s-2.3-0.4-3.1-1.2
			c-0.7-0.8-1.1-1.8-1.1-3.1v-0.8v-0.8c0-1.3,0.4-2.3,1.1-3.1s1.8-1.2,3.1-1.2s2.3,0.4,3.1,1.2c0.7,0.8,1.1,1.8,1.1,3.1
			C-234.4,592.8-234.4,593.1-234.4,593.5z M-240.8,590.3c-0.6,0.6-0.8,1.4-0.9,2.5v0.7v0.7c0,1.1,0.3,1.9,0.9,2.5s1.3,0.9,2.2,0.9
			s1.6-0.3,2.2-0.9c0.6-0.6,0.8-1.4,0.9-2.5c0-0.1,0-0.4,0-0.7s0-0.6,0-0.7c0-1.1-0.3-1.9-0.9-2.5s-1.3-0.9-2.2-0.9
			S-240.2,589.8-240.8,590.3z"/>
		<path class="st16" d="M-230.7,598.3c-0.1,0.1-0.2,0.1-0.3,0.1h-0.3c-0.1,0-0.2,0-0.3-0.1s-0.1-0.2-0.1-0.3v-12.7
			c0-0.1,0-0.2,0.1-0.3s0.2-0.1,0.3-0.1h0.3c0.1,0,0.2,0,0.3,0.1s0.1,0.2,0.1,0.3V598C-230.6,598.1-230.6,598.2-230.7,598.3z"/>
		<path class="st16" d="M-226,598.3c-0.1,0.1-0.2,0.1-0.3,0.1h-0.9c-0.1,0-0.2,0-0.3-0.1s-0.1-0.2-0.1-0.3v-0.9c0-0.1,0-0.2,0.1-0.3
			s0.2-0.1,0.3-0.1h0.9c0.1,0,0.2,0,0.3,0.1s0.1,0.2,0.1,0.3v0.9C-225.9,598.1-225.9,598.2-226,598.3z"/>
		<path class="st16" d="M-217.3,595.1l-1.2,3c0,0.1-0.1,0.1-0.1,0.2c-0.1,0.1-0.2,0.1-0.3,0.1h-0.4c-0.1,0-0.2,0-0.3-0.1
			s-0.1-0.2-0.1-0.3v-0.2l4.8-12.3c0.1-0.3,0.3-0.4,0.6-0.4h0.6c0.3,0,0.4,0.1,0.6,0.4l4.8,12.3v0.2c0,0.1,0,0.2-0.1,0.3
			s-0.2,0.1-0.3,0.1h-0.4c-0.1,0-0.2,0-0.3-0.1s-0.1-0.1-0.1-0.2l-1.2-3H-217.3z M-211,594l-2.9-7.5l-2.9,7.5H-211z"/>
		<path class="st16" d="M-205.1,598.3c-0.1,0.1-0.2,0.1-0.3,0.1h-0.3c-0.1,0-0.2,0-0.3-0.1s-0.1-0.2-0.1-0.3v-12.7
			c0-0.1,0-0.2,0.1-0.3s0.2-0.1,0.3-0.1h0.3c0.1,0,0.2,0,0.3,0.1s0.1,0.2,0.1,0.3V598C-205,598.1-205.1,598.2-205.1,598.3z"/>
		<path class="st16" d="M-200.4,596.7c0.5,0.6,1.3,0.8,2.2,0.8c0.7,0,1.3-0.1,1.7-0.4c0.5-0.3,0.8-0.8,1.1-1.5
			c0.1-0.2,0.1-0.3,0.2-0.3c0.1-0.1,0.1-0.1,0.3-0.1h0.3c0.1,0,0.2,0,0.3,0.1s0.1,0.2,0.1,0.3c0,0.5-0.2,1-0.5,1.4
			c-0.3,0.5-0.7,0.8-1.3,1.1s-1.3,0.4-2.1,0.4c-1.3,0-2.3-0.4-3.1-1.2c-0.7-0.8-1.1-1.8-1.1-3.2v-0.8v-0.8c0-1.4,0.4-2.5,1.1-3.2
			c0.7-0.8,1.7-1.1,3.1-1.1c0.8,0,1.5,0.1,2.1,0.4c0.6,0.3,1,0.7,1.3,1.1c0.3,0.5,0.4,0.9,0.5,1.4c0,0.1,0,0.2-0.1,0.3
			s-0.2,0.1-0.3,0.1h-0.3c-0.1,0-0.2,0-0.3-0.1s-0.1-0.2-0.2-0.3c-0.3-0.7-0.6-1.2-1.1-1.5s-1-0.4-1.7-0.4c-0.9,0-1.6,0.3-2.2,0.8
			c-0.5,0.6-0.8,1.4-0.9,2.5v0.7v0.7C-201.2,595.3-200.9,596.1-200.4,596.7z"/>
		<path class="st16" d="M-190.2,598.3c-0.1,0.1-0.2,0.1-0.3,0.1h-0.9c-0.1,0-0.2,0-0.3-0.1s-0.1-0.2-0.1-0.3v-0.9
			c0-0.1,0-0.2,0.1-0.3s0.2-0.1,0.3-0.1h0.9c0.1,0,0.2,0,0.3,0.1s0.1,0.2,0.1,0.3v0.9C-190.1,598.1-190.2,598.2-190.2,598.3z"/>
		<path class="st16" d="M-177.9,585.5C-177.9,585.5-177.9,585.4-177.9,585.5c0.2-0.2,0.2-0.2,0.3-0.3s0.2-0.1,0.3-0.1h0.4
			c0.1,0,0.2,0,0.3,0.1s0.1,0.2,0.1,0.3s0,0.1-0.1,0.2l-2.9,4c0.4-0.1,0.8-0.2,1.3-0.2c1,0,1.8,0.2,2.5,0.6c0.7,0.4,1.2,1,1.6,1.6
			c0.4,0.7,0.5,1.4,0.5,2.2s-0.2,1.5-0.5,2.2c-0.4,0.7-0.9,1.2-1.6,1.7c-0.7,0.4-1.5,0.6-2.5,0.6s-1.8-0.2-2.5-0.6
			c-0.7-0.4-1.2-1-1.6-1.7s-0.5-1.4-0.5-2.2c0-1.1,0.4-2.2,1.2-3.4L-177.9,585.5z M-179.9,591.2c-0.5,0.3-0.9,0.6-1.3,1.1
			c-0.3,0.5-0.5,1.1-0.5,1.8s0.2,1.3,0.5,1.8s0.7,0.9,1.3,1.1c0.5,0.3,1.1,0.4,1.7,0.4s1.2-0.1,1.7-0.4c0.5-0.3,0.9-0.6,1.3-1.1
			c0.3-0.5,0.5-1.1,0.5-1.8s-0.2-1.3-0.5-1.8s-0.7-0.9-1.3-1.1c-0.5-0.3-1.1-0.4-1.7-0.4S-179.4,590.9-179.9,591.2z"/>
		<path class="st16" d="M-170.8,596.7h0.9c0.1,0,0.2,0,0.2,0.1c0.1,0.1,0.1,0.1,0.1,0.2c0,0.1,0,0.2-0.1,0.3l-0.8,2.1
			c-0.1,0.1-0.1,0.2-0.2,0.3c-0.1,0.1-0.2,0.1-0.3,0.1h-0.3c-0.1,0-0.2,0-0.2-0.1c-0.1-0.1-0.1-0.2,0-0.3l0.4-2.3
			C-171.3,596.8-171.1,596.7-170.8,596.7z"/>
		<path class="st16" d="M-164.3,598.1C-164.3,598.1-164.3,598.2-164.3,598.1c-0.2,0.1-0.2,0.2-0.3,0.3c-0.1,0-0.2,0.1-0.3,0.1h-0.4
			c-0.1,0-0.2,0-0.3-0.1s-0.1-0.2-0.1-0.3s0-0.2,0.1-0.2l3-4.2c-0.4,0.1-0.8,0.2-1.2,0.2c-1,0-1.8-0.2-2.5-0.6s-1.2-1-1.5-1.6
			c-0.3-0.7-0.5-1.4-0.5-2.1c0-0.7,0.2-1.4,0.5-2.1c0.3-0.7,0.9-1.2,1.5-1.6c0.7-0.4,1.5-0.6,2.5-0.6s1.8,0.2,2.5,0.6
			c0.7,0.4,1.2,1,1.5,1.6c0.3,0.7,0.5,1.4,0.5,2.1c0,0.7-0.1,1.2-0.3,1.7s-0.5,1-0.8,1.4L-164.3,598.1z M-162.2,592.2
			c0.5-0.3,0.9-0.6,1.2-1.1s0.5-1.1,0.5-1.7c0-0.6-0.2-1.2-0.5-1.7s-0.7-0.9-1.2-1.1c-0.5-0.3-1.1-0.4-1.7-0.4s-1.1,0.1-1.7,0.4
			c-0.5,0.3-0.9,0.6-1.2,1.1s-0.4,1.1-0.4,1.7c0,0.6,0.1,1.2,0.4,1.7c0.3,0.5,0.7,0.9,1.2,1.1c0.5,0.3,1.1,0.4,1.7,0.4
			S-162.7,592.4-162.2,592.2z"/>
		<path class="st16" d="M-152.7,591.1c-0.5,0.4-1.1,0.7-1.9,0.7c-0.8,0-1.4-0.2-1.9-0.7c-0.5-0.4-0.7-1-0.8-1.8c0-0.2,0-0.5,0-0.8
			c0-0.4,0-0.6,0-0.9c0-0.8,0.3-1.4,0.7-1.9s1.1-0.7,1.9-0.7s1.5,0.2,1.9,0.7s0.7,1.1,0.7,1.9c0,0.5,0,0.7,0,0.9c0,0.1,0,0.4,0,0.8
			C-152,590.1-152.2,590.7-152.7,591.1z M-155.5,598.3c-0.1,0.1-0.2,0.1-0.4,0.1h-0.3c-0.1,0-0.2,0-0.3-0.1s-0.1-0.2-0.1-0.3
			s0-0.1,0.1-0.2l9.4-12.4c0.1-0.1,0.2-0.2,0.3-0.3s0.2-0.1,0.4-0.1h0.3c0.1,0,0.2,0,0.3,0.1s0.1,0.2,0.1,0.3s0,0.1-0.1,0.2
			l-9.4,12.3C-155.4,598.2-155.5,598.3-155.5,598.3z M-153.4,590.4c0.2-0.3,0.4-0.7,0.4-1.1c0-0.5,0-0.7,0-0.8s0-0.3,0-0.8
			c0-0.4-0.2-0.8-0.4-1.1s-0.6-0.5-1.1-0.5s-0.9,0.2-1.1,0.5s-0.4,0.7-0.4,1.1c0,0.2,0,0.5,0,0.8s0,0.6,0,0.8c0,0.4,0.2,0.8,0.4,1.1
			s0.6,0.5,1.1,0.5C-154.1,590.8-153.7,590.7-153.4,590.4z M-146,597.9c-0.5,0.5-1.1,0.7-1.9,0.7s-1.4-0.2-1.9-0.7s-0.7-1.1-0.8-1.9
			c0-0.2,0-0.5,0-0.8c0-0.4,0-0.6,0-0.9c0-0.8,0.3-1.4,0.7-1.9s1.1-0.7,1.9-0.7s1.5,0.2,1.9,0.7s0.7,1.1,0.7,1.9c0,0.5,0,0.7,0,0.9
			c0,0.1,0,0.4,0,0.8C-145.2,596.8-145.5,597.4-146,597.9z M-146.7,597c0.2-0.3,0.4-0.7,0.4-1.1c0-0.5,0-0.7,0-0.8s0-0.3,0-0.8
			c0-0.4-0.2-0.8-0.4-1.1s-0.6-0.5-1.1-0.5s-0.9,0.2-1.1,0.5s-0.4,0.7-0.4,1.1c0,0.2,0,0.5,0,0.8s0,0.6,0,0.8c0,0.4,0.2,0.8,0.4,1.1
			s0.6,0.5,1.1,0.5S-147,597.3-146.7,597z"/>
	</g>
	<g>
		<path class="st16" d="M-85.7,585.2c0.1-0.1,0.2-0.1,0.3-0.1h0.4c0.1,0,0.2,0,0.3,0.1s0.1,0.2,0.1,0.3v0.2L-89,598
			c-0.1,0.3-0.3,0.5-0.6,0.5h-0.5c-0.3,0-0.5-0.2-0.6-0.5l-4.4-12.3v-0.2c0-0.1,0-0.2,0.1-0.3s0.2-0.1,0.3-0.1h0.4
			c0.1,0,0.2,0,0.3,0.1s0.1,0.1,0.1,0.2l4.2,11.6l4.2-11.6C-85.9,585.4-85.8,585.3-85.7,585.2z"/>
		<path class="st16" d="M-75.4,593.5c0,0.4,0,0.7,0,0.8c0,1.3-0.4,2.3-1.1,3.1s-1.8,1.2-3.1,1.2c-1.3,0-2.3-0.4-3.1-1.2
			c-0.7-0.8-1.1-1.8-1.1-3.1v-0.8v-0.8c0-1.3,0.4-2.3,1.1-3.1s1.8-1.2,3.1-1.2c1.3,0,2.3,0.4,3.1,1.2c0.7,0.8,1.1,1.8,1.1,3.1
			C-75.4,592.8-75.4,593.1-75.4,593.5z M-81.8,590.3c-0.6,0.6-0.8,1.4-0.9,2.5v0.7v0.7c0,1.1,0.3,1.9,0.9,2.5s1.3,0.9,2.2,0.9
			s1.6-0.3,2.2-0.9c0.6-0.6,0.8-1.4,0.9-2.5c0-0.1,0-0.4,0-0.7s0-0.6,0-0.7c0-1.1-0.3-1.9-0.9-2.5s-1.3-0.9-2.2-0.9
			S-81.3,589.8-81.8,590.3z"/>
		<path class="st16" d="M-71.8,598.3c-0.1,0.1-0.2,0.1-0.3,0.1h-0.3c-0.1,0-0.2,0-0.3-0.1s-0.1-0.2-0.1-0.3v-12.7
			c0-0.1,0-0.2,0.1-0.3s0.2-0.1,0.3-0.1h0.3c0.1,0,0.2,0,0.3,0.1s0.1,0.2,0.1,0.3V598C-71.6,598.1-71.7,598.2-71.8,598.3z"/>
		<path class="st16" d="M-67.1,598.3c-0.1,0.1-0.2,0.1-0.3,0.1h-0.9c-0.1,0-0.2,0-0.3-0.1s-0.1-0.2-0.1-0.3v-0.9
			c0-0.1,0-0.2,0.1-0.3s0.2-0.1,0.3-0.1h0.9c0.1,0,0.2,0,0.3,0.1s0.1,0.2,0.1,0.3v0.9C-66.9,598.1-67,598.2-67.1,598.3z"/>
		<path class="st16" d="M-58.4,595.1l-1.2,3c0,0.1-0.1,0.1-0.1,0.2c-0.1,0.1-0.2,0.1-0.3,0.1h-0.4c-0.1,0-0.2,0-0.3-0.1
			s-0.1-0.2-0.1-0.3v-0.2l4.8-12.3c0.1-0.3,0.3-0.4,0.6-0.4h0.6c0.3,0,0.4,0.1,0.6,0.4l4.8,12.3v0.2c0,0.1,0,0.2-0.1,0.3
			s-0.2,0.1-0.3,0.1h-0.4c-0.1,0-0.2,0-0.3-0.1s-0.1-0.1-0.1-0.2l-1.2-3H-58.4z M-52.1,594l-2.9-7.5l-2.9,7.5H-52.1z"/>
		<path class="st16" d="M-46.2,598.3c-0.1,0.1-0.2,0.1-0.3,0.1h-0.3c-0.1,0-0.2,0-0.3-0.1s-0.1-0.2-0.1-0.3v-12.7
			c0-0.1,0-0.2,0.1-0.3s0.2-0.1,0.3-0.1h0.3c0.1,0,0.2,0,0.3,0.1s0.1,0.2,0.1,0.3V598C-46.1,598.1-46.1,598.2-46.2,598.3z"/>
		<path class="st16" d="M-41.4,596.7c0.5,0.6,1.3,0.8,2.2,0.8c0.7,0,1.3-0.1,1.7-0.4c0.5-0.3,0.8-0.8,1.1-1.5
			c0.1-0.2,0.1-0.3,0.2-0.3c0.1-0.1,0.1-0.1,0.3-0.1h0.3c0.1,0,0.2,0,0.3,0.1s0.1,0.2,0.1,0.3c0,0.5-0.2,1-0.5,1.4
			c-0.3,0.5-0.7,0.8-1.3,1.1s-1.3,0.4-2.1,0.4c-1.3,0-2.3-0.4-3.1-1.2c-0.7-0.8-1.1-1.8-1.1-3.2v-0.8v-0.8c0-1.4,0.4-2.5,1.1-3.2
			c0.7-0.8,1.7-1.1,3.1-1.1c0.8,0,1.5,0.1,2.1,0.4c0.6,0.3,1,0.7,1.3,1.1c0.3,0.5,0.4,0.9,0.5,1.4c0,0.1,0,0.2-0.1,0.3
			c-0.1,0.1-0.2,0.1-0.3,0.1h-0.3c-0.1,0-0.2,0-0.3-0.1s-0.1-0.2-0.2-0.3c-0.3-0.7-0.6-1.2-1.1-1.5s-1-0.4-1.7-0.4
			c-0.9,0-1.6,0.3-2.2,0.8c-0.5,0.6-0.8,1.4-0.9,2.5v0.7v0.7C-42.3,595.3-42,596.1-41.4,596.7z"/>
		<path class="st16" d="M-31.3,598.3c-0.1,0.1-0.2,0.1-0.3,0.1h-0.9c-0.1,0-0.2,0-0.3-0.1s-0.1-0.2-0.1-0.3v-0.9
			c0-0.1,0-0.2,0.1-0.3c0.1-0.1,0.2-0.1,0.3-0.1h0.9c0.1,0,0.2,0,0.3,0.1s0.1,0.2,0.1,0.3v0.9C-31.2,598.1-31.2,598.2-31.3,598.3z"
			/>
		<path class="st16" d="M-18.9,585.5C-18.9,585.5-18.9,585.4-18.9,585.5c0.2-0.2,0.2-0.2,0.3-0.3c0.1-0.1,0.2-0.1,0.3-0.1h0.4
			c0.1,0,0.2,0,0.3,0.1c0.1,0.1,0.1,0.2,0.1,0.3s0,0.1-0.1,0.2l-2.9,4c0.4-0.1,0.8-0.2,1.3-0.2c1,0,1.8,0.2,2.5,0.6
			c0.7,0.4,1.2,1,1.6,1.6c0.4,0.7,0.5,1.4,0.5,2.2s-0.2,1.5-0.5,2.2c-0.4,0.7-0.9,1.2-1.6,1.7c-0.7,0.4-1.5,0.6-2.5,0.6
			s-1.8-0.2-2.5-0.6c-0.7-0.4-1.2-1-1.6-1.7c-0.4-0.7-0.5-1.4-0.5-2.2c0-1.1,0.4-2.2,1.2-3.4L-18.9,585.5z M-21,591.2
			c-0.5,0.3-0.9,0.6-1.3,1.1c-0.3,0.5-0.5,1.1-0.5,1.8s0.2,1.3,0.5,1.8s0.7,0.9,1.3,1.1c0.5,0.3,1.1,0.4,1.7,0.4s1.2-0.1,1.7-0.4
			c0.5-0.3,0.9-0.6,1.3-1.1c0.3-0.5,0.5-1.1,0.5-1.8s-0.2-1.3-0.5-1.8s-0.7-0.9-1.3-1.1c-0.5-0.3-1.1-0.4-1.7-0.4
			S-20.4,590.9-21,591.2z"/>
		<path class="st16" d="M-11.9,596.7h0.9c0.1,0,0.2,0,0.2,0.1c0.1,0.1,0.1,0.1,0.1,0.2c0,0.1,0,0.2-0.1,0.3l-0.8,2.1
			c-0.1,0.1-0.1,0.2-0.2,0.3c-0.1,0.1-0.2,0.1-0.3,0.1h-0.3c-0.1,0-0.2,0-0.2-0.1c-0.1-0.1-0.1-0.2,0-0.3l0.4-2.3
			C-12.4,596.8-12.2,596.7-11.9,596.7z"/>
		<path class="st16" d="M-4.7,598.3c-0.1,0.1-0.2,0.1-0.3,0.1h-0.4c-0.1,0-0.2,0-0.3-0.1s-0.1-0.2-0.1-0.3v-11.3l-3.4,2.6
			c-0.1,0.1-0.2,0.1-0.3,0.1s-0.2-0.1-0.3-0.2l-0.2-0.3c-0.1-0.1-0.1-0.2-0.1-0.3s0.1-0.2,0.2-0.3l4-3.1c0.1-0.1,0.3-0.1,0.5-0.1H-5
			c0.1,0,0.2,0,0.3,0.1c0.1,0.1,0.1,0.2,0.1,0.3V598C-4.6,598.1-4.6,598.2-4.7,598.3z"/>
		<path class="st16" d="M2.5,591.1c-0.5,0.4-1.1,0.7-1.9,0.7s-1.4-0.2-1.9-0.7c-0.5-0.4-0.7-1-0.8-1.8c0-0.2,0-0.5,0-0.8
			c0-0.4,0-0.6,0-0.9c0-0.8,0.3-1.4,0.7-1.9s1.1-0.7,1.9-0.7s1.5,0.2,1.9,0.7s0.7,1.1,0.7,1.9c0,0.5,0,0.7,0,0.9c0,0.1,0,0.4,0,0.8
			C3.2,590.1,3,590.7,2.5,591.1z M-0.3,598.3c-0.1,0.1-0.2,0.1-0.4,0.1H-1c-0.1,0-0.2,0-0.3-0.1s-0.1-0.2-0.1-0.3s0-0.1,0.1-0.2
			l9.4-12.4c0.1-0.1,0.2-0.2,0.3-0.3s0.2-0.1,0.4-0.1h0.3c0.1,0,0.2,0,0.3,0.1s0.1,0.2,0.1,0.3s0,0.1-0.1,0.2L0,597.9
			C-0.2,598.2-0.3,598.3-0.3,598.3z M1.8,590.4c0.2-0.3,0.4-0.7,0.4-1.1c0-0.5,0-0.7,0-0.8s0-0.3,0-0.8c0-0.4-0.2-0.8-0.4-1.1
			s-0.6-0.5-1.1-0.5s-0.9,0.2-1.1,0.5s-0.4,0.7-0.4,1.1c0,0.2,0,0.5,0,0.8s0,0.6,0,0.8c0,0.4,0.2,0.8,0.4,1.1
			c0.2,0.3,0.6,0.5,1.1,0.5C1.1,590.8,1.5,590.7,1.8,590.4z M9.2,597.9c-0.5,0.5-1.1,0.7-1.9,0.7s-1.4-0.2-1.9-0.7s-0.7-1.1-0.8-1.9
			c0-0.2,0-0.5,0-0.8c0-0.4,0-0.6,0-0.9c0-0.8,0.3-1.4,0.7-1.9s1.1-0.7,1.9-0.7c0.8,0,1.5,0.2,1.9,0.7s0.7,1.1,0.7,1.9
			c0,0.5,0,0.7,0,0.9c0,0.1,0,0.4,0,0.8C10,596.8,9.7,597.4,9.2,597.9z M8.5,597c0.2-0.3,0.4-0.7,0.4-1.1c0-0.5,0-0.7,0-0.8
			s0-0.3,0-0.8c0-0.4-0.2-0.8-0.4-1.1s-0.6-0.5-1.1-0.5s-0.9,0.2-1.1,0.5s-0.4,0.7-0.4,1.1c0,0.2,0,0.5,0,0.8s0,0.6,0,0.8
			c0,0.4,0.2,0.8,0.4,1.1s0.6,0.5,1.1,0.5S8.2,597.3,8.5,597z"/>
	</g>
	<g>
		<path class="st17" d="M-233.1,559.4c-0.8,1.3-1.8,2.3-3.2,3c-1.3,0.7-2.9,1-4.6,1h-7.5c-0.2,0-0.4-0.1-0.6-0.3s-0.3-0.4-0.3-0.6
			v-20.7c0-0.2,0.1-0.4,0.3-0.6s0.4-0.3,0.6-0.3h7.3c1.8,0,3.3,0.3,4.7,1s2.5,1.7,3.2,3c0.8,1.3,1.2,2.9,1.2,4.6c0,0.6,0,1.5,0,2.5
			s0,1.9,0,2.5C-232,556.5-232.4,558.1-233.1,559.4z M-246.3,543.9v16.6h5.2c2.1,0,3.7-0.6,4.6-1.7c0.9-1.1,1.4-2.5,1.5-4.3
			c0-0.6,0-1.4,0-2.4c0-0.9,0-1.7,0-2.4c0-1.7-0.6-3.2-1.6-4.3s-2.6-1.7-4.7-1.7h-5V543.9z"/>
		<path class="st17" d="M-227.6,547c0.2-0.2,0.4-0.3,0.6-0.3h1.2c0.2,0,0.4,0.1,0.6,0.3c0.2,0.2,0.3,0.4,0.3,0.6v8.4
			c0,1.6,0.4,2.8,1.1,3.7c0.7,0.8,1.8,1.2,3.2,1.2s2.4-0.4,3.2-1.2s1.1-2,1.1-3.6v-8.4c0-0.2,0.1-0.4,0.3-0.6s0.4-0.3,0.6-0.3h1.2
			c0.2,0,0.4,0.1,0.6,0.3c0.2,0.2,0.3,0.4,0.3,0.6v14.9c0,0.2-0.1,0.4-0.3,0.6c-0.2,0.2-0.4,0.3-0.6,0.3h-1.2
			c-0.2,0-0.4-0.1-0.6-0.3s-0.3-0.4-0.3-0.6v-1c-1.1,1.5-2.7,2.2-4.8,2.2c-2,0-3.7-0.6-4.9-1.9c-1.2-1.3-1.8-3-1.8-5.2v-8.9
			C-227.8,547.4-227.7,547.2-227.6,547z"/>
		<path class="st17" d="M-193.4,555.1c0,0.5,0,0.8,0,1.1c-0.1,1.5-0.4,2.9-1.1,4c-0.7,1.2-1.5,2-2.6,2.7c-1.1,0.6-2.3,0.9-3.6,0.9
			c-2.2,0-3.9-0.7-5-2.2v1c0,0.2-0.1,0.4-0.3,0.6c-0.2,0.2-0.4,0.3-0.6,0.3h-1.2c-0.2,0-0.4-0.1-0.6-0.3s-0.3-0.4-0.3-0.6v-21
			c0-0.2,0.1-0.4,0.3-0.6s0.4-0.3,0.6-0.3h1.2c0.2,0,0.4,0.1,0.6,0.3c0.2,0.2,0.3,0.4,0.3,0.6v7.1c0.5-0.6,1.1-1.1,1.9-1.6
			c0.8-0.4,1.8-0.6,3-0.6c1.3,0,2.5,0.3,3.6,0.9c1.1,0.6,1.9,1.5,2.6,2.6c0.7,1.1,1,2.5,1.1,4C-193.4,554.3-193.4,554.6-193.4,555.1
			z M-197.7,559.7c0.8-0.9,1.3-2.1,1.4-3.7c0-0.2,0-0.5,0-0.9c0-1.8-0.4-3.2-1.2-4.3s-2-1.6-3.5-1.6c-1.3,0-2.4,0.4-3.2,1.2
			s-1.3,2-1.4,3.5c0,0.2,0,0.6,0,1.2s0,1.1,0,1.3c0.1,1.4,0.6,2.5,1.4,3.3s1.9,1.2,3.2,1.2C-199.6,561-198.5,560.5-197.7,559.7z"/>
		<path class="st17" d="M-174.2,555.1c0,0.5,0,0.8,0,1.1c-0.1,1.5-0.4,2.9-1.1,4c-0.7,1.2-1.5,2-2.6,2.7c-1.1,0.6-2.3,0.9-3.6,0.9
			c-2.2,0-3.9-0.7-5-2.2v1c0,0.2-0.1,0.4-0.3,0.6c-0.2,0.2-0.4,0.3-0.6,0.3h-1.2c-0.2,0-0.4-0.1-0.6-0.3s-0.3-0.4-0.3-0.6v-21
			c0-0.2,0.1-0.4,0.3-0.6s0.4-0.3,0.6-0.3h1.2c0.2,0,0.4,0.1,0.6,0.3c0.2,0.2,0.3,0.4,0.3,0.6v7.1c0.5-0.6,1.1-1.1,1.9-1.6
			c0.8-0.4,1.8-0.6,3-0.6c1.3,0,2.5,0.3,3.6,0.9c1.1,0.6,1.9,1.5,2.6,2.6c0.7,1.1,1,2.5,1.1,4C-174.3,554.3-174.2,554.6-174.2,555.1
			z M-178.6,559.7c0.8-0.9,1.3-2.1,1.4-3.7c0-0.2,0-0.5,0-0.9c0-1.8-0.4-3.2-1.2-4.3s-2-1.6-3.5-1.6c-1.3,0-2.4,0.4-3.2,1.2
			s-1.3,2-1.4,3.5c0,0.2,0,0.6,0,1.2s0,1.1,0,1.3c0.1,1.4,0.6,2.5,1.4,3.3s1.9,1.2,3.2,1.2C-180.5,561-179.4,560.5-178.6,559.7z"/>
		<path class="st17" d="M-158.3,548.6c1.3,1.5,2,3.4,2,5.9v0.9c0,0.2-0.1,0.4-0.3,0.6c-0.2,0.2-0.4,0.3-0.6,0.3h-11v0.2
			c0,1.4,0.5,2.5,1.3,3.3s1.9,1.2,3.2,1.2c1.1,0,1.9-0.1,2.5-0.4c0.6-0.3,1.1-0.7,1.6-1.2c0.2-0.2,0.3-0.3,0.5-0.4
			c0.1-0.1,0.3-0.1,0.6-0.1h1c0.3,0,0.5,0.1,0.6,0.3c0.2,0.2,0.2,0.4,0.2,0.6c-0.1,0.6-0.4,1.2-0.9,1.8s-1.3,1.1-2.3,1.5
			s-2.2,0.6-3.6,0.6c-1.4,0-2.6-0.3-3.6-0.9c-1.1-0.6-1.9-1.5-2.5-2.6s-1-2.4-1.1-3.7c0-0.6-0.1-1.1-0.1-1.5c0-0.3,0-0.8,0.1-1.5
			c0.1-1.3,0.5-2.5,1.1-3.6s1.5-1.9,2.5-2.5c1.1-0.6,2.3-0.9,3.7-0.9C-161.4,546.5-159.6,547.2-158.3,548.6z M-159.2,553.6
			L-159.2,553.6c0-1.4-0.4-2.4-1.2-3.2s-1.9-1.2-3.3-1.2c-1.2,0-2.3,0.4-3.2,1.2s-1.3,1.8-1.3,3.1v0.1L-159.2,553.6L-159.2,553.6z"
			/>
		<path class="st17" d="M-149.8,563.2c-0.2,0.2-0.4,0.3-0.6,0.3h-1.2c-0.2,0-0.4-0.1-0.6-0.3s-0.3-0.4-0.3-0.6v-21
			c0-0.2,0.1-0.4,0.3-0.6s0.4-0.3,0.6-0.3h1.2c0.2,0,0.4,0.1,0.6,0.3c0.2,0.2,0.3,0.4,0.3,0.6v21
			C-149.5,562.8-149.6,563-149.8,563.2z"/>
	</g>
	<g>
		<path class="st17" d="M-66.4,547c-0.1,0.1-0.3,0.2-0.5,0.2h-1.3c-0.3,0-0.4,0-0.6-0.1s-0.3-0.3-0.4-0.6c-0.3-0.7-0.9-1.3-1.8-2
			c-0.8-0.6-2-1-3.3-1s-2.4,0.3-3.2,0.9c-0.9,0.6-1.3,1.4-1.3,2.5c0,0.7,0.2,1.3,0.7,1.8c0.4,0.5,1.1,0.9,2,1.2s2.2,0.7,4,1.2
			c2.4,0.6,4.2,1.4,5.2,2.4s1.5,2.2,1.5,3.8c0,1.3-0.4,2.4-1.1,3.4s-1.7,1.8-3,2.3c-1.3,0.6-2.8,0.8-4.5,0.8c-1.6,0-3-0.3-4.3-0.9
			c-1.3-0.6-2.3-1.4-3.1-2.3c-0.7-0.9-1.1-1.9-1.2-2.8c0-0.2,0.1-0.4,0.2-0.5s0.3-0.2,0.5-0.2h1.3c0.2,0,0.4,0,0.6,0.1
			c0.1,0.1,0.3,0.3,0.4,0.6c0.3,0.8,1,1.5,1.9,2.1s2.1,1,3.7,1s2.9-0.3,4-1s1.6-1.6,1.6-2.6c0-0.7-0.3-1.3-0.8-1.8
			c-0.6-0.5-1.3-0.9-2.3-1.2s-2.4-0.7-4.3-1.2c-2.1-0.5-3.6-1.3-4.5-2.3s-1.4-2.3-1.4-3.8c0-1.1,0.3-2.1,0.9-3.1
			c0.6-0.9,1.4-1.7,2.6-2.3s2.5-0.9,4.2-0.9s3,0.3,4.3,0.9c1.2,0.6,2.2,1.4,2.8,2.3c0.7,0.9,1,1.8,1.1,2.5
			C-66.2,546.7-66.3,546.8-66.4,547z"/>
		<path class="st17" d="M-56.9,559.9c0.4,0.5,1.1,0.7,2.1,0.7h1.7c0.2,0,0.4,0.1,0.6,0.3s0.3,0.4,0.3,0.6v1c0,0.2-0.1,0.4-0.3,0.6
			c-0.2,0.2-0.4,0.3-0.6,0.3h-2c-1.8,0-3.1-0.5-4-1.4s-1.3-2.3-1.3-4.2v-8.3h-2.4c-0.2,0-0.4-0.1-0.6-0.3c-0.2-0.2-0.3-0.4-0.3-0.6
			v-1c0-0.2,0.1-0.4,0.3-0.6s0.4-0.3,0.6-0.3h2.4v-5.2c0-0.2,0.1-0.4,0.3-0.6s0.4-0.3,0.6-0.3h1.2c0.2,0,0.4,0.1,0.6,0.3
			c0.2,0.2,0.3,0.4,0.3,0.6v5.2h4.1c0.2,0,0.4,0.1,0.6,0.3c0.2,0.2,0.3,0.4,0.3,0.6v1c0,0.2-0.1,0.4-0.3,0.6s-0.4,0.3-0.6,0.3h-4.1
			v8.3C-57.5,558.7-57.3,559.4-56.9,559.9z"/>
		<path class="st17" d="M-34.6,555.1c0,0.5,0,1-0.1,1.5c-0.2,2.2-0.9,3.9-2.3,5.2c-1.3,1.3-3.1,1.9-5.3,1.9s-4-0.6-5.3-1.9
			c-1.3-1.3-2.1-3-2.3-5.2c0-0.2,0-0.7,0-1.5s0-1.3,0-1.5c0.2-2.2,0.9-3.9,2.2-5.2s3.1-1.9,5.3-1.9s4,0.6,5.3,1.9s2.1,3,2.2,5.2
			C-34.6,554.1-34.6,554.6-34.6,555.1z M-38.9,550.5c-0.8-0.8-1.9-1.2-3.3-1.2c-1.4,0-2.5,0.4-3.3,1.2s-1.2,1.9-1.4,3.3
			c0,0.3,0,0.7,0,1.4c0,0.6,0,1.1,0,1.3c0.1,1.4,0.6,2.5,1.4,3.3c0.8,0.8,1.9,1.2,3.3,1.2c1.4,0,2.5-0.4,3.3-1.2s1.2-1.9,1.4-3.3
			c0-0.5,0.1-0.9,0.1-1.3s0-0.9-0.1-1.4C-37.7,552.4-38.1,551.3-38.9,550.5z"/>
		<path class="st17" d="M-30.5,547c0.2-0.2,0.4-0.3,0.6-0.3h1.2c0.2,0,0.4,0.1,0.6,0.3s0.3,0.4,0.3,0.6v8.4c0,1.6,0.4,2.8,1.1,3.7
			c0.7,0.8,1.8,1.2,3.2,1.2c1.4,0,2.4-0.4,3.2-1.2s1.1-2,1.1-3.6v-8.4c0-0.2,0.1-0.4,0.3-0.6c0.2-0.2,0.4-0.3,0.6-0.3h1.2
			c0.2,0,0.4,0.1,0.6,0.3s0.3,0.4,0.3,0.6v14.9c0,0.2-0.1,0.4-0.3,0.6c-0.2,0.2-0.4,0.3-0.6,0.3h-1.2c-0.2,0-0.4-0.1-0.6-0.3
			s-0.3-0.4-0.3-0.6v-1c-1.1,1.5-2.7,2.2-4.8,2.2c-2,0-3.7-0.6-4.9-1.9c-1.2-1.3-1.8-3-1.8-5.2v-8.9
			C-30.7,547.4-30.6,547.2-30.5,547z"/>
		<path class="st17" d="M-6.6,559.9c0.4,0.5,1.1,0.7,2.1,0.7h1.7c0.2,0,0.4,0.1,0.6,0.3s0.3,0.4,0.3,0.6v1c0,0.2-0.1,0.4-0.3,0.6
			c-0.2,0.2-0.4,0.3-0.6,0.3h-2c-1.8,0-3.1-0.5-4-1.4s-1.3-2.3-1.3-4.2v-8.3h-2.4c-0.2,0-0.4-0.1-0.6-0.3s-0.3-0.4-0.3-0.6v-1
			c0-0.2,0.1-0.4,0.3-0.6c0.2-0.2,0.4-0.3,0.6-0.3h2.4v-5.2c0-0.2,0.1-0.4,0.3-0.6s0.4-0.3,0.6-0.3H-8c0.2,0,0.4,0.1,0.6,0.3
			c0.2,0.2,0.3,0.4,0.3,0.6v5.2H-3c0.2,0,0.4,0.1,0.6,0.3s0.3,0.4,0.3,0.6v1c0,0.2-0.1,0.4-0.3,0.6s-0.4,0.3-0.6,0.3h-4.1v8.3
			C-7.1,558.7-6.9,559.4-6.6,559.9z"/>
	</g>
	<g>
		<path class="st16" d="M-254,242.3c0.1-0.1,0.2-0.1,0.3-0.1h0.4c0.1,0,0.2,0,0.3,0.1s0.1,0.2,0.1,0.3v0.2l-4.4,12.3
			c-0.1,0.3-0.3,0.5-0.6,0.5h-0.7c-0.3,0-0.5-0.2-0.6-0.5l-4.4-12.3v-0.2c0-0.1,0-0.2,0.1-0.3s0.2-0.1,0.3-0.1h0.4
			c0.1,0,0.2,0,0.3,0.1s0.1,0.1,0.1,0.2l4.2,11.6l4.2-11.6C-254.1,242.4-254.1,242.4-254,242.3z"/>
		<path class="st16" d="M-243.7,250.6c0,0.4,0,0.7,0,0.8c0,1.3-0.4,2.3-1.1,3.1c-0.7,0.8-1.8,1.2-3.1,1.2s-2.3-0.4-3.1-1.2
			c-0.7-0.8-1.1-1.8-1.1-3.1v-0.8v-0.8c0-1.3,0.4-2.3,1.1-3.1c0.7-0.8,1.8-1.2,3.1-1.2s2.3,0.4,3.1,1.2c0.7,0.8,1.1,1.8,1.1,3.1
			C-243.7,249.9-243.7,250.2-243.7,250.6z M-250.1,247.4c-0.6,0.6-0.8,1.4-0.9,2.5v0.7v0.7c0,1.1,0.3,1.9,0.9,2.5
			c0.6,0.6,1.3,0.9,2.2,0.9s1.6-0.3,2.2-0.9c0.6-0.6,0.8-1.4,0.9-2.5c0-0.1,0-0.4,0-0.7s0-0.6,0-0.7c0-1.1-0.3-1.9-0.9-2.5
			s-1.3-0.9-2.2-0.9S-249.6,246.8-250.1,247.4z"/>
		<path class="st16" d="M-240,255.4c-0.1,0.1-0.2,0.1-0.3,0.1h-0.3c-0.1,0-0.2,0-0.3-0.1s-0.1-0.2-0.1-0.3v-12.7
			c0-0.1,0-0.2,0.1-0.3s0.2-0.1,0.3-0.1h0.3c0.1,0,0.2,0,0.3,0.1s0.1,0.2,0.1,0.3v12.7C-239.9,255.2-239.9,255.3-240,255.4z"/>
		<path class="st16" d="M-235.3,255.4c-0.1,0.1-0.2,0.1-0.3,0.1h-0.9c-0.1,0-0.2,0-0.3-0.1s-0.1-0.2-0.1-0.3v-0.9
			c0-0.1,0-0.2,0.1-0.3s0.2-0.1,0.3-0.1h0.9c0.1,0,0.2,0,0.3,0.1s0.1,0.2,0.1,0.3v0.9C-235.2,255.2-235.2,255.3-235.3,255.4z"/>
		<path class="st16" d="M-226.6,252.2l-1.2,3c0,0.1-0.1,0.1-0.1,0.2c-0.1,0.1-0.2,0.1-0.3,0.1h-0.4c-0.1,0-0.2,0-0.3-0.1
			s-0.1-0.2-0.1-0.3v-0.2l4.8-12.3c0.1-0.3,0.3-0.4,0.6-0.4h0.6c0.3,0,0.4,0.1,0.6,0.4l4.8,12.3v0.2c0,0.1,0,0.2-0.1,0.3
			s-0.2,0.1-0.3,0.1h-0.4c-0.1,0-0.2,0-0.3-0.1s-0.1-0.1-0.1-0.2l-1.2-3H-226.6z M-220.3,251.1l-2.9-7.5l-2.9,7.5H-220.3z"/>
		<path class="st16" d="M-214.5,255.4c-0.1,0.1-0.2,0.1-0.3,0.1h-0.3c-0.1,0-0.2,0-0.3-0.1s-0.1-0.2-0.1-0.3v-12.7
			c0-0.1,0-0.2,0.1-0.3s0.2-0.1,0.3-0.1h0.3c0.1,0,0.2,0,0.3,0.1s0.1,0.2,0.1,0.3v12.7C-214.4,255.2-214.4,255.3-214.5,255.4z"/>
		<path class="st16" d="M-209.7,253.8c0.5,0.6,1.3,0.8,2.2,0.8c0.7,0,1.3-0.1,1.7-0.4c0.5-0.3,0.8-0.8,1.1-1.5
			c0.1-0.2,0.1-0.3,0.2-0.3c0.1-0.1,0.1-0.1,0.3-0.1h0.3c0.1,0,0.2,0,0.3,0.1s0.1,0.2,0.1,0.3c0,0.5-0.2,1-0.5,1.4
			c-0.3,0.5-0.7,0.8-1.3,1.1s-1.3,0.4-2.1,0.4c-1.3,0-2.3-0.4-3.1-1.2c-0.7-0.8-1.1-1.8-1.1-3.2v-0.8v-0.8c0-1.4,0.4-2.5,1.1-3.2
			c0.7-0.8,1.7-1.1,3.1-1.1c0.8,0,1.5,0.1,2.1,0.4s1,0.7,1.3,1.1c0.3,0.5,0.4,0.9,0.5,1.4c0,0.1,0,0.2-0.1,0.3s-0.2,0.1-0.3,0.1
			h-0.3c-0.1,0-0.2,0-0.3-0.1s-0.1-0.2-0.2-0.3c-0.3-0.7-0.6-1.2-1.1-1.5s-1-0.4-1.7-0.4c-0.9,0-1.6,0.3-2.2,0.8
			c-0.5,0.6-0.8,1.4-0.9,2.5v0.7v0.7C-210.5,252.4-210.2,253.2-209.7,253.8z"/>
		<path class="st16" d="M-199.6,255.4c-0.1,0.1-0.2,0.1-0.3,0.1h-0.9c-0.1,0-0.2,0-0.3-0.1s-0.1-0.2-0.1-0.3v-0.9
			c0-0.1,0-0.2,0.1-0.3s0.2-0.1,0.3-0.1h0.9c0.1,0,0.2,0,0.3,0.1s0.1,0.2,0.1,0.3v0.9C-199.5,255.2-199.5,255.3-199.6,255.4z"/>
		<path class="st16" d="M-189.1,248.3c-0.3,0.1-0.6,0.3-0.9,0.5c-0.2,0.1-0.3,0.2-0.5,0.3c-0.1,0.1-0.2,0.1-0.4,0.1h-0.3
			c-0.1,0-0.2,0-0.3-0.1s-0.1-0.2-0.1-0.3l0.6-6.2c0-0.1,0.1-0.2,0.1-0.3c0.1-0.1,0.2-0.1,0.3-0.1h6.2c0.1,0,0.2,0,0.3,0.1
			s0.1,0.2,0.1,0.3v0.3c0,0.1,0,0.2-0.1,0.3s-0.2,0.1-0.3,0.1h-5.5l-0.4,4.3c0.7-0.4,1.5-0.6,2.5-0.6c0.9,0,1.6,0.2,2.3,0.5
			s1.2,0.8,1.6,1.5c0.4,0.6,0.6,1.4,0.6,2.3c0,1-0.2,1.8-0.6,2.4c-0.4,0.7-1,1.2-1.6,1.5c-0.7,0.3-1.5,0.5-2.3,0.5
			c-0.9,0-1.7-0.2-2.3-0.5c-0.7-0.3-1.2-0.8-1.5-1.3s-0.5-1.1-0.6-1.7l0,0c0-0.1,0-0.2,0.1-0.2c0.1-0.1,0.2-0.1,0.3-0.1h0.4
			c0.1,0,0.2,0,0.3,0.1s0.1,0.2,0.2,0.4c0.2,0.8,0.6,1.3,1.2,1.7c0.6,0.4,1.2,0.6,2,0.6c1,0,1.8-0.3,2.4-0.9c0.6-0.6,1-1.4,1-2.4
			c0-0.6-0.1-1.2-0.4-1.7s-0.7-0.8-1.2-1.1s-1.1-0.4-1.7-0.4C-188.4,248.1-188.8,248.2-189.1,248.3z"/>
		<path class="st16" d="M-180.4,253.7h0.9c0.1,0,0.2,0,0.2,0.1c0.1,0.1,0.1,0.1,0.1,0.2c0,0.1,0,0.2-0.1,0.3l-0.8,2.1
			c-0.1,0.1-0.1,0.2-0.2,0.3c-0.1,0.1-0.2,0.1-0.3,0.1h-0.3c-0.1,0-0.2,0-0.2-0.1c-0.1-0.1-0.1-0.2,0-0.3l0.4-2.3
			C-180.8,253.9-180.6,253.7-180.4,253.7z"/>
		<path class="st16" d="M-168.8,243.5c0.7,1,1.1,2.2,1.1,3.8c0,0.4,0,0.9,0,1.6s0,1.2,0,1.6c0,1.6-0.4,2.8-1.1,3.8
			c-0.7,1-1.9,1.4-3.4,1.4s-2.7-0.5-3.4-1.4c-0.7-1-1.1-2.2-1.1-3.8v-1.6v-1.6c0-1.6,0.4-2.8,1.1-3.8c0.7-1,1.9-1.4,3.4-1.4
			S-169.5,242.5-168.8,243.5z M-174.7,244.3c-0.6,0.7-0.9,1.8-0.9,3.1v1.5v1.5c0,1.3,0.3,2.4,0.9,3.1c0.6,0.7,1.4,1.1,2.5,1.1
			s1.9-0.4,2.5-1.1s0.9-1.8,0.9-3.1c0-0.4,0-0.9,0-1.5s0-1.1,0-1.5c0-1.3-0.3-2.3-0.9-3.1c-0.6-0.7-1.4-1.1-2.5-1.1
			S-174.2,243.5-174.7,244.3z"/>
		<path class="st16" d="M-160.8,248.2c-0.5,0.4-1.1,0.7-1.9,0.7c-0.8,0-1.4-0.2-1.9-0.7c-0.5-0.4-0.7-1-0.8-1.8c0-0.2,0-0.5,0-0.8
			c0-0.4,0-0.6,0-0.9c0-0.8,0.3-1.4,0.7-1.9s1.1-0.7,1.9-0.7s1.5,0.2,1.9,0.7s0.7,1.1,0.7,1.9c0,0.5,0,0.7,0,0.9c0,0.1,0,0.4,0,0.8
			C-160.1,247.2-160.3,247.8-160.8,248.2z M-163.7,255.4c-0.1,0.1-0.2,0.1-0.4,0.1h-0.3c-0.1,0-0.2,0-0.3-0.1s-0.1-0.2-0.1-0.3
			s0-0.1,0.1-0.2l9.4-12.4c0.1-0.1,0.2-0.2,0.3-0.3s0.2-0.1,0.4-0.1h0.3c0.1,0,0.2,0,0.3,0.1s0.1,0.2,0.1,0.3s0,0.1-0.1,0.2
			l-9.4,12.3C-163.5,255.3-163.6,255.4-163.7,255.4z M-161.6,247.4c0.2-0.3,0.4-0.7,0.4-1.1c0-0.5,0-0.7,0-0.8s0-0.3,0-0.8
			c0-0.4-0.2-0.8-0.4-1.1s-0.6-0.5-1.1-0.5s-0.9,0.2-1.1,0.5c-0.2,0.3-0.4,0.7-0.4,1.1c0,0.2,0,0.5,0,0.8s0,0.6,0,0.8
			c0,0.4,0.2,0.8,0.4,1.1s0.6,0.5,1.1,0.5S-161.8,247.7-161.6,247.4z M-154.1,254.9c-0.5,0.5-1.1,0.7-1.9,0.7
			c-0.8,0-1.4-0.2-1.9-0.7s-0.7-1.1-0.8-1.9c0-0.2,0-0.5,0-0.8c0-0.4,0-0.6,0-0.9c0-0.8,0.3-1.4,0.7-1.9s1.1-0.7,1.9-0.7
			s1.5,0.2,1.9,0.7s0.7,1.1,0.7,1.9c0,0.5,0,0.7,0,0.9c0,0.1,0,0.4,0,0.8C-153.4,253.9-153.6,254.5-154.1,254.9z M-154.9,254.1
			c0.2-0.3,0.4-0.7,0.4-1.1c0-0.5,0-0.7,0-0.8s0-0.3,0-0.8c0-0.4-0.2-0.8-0.4-1.1s-0.6-0.5-1.1-0.5s-0.9,0.2-1.1,0.5
			c-0.2,0.3-0.4,0.7-0.4,1.1c0,0.2,0,0.5,0,0.8s0,0.6,0,0.8c0,0.4,0.2,0.8,0.4,1.1s0.6,0.5,1.1,0.5
			C-155.5,254.6-155.1,254.4-154.9,254.1z"/>
	</g>
	<g>
		<path class="st17" d="M-70.1,223c-0.2-0.2-0.3-0.4-0.3-0.6v-20.7c0-0.2,0.1-0.4,0.3-0.6c0.2-0.2,0.4-0.3,0.6-0.3h1.3
			c0.2,0,0.4,0.1,0.6,0.3s0.3,0.4,0.3,0.6v20.7c0,0.2-0.1,0.4-0.3,0.6c-0.2,0.2-0.4,0.3-0.6,0.3h-1.3
			C-69.7,223.2-69.9,223.1-70.1,223z"/>
		<path class="st17" d="M-47.3,202.5c1.5,1.2,2.2,2.8,2.2,5.1c0,1.5-0.3,2.8-1,3.8s-1.6,1.8-2.8,2.3s-2.5,0.8-3.9,0.8h-5.9v7.8
			c0,0.2-0.1,0.4-0.3,0.6c-0.2,0.2-0.4,0.3-0.6,0.3h-1.3c-0.2,0-0.4-0.1-0.6-0.3c-0.2-0.2-0.3-0.4-0.3-0.6v-20.7
			c0-0.2,0.1-0.4,0.3-0.6c0.2-0.2,0.4-0.3,0.6-0.3h8.1C-50.6,200.8-48.8,201.4-47.3,202.5z M-53,211.6c1.6,0,2.8-0.3,3.6-1
			s1.2-1.7,1.2-3c0-2.6-1.6-3.9-4.8-3.9h-5.7v7.9H-53z"/>
		<path class="st17" d="M-40.1,218.2l-1.7,4.3c-0.2,0.5-0.6,0.8-1.2,0.8h-1.2c-0.2,0-0.4-0.1-0.5-0.2c-0.1-0.1-0.2-0.3-0.2-0.5
			c0-0.1,0-0.3,0.1-0.4L-37,202c0.3-0.7,0.8-1.1,1.4-1.1h1.9c0.7,0,1.2,0.4,1.4,1.1l7.8,20.2c0.1,0.2,0.1,0.3,0.1,0.4
			c0,0.2-0.1,0.4-0.2,0.5c-0.1,0.1-0.3,0.2-0.5,0.2h-1.2c-0.6,0-1.1-0.3-1.2-0.8l-1.7-4.3H-40.1z M-30.1,215.3l-4.4-11.4l-4.4,11.4
			H-30.1z"/>
	</g>
	<g>
		<path class="st17" d="M-232.5,220.3h10.8c0.2,0,0.4,0.1,0.6,0.3c0.2,0.2,0.3,0.4,0.3,0.6v1.2c0,0.2-0.1,0.4-0.3,0.6
			s-0.4,0.3-0.6,0.3h-12.9c-0.2,0-0.4-0.1-0.6-0.3c-0.2-0.2-0.3-0.4-0.3-0.6v-20.7c0-0.2,0.1-0.4,0.3-0.6s0.4-0.3,0.6-0.3h12.7
			c0.2,0,0.4,0.1,0.6,0.3c0.2,0.2,0.3,0.4,0.3,0.6v1.2c0,0.2-0.1,0.4-0.3,0.6s-0.4,0.3-0.6,0.3h-10.5v6.8h9.8c0.2,0,0.4,0.1,0.6,0.3
			c0.2,0.2,0.3,0.4,0.3,0.6v1.2c0,0.2-0.1,0.4-0.3,0.6s-0.4,0.3-0.6,0.3h-9.8L-232.5,220.3L-232.5,220.3L-232.5,220.3z"/>
		<path class="st17" d="M-202.1,202.5c1.5,1.2,2.2,2.8,2.2,5.1c0,1.5-0.3,2.8-1,3.8s-1.6,1.8-2.8,2.3s-2.5,0.8-3.9,0.8h-5.9v7.8
			c0,0.2-0.1,0.4-0.3,0.6s-0.4,0.3-0.6,0.3h-1.3c-0.2,0-0.4-0.1-0.6-0.3c-0.2-0.2-0.3-0.4-0.3-0.6v-20.7c0-0.2,0.1-0.4,0.3-0.6
			s0.4-0.3,0.6-0.3h8.1C-205.4,200.8-203.6,201.4-202.1,202.5z M-207.8,211.6c1.6,0,2.8-0.3,3.6-1s1.2-1.7,1.2-3
			c0-2.6-1.6-3.9-4.8-3.9h-5.7v7.9H-207.8z"/>
		<path class="st17" d="M-194.9,218.2l-1.7,4.3c-0.2,0.5-0.6,0.8-1.2,0.8h-1.2c-0.2,0-0.4-0.1-0.5-0.2c-0.1-0.1-0.2-0.3-0.2-0.5
			c0-0.1,0-0.3,0.1-0.4l7.8-20.2c0.3-0.7,0.8-1.1,1.4-1.1h1.9c0.7,0,1.2,0.4,1.4,1.1l7.8,20.2c0.1,0.2,0.1,0.3,0.1,0.4
			c0,0.2-0.1,0.4-0.2,0.5s-0.3,0.2-0.5,0.2h-1.2c-0.6,0-1.1-0.3-1.2-0.8l-1.7-4.3H-194.9z M-184.9,215.3l-4.4-11.4l-4.4,11.4H-184.9
			z"/>
	</g>
	<g>
		<path class="st16" d="M-90.5,242.3c0.1-0.1,0.2-0.1,0.3-0.1h0.4c0.1,0,0.2,0,0.3,0.1s0.1,0.2,0.1,0.3v0.2l-4.4,12.3
			c-0.1,0.3-0.3,0.5-0.6,0.5h-0.5c-0.3,0-0.5-0.2-0.6-0.5l-4.4-12.3v-0.2c0-0.1,0-0.2,0.1-0.3s0.2-0.1,0.3-0.1h0.4
			c0.1,0,0.2,0,0.3,0.1s0.1,0.1,0.1,0.2l4.2,11.6l4.2-11.6C-90.6,242.4-90.6,242.4-90.5,242.3z"/>
		<path class="st16" d="M-80.2,250.6c0,0.4,0,0.7,0,0.8c0,1.3-0.4,2.3-1.1,3.1s-1.8,1.2-3.1,1.2c-1.3,0-2.3-0.4-3.1-1.2
			c-0.7-0.8-1.1-1.8-1.1-3.1v-0.8v-0.8c0-1.3,0.4-2.3,1.1-3.1s1.8-1.2,3.1-1.2s2.3,0.4,3.1,1.2c0.7,0.8,1.1,1.8,1.1,3.1
			C-80.2,249.9-80.2,250.2-80.2,250.6z M-86.6,247.4c-0.6,0.6-0.8,1.4-0.9,2.5v0.7v0.7c0,1.1,0.3,1.9,0.9,2.5s1.3,0.9,2.2,0.9
			s1.6-0.3,2.2-0.9c0.6-0.6,0.8-1.4,0.9-2.5c0-0.1,0-0.4,0-0.7s0-0.6,0-0.7c0-1.1-0.3-1.9-0.9-2.5s-1.3-0.9-2.2-0.9
			S-86.1,246.8-86.6,247.4z"/>
		<path class="st16" d="M-76.5,255.4c-0.1,0.1-0.2,0.1-0.3,0.1h-0.3c-0.1,0-0.2,0-0.3-0.1s-0.1-0.2-0.1-0.3v-12.7
			c0-0.1,0-0.2,0.1-0.3s0.2-0.1,0.3-0.1h0.3c0.1,0,0.2,0,0.3,0.1s0.1,0.2,0.1,0.3v12.7C-76.4,255.2-76.5,255.3-76.5,255.4z"/>
		<path class="st16" d="M-71.8,255.4c-0.1,0.1-0.2,0.1-0.3,0.1H-73c-0.1,0-0.2,0-0.3-0.1s-0.1-0.2-0.1-0.3v-0.9c0-0.1,0-0.2,0.1-0.3
			s0.2-0.1,0.3-0.1h0.9c0.1,0,0.2,0,0.3,0.1s0.1,0.2,0.1,0.3v0.9C-71.7,255.2-71.7,255.3-71.8,255.4z"/>
		<path class="st16" d="M-63.1,252.2l-1.2,3c0,0.1-0.1,0.1-0.1,0.2c-0.1,0.1-0.2,0.1-0.3,0.1h-0.4c-0.1,0-0.2,0-0.3-0.1
			s-0.1-0.2-0.1-0.3v-0.2l4.8-12.3c0.1-0.3,0.3-0.4,0.6-0.4h0.6c0.3,0,0.4,0.1,0.6,0.4l4.8,12.3v0.2c0,0.1,0,0.2-0.1,0.3
			s-0.2,0.1-0.3,0.1h-0.4c-0.1,0-0.2,0-0.3-0.1s-0.1-0.1-0.1-0.2l-1.2-3H-63.1z M-56.8,251.1l-2.9-7.5l-2.9,7.5H-56.8z"/>
		<path class="st16" d="M-51,255.4c-0.1,0.1-0.2,0.1-0.3,0.1h-0.3c-0.1,0-0.2,0-0.3-0.1s-0.1-0.2-0.1-0.3v-12.7c0-0.1,0-0.2,0.1-0.3
			s0.2-0.1,0.3-0.1h0.3c0.1,0,0.2,0,0.3,0.1s0.1,0.2,0.1,0.3v12.7C-50.9,255.2-50.9,255.3-51,255.4z"/>
		<path class="st16" d="M-46.2,253.8c0.5,0.6,1.3,0.8,2.2,0.8c0.7,0,1.3-0.1,1.7-0.4c0.5-0.3,0.8-0.8,1.1-1.5
			c0.1-0.2,0.1-0.3,0.2-0.3c0.1-0.1,0.1-0.1,0.3-0.1h0.3c0.1,0,0.2,0,0.3,0.1s0.1,0.2,0.1,0.3c0,0.5-0.2,1-0.5,1.4
			c-0.3,0.5-0.7,0.8-1.3,1.1s-1.3,0.4-2.1,0.4c-1.3,0-2.3-0.4-3.1-1.2c-0.7-0.8-1.1-1.8-1.1-3.2v-0.8v-0.8c0-1.4,0.4-2.5,1.1-3.2
			c0.7-0.8,1.7-1.1,3.1-1.1c0.8,0,1.5,0.1,2.1,0.4s1,0.7,1.3,1.1c0.3,0.5,0.4,0.9,0.5,1.4c0,0.1,0,0.2-0.1,0.3s-0.2,0.1-0.3,0.1
			h-0.3c-0.1,0-0.2,0-0.3-0.1s-0.1-0.2-0.2-0.3c-0.3-0.7-0.6-1.2-1.1-1.5s-1-0.4-1.7-0.4c-0.9,0-1.6,0.3-2.2,0.8
			c-0.5,0.6-0.8,1.4-0.9,2.5v0.7v0.7C-47,252.4-46.7,253.2-46.2,253.8z"/>
		<path class="st16" d="M-36.1,255.4c-0.1,0.1-0.2,0.1-0.3,0.1h-0.9c-0.1,0-0.2,0-0.3-0.1s-0.1-0.2-0.1-0.3v-0.9
			c0-0.1,0-0.2,0.1-0.3s0.2-0.1,0.3-0.1h0.9c0.1,0,0.2,0,0.3,0.1s0.1,0.2,0.1,0.3v0.9C-36,255.2-36,255.3-36.1,255.4z"/>
		<path class="st16" d="M-25.6,248.3c-0.3,0.1-0.6,0.3-0.9,0.5c-0.2,0.1-0.3,0.2-0.5,0.3c-0.1,0.1-0.2,0.1-0.4,0.1h-0.3
			c-0.1,0-0.2,0-0.3-0.1c-0.1-0.1-0.1-0.2-0.1-0.3l0.6-6.2c0-0.1,0.1-0.2,0.1-0.3c0.1-0.1,0.2-0.1,0.3-0.1h6.2c0.1,0,0.2,0,0.3,0.1
			c0.1,0.1,0.1,0.2,0.1,0.3v0.3c0,0.1,0,0.2-0.1,0.3c-0.1,0.1-0.2,0.1-0.3,0.1h-5.5l-0.4,4.3c0.7-0.4,1.5-0.6,2.5-0.6
			c0.9,0,1.6,0.2,2.3,0.5c0.7,0.3,1.2,0.8,1.6,1.5c0.4,0.6,0.6,1.4,0.6,2.3c0,1-0.2,1.8-0.6,2.4c-0.4,0.7-1,1.2-1.6,1.5
			c-0.7,0.3-1.5,0.5-2.3,0.5c-0.9,0-1.7-0.2-2.3-0.5c-0.7-0.3-1.2-0.8-1.5-1.3s-0.5-1.1-0.6-1.7l0,0c0-0.1,0-0.2,0.1-0.2
			c0.1-0.1,0.2-0.1,0.3-0.1h0.4c0.1,0,0.2,0,0.3,0.1s0.1,0.2,0.2,0.4c0.2,0.8,0.6,1.3,1.2,1.7c0.6,0.4,1.2,0.6,2,0.6
			c1,0,1.8-0.3,2.4-0.9c0.6-0.6,1-1.4,1-2.4c0-0.6-0.1-1.2-0.4-1.7s-0.7-0.8-1.2-1.1s-1.1-0.4-1.7-0.4
			C-24.9,248.1-25.3,248.2-25.6,248.3z"/>
		<path class="st16" d="M-16.9,253.7h0.9c0.1,0,0.2,0,0.2,0.1c0.1,0.1,0.1,0.1,0.1,0.2c0,0.1,0,0.2-0.1,0.3l-0.8,2.1
			c-0.1,0.1-0.1,0.2-0.2,0.3c-0.1,0.1-0.2,0.1-0.3,0.1h-0.3c-0.1,0-0.2,0-0.2-0.1c-0.1-0.1-0.1-0.2,0-0.3l0.4-2.3
			C-17.3,253.9-17.2,253.7-16.9,253.7z"/>
		<path class="st16" d="M-5.3,243.5c0.7,1,1.1,2.2,1.1,3.8c0,0.4,0,0.9,0,1.6s0,1.2,0,1.6c0,1.6-0.4,2.8-1.1,3.8s-1.9,1.4-3.4,1.4
			s-2.7-0.5-3.4-1.4c-0.7-1-1.1-2.2-1.1-3.8v-1.6v-1.6c0-1.6,0.4-2.8,1.1-3.8c0.7-1,1.9-1.4,3.4-1.4S-6,242.5-5.3,243.5z
			 M-11.2,244.3c-0.6,0.7-0.9,1.8-0.9,3.1v1.5v1.5c0,1.3,0.3,2.4,0.9,3.1c0.6,0.7,1.4,1.1,2.5,1.1s1.9-0.4,2.5-1.1s0.9-1.8,0.9-3.1
			c0-0.4,0-0.9,0-1.5s0-1.1,0-1.5c0-1.3-0.3-2.3-0.9-3.1c-0.6-0.7-1.4-1.1-2.5-1.1S-10.7,243.5-11.2,244.3z"/>
		<path class="st16" d="M2.7,248.2c-0.5,0.4-1.1,0.7-1.9,0.7s-1.4-0.2-1.9-0.7c-0.5-0.4-0.7-1-0.8-1.8c0-0.2,0-0.5,0-0.8
			c0-0.4,0-0.6,0-0.9c0-0.8,0.3-1.4,0.7-1.9s1.1-0.7,1.9-0.7s1.5,0.2,1.9,0.7s0.7,1.1,0.7,1.9c0,0.5,0,0.7,0,0.9c0,0.1,0,0.4,0,0.8
			C3.4,247.2,3.1,247.8,2.7,248.2z M-0.2,255.4c-0.1,0.1-0.2,0.1-0.4,0.1h-0.3c-0.1,0-0.2,0-0.3-0.1s-0.1-0.2-0.1-0.3s0-0.1,0.1-0.2
			l9.4-12.4c0.1-0.1,0.2-0.2,0.3-0.3s0.2-0.1,0.4-0.1h0.3c0.1,0,0.2,0,0.3,0.1s0.1,0.2,0.1,0.3s0,0.1-0.1,0.2L0.1,255
			C0,255.3-0.1,255.4-0.2,255.4z M1.9,247.4c0.2-0.3,0.4-0.7,0.4-1.1c0-0.5,0-0.7,0-0.8s0-0.3,0-0.8c0-0.4-0.2-0.8-0.4-1.1
			s-0.6-0.5-1.1-0.5s-0.9,0.2-1.1,0.5s-0.4,0.7-0.4,1.1c0,0.2,0,0.5,0,0.8s0,0.6,0,0.8c0,0.4,0.2,0.8,0.4,1.1
			c0.2,0.3,0.6,0.5,1.1,0.5S1.7,247.7,1.9,247.4z M9.4,254.9c-0.5,0.5-1.1,0.7-1.9,0.7s-1.4-0.2-1.9-0.7s-0.7-1.1-0.8-1.9
			c0-0.2,0-0.5,0-0.8c0-0.4,0-0.6,0-0.9c0-0.8,0.3-1.4,0.7-1.9s1.1-0.7,1.9-0.7c0.8,0,1.5,0.2,1.9,0.7s0.7,1.1,0.7,1.9
			c0,0.5,0,0.7,0,0.9c0,0.1,0,0.4,0,0.8C10.1,253.9,9.9,254.5,9.4,254.9z M8.6,254.1c0.2-0.3,0.4-0.7,0.4-1.1c0-0.5,0-0.7,0-0.8
			s0-0.3,0-0.8c0-0.4-0.2-0.8-0.4-1.1s-0.6-0.5-1.1-0.5s-0.9,0.2-1.1,0.5C6.2,250.6,6,251,6,251.4c0,0.2,0,0.5,0,0.8s0,0.6,0,0.8
			c0,0.4,0.2,0.8,0.4,1.1s0.6,0.5,1.1,0.5C8,254.6,8.4,254.4,8.6,254.1z"/>
	</g>
</g>
<g id="Texture">
</g>
<g id="Designed_by_Freepik" class="st18">
	<path class="st19" d="M-850.4-225.9"/>
	<path class="st20" d="M-840-225.9"/>
	
		<text transform="matrix(1 0 0 1 -1582.9321 -182.5857)" style="display:inline;fill:#AAAAAA; font-family:'Rubik-Light'; font-size:19px;">V</text>
	
		<text transform="matrix(1 0 0 1 -1571.8323 -182.5857)" style="display:inline;fill:#AAAAAA; font-family:'Rubik-Light'; font-size:19px;">ol.</text>
	
		<text transform="matrix(1 0 0 1 -1552.4321 -182.5857)" style="display:inline;fill:#AAAAAA; font-family:'Rubik-Light'; font-size:19px;"> </text>
	
		<text transform="matrix(1 0 0 1 -1548.0322 -182.5857)" style="display:inline;fill:#AAAAAA; font-family:'Rubik-Light'; font-size:19px;">Alc. </text>
	
		<text transform="matrix(1 0 0 1 -1511.7322 -182.5857)" style="display:inline;fill:#AAAAAA; font-family:'Rubik-Light'; font-size:19px;">4</text>
	
		<text transform="matrix(1 0 0 1 -1500.6322 -182.5857)" style="display:inline;fill:#AAAAAA; font-family:'Rubik-Light'; font-size:19px;">,</text>
	
		<text transform="matrix(1 0 0 1 -1497.0322 -182.5857)" style="display:inline;fill:#AAAAAA; font-family:'Rubik-Light'; font-size:19px;">9% </text>
	
		<text transform="matrix(1 0 0 1 -1575.1996 -214.8882)" style="display:inline;fill:#FFFFFF; font-family:'Rubik-Regular'; font-size:32px;">W</text>
	
		<text transform="matrix(1 0 0 1 -1550.5996 -214.8882)" style="display:inline;fill:#FFFFFF; font-family:'Rubik-Regular'; font-size:32px;">eisse</text>
	
		<text transform="matrix(1 0 0 1 -1379.6462 160.3304)" style="display:inline;fill:#AAAAAA; font-family:'Rubik-Light'; font-size:19px;">V</text>
	
		<text transform="matrix(1 0 0 1 -1368.5464 160.3304)" style="display:inline;fill:#AAAAAA; font-family:'Rubik-Light'; font-size:19px;">ol.</text>
	
		<text transform="matrix(1 0 0 1 -1349.1462 160.3304)" style="display:inline;fill:#AAAAAA; font-family:'Rubik-Light'; font-size:19px;"> </text>
	
		<text transform="matrix(1 0 0 1 -1344.7463 160.3304)" style="display:inline;fill:#AAAAAA; font-family:'Rubik-Light'; font-size:19px;">Alc.  5,6%</text>
	
		<text transform="matrix(1 0 0 1 -1207.4198 160.3297)" style="display:inline;fill:#AAAAAA; font-family:'Rubik-Light'; font-size:19px;">V</text>
	
		<text transform="matrix(1 0 0 1 -1196.3198 160.3297)" style="display:inline;fill:#AAAAAA; font-family:'Rubik-Light'; font-size:19px;">ol.</text>
	
		<text transform="matrix(1 0 0 1 -1176.9198 160.3297)" style="display:inline;fill:#AAAAAA; font-family:'Rubik-Light'; font-size:19px;"> </text>
	
		<text transform="matrix(1 0 0 1 -1172.5198 160.3297)" style="display:inline;fill:#AAAAAA; font-family:'Rubik-Light'; font-size:19px;">Alc. 6</text>
	
		<text transform="matrix(1 0 0 1 -1125.2197 160.3297)" style="display:inline;fill:#AAAAAA; font-family:'Rubik-Light'; font-size:19px;">,</text>
	
		<text transform="matrix(1 0 0 1 -1121.5198 160.3297)" style="display:inline;fill:#AAAAAA; font-family:'Rubik-Light'; font-size:19px;">9%</text>
	
		<text transform="matrix(1 0 0 1 -851.7236 160.3305)" style="display:inline;fill:#AAAAAA; font-family:'Rubik-Light'; font-size:19px;">V</text>
	
		<text transform="matrix(1 0 0 1 -840.6238 160.3305)" style="display:inline;fill:#AAAAAA; font-family:'Rubik-Light'; font-size:19px;">ol.</text>
	
		<text transform="matrix(1 0 0 1 -821.2236 160.3305)" style="display:inline;fill:#AAAAAA; font-family:'Rubik-Light'; font-size:19px;"> </text>
	
		<text transform="matrix(1 0 0 1 -816.8237 160.3305)" style="display:inline;fill:#AAAAAA; font-family:'Rubik-Light'; font-size:19px;">Alc. </text>
	
		<text transform="matrix(1 0 0 1 -780.5237 160.3305)" style="display:inline;fill:#AAAAAA; font-family:'Rubik-Light'; font-size:19px;">9</text>
	
		<text transform="matrix(1 0 0 1 -770.9237 160.3305)" style="display:inline;fill:#AAAAAA; font-family:'Rubik-Light'; font-size:19px;">,</text>
	
		<text transform="matrix(1 0 0 1 -767.6238 160.3305)" style="display:inline;fill:#AAAAAA; font-family:'Rubik-Light'; font-size:19px;">1%</text>
	
		<text transform="matrix(1 0 0 1 -1037.49 160.3303)" style="display:inline;fill:#AAAAAA; font-family:'Rubik-Light'; font-size:19px;">V</text>
	
		<text transform="matrix(1 0 0 1 -1026.39 160.3303)" style="display:inline;fill:#AAAAAA; font-family:'Rubik-Light'; font-size:19px;">ol.</text>
	
		<text transform="matrix(1 0 0 1 -1006.99 160.3303)" style="display:inline;fill:#AAAAAA; font-family:'Rubik-Light'; font-size:19px;"> </text>
	
		<text transform="matrix(1 0 0 1 -1002.5898 160.3303)" style="display:inline;fill:#AAAAAA; font-family:'Rubik-Light'; font-size:19px;">Alc. 6</text>
	
		<text transform="matrix(1 0 0 1 -955.2899 160.3303)" style="display:inline;fill:#AAAAAA; font-family:'Rubik-Light'; font-size:19px;">,</text>
	
		<text transform="matrix(1 0 0 1 -951.99 160.3303)" style="display:inline;fill:#AAAAAA; font-family:'Rubik-Light'; font-size:19px;">1%</text>
	
		<text transform="matrix(1 0 0 1 -1573.6426 160.3303)" style="display:inline;fill:#AAAAAA; font-family:'Rubik-Light'; font-size:19px;">V</text>
	
		<text transform="matrix(1 0 0 1 -1562.5426 160.3303)" style="display:inline;fill:#AAAAAA; font-family:'Rubik-Light'; font-size:19px;">ol.</text>
	
		<text transform="matrix(1 0 0 1 -1543.1426 160.3303)" style="display:inline;fill:#AAAAAA; font-family:'Rubik-Light'; font-size:19px;"> </text>
	
		<text transform="matrix(1 0 0 1 -1538.7427 160.3303)" style="display:inline;fill:#AAAAAA; font-family:'Rubik-Light'; font-size:19px;">Alc. 5</text>
	
		<text transform="matrix(1 0 0 1 -1491.6426 160.3303)" style="display:inline;fill:#AAAAAA; font-family:'Rubik-Light'; font-size:19px;">,</text>
	
		<text transform="matrix(1 0 0 1 -1487.3425 160.3303)" style="display:inline;fill:#AAAAAA; font-family:'Rubik-Light'; font-size:19px;">0%</text>
	
		<text transform="matrix(1 0 0 1 -1582.293 125.3163)" style="display:inline;fill:#FFFFFF; font-family:'Rubik-Regular'; font-size:32px;">Irish </text>
	
		<text transform="matrix(1 0 0 1 -1510.4929 125.3163)" style="display:inline;fill:#FFFFFF; font-family:'Rubik-Regular'; font-size:32px;">R</text>
	
		<text transform="matrix(1 0 0 1 -1489.8931 125.3163)" style="display:inline;fill:#FFFFFF; font-family:'Rubik-Regular'; font-size:32px;">ed</text>
	
		<text transform="matrix(1 0 0 1 -914.449 125.3165)" style="display:inline;fill:#FFFFFF; font-family:'Rubik-Regular'; font-size:32px;">Dar</text>
	
		<text transform="matrix(1 0 0 1 -862.849 125.3165)" style="display:inline;fill:#FFFFFF; font-family:'Rubik-Regular'; font-size:32px;">k</text>
	
		<text transform="matrix(1 0 0 1 -846.849 125.3165)" style="display:inline;fill:#FFFFFF; font-family:'Rubik-Regular'; font-size:32px;"> St</text>
	
		<text transform="matrix(1 0 0 1 -806.449 125.3165)" style="display:inline;fill:#FFFFFF; font-family:'Rubik-Regular'; font-size:32px;">r</text>
	
		<text transform="matrix(1 0 0 1 -794.549 125.3165)" style="display:inline;fill:#FFFFFF; font-family:'Rubik-Regular'; font-size:32px;">ong</text>
	
		<text transform="matrix(1 0 0 1 -737.5491 125.3165)" style="display:inline;fill:#FFFFFF; font-family:'Rubik-Regular'; font-size:32px;"> </text>
	
		<text transform="matrix(1 0 0 1 -730.5491 125.3165)" style="display:inline;fill:#FFFFFF; font-family:'Rubik-Regular'; font-size:32px;">Ale</text>
	
		<text transform="matrix(1 0 0 1 -1413.834 125.3163)" style="display:inline;fill:#FFFFFF; font-family:'Rubik-Regular'; font-size:32px;">Pumpkin</text>
	
		<text transform="matrix(1 0 0 1 -1283.134 125.3163)" style="display:inline;fill:#FFFFFF; font-family:'Rubik-Regular'; font-size:32px;"> </text>
	
		<text transform="matrix(1 0 0 1 -1276.134 125.3163)" style="display:inline;fill:#FFFFFF; font-family:'Rubik-Regular'; font-size:32px;">Ale</text>
	
		<text transform="matrix(1 0 0 1 -1204.4608 125.3157)" style="display:inline;fill:#FFFFFF; font-family:'Rubik-Regular'; font-size:32px;">Dubbel</text>
	
		<text transform="matrix(1 0 0 1 -1025.4011 125.3163)" style="display:inline;fill:#FFFFFF; font-family:'Rubik-Regular'; font-size:32px;">Stout</text>
	
		<text transform="matrix(1 0 0 1 -1410.2905 -182.5857)" style="display:inline;fill:#AAAAAA; font-family:'Rubik-Light'; font-size:19px;">V</text>
	
		<text transform="matrix(1 0 0 1 -1399.1907 -182.5857)" style="display:inline;fill:#AAAAAA; font-family:'Rubik-Light'; font-size:19px;">ol.</text>
	
		<text transform="matrix(1 0 0 1 -1379.7905 -182.5857)" style="display:inline;fill:#AAAAAA; font-family:'Rubik-Light'; font-size:19px;"> </text>
	
		<text transform="matrix(1 0 0 1 -1375.3906 -182.5857)" style="display:inline;fill:#AAAAAA; font-family:'Rubik-Light'; font-size:19px;">Alc. 5</text>
	
		<text transform="matrix(1 0 0 1 -1328.2905 -182.5857)" style="display:inline;fill:#AAAAAA; font-family:'Rubik-Light'; font-size:19px;">,</text>
	
		<text transform="matrix(1 0 0 1 -1323.9906 -182.5857)" style="display:inline;fill:#AAAAAA; font-family:'Rubik-Light'; font-size:19px;">0%</text>
	
		<text transform="matrix(1 0 0 1 -712.5264 -182.5855)" style="display:inline;fill:#AAAAAA; font-family:'Rubik-Light'; font-size:19px;">V</text>
	
		<text transform="matrix(1 0 0 1 -701.4265 -182.5855)" style="display:inline;fill:#AAAAAA; font-family:'Rubik-Light'; font-size:19px;">ol.</text>
	
		<text transform="matrix(1 0 0 1 -682.0264 -182.5855)" style="display:inline;fill:#AAAAAA; font-family:'Rubik-Light'; font-size:19px;"> </text>
	
		<text transform="matrix(1 0 0 1 -677.6265 -182.5855)" style="display:inline;fill:#AAAAAA; font-family:'Rubik-Light'; font-size:19px;">Alc. 5,6%</text>
	
		<text transform="matrix(1 0 0 1 -895.9841 -182.5855)" style="display:inline;fill:#AAAAAA; font-family:'Rubik-Light'; font-size:19px;">V</text>
	
		<text transform="matrix(1 0 0 1 -884.8843 -182.5855)" style="display:inline;fill:#AAAAAA; font-family:'Rubik-Light'; font-size:19px;">ol.</text>
	
		<text transform="matrix(1 0 0 1 -865.4841 -182.5855)" style="display:inline;fill:#AAAAAA; font-family:'Rubik-Light'; font-size:19px;"> </text>
	
		<text transform="matrix(1 0 0 1 -861.0842 -182.5855)" style="display:inline;fill:#AAAAAA; font-family:'Rubik-Light'; font-size:19px;">Alc. 5</text>
	
		<text transform="matrix(1 0 0 1 -813.9841 -182.5855)" style="display:inline;fill:#AAAAAA; font-family:'Rubik-Light'; font-size:19px;">,</text>
	
		<text transform="matrix(1 0 0 1 -809.6842 -182.5855)" style="display:inline;fill:#AAAAAA; font-family:'Rubik-Light'; font-size:19px;">0%</text>
	
		<text transform="matrix(1 0 0 1 -1226.7617 -182.5853)" style="display:inline;fill:#AAAAAA; font-family:'Rubik-Light'; font-size:19px;">V</text>
	
		<text transform="matrix(1 0 0 1 -1215.6619 -182.5853)" style="display:inline;fill:#AAAAAA; font-family:'Rubik-Light'; font-size:19px;">ol.</text>
	
		<text transform="matrix(1 0 0 1 -1196.2617 -182.5853)" style="display:inline;fill:#AAAAAA; font-family:'Rubik-Light'; font-size:19px;"> </text>
	
		<text transform="matrix(1 0 0 1 -1191.8618 -182.5853)" style="display:inline;fill:#AAAAAA; font-family:'Rubik-Light'; font-size:19px;">Alc. 5</text>
	
		<text transform="matrix(1 0 0 1 -1144.7617 -182.5853)" style="display:inline;fill:#AAAAAA; font-family:'Rubik-Light'; font-size:19px;">,</text>
	
		<text transform="matrix(1 0 0 1 -1140.4618 -182.5853)" style="display:inline;fill:#AAAAAA; font-family:'Rubik-Light'; font-size:19px;">0%</text>
	
		<text transform="matrix(1 0 0 1 -1035.4583 -214.8879)" style="display:inline;fill:#FFFFFF; font-family:'Rubik-Regular'; font-size:32px;">I</text>
	
		<text transform="matrix(1 0 0 1 -1026.9583 -214.8879)" style="display:inline;fill:#FFFFFF; font-family:'Rubik-Regular'; font-size:32px;">P</text>
	
		<text transform="matrix(1 0 0 1 -1007.7583 -214.8879)" style="display:inline;fill:#FFFFFF; font-family:'Rubik-Regular'; font-size:32px;">A</text>
	
		<text transform="matrix(1 0 0 1 -986.8583 -214.8879)" style="display:inline;fill:#FFFFFF; font-family:'Rubik-Regular'; font-size:32px;"> </text>
	
		<text transform="matrix(1 0 0 1 -871.2905 -214.8882)" style="display:inline;fill:#FFFFFF; font-family:'Rubik-Regular'; font-size:32px;">A</text>
	
		<text transform="matrix(1 0 0 1 -849.4906 -214.8882)" style="display:inline;fill:#FFFFFF; font-family:'Rubik-Regular'; font-size:32px;">P</text>
	
		<text transform="matrix(1 0 0 1 -830.3906 -214.8882)" style="display:inline;fill:#FFFFFF; font-family:'Rubik-Regular'; font-size:32px;">A</text>
	
		<text transform="matrix(1 0 0 1 -1200.6606 -214.8879)" style="display:inline;fill:#FFFFFF; font-family:'Rubik-Regular'; font-size:32px;">E</text>
	
		<text transform="matrix(1 0 0 1 -1181.7606 -214.8879)" style="display:inline;fill:#FFFFFF; font-family:'Rubik-Regular'; font-size:32px;">P</text>
	
		<text transform="matrix(1 0 0 1 -1162.5605 -214.8879)" style="display:inline;fill:#FFFFFF; font-family:'Rubik-Regular'; font-size:32px;">A</text>
	
		<text transform="matrix(1 0 0 1 -746.2053 -214.8879)" style="display:inline;fill:#FFFFFF; font-family:'Rubik-Regular'; font-size:32px;">Sc</text>
	
		<text transform="matrix(1 0 0 1 -708.7053 -214.8879)" style="display:inline;fill:#FFFFFF; font-family:'Rubik-Regular'; font-size:32px;">o</text>
	
		<text transform="matrix(1 0 0 1 -690.4053 -214.8879)" style="display:inline;fill:#FFFFFF; font-family:'Rubik-Regular'; font-size:32px;">ttish</text>
	
		<text transform="matrix(1 0 0 1 -621.4053 -214.8879)" style="display:inline;fill:#FFFFFF; font-family:'Rubik-Regular'; font-size:32px;"> </text>
	
		<text transform="matrix(1 0 0 1 -614.5054 -214.8879)" style="display:inline;fill:#FFFFFF; font-family:'Rubik-Regular'; font-size:32px;">Ale</text>
	
		<text transform="matrix(1 0 0 1 -1433.3567 -214.8883)" style="display:inline;fill:#FFFFFF; font-family:'Rubik-Regular'; font-size:32px;">Blonde</text>
	
		<text transform="matrix(1 0 0 1 -1329.4568 -214.8883)" style="display:inline;fill:#FFFFFF; font-family:'Rubik-Regular'; font-size:32px;"> </text>
	
		<text transform="matrix(1 0 0 1 -1322.4568 -214.8883)" style="display:inline;fill:#FFFFFF; font-family:'Rubik-Regular'; font-size:32px;">Ale</text>
	
		<text transform="matrix(1 0 0 1 -1063.2712 -182.5854)" style="display:inline;fill:#AAAAAA; font-family:'Rubik-Light'; font-size:19px;">V</text>
	
		<text transform="matrix(1 0 0 1 -1052.1711 -182.5854)" style="display:inline;fill:#AAAAAA; font-family:'Rubik-Light'; font-size:19px;">ol.</text>
	
		<text transform="matrix(1 0 0 1 -1032.7712 -182.5854)" style="display:inline;fill:#AAAAAA; font-family:'Rubik-Light'; font-size:19px;"> </text>
	
		<text transform="matrix(1 0 0 1 -1028.3712 -182.5854)" style="display:inline;fill:#AAAAAA; font-family:'Rubik-Light'; font-size:19px;">Alc. 5</text>
	
		<text transform="matrix(1 0 0 1 -981.2712 -182.5854)" style="display:inline;fill:#AAAAAA; font-family:'Rubik-Light'; font-size:19px;">,</text>
	
		<text transform="matrix(1 0 0 1 -976.9712 -182.5854)" style="display:inline;fill:#AAAAAA; font-family:'Rubik-Light'; font-size:19px;">0%</text>
</g>
</svg>
