<?xml version="1.0" encoding="utf-8"?>
<!-- Generator: Adobe Illustrator 19.0.0, SVG Export Plug-In . SVG Version: 6.00 Build 0)  -->
<!DOCTYPE svg PUBLIC "-//W3C//DTD SVG 1.1//EN" "http://www.w3.org/Graphics/SVG/1.1/DTD/svg11.dtd">
<svg version="1.1" id="Layer_1" xmlns="http://www.w3.org/2000/svg" xmlns:xlink="http://www.w3.org/1999/xlink" x="0px" y="0px"
	 viewBox="-299 -78 360 716" style="enable-background:new -299 -78 360 716;" xml:space="preserve">
<style type="text/css">
	.st0{fill:#F1E0C2;stroke:#5A4941;stroke-width:3.3163;stroke-linecap:round;stroke-linejoin:round;stroke-miterlimit:10;}
	.st1{fill:none;stroke:#5A4941;stroke-width:3.3163;stroke-linecap:round;stroke-linejoin:round;stroke-miterlimit:10;}
	.st2{fill:#E8D480;}
	.st3{fill:#E8D480;stroke:#5A4941;stroke-width:3.3163;stroke-miterlimit:10;}
	.st4{fill:#E18726;stroke:#5A4941;stroke-width:3.3163;stroke-miterlimit:10;}
	.st5{fill:none;}
	.st6{fill:#5A4941;}
	.st7{fill:#F7ECDA;}
	.st8{fill:#F1E0C2;}
	.st9{fill:#E0A328;}
	.st10{fill:#E0A328;stroke:#5A4941;stroke-width:3.3163;stroke-miterlimit:10;}
	.st11{fill:#C17529;stroke:#5A4941;stroke-width:3.3163;stroke-miterlimit:10;}
	.st12{fill:#8E8D8B;}
	.st13{fill:#FAFAFA;}
	.st14{fill:#EF6F24;}
	.st15{fill:none;stroke:#5A4941;stroke-width:3.3163;stroke-miterlimit:10;}
	.st16{fill:#F1E0C2;stroke:#5A4941;stroke-width:3.3163;stroke-miterlimit:10;}
	.st17{fill:#F1E0C2;stroke:#5A4941;stroke-width:3.3163;stroke-linecap:round;stroke-miterlimit:10;}
	.st18{fill:none;stroke:#5A4941;stroke-width:3.3163;stroke-linecap:round;stroke-miterlimit:10;}
	.st19{fill:#D8821A;}
	.st20{display:none;}
	.st21{display:inline;fill:none;stroke:#5A4941;stroke-width:3.3163;stroke-miterlimit:10;}
	.st22{display:inline;fill:none;stroke:#F7ECDA;stroke-width:11.0544;stroke-linecap:round;stroke-miterlimit:10;}
	.st23{display:inline;}
	.st24{enable-background:new    ;}
	.st25{fill:#AAAAAA;}
	.st26{fill:#FFFFFF;}
	.st27{display:inline;fill:#AAAAAA;}
	.st28{font-family:'Rubik-Light';}
	.st29{font-size:19px;}
	.st30{display:inline;fill:#FFFFFF;}
	.st31{font-family:'Rubik-Regular';}
	.st32{font-size:32px;}
</style>
<g id="Objects">
	<path class="st0" d="M-10,524.3"/>
	<path class="st0" d="M0.1,524.3"/>
</g>
<g id="Background">
	<g>
		<g>
			<path class="st0" d="M-170.3,6.6l2.9-31.2c0.3-3-2.1-5.5-5.1-5.5h-97.8c-3,0-5.3,2.6-5.1,5.5l2.9,31.2c-5,1.6-8.4,8.1-7.7,15.5
				c0.7,7.4,5.2,13.1,10.4,13.8l10.4,111.7c0.2,2.3,1.9,4.1,4.2,4.5c27.4,4.9,56.9,1.4,67.4-0.1c2.3-0.3,4.1-2.2,4.3-4.6l10.4-111.5
				c5.2-0.7,9.7-6.4,10.4-13.8C-161.9,14.7-165.3,8.2-170.3,6.6z"/>
			<g>
				<path class="st0" d="M-172.5-30.1c0,0,3.8-19-11.3-30.3c-15.1-11.2-35.9-1.3-37.6,5.6c0,0-13.4-16-26.8,2.2
					c0,0-22.6,0-22.1,22.5C-270.2-30.1-172.5-30.1-172.5-30.1z"/>
				<g>
					<path class="st1" d="M-234.3-54.8c4.1,0,7.9,4.1,7.9,4.2c1.2,1.5,3.1,2.3,5,2.3c0.5,0,1-0.1,1.5-0.2c1.8-0.4,3.4-1.6,4.3-3.3
						c1.1-2,2.8-3.5,4.8-4.5c2.9-1.5,6.9-2.8,11.4-2.8s8.5,1.3,11.9,3.8c3,2.2,5.1,4.9,6.4,7.6"/>
					<path class="st1" d="M-263-36.6c0.6-1.9,1.5-3.5,2.8-4.8c4.4-4.5,11.9-4.7,12-4.7"/>
				</g>
			</g>
		</g>
		<g>
			<path class="st2" d="M-273.2,23.8c0.9,3.4,3,5.5,4.3,5.7c3,0.4,5.3,2.8,5.6,5.8l9.8,105.6c0.3,3,2.6,5.4,5.5,5.8
				c7.4,1,15.4,1.5,24,1.5l0,0c11.5,0,21.8-0.9,29-1.7c3-0.4,5.4-2.8,5.7-5.8l9.8-105.4c0.3-3,2.6-5.4,5.6-5.8
				c1.4-0.2,3.5-2.3,4.4-5.8C-228.2,27.9-264.9,24.7-273.2,23.8z"/>
			<g>
				<path class="st1" d="M-280.1,22.2c0,0,40.9,7.7,117.5,0"/>
				<g>
					<g>
						<circle class="st3" cx="-230.6" cy="39.6" r="3.7"/>
						<circle class="st3" cx="-226.9" cy="59.9" r="2.8"/>
						<circle class="st4" cx="-230.6" cy="71.3" r="1.2"/>
					</g>
					<g>
						<g>
							<g>
								<line class="st5" x1="-178.4" y1="-30.9" x2="-187.8" y2="78.3"/>
								<polygon class="st6" points="-176.7,-30.7 -187.8,78.3 -180,-31 								"/>
							</g>
							<g>
								<line class="st5" x1="-185.9" y1="-29.3" x2="-191.7" y2="50.4"/>
								<polygon class="st6" points="-184.3,-29.1 -191.7,50.4 -187.6,-29.4 								"/>
							</g>
						</g>
						<g>
							<path class="st7" d="M-250.1-15l1.9,125.8l-12.9-125.1c-0.3-3,1.9-5.8,4.9-6.1s5.8,1.9,6.1,4.9
								C-250.1-15.3-250.1-15.1-250.1-15z"/>
						</g>
					</g>
				</g>
			</g>
		</g>
	</g>
	<g>
		<g>
			<g>
				<g>
					<path class="st0" d="M-86.1,151.5c-1.1,0-1.9-0.9-1.9-1.9l0,0c0-1.1,0.8-2.1,1.9-2.3c33.2-5.9,30.8-34.3,30.8-34.3V87.1
						c4.6,0,13.4,0,13.4,0V113c0,0-2.4,28.4,30.8,34.3c1.1,0.2,1.9,1.2,1.9,2.3l0,0c0,1.1-0.9,1.9-1.9,1.9
						C-11.2,151.5-49.9,155.5-86.1,151.5z"/>
					<g>
						<path class="st8" d="M-82.5,146.6c0,0,25.7,2.4,53.9,1"/>
						<path class="st6" d="M-82.3,144.9c0,0,3.3,0.4,8.3,0.9s11.7,1,18.5,1.3c3.4,0.2,6.7,0.3,9.9,0.4c3.2,0.1,6.1,0.1,8.6,0.1
							s4.6,0,6.1,0s2.3,0,2.3,0s-0.8,0.1-2.3,0.2c-1.5,0.1-3.6,0.3-6.1,0.4c-2.5,0.2-5.5,0.3-8.6,0.4c-3.2,0.1-6.5,0.2-9.9,0.2
							c-6.8,0.1-13.5,0-18.6-0.2s-8.5-0.4-8.5-0.4c-0.9-0.1-1.6-0.8-1.6-1.8c0.1-0.9,0.8-1.6,1.8-1.6
							C-82.4,144.9-82.3,144.9-82.3,144.9z"/>
					</g>
				</g>
				<g>
					<path class="st8" d="M-46.8,88.3v24.4c-0.4,5.6,0.8,14,5.8,21.7"/>
					<path class="st6" d="M-45.2,88.3l-0.9,24.4v0.1l0,0c-0.4,3.7-0.1,7.5,0.8,11.1c0.2,0.9,0.5,1.8,0.7,2.7
						c0.1,0.5,0.3,0.9,0.5,1.3c0.1,0.4,0.3,0.9,0.5,1.3c0.2,0.4,0.4,0.9,0.6,1.3c0.2,0.4,0.4,0.9,0.6,1.3c0.4,0.9,0.9,1.7,1.4,2.5
						c-0.5-0.8-1.1-1.6-1.5-2.4c-0.3-0.4-0.5-0.8-0.7-1.2s-0.4-0.8-0.7-1.3c-0.2-0.4-0.4-0.9-0.6-1.3c-0.2-0.4-0.4-0.9-0.6-1.3
						c-0.4-0.9-0.7-1.8-1-2.7c-1.1-3.7-1.7-7.5-1.6-11.4v0.1l-0.9-24.4c0-0.9,0.7-1.7,1.6-1.7C-46.1,86.7-45.3,87.4-45.2,88.3
						C-45.2,88.2-45.2,88.3-45.2,88.3z"/>
				</g>
			</g>
			<g>
				<path class="st0" d="M-85.6-40.9c-1.2-17.9,17-16.4,17-16.4s3.3-10.6,17-10.3C-37.9-67.3-34.3-56-34.3-56
					c24-0.9,21.9,15.2,21.9,15.2L-85.6-40.9L-85.6-40.9z"/>
				<g>
					<path class="st1" d="M-78.7-47c0.3-0.6,0.6-1.1,1-1.6c2.4-2.5,6.8-2.7,8.1-2.7c0.3,0,0.5,0,0.6,0c0.2,0,0.3,0,0.5,0
						c2.7,0,5.1-1.6,5.8-4.3c2.1-5.8,9.2-6.1,10.7-6.1h0.4c4.3,0.1,7.1,1.7,8.9,3.4"/>
					<path class="st1" d="M-32.3-50.1c5.4,0,9.5,1.1,11.7,3.1"/>
				</g>
			</g>
			<path class="st0" d="M-89.1-40.9c0,0,3.2,18.7-7.3,56.8s1.2,64.6,34.5,70c16.6,2.7,26.7,0,26.7,0C-2,80.5,9.8,54-0.7,15.9
				S-8-40.9-8-40.9H-89.1z"/>
		</g>
		<g>
			<path class="st9" d="M-6.7,17.5c-2.5-8.9-4.2-16.8-5.4-23.7c-32.3,1.8-61,0.7-73.1,0c-1.2,6.9-2.9,14.7-5.4,23.6
				C-96,37-95.2,53.1-88.2,64c5.4,8.5,14.6,13.8,27.2,15.8c4.6,0.8,9.1,1.1,13.3,1.1l0,0c6.8,0,10.8-1,10.8-1
				c0.2-0.1,0.4-0.1,0.6-0.1c12.6-2,21.7-7.4,27.2-15.8C-2.1,53.1-1.3,37-6.7,17.5z"/>
			<g>
				<path class="st1" d="M-91.3-6.6c0,0,39.9,3,85.3,0"/>
				<g>
					<g>
						<path class="st7" d="M-68.2-25.7c0,0-0.2,1.5-0.5,4.2c-0.3,2.7-0.8,6.5-1.7,11.1S-72.5-0.5-74.2,5c-0.9,2.8-1.9,5.6-3.1,8.5
							c-0.3,0.7-0.6,1.4-0.9,2.1c-0.3,0.7-0.6,1.4-0.9,2c-0.3,0.7-0.6,1.4-0.9,2l-0.8,2c-2.1,5.4-3.3,11.1-3.7,16.5
							c-0.4,5.4,0.1,10.6,1.2,14.9s2.7,7.7,4.3,9.7c0.8,1,1.5,1.7,2.1,2.1c0.3,0.2,0.5,0.3,0.7,0.4c0.2,0.1,0.2,0.1,0.2,0.1
							s-0.1,0-0.3-0.1c-0.2-0.1-0.4-0.2-0.7-0.4c-0.6-0.3-1.5-1-2.4-1.9c-1.9-1.9-4-5.2-5.6-9.5s-2.8-9.6-3.1-15.4
							c-0.3-5.8,0.4-12.1,1.9-18.1l0.6-2.3c0.2-0.8,0.4-1.4,0.7-2.2c0.2-0.7,0.5-1.4,0.7-2.1s0.4-1.4,0.6-2.1
							c0.8-2.7,1.4-5.5,1.9-8.1c1-5.3,1.6-10.4,1.9-14.8s0.4-8,0.4-10.5c0-2.6,0-4,0-4v-0.1c0-3.1,2.4-5.6,5.5-5.6s5.6,2.4,5.6,5.5
							C-68.1-26.2-68.2-26-68.2-25.7z"/>
					</g>
					<g>
						<g>
							<path class="st6" d="M-15.4-40.8c0,0,0,0.4-0.1,1.1c0,0.8-0.1,1.9-0.1,3.3s-0.1,3.2,0,5.2c0,2,0.1,4.2,0.2,6.7
								c0.1,1.2,0.2,2.5,0.3,3.8s0.2,2.7,0.4,4.1c0.1,1.4,0.3,2.8,0.5,4.3c0.2,1.5,0.4,3,0.6,4.5s0.5,3.1,0.7,4.6
								c0.3,1.6,0.5,3.2,0.9,4.7c0.6,3.2,1.3,6.4,2.1,9.6s1.5,6.4,2.2,9.6c0.3,1.6,0.7,3.2,1,4.8c0.3,1.6,0.6,3.1,0.8,4.7
								c0.5,3.1,0.9,6.1,1,8.9c0.1,2.9,0.1,5.6-0.3,8.1c-0.3,2.5-0.9,4.7-1.6,6.6c-0.2,0.5-0.3,0.9-0.5,1.4
								c-0.2,0.4-0.4,0.9-0.5,1.3c-0.3,0.8-0.7,1.5-1,2.2c-0.6,1.3-1.2,2.3-1.5,3c-0.4,0.7-0.6,1-0.6,1s0.2-0.4,0.5-1.1
								s0.9-1.7,1.4-3c0.3-0.7,0.6-1.4,0.9-2.2c0.2-0.4,0.3-0.8,0.5-1.3c0.1-0.4,0.3-0.9,0.4-1.4c0.6-1.9,1.1-4.1,1.4-6.6
								c0.3-2.4,0.2-5.1,0-7.9c-0.2-2.8-0.7-5.8-1.3-8.8c-0.3-1.5-0.6-3-1-4.6c-0.4-1.5-0.7-3.1-1.1-4.7c-0.8-3.1-1.6-6.3-2.5-9.5
								c-0.8-3.2-1.7-6.4-2.4-9.6c-0.4-1.6-0.7-3.2-1-4.8c-0.3-1.6-0.6-3.1-0.9-4.7c-0.3-1.5-0.5-3-0.8-4.5
								c-0.2-1.5-0.5-2.9-0.6-4.4c-0.2-1.4-0.4-2.8-0.5-4.1c-0.1-1.3-0.3-2.6-0.4-3.9c-0.2-2.5-0.4-4.8-0.5-6.8
								c-0.1-2-0.1-3.8-0.2-5.3c0-1.5,0-2.6,0-3.4c0-0.8,0-1.2,0-1.2L-15.4-40.8z"/>
						</g>
						<g>
							<path class="st6" d="M-22.2-40.7c0,0,0,0.3-0.1,0.7c0,0.5-0.1,1.2-0.1,2.1c-0.1,1.8-0.1,4.4,0,7.6c0.2,6.3,0.8,14.6,2.1,22.9
								c0.3,2.1,0.7,4.1,1,6.2c0.4,2,0.8,4,1.2,6c0.9,3.9,1.7,7.4,2.4,10.5c1.4,6.2,2.4,10.3,2.4,10.3s-1.1-4.1-2.9-10.2
								c-0.9-3-1.9-6.6-2.9-10.4c-0.5-1.9-1-3.9-1.5-5.9s-1-4.1-1.3-6.2c-1.7-8.3-2.8-16.7-3.3-23.1c-0.2-3.2-0.3-5.8-0.4-7.7
								c0-0.9,0-1.7,0-2.2s0-0.8,0-0.8L-22.2-40.7z"/>
						</g>
					</g>
				</g>
				<g>
					<circle class="st10" cx="-58.1" cy="5.4" r="3.1"/>
					<circle class="st11" cx="-55" cy="17.4" r="1.3"/>
					<circle class="st6" cx="-60.7" cy="31.4" r="1.5"/>
				</g>
			</g>
		</g>
	</g>
	<g>
		<path class="st12" d="M-269.7,227.3c0.1-0.1,0.2-0.1,0.3-0.1h0.4c0.1,0,0.2,0,0.3,0.1c0.1,0.1,0.1,0.2,0.1,0.3v0.2l-4.5,12.3
			c-0.1,0.3-0.3,0.5-0.6,0.5h-0.5c-0.3,0-0.5-0.2-0.6-0.5l-4.4-12.3v-0.2c0-0.1,0-0.2,0.1-0.3s0.2-0.1,0.3-0.1h0.4
			c0.1,0,0.2,0,0.3,0.1c0.1,0.1,0.1,0.1,0.1,0.2l4.2,11.6l4.2-11.6C-269.8,227.4-269.7,227.4-269.7,227.3z"/>
		<path class="st12" d="M-259.4,235.6c0,0.4,0,0.7,0,0.8c0,1.3-0.4,2.3-1.1,3.1s-1.8,1.2-3.1,1.2c-1.3,0-2.3-0.4-3.1-1.2
			c-0.7-0.8-1.1-1.8-1.1-3.1v-0.8v-0.8c0-1.3,0.4-2.3,1.1-3.1s1.8-1.2,3.1-1.2s2.3,0.4,3.1,1.2c0.7,0.8,1.1,1.8,1.1,3.1
			C-259.4,234.9-259.4,235.2-259.4,235.6z M-265.8,232.4c-0.6,0.6-0.8,1.4-0.9,2.5v0.7v0.7c0,1.1,0.3,1.9,0.9,2.5s1.3,0.9,2.2,0.9
			c0.9,0,1.6-0.3,2.2-0.9c0.6-0.6,0.8-1.4,0.9-2.5c0-0.1,0-0.4,0-0.7s0-0.6,0-0.7c0-1.1-0.3-1.9-0.9-2.5c-0.6-0.6-1.3-0.9-2.2-0.9
			C-264.5,231.5-265.2,231.8-265.8,232.4z"/>
		<path class="st12" d="M-255.7,240.4c-0.1,0.1-0.2,0.1-0.3,0.1h-0.3c-0.1,0-0.2,0-0.3-0.1s-0.1-0.2-0.1-0.3v-12.7
			c0-0.1,0-0.2,0.1-0.3s0.2-0.1,0.3-0.1h0.3c0.1,0,0.2,0,0.3,0.1s0.1,0.2,0.1,0.3v12.7C-255.6,240.2-255.6,240.3-255.7,240.4z"/>
		<path class="st12" d="M-251,240.4c-0.1,0.1-0.2,0.1-0.3,0.1h-0.9c-0.1,0-0.2,0-0.3-0.1s-0.1-0.2-0.1-0.3v-0.9c0-0.1,0-0.2,0.1-0.3
			s0.2-0.1,0.3-0.1h0.9c0.1,0,0.2,0,0.3,0.1s0.1,0.2,0.1,0.3v0.9C-250.9,240.2-250.9,240.3-251,240.4z"/>
		<path class="st12" d="M-242.3,237.2l-1.2,3c0,0.1-0.1,0.1-0.1,0.2c-0.1,0.1-0.2,0.1-0.3,0.1h-0.4c-0.1,0-0.2,0-0.3-0.1
			s-0.1-0.2-0.1-0.3v-0.2l4.8-12.3c0.1-0.3,0.3-0.4,0.6-0.4h0.6c0.3,0,0.4,0.1,0.6,0.4l4.8,12.3v0.2c0,0.1,0,0.2-0.1,0.3
			s-0.2,0.1-0.3,0.1h-0.4c-0.1,0-0.2,0-0.3-0.1s-0.1-0.1-0.1-0.2l-1.2-3H-242.3z M-236,236l-2.9-7.5l-2.9,7.5H-236z"/>
		<path class="st12" d="M-230.1,240.4c-0.1,0.1-0.2,0.1-0.3,0.1h-0.3c-0.1,0-0.2,0-0.3-0.1s-0.1-0.2-0.1-0.3v-12.7
			c0-0.1,0-0.2,0.1-0.3s0.2-0.1,0.3-0.1h0.3c0.1,0,0.2,0,0.3,0.1s0.1,0.2,0.1,0.3v12.7C-230,240.2-230.1,240.3-230.1,240.4z"/>
		<path class="st12" d="M-225.4,238.8c0.5,0.6,1.3,0.8,2.2,0.8c0.7,0,1.3-0.1,1.7-0.4c0.5-0.3,0.8-0.8,1.1-1.5
			c0.1-0.2,0.1-0.3,0.2-0.3c0.1-0.1,0.1-0.1,0.3-0.1h0.3c0.1,0,0.2,0,0.3,0.1s0.1,0.2,0.1,0.3c0,0.5-0.2,1-0.5,1.4
			c-0.3,0.5-0.7,0.8-1.3,1.1s-1.3,0.4-2.1,0.4c-1.3,0-2.3-0.4-3.1-1.2c-0.7-0.8-1.1-1.8-1.1-3.2v-0.8v-0.8c0-1.4,0.4-2.5,1.1-3.2
			c0.7-0.8,1.7-1.1,3.1-1.1c0.8,0,1.5,0.1,2.1,0.4s1,0.7,1.3,1.1c0.3,0.5,0.4,0.9,0.5,1.4c0,0.1,0,0.2-0.1,0.3s-0.2,0.1-0.3,0.1
			h-0.3c-0.1,0-0.2,0-0.3-0.1s-0.1-0.2-0.2-0.3c-0.3-0.7-0.6-1.2-1.1-1.5s-1-0.4-1.7-0.4c-0.9,0-1.6,0.3-2.2,0.8
			c-0.5,0.6-0.8,1.4-0.9,2.5v0.7v0.7C-226.2,237.4-225.9,238.2-225.4,238.8z"/>
		<path class="st12" d="M-215.3,240.4c-0.1,0.1-0.2,0.1-0.3,0.1h-0.9c-0.1,0-0.2,0-0.3-0.1s-0.1-0.2-0.1-0.3v-0.9
			c0-0.1,0-0.2,0.1-0.3s0.2-0.1,0.3-0.1h0.9c0.1,0,0.2,0,0.3,0.1s0.1,0.2,0.1,0.3v0.9C-215.1,240.2-215.2,240.3-215.3,240.4z"/>
		<path class="st12" d="M-208,235.8l5.8-8.3c0.1-0.1,0.2-0.2,0.3-0.2c0.1-0.1,0.3-0.1,0.4-0.1h0.8c0.1,0,0.2,0,0.3,0.1
			s0.1,0.2,0.1,0.3v8.3h1.7c0.1,0,0.2,0,0.3,0.1s0.1,0.2,0.1,0.3v0.3c0,0.1,0,0.2-0.1,0.3s-0.2,0.1-0.3,0.1h-1.7v3
			c0,0.1,0,0.2-0.1,0.3s-0.2,0.1-0.3,0.1h-0.4c-0.1,0-0.2,0-0.3-0.1s-0.1-0.2-0.1-0.3v-3h-6.3c-0.1,0-0.2,0-0.3-0.1
			s-0.1-0.2-0.1-0.3v-0.3C-208.3,236.2-208.2,236-208,235.8z M-201.6,228.6l-5.2,7.4h5.2V228.6z"/>
		<path class="st12" d="M-195.8,238.7h0.9c0.1,0,0.2,0,0.2,0.1c0.1,0.1,0.1,0.1,0.1,0.2c0,0.1,0,0.2-0.1,0.3l-0.8,2.1
			c-0.1,0.1-0.1,0.2-0.2,0.3c-0.1,0.1-0.2,0.1-0.3,0.1h-0.3c-0.1,0-0.2,0-0.2-0.1c-0.1-0.1-0.1-0.2,0-0.3l0.4-2.3
			C-196.2,238.9-196.1,238.7-195.8,238.7z"/>
		<path class="st12" d="M-189.3,240.1c0,0,0,0.1-0.1,0.1s-0.1,0.1-0.2,0.2c-0.1,0-0.2,0.1-0.3,0.1h-0.4c-0.1,0-0.2,0-0.3-0.1
			s-0.1-0.2-0.1-0.3s0-0.2,0.1-0.2l3-4.2c-0.4,0.1-0.8,0.2-1.2,0.2c-1,0-1.8-0.2-2.5-0.6c-0.7-0.4-1.2-1-1.5-1.6
			c-0.3-0.7-0.5-1.4-0.5-2.1s0.2-1.4,0.5-2.1s0.9-1.2,1.5-1.6c0.7-0.4,1.5-0.6,2.5-0.6s1.8,0.2,2.5,0.6c0.7,0.4,1.2,1,1.5,1.6
			c0.3,0.7,0.5,1.4,0.5,2.1s-0.1,1.2-0.3,1.7s-0.5,1-0.8,1.4L-189.3,240.1z M-187.1,234.2c0.5-0.3,0.9-0.6,1.2-1.1s0.5-1.1,0.5-1.7
			c0-0.6-0.2-1.2-0.5-1.7s-0.7-0.9-1.2-1.1c-0.5-0.3-1.1-0.4-1.7-0.4s-1.1,0.1-1.7,0.4c-0.5,0.3-0.9,0.6-1.2,1.1s-0.4,1.1-0.4,1.7
			c0,0.6,0.1,1.2,0.4,1.7s0.7,0.9,1.2,1.1c0.5,0.3,1.1,0.4,1.7,0.4S-187.6,234.5-187.1,234.2z"/>
		<path class="st12" d="M-177.6,233.2c-0.5,0.4-1.1,0.7-1.9,0.7s-1.4-0.2-1.9-0.7c-0.5-0.4-0.7-1-0.8-1.8c0-0.2,0-0.5,0-0.8
			c0-0.4,0-0.6,0-0.9c0-0.8,0.3-1.4,0.7-1.9s1.1-0.7,1.9-0.7s1.5,0.2,1.9,0.7s0.7,1.1,0.7,1.9c0,0.5,0,0.7,0,0.9c0,0.1,0,0.4,0,0.8
			C-176.9,232.2-177.2,232.8-177.6,233.2z M-180.5,240.4c-0.1,0.1-0.2,0.1-0.4,0.1h-0.3c-0.1,0-0.2,0-0.3-0.1s-0.1-0.2-0.1-0.3
			s0-0.1,0.1-0.2l9.4-12.4c0.1-0.1,0.2-0.2,0.3-0.3s0.2-0.1,0.4-0.1h0.3c0.1,0,0.2,0,0.3,0.1s0.1,0.2,0.1,0.3s0,0.1-0.1,0.2
			l-9.4,12.3C-180.3,240.3-180.4,240.4-180.5,240.4z M-178.4,232.4c0.2-0.3,0.4-0.7,0.4-1.1c0-0.5,0-0.7,0-0.8s0-0.3,0-0.8
			c0-0.4-0.2-0.8-0.4-1.1s-0.6-0.5-1.1-0.5s-0.9,0.2-1.1,0.5c-0.2,0.3-0.4,0.7-0.4,1.1c0,0.2,0,0.5,0,0.8s0,0.6,0,0.8
			c0,0.4,0.2,0.8,0.4,1.1s0.6,0.5,1.1,0.5S-178.6,232.7-178.4,232.4z M-170.9,239.9c-0.5,0.5-1.1,0.7-1.9,0.7s-1.4-0.2-1.9-0.7
			s-0.7-1.1-0.8-1.9c0-0.2,0-0.5,0-0.8c0-0.4,0-0.6,0-0.9c0-0.8,0.3-1.4,0.7-1.9s1.1-0.7,1.9-0.7s1.5,0.2,1.9,0.7s0.7,1.1,0.7,1.9
			c0,0.5,0,0.7,0,0.9c0,0.1,0,0.4,0,0.8C-170.2,238.8-170.5,239.5-170.9,239.9z M-171.7,239.1c0.2-0.3,0.4-0.7,0.4-1.1
			c0-0.5,0-0.7,0-0.8s0-0.3,0-0.8c0-0.4-0.2-0.8-0.4-1.1s-0.6-0.5-1.1-0.5s-0.9,0.2-1.1,0.5c-0.2,0.3-0.4,0.7-0.4,1.1
			c0,0.2,0,0.5,0,0.8s0,0.6,0,0.8c0,0.4,0.2,0.8,0.4,1.1s0.6,0.5,1.1,0.5S-171.9,239.4-171.7,239.1z"/>
	</g>
	<g>
		<path class="st13" d="M-254.5,204.4l3.3-17.7c0.1-0.3,0.2-0.5,0.4-0.7c0.2-0.1,0.4-0.2,0.6-0.2h1.3c0.2,0,0.4,0.1,0.5,0.2
			s0.2,0.3,0.2,0.5v0.3l-3.9,19.8c-0.1,0.6-0.3,1-0.5,1.3s-0.6,0.4-1.1,0.4h-1.4c-0.5,0-0.8-0.1-1.1-0.4c-0.2-0.3-0.4-0.7-0.6-1.2
			l-2.9-10.7l-2.9,10.7c-0.1,0.5-0.3,0.9-0.6,1.2c-0.3,0.3-0.6,0.4-1.1,0.4h-1.3c-0.5,0-0.8-0.1-1.1-0.4c-0.2-0.3-0.4-0.7-0.5-1.3
			l-3.9-19.8v-0.3c0-0.2,0.1-0.4,0.2-0.5s0.3-0.2,0.5-0.2h1.3c0.2,0,0.4,0.1,0.6,0.2s0.3,0.4,0.4,0.7l3.3,17.7l3.5-12.7
			c0-0.2,0.1-0.4,0.3-0.6c0.2-0.2,0.4-0.3,0.8-0.3h1.1c0.3,0,0.6,0.1,0.8,0.3c0.2,0.2,0.3,0.4,0.3,0.6L-254.5,204.4z"/>
		<path class="st13" d="M-233.4,193.4c1.3,1.5,2,3.4,2,5.9v0.9c0,0.2-0.1,0.4-0.3,0.6s-0.4,0.3-0.6,0.3h-11v0.2
			c0,1.4,0.5,2.5,1.3,3.3s1.9,1.2,3.2,1.2c1.1,0,1.9-0.1,2.5-0.4s1.1-0.7,1.6-1.2c0.2-0.2,0.3-0.3,0.5-0.4c0.1-0.1,0.3-0.1,0.6-0.1
			h1c0.3,0,0.5,0.1,0.6,0.3c0.2,0.2,0.2,0.4,0.2,0.6c-0.1,0.6-0.4,1.2-0.9,1.8s-1.3,1.1-2.3,1.5s-2.2,0.6-3.6,0.6s-2.6-0.3-3.6-0.9
			c-1.1-0.6-1.9-1.5-2.5-2.6s-1-2.4-1.1-3.7c0-0.6-0.1-1.1-0.1-1.5c0-0.3,0-0.8,0.1-1.5c0.1-1.3,0.5-2.5,1.1-3.6s1.5-1.9,2.5-2.5
			c1.1-0.6,2.3-0.9,3.7-0.9C-236.5,191.3-234.7,192-233.4,193.4z M-234.3,198.4L-234.3,198.4c0-1.4-0.4-2.4-1.2-3.2
			s-1.9-1.2-3.3-1.2c-1.2,0-2.3,0.4-3.2,1.2s-1.3,1.8-1.3,3.1v0.1L-234.3,198.4L-234.3,198.4z"/>
		<path class="st13" d="M-224.5,188.8c-0.2,0.2-0.4,0.3-0.6,0.3h-1.8c-0.2,0-0.4-0.1-0.6-0.3c-0.2-0.2-0.3-0.4-0.3-0.6v-1.8
			c0-0.2,0.1-0.4,0.3-0.6c0.2-0.2,0.4-0.3,0.6-0.3h1.8c0.2,0,0.4,0.1,0.6,0.3c0.2,0.2,0.3,0.4,0.3,0.6v1.8
			C-224.3,188.4-224.4,188.6-224.5,188.8z M-224.8,208c-0.2,0.2-0.4,0.3-0.6,0.3h-1.2c-0.2,0-0.4-0.1-0.6-0.3
			c-0.2-0.2-0.3-0.4-0.3-0.6v-14.9c0-0.2,0.1-0.4,0.3-0.6s0.4-0.3,0.6-0.3h1.2c0.2,0,0.4,0.1,0.6,0.3c0.2,0.2,0.3,0.4,0.3,0.6v14.9
			C-224.6,207.6-224.7,207.8-224.8,208z"/>
		<path class="st13" d="M-220.5,196.1c0-0.9,0.2-1.7,0.7-2.4s1.2-1.3,2.1-1.7s2.1-0.7,3.4-0.7s2.5,0.2,3.4,0.6s1.7,0.9,2.2,1.4
			c0.5,0.6,0.8,1.1,0.8,1.7c0,0.2-0.1,0.4-0.3,0.6s-0.4,0.2-0.6,0.2h-1.1c-0.4,0-0.7-0.1-1-0.4c-0.7-0.9-1.8-1.3-3.5-1.3
			c-1,0-1.8,0.2-2.4,0.5c-0.6,0.4-0.9,0.9-0.9,1.5c0,0.5,0.1,0.9,0.4,1.2c0.3,0.3,0.7,0.5,1.3,0.7s1.7,0.4,3.2,0.8
			c1.9,0.4,3.2,1,4,1.9c0.8,0.8,1.2,1.8,1.2,3c0,0.9-0.3,1.7-0.8,2.4s-1.3,1.3-2.3,1.8s-2.2,0.7-3.5,0.7s-2.5-0.2-3.5-0.6
			c-1-0.4-1.8-0.9-2.4-1.5s-0.8-1.2-0.8-1.7c0-0.2,0.1-0.4,0.3-0.6s0.4-0.2,0.6-0.2h1.2c0.2,0,0.4,0,0.5,0.1c0.1,0,0.3,0.2,0.4,0.4
			c0.7,1,2,1.5,3.7,1.5c1,0,1.9-0.2,2.6-0.6c0.7-0.4,1.1-0.9,1.1-1.6c0-0.5-0.2-0.9-0.6-1.2c-0.4-0.3-0.9-0.6-1.6-0.8
			c-0.7-0.2-1.8-0.5-3.3-0.8C-218.9,200.2-220.5,198.6-220.5,196.1z"/>
		<path class="st13" d="M-204.3,196.1c0-0.9,0.2-1.7,0.7-2.4s1.2-1.3,2.1-1.7s2.1-0.7,3.4-0.7s2.5,0.2,3.4,0.6
			c0.9,0.4,1.7,0.9,2.2,1.4c0.5,0.6,0.8,1.1,0.8,1.7c0,0.2-0.1,0.4-0.3,0.6c-0.2,0.2-0.4,0.2-0.6,0.2h-1.1c-0.4,0-0.7-0.1-1-0.4
			c-0.7-0.9-1.8-1.3-3.5-1.3c-1,0-1.8,0.2-2.4,0.5c-0.6,0.4-0.9,0.9-0.9,1.5c0,0.5,0.1,0.9,0.4,1.2c0.3,0.3,0.7,0.5,1.3,0.7
			s1.7,0.4,3.2,0.8c1.9,0.4,3.2,1,4,1.9c0.8,0.8,1.2,1.8,1.2,3c0,0.9-0.3,1.7-0.8,2.4s-1.3,1.3-2.3,1.8s-2.2,0.7-3.5,0.7
			s-2.5-0.2-3.5-0.6c-1-0.4-1.8-0.9-2.4-1.5s-0.8-1.2-0.8-1.7c0-0.2,0.1-0.4,0.3-0.6s0.4-0.2,0.6-0.2h1.2c0.2,0,0.4,0,0.5,0.1
			c0.1,0,0.3,0.2,0.4,0.4c0.7,1,2,1.5,3.7,1.5c1,0,1.9-0.2,2.6-0.6c0.7-0.4,1.1-0.9,1.1-1.6c0-0.5-0.2-0.9-0.6-1.2
			c-0.4-0.3-0.9-0.6-1.6-0.8c-0.7-0.2-1.8-0.5-3.3-0.8C-202.7,200.2-204.3,198.6-204.3,196.1z"/>
		<path class="st13" d="M-175.4,193.4c1.3,1.5,2,3.4,2,5.9v0.9c0,0.2-0.1,0.4-0.3,0.6s-0.4,0.3-0.6,0.3h-11v0.2
			c0,1.4,0.5,2.5,1.3,3.3s1.9,1.2,3.2,1.2c1.1,0,1.9-0.1,2.5-0.4s1.1-0.7,1.6-1.2c0.2-0.2,0.3-0.3,0.5-0.4c0.1-0.1,0.3-0.1,0.6-0.1
			h1c0.3,0,0.5,0.1,0.6,0.3c0.2,0.2,0.2,0.4,0.2,0.6c-0.1,0.6-0.4,1.2-0.9,1.8s-1.3,1.1-2.3,1.5s-2.2,0.6-3.6,0.6s-2.6-0.3-3.6-0.9
			c-1.1-0.6-1.9-1.5-2.5-2.6s-1-2.4-1.1-3.7c0-0.6-0.1-1.1-0.1-1.5c0-0.3,0-0.8,0.1-1.5c0.1-1.3,0.5-2.5,1.1-3.6s1.5-1.9,2.5-2.5
			c1.1-0.6,2.3-0.9,3.7-0.9C-178.6,191.3-176.8,192-175.4,193.4z M-176.3,198.4L-176.3,198.4c0-1.4-0.4-2.4-1.2-3.2
			s-1.9-1.2-3.3-1.2c-1.2,0-2.3,0.4-3.2,1.2s-1.3,1.8-1.3,3.1v0.1L-176.3,198.4L-176.3,198.4z"/>
	</g>
	<g>
		<path class="st12" d="M-97,227.3c0.1-0.1,0.2-0.1,0.3-0.1h0.4c0.1,0,0.2,0,0.3,0.1c0.1,0.1,0.1,0.2,0.1,0.3v0.2l-4.4,12.3
			c-0.1,0.3-0.3,0.5-0.6,0.5h-0.5c-0.3,0-0.5-0.2-0.6-0.5l-4.4-12.3v-0.2c0-0.1,0-0.2,0.1-0.3s0.2-0.1,0.3-0.1h0.4
			c0.1,0,0.2,0,0.3,0.1s0.1,0.1,0.1,0.2l4.2,11.6l4.2-11.6C-97.1,227.4-97.1,227.4-97,227.3z"/>
		<path class="st12" d="M-86.7,235.6c0,0.4,0,0.7,0,0.8c0,1.3-0.4,2.3-1.1,3.1s-1.8,1.2-3.1,1.2s-2.3-0.4-3.1-1.2
			c-0.7-0.8-1.1-1.8-1.1-3.1v-0.8v-0.8c0-1.3,0.4-2.3,1.1-3.1s1.8-1.2,3.1-1.2s2.3,0.4,3.1,1.2c0.7,0.8,1.1,1.8,1.1,3.1
			C-86.7,234.9-86.7,235.2-86.7,235.6z M-93.1,232.4c-0.6,0.6-0.8,1.4-0.9,2.5v0.7v0.7c0,1.1,0.3,1.9,0.9,2.5s1.3,0.9,2.2,0.9
			s1.6-0.3,2.2-0.9c0.6-0.6,0.8-1.4,0.9-2.5c0-0.1,0-0.4,0-0.7s0-0.6,0-0.7c0-1.1-0.3-1.9-0.9-2.5s-1.3-0.9-2.2-0.9
			S-92.6,231.8-93.1,232.4z"/>
		<path class="st12" d="M-83.1,240.4c-0.1,0.1-0.2,0.1-0.3,0.1h-0.3c-0.1,0-0.2,0-0.3-0.1c-0.1-0.1-0.1-0.2-0.1-0.3v-12.7
			c0-0.1,0-0.2,0.1-0.3s0.2-0.1,0.3-0.1h0.3c0.1,0,0.2,0,0.3,0.1s0.1,0.2,0.1,0.3v12.7C-82.9,240.2-83,240.3-83.1,240.4z"/>
		<path class="st12" d="M-78.3,240.4c-0.1,0.1-0.2,0.1-0.3,0.1h-0.9c-0.1,0-0.2,0-0.3-0.1s-0.1-0.2-0.1-0.3v-0.9
			c0-0.1,0-0.2,0.1-0.3s0.2-0.1,0.3-0.1h0.9c0.1,0,0.2,0,0.3,0.1c0.1,0.1,0.1,0.2,0.1,0.3v0.9C-78.2,240.2-78.3,240.3-78.3,240.4z"
			/>
		<path class="st12" d="M-69.6,237.2l-1.2,3c0,0.1-0.1,0.1-0.1,0.2c-0.1,0.1-0.2,0.1-0.3,0.1h-0.4c-0.1,0-0.2,0-0.3-0.1
			c-0.1-0.1-0.1-0.2-0.1-0.3v-0.2l4.8-12.3c0.1-0.3,0.3-0.4,0.6-0.4h0.6c0.3,0,0.4,0.1,0.6,0.4l4.8,12.3v0.2c0,0.1,0,0.2-0.1,0.3
			s-0.2,0.1-0.3,0.1h-0.4c-0.1,0-0.2,0-0.3-0.1s-0.1-0.1-0.1-0.2l-1.2-3H-69.6z M-63.4,236l-2.9-7.5l-2.9,7.5H-63.4z"/>
		<path class="st12" d="M-57.5,240.4c-0.1,0.1-0.2,0.1-0.3,0.1h-0.3c-0.1,0-0.2,0-0.3-0.1s-0.1-0.2-0.1-0.3v-12.7
			c0-0.1,0-0.2,0.1-0.3s0.2-0.1,0.3-0.1h0.3c0.1,0,0.2,0,0.3,0.1s0.1,0.2,0.1,0.3v12.7C-57.4,240.2-57.4,240.3-57.5,240.4z"/>
		<path class="st12" d="M-52.7,238.8c0.5,0.6,1.3,0.8,2.2,0.8c0.7,0,1.3-0.1,1.7-0.4c0.5-0.3,0.8-0.8,1.1-1.5
			c0.1-0.2,0.1-0.3,0.2-0.3c0.1-0.1,0.1-0.1,0.3-0.1h0.3c0.1,0,0.2,0,0.3,0.1s0.1,0.2,0.1,0.3c0,0.5-0.2,1-0.5,1.4
			c-0.3,0.5-0.7,0.8-1.3,1.1s-1.3,0.4-2.1,0.4c-1.3,0-2.3-0.4-3.1-1.2c-0.7-0.8-1.1-1.8-1.1-3.2v-0.8v-0.8c0-1.4,0.4-2.5,1.1-3.2
			c0.7-0.8,1.7-1.1,3.1-1.1c0.8,0,1.5,0.1,2.1,0.4s1,0.7,1.3,1.1c0.3,0.5,0.4,0.9,0.5,1.4c0,0.1,0,0.2-0.1,0.3s-0.2,0.1-0.3,0.1
			h-0.3c-0.1,0-0.2,0-0.3-0.1s-0.1-0.2-0.2-0.3c-0.3-0.7-0.6-1.2-1.1-1.5s-1-0.4-1.7-0.4c-0.9,0-1.6,0.3-2.2,0.8
			c-0.5,0.6-0.8,1.4-0.9,2.5v0.7v0.7C-53.5,237.4-53.3,238.2-52.7,238.8z"/>
		<path class="st12" d="M-42.6,240.4c-0.1,0.1-0.2,0.1-0.3,0.1h-0.9c-0.1,0-0.2,0-0.3-0.1s-0.1-0.2-0.1-0.3v-0.9
			c0-0.1,0-0.2,0.1-0.3s0.2-0.1,0.3-0.1h0.9c0.1,0,0.2,0,0.3,0.1s0.1,0.2,0.1,0.3v0.9C-42.5,240.2-42.5,240.3-42.6,240.4z"/>
		<path class="st12" d="M-32.1,233.3c-0.3,0.1-0.6,0.3-0.9,0.5c-0.2,0.1-0.3,0.2-0.5,0.3c-0.1,0.1-0.2,0.1-0.4,0.1h-0.3
			c-0.1,0-0.2,0-0.3-0.1s-0.1-0.2-0.1-0.3l0.6-6.2c0-0.1,0.1-0.2,0.1-0.3c0.1-0.1,0.2-0.1,0.3-0.1h6.2c0.1,0,0.2,0,0.3,0.1
			s0.1,0.2,0.1,0.3v0.3c0,0.1,0,0.2-0.1,0.3s-0.2,0.1-0.3,0.1h-5.5l-0.4,4.3c0.7-0.4,1.5-0.6,2.5-0.6c0.9,0,1.6,0.2,2.3,0.5
			s1.2,0.8,1.6,1.5c0.4,0.6,0.6,1.4,0.6,2.3c0,1-0.2,1.8-0.6,2.4c-0.4,0.7-1,1.2-1.6,1.5c-0.7,0.3-1.5,0.5-2.3,0.5
			c-0.9,0-1.7-0.2-2.3-0.5c-0.7-0.3-1.2-0.8-1.5-1.3c-0.3-0.5-0.5-1.1-0.6-1.7l0,0c0-0.1,0-0.2,0.1-0.2c0.1-0.1,0.2-0.1,0.3-0.1h0.4
			c0.1,0,0.2,0,0.3,0.1s0.1,0.2,0.2,0.4c0.2,0.8,0.6,1.3,1.2,1.7s1.2,0.6,2,0.6c1,0,1.8-0.3,2.4-0.9c0.6-0.6,1-1.4,1-2.4
			c0-0.6-0.1-1.2-0.4-1.7s-0.7-0.8-1.2-1.1s-1.1-0.4-1.7-0.4C-31.4,233.1-31.8,233.2-32.1,233.3z"/>
		<path class="st12" d="M-23.4,238.7h0.9c0.1,0,0.2,0,0.2,0.1c0.1,0.1,0.1,0.1,0.1,0.2c0,0.1,0,0.2-0.1,0.3l-0.8,2.1
			c-0.1,0.1-0.1,0.2-0.2,0.3c-0.1,0.1-0.2,0.1-0.3,0.1h-0.3c-0.1,0-0.2,0-0.2-0.1c-0.1-0.1-0.1-0.2,0-0.3l0.4-2.3
			C-23.8,238.9-23.7,238.7-23.4,238.7z"/>
		<path class="st12" d="M-11.8,228.5c0.7,1,1.1,2.2,1.1,3.8c0,0.4,0,0.9,0,1.6s0,1.2,0,1.6c0,1.6-0.4,2.8-1.1,3.8s-1.9,1.4-3.4,1.4
			s-2.7-0.5-3.4-1.4c-0.7-1-1.1-2.2-1.1-3.8v-1.6v-1.6c0-1.6,0.4-2.8,1.1-3.8s1.9-1.4,3.4-1.4S-12.5,227.5-11.8,228.5z M-17.8,229.3
			c-0.6,0.7-0.9,1.8-0.9,3.1v1.5v1.5c0,1.3,0.3,2.4,0.9,3.1c0.6,0.7,1.4,1.1,2.5,1.1s1.9-0.4,2.5-1.1s0.9-1.8,0.9-3.1
			c0-0.4,0-0.9,0-1.5s0-1.1,0-1.5c0-1.3-0.3-2.3-0.9-3.1c-0.6-0.7-1.4-1.1-2.5-1.1S-17.2,228.5-17.8,229.3z"/>
		<path class="st12" d="M-3.8,233.2c-0.5,0.4-1.1,0.7-1.9,0.7s-1.4-0.2-1.9-0.7c-0.5-0.4-0.7-1-0.8-1.8c0-0.2,0-0.5,0-0.8
			c0-0.4,0-0.6,0-0.9c0-0.8,0.3-1.4,0.7-1.9c0.4-0.5,1.1-0.7,1.9-0.7s1.5,0.2,1.9,0.7s0.7,1.1,0.7,1.9c0,0.5,0,0.7,0,0.9
			c0,0.1,0,0.4,0,0.8C-3.1,232.2-3.4,232.8-3.8,233.2z M-6.7,240.4c-0.1,0.1-0.2,0.1-0.4,0.1h-0.3c-0.1,0-0.2,0-0.3-0.1
			c-0.1-0.1-0.1-0.2-0.1-0.3s0-0.1,0.1-0.2l9.4-12.4c0.1-0.1,0.2-0.2,0.3-0.3s0.2-0.1,0.4-0.1h0.3c0.1,0,0.2,0,0.3,0.1
			s0.1,0.2,0.1,0.3s0,0.1-0.1,0.2L-6.4,240C-6.5,240.3-6.6,240.4-6.7,240.4z M-4.6,232.4c0.2-0.3,0.4-0.7,0.4-1.1c0-0.5,0-0.7,0-0.8
			s0-0.3,0-0.8c0-0.4-0.2-0.8-0.4-1.1s-0.6-0.5-1.1-0.5s-0.9,0.2-1.1,0.5c-0.2,0.3-0.4,0.7-0.4,1.1c0,0.2,0,0.5,0,0.8s0,0.6,0,0.8
			c0,0.4,0.2,0.8,0.4,1.1c0.2,0.3,0.6,0.5,1.1,0.5S-4.8,232.7-4.6,232.4z M2.9,239.9c-0.5,0.5-1.1,0.7-1.9,0.7
			c-0.8,0-1.4-0.2-1.9-0.7s-0.7-1.1-0.8-1.9c0-0.2,0-0.5,0-0.8c0-0.4,0-0.6,0-0.9c0-0.8,0.3-1.4,0.7-1.9s1.1-0.7,1.9-0.7
			s1.5,0.2,1.9,0.7s0.7,1.1,0.7,1.9c0,0.5,0,0.7,0,0.9c0,0.1,0,0.4,0,0.8C3.6,238.8,3.3,239.5,2.9,239.9z M2.1,239.1
			c0.2-0.3,0.4-0.7,0.4-1.1c0-0.5,0-0.7,0-0.8s0-0.3,0-0.8c0-0.4-0.2-0.8-0.4-1.1s-0.6-0.5-1.1-0.5s-0.9,0.2-1.1,0.5
			s-0.4,0.7-0.4,1.1c0,0.2,0,0.5,0,0.8s0,0.6,0,0.8c0,0.4,0.2,0.8,0.4,1.1s0.6,0.5,1.1,0.5S1.9,239.4,2.1,239.1z"/>
	</g>
	<g>
		<path class="st13" d="M-127.7,186.7c0-0.2,0.1-0.4,0.3-0.6s0.4-0.3,0.6-0.3h8.6c1.7,0,3.1,0.3,4.1,1s1.8,1.4,2.2,2.4
			c0.4,0.9,0.7,1.8,0.7,2.7c0,1.2-0.3,2.2-0.9,2.9s-1.1,1.3-1.7,1.6c0.9,0.6,1.6,1.4,2.2,2.3c0.6,0.9,0.8,2,0.8,3.1
			s-0.3,2.2-0.8,3.2s-1.3,1.8-2.4,2.4c-1.1,0.6-2.3,0.9-3.8,0.9h-9c-0.2,0-0.4-0.1-0.6-0.3s-0.3-0.4-0.3-0.6L-127.7,186.7
			L-127.7,186.7z M-124.7,195.2h6.1c1.4,0,2.5-0.3,3.2-0.8s1.1-1.4,1.1-2.4s-0.4-1.8-1.1-2.4c-0.7-0.6-1.8-0.8-3.2-0.8h-6.1V195.2z
			 M-124.7,205.3h6.5c1.4,0,2.4-0.3,3.2-1c0.8-0.7,1.1-1.6,1.1-2.6s-0.4-1.9-1.1-2.6s-1.8-1.1-3.2-1.1h-6.5V205.3z"/>
		<path class="st13" d="M-104.1,208c-0.2,0.2-0.4,0.3-0.6,0.3h-1.2c-0.2,0-0.4-0.1-0.6-0.3s-0.3-0.4-0.3-0.6v-21
			c0-0.2,0.1-0.4,0.3-0.6s0.4-0.3,0.6-0.3h1.2c0.2,0,0.4,0.1,0.6,0.3s0.3,0.4,0.3,0.6v21C-103.8,207.6-103.9,207.8-104.1,208z"/>
		<path class="st13" d="M-84.5,199.9c0,0.5,0,1-0.1,1.5c-0.2,2.2-0.9,3.9-2.3,5.2c-1.3,1.3-3.1,1.9-5.3,1.9c-2.2,0-4-0.6-5.3-1.9
			s-2.1-3-2.3-5.2c0-0.2,0-0.7,0-1.5s0-1.3,0-1.5c0.2-2.2,0.9-3.9,2.2-5.2c1.3-1.3,3.1-1.9,5.3-1.9c2.2,0,4,0.6,5.3,1.9
			s2.1,3,2.2,5.2C-84.6,198.9-84.5,199.4-84.5,199.9z M-88.9,195.3c-0.8-0.8-1.9-1.2-3.3-1.2s-2.5,0.4-3.3,1.2s-1.2,1.9-1.4,3.3
			c0,0.3,0,0.7,0,1.4c0,0.6,0,1.1,0,1.3c0.1,1.4,0.6,2.5,1.4,3.3s1.9,1.2,3.3,1.2s2.5-0.4,3.3-1.2s1.2-1.9,1.4-3.3
			c0-0.5,0.1-0.9,0.1-1.3c0-0.4,0-0.9-0.1-1.4C-87.6,197.2-88.1,196.1-88.9,195.3z"/>
		<path class="st13" d="M-66,208c-0.2,0.2-0.4,0.3-0.6,0.3h-1.2c-0.2,0-0.4-0.1-0.6-0.3s-0.3-0.4-0.3-0.6V199c0-1.6-0.4-2.8-1.2-3.6
			c-0.8-0.8-1.9-1.2-3.3-1.2s-2.5,0.4-3.3,1.2s-1.2,2-1.2,3.6v8.4c0,0.2-0.1,0.4-0.3,0.6c-0.2,0.2-0.4,0.3-0.6,0.3h-1.2
			c-0.2,0-0.4-0.1-0.6-0.3s-0.3-0.4-0.3-0.6v-14.9c0-0.2,0.1-0.4,0.3-0.6s0.4-0.3,0.6-0.3h1.2c0.2,0,0.4,0.1,0.6,0.3
			s0.3,0.4,0.3,0.6v1c0.5-0.6,1.1-1.1,1.9-1.6c0.8-0.4,1.8-0.6,3-0.6c1.3,0,2.5,0.3,3.6,0.9c1,0.6,1.9,1.4,2.4,2.5
			c0.6,1.1,0.9,2.4,0.9,3.8v8.9C-65.8,207.6-65.8,207.8-66,208z"/>
		<path class="st13" d="M-49.7,186.4c0-0.2,0.1-0.4,0.3-0.6c0.2-0.2,0.4-0.3,0.6-0.3h1.2c0.2,0,0.4,0.1,0.6,0.3
			c0.2,0.2,0.3,0.4,0.3,0.6v21c0,0.2-0.1,0.4-0.3,0.6c-0.2,0.2-0.4,0.3-0.6,0.3h-1.2c-0.2,0-0.4-0.1-0.6-0.3
			c-0.2-0.2-0.3-0.4-0.3-0.6v-1c-1.1,1.5-2.7,2.2-5,2.2c-1.3,0-2.5-0.3-3.6-0.9c-1.1-0.6-1.9-1.5-2.6-2.7s-1-2.5-1.1-4v-1.1v-1
			c0.1-1.5,0.4-2.9,1.1-4s1.5-2,2.6-2.6s2.3-0.9,3.6-0.9c1.2,0,2.2,0.2,3,0.6c0.8,0.4,1.5,0.9,1.9,1.6L-49.7,186.4L-49.7,186.4
			L-49.7,186.4z M-51,195.3c-0.8-0.8-1.9-1.2-3.3-1.2c-1.4,0-2.5,0.4-3.3,1.3c-0.8,0.9-1.3,2.1-1.4,3.6v0.9v0.9
			c0.1,1.5,0.5,2.8,1.4,3.6c0.8,0.9,1.9,1.3,3.3,1.3c1.3,0,2.4-0.4,3.3-1.2s1.3-1.9,1.4-3.3c0-0.2,0-0.6,0-1.3c0-0.6,0-1,0-1.2
			C-49.8,197.2-50.2,196.1-51,195.3z"/>
		<path class="st13" d="M-30,193.4c1.3,1.5,2,3.4,2,5.9v0.9c0,0.2-0.1,0.4-0.3,0.6c-0.2,0.2-0.4,0.3-0.6,0.3h-11v0.2
			c0,1.4,0.5,2.5,1.3,3.3s1.9,1.2,3.2,1.2c1.1,0,1.9-0.1,2.5-0.4s1.1-0.7,1.6-1.2c0.2-0.2,0.3-0.3,0.5-0.4c0.1-0.1,0.3-0.1,0.6-0.1
			h1c0.3,0,0.5,0.1,0.6,0.3c0.2,0.2,0.2,0.4,0.2,0.6c-0.1,0.6-0.4,1.2-0.9,1.8s-1.3,1.1-2.3,1.5s-2.2,0.6-3.6,0.6
			c-1.4,0-2.6-0.3-3.6-0.9c-1.1-0.6-1.9-1.5-2.5-2.6s-1-2.4-1.1-3.7c0-0.6-0.1-1.1-0.1-1.5c0-0.3,0-0.8,0.1-1.5
			c0.1-1.3,0.5-2.5,1.1-3.6s1.5-1.9,2.5-2.5c1.1-0.6,2.3-0.9,3.7-0.9C-33.1,191.3-31.3,192-30,193.4z M-30.9,198.4L-30.9,198.4
			c0-1.4-0.4-2.4-1.2-3.2c-0.8-0.8-1.9-1.2-3.3-1.2c-1.2,0-2.3,0.4-3.2,1.2s-1.3,1.8-1.3,3.1v0.1L-30.9,198.4L-30.9,198.4z"/>
		<path class="st13" d="M-14.3,203.2l-1.7,4.3c-0.2,0.5-0.6,0.8-1.2,0.8h-1.2c-0.2,0-0.4-0.1-0.5-0.2c-0.1-0.1-0.2-0.3-0.2-0.5
			c0-0.1,0-0.3,0.1-0.4l7.8-20.2c0.3-0.7,0.8-1.1,1.4-1.1h1.9c0.7,0,1.2,0.4,1.4,1.1l7.8,20.2c0.1,0.2,0.1,0.3,0.1,0.4
			c0,0.2-0.1,0.4-0.2,0.5c-0.1,0.1-0.3,0.2-0.5,0.2h-1.2c-0.6,0-1.1-0.3-1.2-0.8l-1.7-4.3H-14.3z M-4.3,200.3l-4.4-11.4l-4.4,11.4
			H-4.3z"/>
		<path class="st13" d="M7.2,208c-0.2,0.2-0.4,0.3-0.6,0.3H5.4c-0.2,0-0.4-0.1-0.6-0.3s-0.3-0.4-0.3-0.6v-21c0-0.2,0.1-0.4,0.3-0.6
			s0.4-0.3,0.6-0.3h1.2c0.2,0,0.4,0.1,0.6,0.3c0.2,0.2,0.3,0.4,0.3,0.6v21C7.5,207.6,7.4,207.8,7.2,208z"/>
		<path class="st13" d="M24.3,193.4c1.3,1.5,2,3.4,2,5.9v0.9c0,0.2-0.1,0.4-0.3,0.6c-0.2,0.2-0.4,0.3-0.6,0.3h-11v0.2
			c0,1.4,0.5,2.5,1.3,3.3s1.9,1.2,3.2,1.2c1.1,0,1.9-0.1,2.5-0.4s1.1-0.7,1.6-1.2c0.2-0.2,0.3-0.3,0.5-0.4c0.1-0.1,0.3-0.1,0.6-0.1
			h1c0.3,0,0.5,0.1,0.6,0.3c0.2,0.2,0.2,0.4,0.2,0.6c-0.1,0.6-0.4,1.2-0.9,1.8s-1.3,1.1-2.3,1.5s-2.2,0.6-3.6,0.6s-2.6-0.3-3.6-0.9
			c-1.1-0.6-1.9-1.5-2.5-2.6s-1-2.4-1.1-3.7c0-0.6-0.1-1.1-0.1-1.5c0-0.3,0-0.8,0.1-1.5c0.1-1.3,0.5-2.5,1.1-3.6s1.5-1.9,2.5-2.5
			c1.1-0.6,2.3-0.9,3.7-0.9C21.1,191.3,22.9,192,24.3,193.4z M23.4,198.4L23.4,198.4c0-1.4-0.4-2.4-1.2-3.2s-1.9-1.2-3.3-1.2
			c-1.2,0-2.3,0.4-3.2,1.2s-1.3,1.8-1.3,3.1v0.1L23.4,198.4L23.4,198.4z"/>
	</g>
	<g>
		<path class="st0" d="M-273.8,344.1c0,0,2.6,47.1-9.7,141.9c-0.8,5.9,2.8,11.6,8.6,13.2c44.7,13.2,87.8,4.9,106.9-0.1
			c5.9-1.6,9.8-7.3,9-13.4c-12.3-94.6-9.7-141.6-9.7-141.6H-273.8L-273.8,344.1z"/>
		<g>
			<path class="st0" d="M-162.8,455.4c44-16.6,37.4-64.2,34.8-81.8c-2.7-17.6-21.3-18.5-21.3-18.5h-19.8l0.4,21.4h12.6
				c0,0,11.8,0.4,11.3,20c-0.6,19.6-8.3,25.8-20.5,33.2L-162.8,455.4z"/>
			<g>
				<g>
					<path class="st8" d="M-163.3,450.4c0,0,16.6-7.7,24.9-20.7"/>
					<path class="st6" d="M-164,448.9c0,0,0.1,0,0.3-0.1s0.5-0.2,0.9-0.4c0.8-0.4,1.9-0.9,3.3-1.6c1.3-0.7,2.9-1.5,4.5-2.5
						c0.8-0.5,1.6-1,2.5-1.6c0.8-0.6,1.7-1.1,2.5-1.7s1.6-1.2,2.4-1.8s1.6-1.2,2.2-1.9c0.7-0.6,1.4-1.2,2-1.9
						c0.6-0.6,1.2-1.2,1.7-1.8s1-1.1,1.4-1.6s0.7-0.9,1-1.3c0.5-0.7,0.9-1.1,0.9-1.1s-0.3,0.4-0.7,1.2c-0.2,0.4-0.5,0.9-0.9,1.4
						s-0.8,1.1-1.2,1.7s-1,1.3-1.6,2c-0.5,0.7-1.2,1.4-1.8,2.1s-1.4,1.4-2.1,2.1s-1.5,1.4-2.3,2.1s-1.6,1.3-2.4,2
						c-0.8,0.6-1.6,1.3-2.4,1.8c-1.6,1.2-3.1,2.2-4.4,3.1s-2.4,1.5-3.2,2c-0.4,0.2-0.7,0.4-0.9,0.5s-0.3,0.2-0.3,0.2
						c-0.8,0.4-1.8,0.1-2.3-0.7c-0.4-0.8-0.1-1.8,0.7-2.3C-164.1,449-164,448.9-164,448.9L-164,448.9z"/>
				</g>
				<g>
					<path class="st8" d="M-159.4,364.6h9.8c2.1,0.2,10.9,1.5,12.3,10.5c0.5,3.4,1.3,8.4,1.7,14.4"/>
					<g>
						<path class="st6" d="M-159.4,362.9l9.8,0.4h0.1l0,0c0.7,0.1,1.4,0.2,2.1,0.4c0.7,0.2,1.4,0.4,2,0.6c0.7,0.2,1.3,0.5,1.9,0.9
							c0.6,0.3,1.2,0.7,1.8,1.1l0.8,0.7c0.3,0.2,0.5,0.5,0.8,0.8c0.3,0.2,0.5,0.5,0.7,0.8s0.5,0.6,0.6,0.9l0.6,0.9l0.4,1
							c0.2,0.3,0.3,0.7,0.4,1s0.2,0.7,0.3,1c0.1,0.7,0.3,1.4,0.3,2l0.2,2c0.1,1.3,0.3,2.7,0.4,4c0.2,2.7,0.4,5.3,0.4,8
							c-0.3-2.7-0.6-5.3-1.1-7.9c-0.2-1.3-0.4-2.6-0.7-3.9l-0.4-2c-0.1-0.7-0.3-1.3-0.5-1.9c-0.1-0.3-0.2-0.6-0.3-0.9
							s-0.2-0.6-0.4-0.9l-0.4-0.8l-0.5-0.8c-0.2-0.3-0.4-0.5-0.6-0.7s-0.4-0.5-0.7-0.6c-0.2-0.2-0.5-0.4-0.7-0.6l-0.8-0.5
							c-0.5-0.3-1.1-0.6-1.6-0.9c-0.6-0.3-1.1-0.5-1.7-0.6c-0.6-0.2-1.2-0.3-1.8-0.4s-1.2-0.2-1.8-0.2h0.1l-9.8,0.4
							c-0.9,0-1.7-0.7-1.7-1.6s0.7-1.7,1.6-1.7C-159.5,362.9-159.5,362.9-159.4,362.9z"/>
					</g>
				</g>
				<g>
					<path class="st6" d="M-164.2,358.2l14.8,0.3h0.1l0,0c1.7,0.2,3.2,0.5,4.7,1s3,1.1,4.4,2c1.4,0.8,2.7,1.8,3.8,3s2.1,2.5,2.8,4
						l0.5,1.1c0.1,0.4,0.3,0.8,0.4,1.1l0.4,1.1l0.2,1.2l0.2,1.2l0.1,1.1l0.3,2.3c0.4,3,0.6,6.1,0.8,9.1c0.4,6.1,0.4,12.2-0.3,18.3
						c-0.2,1.5-0.4,3-0.6,4.5s-0.6,3-0.9,4.5c-0.4,1.5-0.7,3-1.2,4.4c-0.4,1.5-1,2.9-1.5,4.3c0.5-1.4,1-2.9,1.3-4.4
						c0.4-1.5,0.7-3,1-4.4c0.3-1.5,0.5-3,0.7-4.5c0.2-1.5,0.3-3,0.4-4.5c0.4-6,0.2-12.1-0.4-18.1c-0.3-3-0.7-6-1.2-9l-0.4-2.2
						l-0.2-1.1l-0.3-1.1l-0.2-1.1l-0.4-1c-0.1-0.3-0.2-0.7-0.4-1l-0.5-0.9c-0.7-1.3-1.6-2.3-2.6-3.4c-1.1-0.9-2.2-1.8-3.5-2.5
						s-2.6-1.2-4-1.6s-2.8-0.7-4.2-0.8h0.1l-14.8,0.3c-0.9,0-1.7-0.7-1.7-1.6C-165.9,358.9-165.2,358.2-164.2,358.2
						C-164.3,358.2-164.3,358.2-164.2,358.2z"/>
				</g>
			</g>
		</g>
	</g>
	<g>
		<g>
			<path class="st14" d="M-267,381.5c-1,23.8-3.4,58.8-9.5,105.4c-0.3,2.5,1.2,4.8,3.5,5.5c15.3,4.5,31.9,6.8,49.3,6.8l0,0
				c22.6,0,41.7-3.8,53.8-7c2.5-0.7,4.1-3.1,3.7-5.6c-6.1-47-8.6-82.2-9.5-105.9C-175.7,380.7-236.5,386.3-267,381.5z"/>
			<g>
				<path class="st15" d="M-274.1,380.7c0,0,35,6.3,105.1,0"/>
				<g>
					<g>
						<circle class="st4" cx="-232.9" cy="396.1" r="4"/>
						<circle class="st4" cx="-237.3" cy="409.5" r="3"/>
						<circle class="st4" cx="-230.1" cy="432.6" r="1.3"/>
					</g>
					<g>
						<g>
							<path class="st7" d="M-249.9,358.8c0,0-0.2,2-0.5,5.5c-0.2,1.7-0.4,3.9-0.6,6.3c-0.3,2.4-0.6,5.2-0.9,8.2
								c-0.6,6-1.4,13-2.4,20.5c-0.5,3.7-1,7.6-1.5,11.5s-1.1,7.9-1.6,11.9c-0.6,4-1.1,8-1.8,11.9c-0.6,3.9-1.2,7.8-1.8,11.5
								s-1.2,7.3-1.8,10.7c-0.6,3.4-1.2,6.6-1.7,9.6c-1.1,5.9-2.1,10.8-2.9,14.3c-0.7,3.4-1.2,5.4-1.2,5.4s0.3-2,0.7-5.5
								c0.4-3.5,1-8.5,1.6-14.4c0.3-3,0.6-6.2,0.9-9.7c0.3-3.4,0.6-7,0.9-10.8c0.3-3.7,0.6-7.6,0.8-11.5c0.3-3.9,0.5-7.9,0.7-11.9
								c0.2-4,0.4-8,0.6-11.9s0.3-7.8,0.5-11.6c0.3-7.5,0.5-14.5,0.6-20.5c0.1-3,0.1-5.7,0.2-8.2c0-2.4,0.1-4.6,0.1-6.3
								c0-3.5,0.1-5.5,0.1-5.5c0-3.1,2.5-5.5,5.6-5.5s5.5,2.5,5.5,5.6C-249.8,358.5-249.8,358.6-249.9,358.8z"/>
						</g>
						<g>
							<g>
								<path class="st6" d="M-178.2,383.7c0,0,0,1.2,0.1,3.4c0,2.1,0.1,5.2,0.3,8.9c0.3,7.4,0.8,17.3,1.6,27.1
									c0.7,9.9,1.7,19.7,2.4,27.1c0.4,3.7,0.7,6.8,0.9,8.9s0.4,3.4,0.4,3.4s-0.2-1.2-0.5-3.4c-0.3-2.1-0.8-5.2-1.3-8.9
									c-1.1-7.3-2.4-17.1-3.6-27c-1.2-9.8-2.1-19.7-2.7-27.1c-0.3-3.7-0.5-6.8-0.7-9c-0.1-2.2-0.2-3.4-0.2-3.4H-178.2z"/>
							</g>
							<g>
								<path class="st6" d="M-186,383.7c0,0,0,3.1,0.2,7.9c0.1,4.7,0.4,11,0.8,17.3c0.7,12.6,1.9,25.1,1.9,25.1s-2-12.4-3.5-25
									c-0.8-6.3-1.5-12.5-1.9-17.2c-0.5-4.7-0.7-7.9-0.7-7.9L-186,383.7z"/>
							</g>
						</g>
					</g>
				</g>
			</g>
		</g>
		<g>
			<path class="st0" d="M-240.5,300c0,0-36.4-3.8-36.4,35.2c0,39.1,56.5,32,67.8,17c0,0-5,33.3,24.3,33.3s16.6-45.6,16.6-45.6
				s9.8-15.7-5.6-21.6c0,0,4.4-21.8-20.7-18.5C-194.6,299.9-214.4,276.3-240.5,300z"/>
			<g>
				<path class="st0" d="M-175.1,375.6c-1.3,1.8-3.8,4.1-9.7,4.1c-6.2,0-10.7-1.7-13.8-5.3"/>
				<path class="st0" d="M-189.6,305.5c4,0,6.8,0.9,8.3,2.8c2.3,2.8,1.9,7.7,1.7,8.9c-0.6,2.8,1,5.7,3.7,6.7
					c3.8,1.5,4.4,3.3,4.6,3.9c1.1,3.1-1.1,7.8-1.9,9.1"/>
				<path class="st0" d="M-216.9,295.4c10.5,0,17.8,8.3,17.8,8.3"/>
				<path class="st0" d="M-271,335.2c0-25.6,17.5-29.4,27.9-29.4"/>
			</g>
		</g>
	</g>
	<g>
		<path class="st12" d="M-89.4,570.2c0.1-0.1,0.2-0.1,0.3-0.1h0.4c0.1,0,0.2,0,0.3,0.1c0.1,0.1,0.1,0.2,0.1,0.3v0.2l-4.4,12.3
			c-0.1,0.3-0.3,0.5-0.6,0.5h-0.5c-0.3,0-0.5-0.2-0.6-0.5l-4.4-12.3v-0.2c0-0.1,0-0.2,0.1-0.3s0.2-0.1,0.3-0.1h0.4
			c0.1,0,0.2,0,0.3,0.1s0.1,0.1,0.1,0.2l4.2,11.6l4.2-11.6C-89.5,570.4-89.5,570.3-89.4,570.2z"/>
		<path class="st12" d="M-79.1,578.5c0,0.4,0,0.7,0,0.8c0,1.3-0.4,2.3-1.1,3.1s-1.8,1.2-3.1,1.2s-2.3-0.4-3.1-1.2
			c-0.7-0.8-1.1-1.8-1.1-3.1v-0.8v-0.8c0-1.3,0.4-2.3,1.1-3.1s1.8-1.2,3.1-1.2s2.3,0.4,3.1,1.2c0.7,0.8,1.1,1.8,1.1,3.1
			C-79.1,577.8-79.1,578.1-79.1,578.5z M-85.5,575.3c-0.6,0.6-0.8,1.4-0.9,2.5v0.7v0.7c0,1.1,0.3,1.9,0.9,2.5s1.3,0.9,2.2,0.9
			s1.6-0.3,2.2-0.9c0.6-0.6,0.8-1.4,0.9-2.5c0-0.1,0-0.4,0-0.7s0-0.6,0-0.7c0-1.1-0.3-1.9-0.9-2.5s-1.3-0.9-2.2-0.9
			S-84.9,574.8-85.5,575.3z"/>
		<path class="st12" d="M-75.4,583.3c-0.1,0.1-0.2,0.1-0.3,0.1H-76c-0.1,0-0.2,0-0.3-0.1c-0.1-0.1-0.1-0.2-0.1-0.3v-12.7
			c0-0.1,0-0.2,0.1-0.3s0.2-0.1,0.3-0.1h0.3c0.1,0,0.2,0,0.3,0.1s0.1,0.2,0.1,0.3V583C-75.3,583.1-75.3,583.2-75.4,583.3z"/>
		<path class="st12" d="M-70.7,583.3c-0.1,0.1-0.2,0.1-0.3,0.1h-0.9c-0.1,0-0.2,0-0.3-0.1s-0.1-0.2-0.1-0.3v-0.9
			c0-0.1,0-0.2,0.1-0.3s0.2-0.1,0.3-0.1h0.9c0.1,0,0.2,0,0.3,0.1c0.1,0.1,0.1,0.2,0.1,0.3v0.9C-70.6,583.1-70.6,583.2-70.7,583.3z"
			/>
		<path class="st12" d="M-62,580.1l-1.2,3c0,0.1-0.1,0.1-0.1,0.2c-0.1,0.1-0.2,0.1-0.3,0.1H-64c-0.1,0-0.2,0-0.3-0.1
			c-0.1-0.1-0.1-0.2-0.1-0.3v-0.2l4.8-12.3c0.1-0.3,0.3-0.4,0.6-0.4h0.6c0.3,0,0.4,0.1,0.6,0.4l4.8,12.3v0.2c0,0.1,0,0.2-0.1,0.3
			s-0.2,0.1-0.3,0.1h-0.4c-0.1,0-0.2,0-0.3-0.1s-0.1-0.1-0.1-0.2l-1.2-3H-62z M-55.7,579l-2.9-7.5l-2.9,7.5H-55.7z"/>
		<path class="st12" d="M-49.9,583.3c-0.1,0.1-0.2,0.1-0.3,0.1h-0.3c-0.1,0-0.2,0-0.3-0.1s-0.1-0.2-0.1-0.3v-12.7
			c0-0.1,0-0.2,0.1-0.3s0.2-0.1,0.3-0.1h0.3c0.1,0,0.2,0,0.3,0.1s0.1,0.2,0.1,0.3V583C-49.8,583.1-49.8,583.2-49.9,583.3z"/>
		<path class="st12" d="M-45.1,581.7c0.5,0.6,1.3,0.8,2.2,0.8c0.7,0,1.3-0.1,1.7-0.4c0.5-0.3,0.8-0.8,1.1-1.5
			c0.1-0.2,0.1-0.3,0.2-0.3c0.1-0.1,0.1-0.1,0.3-0.1h0.3c0.1,0,0.2,0,0.3,0.1s0.1,0.2,0.1,0.3c0,0.5-0.2,1-0.5,1.4
			c-0.3,0.5-0.7,0.8-1.3,1.1s-1.3,0.4-2.1,0.4c-1.3,0-2.3-0.4-3.1-1.2c-0.7-0.8-1.1-1.8-1.1-3.2v-0.8v-0.8c0-1.4,0.4-2.5,1.1-3.2
			c0.7-0.8,1.7-1.1,3.1-1.1c0.8,0,1.5,0.1,2.1,0.4c0.6,0.3,1,0.7,1.3,1.1c0.3,0.5,0.4,0.9,0.5,1.4c0,0.1,0,0.2-0.1,0.3
			c-0.1,0.1-0.2,0.1-0.3,0.1h-0.3c-0.1,0-0.2,0-0.3-0.1s-0.1-0.2-0.2-0.3c-0.3-0.7-0.6-1.2-1.1-1.5s-1-0.4-1.7-0.4
			c-0.9,0-1.6,0.3-2.2,0.8c-0.5,0.6-0.8,1.4-0.9,2.5v0.7v0.7C-45.9,580.3-45.6,581.1-45.1,581.7z"/>
		<path class="st12" d="M-35,583.3c-0.1,0.1-0.2,0.1-0.3,0.1h-0.9c-0.1,0-0.2,0-0.3-0.1s-0.1-0.2-0.1-0.3v-0.9c0-0.1,0-0.2,0.1-0.3
			c0.1-0.1,0.2-0.1,0.3-0.1h0.9c0.1,0,0.2,0,0.3,0.1s0.1,0.2,0.1,0.3v0.9C-34.9,583.1-34.9,583.2-35,583.3z"/>
		<path class="st12" d="M-19.6,576.3c-0.3,0.1-0.6,0.3-0.9,0.5c-0.2,0.1-0.3,0.2-0.5,0.3c-0.1,0.1-0.2,0.1-0.4,0.1h-0.3
			c-0.1,0-0.2,0-0.3-0.1s-0.1-0.2-0.1-0.3l0.6-6.2c0-0.1,0.1-0.2,0.1-0.3c0.1-0.1,0.2-0.1,0.3-0.1h6.2c0.1,0,0.2,0,0.3,0.1
			c0.1,0.1,0.1,0.2,0.1,0.3v0.3c0,0.1,0,0.2-0.1,0.3s-0.2,0.1-0.3,0.1h-5.5l-0.4,4.3c0.7-0.4,1.5-0.6,2.5-0.6c0.9,0,1.6,0.2,2.3,0.5
			s1.2,0.8,1.6,1.5c0.4,0.6,0.6,1.4,0.6,2.3c0,1-0.2,1.8-0.6,2.4c-0.4,0.7-1,1.2-1.6,1.5c-0.7,0.3-1.5,0.5-2.3,0.5
			c-0.9,0-1.7-0.2-2.3-0.5c-0.7-0.3-1.2-0.8-1.5-1.3c-0.3-0.5-0.5-1.1-0.6-1.7l0,0c0-0.1,0-0.2,0.1-0.2c0.1-0.1,0.2-0.1,0.3-0.1h0.4
			c0.1,0,0.2,0,0.3,0.1c0.1,0.1,0.1,0.2,0.2,0.4c0.2,0.8,0.6,1.3,1.2,1.7c0.6,0.4,1.2,0.6,2,0.6c1,0,1.8-0.3,2.4-0.9
			c0.6-0.6,1-1.4,1-2.4c0-0.6-0.1-1.2-0.4-1.7c-0.3-0.5-0.7-0.8-1.2-1.1s-1.1-0.4-1.7-0.4C-18.9,576.1-19.3,576.1-19.6,576.3z"/>
		<path class="st12" d="M-10.9,581.7h0.9c0.1,0,0.2,0,0.2,0.1c0.1,0.1,0.1,0.1,0.1,0.2c0,0.1,0,0.2-0.1,0.3l-0.8,2.1
			c-0.1,0.1-0.1,0.2-0.2,0.3c-0.1,0.1-0.2,0.1-0.3,0.1h-0.3c-0.1,0-0.2,0-0.2-0.1c-0.1-0.1-0.1-0.2,0-0.3l0.4-2.3
			C-11.3,581.8-11.1,581.7-10.9,581.7z"/>
		<path class="st12" d="M-2.3,570.5C-2.3,570.5-2.3,570.4-2.3,570.5c0.2-0.2,0.2-0.2,0.3-0.3s0.2-0.1,0.3-0.1h0.4
			c0.1,0,0.2,0,0.3,0.1s0.1,0.2,0.1,0.3s0,0.1-0.1,0.2l-2.9,4c0.4-0.1,0.8-0.2,1.3-0.2c1,0,1.8,0.2,2.5,0.6c0.7,0.4,1.2,1,1.6,1.6
			c0.4,0.7,0.5,1.4,0.5,2.2s-0.2,1.5-0.5,2.2c-0.4,0.7-0.9,1.2-1.6,1.7c-0.7,0.4-1.5,0.6-2.5,0.6s-1.8-0.2-2.5-0.6
			c-0.7-0.4-1.2-1-1.6-1.7c-0.4-0.7-0.5-1.4-0.5-2.2c0-1.1,0.4-2.2,1.2-3.4L-2.3,570.5z M-4.3,576.2c-0.5,0.3-0.9,0.6-1.3,1.1
			c-0.3,0.5-0.5,1.1-0.5,1.8s0.2,1.3,0.5,1.8s0.7,0.9,1.3,1.1c0.5,0.3,1.1,0.4,1.7,0.4s1.2-0.1,1.7-0.4c0.5-0.3,0.9-0.6,1.3-1.1
			c0.3-0.5,0.5-1.1,0.5-1.8s-0.2-1.3-0.5-1.8s-0.7-0.9-1.3-1.1c-0.5-0.3-1.1-0.4-1.7-0.4S-3.8,575.9-4.3,576.2z"/>
		<path class="st12" d="M8.3,576.1c-0.5,0.4-1.1,0.7-1.9,0.7s-1.4-0.2-1.9-0.7c-0.5-0.4-0.7-1-0.8-1.8c0-0.2,0-0.5,0-0.8
			c0-0.4,0-0.6,0-0.9c0-0.8,0.3-1.4,0.7-1.9s1.1-0.7,1.9-0.7s1.5,0.2,1.9,0.7c0.4,0.5,0.7,1.1,0.7,1.9c0,0.5,0,0.7,0,0.9
			c0,0.1,0,0.4,0,0.8C9.1,575.1,8.8,575.7,8.3,576.1z M5.5,583.3c-0.1,0.1-0.2,0.1-0.4,0.1H4.8c-0.1,0-0.2,0-0.3-0.1
			s-0.1-0.2-0.1-0.3s0-0.1,0.1-0.2l9.4-12.4c0.1-0.1,0.2-0.2,0.3-0.3s0.2-0.1,0.4-0.1h0.3c0.1,0,0.2,0,0.3,0.1s0.1,0.2,0.1,0.3
			s0,0.1-0.1,0.2l-9.4,12.3C5.6,583.2,5.6,583.3,5.5,583.3z M7.6,575.4c0.2-0.3,0.4-0.7,0.4-1.1c0-0.5,0-0.7,0-0.8s0-0.3,0-0.8
			c0-0.4-0.2-0.8-0.4-1.1s-0.6-0.5-1.1-0.5s-0.9,0.2-1.1,0.5S5,572.3,5,572.7c0,0.2,0,0.5,0,0.8s0,0.6,0,0.8c0,0.4,0.2,0.8,0.4,1.1
			s0.6,0.5,1.1,0.5C6.9,575.8,7.3,575.7,7.6,575.4z M15,582.9c-0.5,0.5-1.1,0.7-1.9,0.7s-1.4-0.2-1.9-0.7s-0.7-1.1-0.8-1.9
			c0-0.2,0-0.5,0-0.8c0-0.4,0-0.6,0-0.9c0-0.8,0.3-1.4,0.7-1.9s1.1-0.7,1.9-0.7s1.5,0.2,1.9,0.7s0.7,1.1,0.7,1.9c0,0.5,0,0.7,0,0.9
			c0,0.1,0,0.4,0,0.8C15.8,581.8,15.5,582.4,15,582.9z M14.3,582c0.2-0.3,0.4-0.7,0.4-1.1c0-0.5,0-0.7,0-0.8s0-0.3,0-0.8
			c0-0.4-0.2-0.8-0.4-1.1c-0.2-0.3-0.6-0.5-1.1-0.5s-0.9,0.2-1.1,0.5s-0.4,0.7-0.4,1.1c0,0.2,0,0.5,0,0.8s0,0.6,0,0.8
			c0,0.4,0.2,0.8,0.4,1.1c0.2,0.3,0.6,0.5,1.1,0.5S14,582.3,14.3,582z"/>
	</g>
	<g>
		<path class="st12" d="M-271.4,570.2c0.1-0.1,0.2-0.1,0.3-0.1h0.4c0.1,0,0.2,0,0.3,0.1s0.1,0.2,0.1,0.3v0.2l-4.4,12.3
			c-0.1,0.3-0.3,0.5-0.6,0.5h-0.5c-0.3,0-0.5-0.2-0.6-0.5l-4.4-12.3v-0.2c0-0.1,0-0.2,0.1-0.3s0.2-0.1,0.3-0.1h0.4
			c0.1,0,0.2,0,0.3,0.1s0.1,0.1,0.1,0.2l4.2,11.6l4.2-11.6C-271.5,570.4-271.5,570.3-271.4,570.2z"/>
		<path class="st12" d="M-261.1,578.5c0,0.4,0,0.7,0,0.8c0,1.3-0.4,2.3-1.1,3.1s-1.8,1.2-3.1,1.2c-1.3,0-2.3-0.4-3.1-1.2
			c-0.7-0.8-1.1-1.8-1.1-3.1v-0.8v-0.8c0-1.3,0.4-2.3,1.1-3.1s1.8-1.2,3.1-1.2c1.3,0,2.3,0.4,3.1,1.2c0.7,0.8,1.1,1.8,1.1,3.1
			C-261.1,577.8-261.1,578.1-261.1,578.5z M-267.5,575.3c-0.6,0.6-0.8,1.4-0.9,2.5v0.7v0.7c0,1.1,0.3,1.9,0.9,2.5s1.3,0.9,2.2,0.9
			s1.6-0.3,2.2-0.9c0.6-0.6,0.8-1.4,0.9-2.5c0-0.1,0-0.4,0-0.7s0-0.6,0-0.7c0-1.1-0.3-1.9-0.9-2.5c-0.6-0.6-1.3-0.9-2.2-0.9
			S-266.9,574.8-267.5,575.3z"/>
		<path class="st12" d="M-257.4,583.3c-0.1,0.1-0.2,0.1-0.3,0.1h-0.3c-0.1,0-0.2,0-0.3-0.1c-0.1-0.1-0.1-0.2-0.1-0.3v-12.7
			c0-0.1,0-0.2,0.1-0.3c0.1-0.1,0.2-0.1,0.3-0.1h0.3c0.1,0,0.2,0,0.3,0.1s0.1,0.2,0.1,0.3V583C-257.2,583.1-257.2,583.2-257.4,583.3
			z"/>
		<path class="st12" d="M-252.7,583.3c-0.1,0.1-0.2,0.1-0.3,0.1h-0.9c-0.1,0-0.2,0-0.3-0.1s-0.1-0.2-0.1-0.3v-0.9
			c0-0.1,0-0.2,0.1-0.3s0.2-0.1,0.3-0.1h0.9c0.1,0,0.2,0,0.3,0.1s0.1,0.2,0.1,0.3v0.9C-252.6,583.1-252.6,583.2-252.7,583.3z"/>
		<path class="st12" d="M-244,580.1l-1.2,3c0,0.1-0.1,0.1-0.1,0.2c-0.1,0.1-0.2,0.1-0.3,0.1h-0.4c-0.1,0-0.2,0-0.3-0.1
			s-0.1-0.2-0.1-0.3v-0.2l4.8-12.3c0.1-0.3,0.3-0.4,0.6-0.4h0.6c0.3,0,0.4,0.1,0.6,0.4l4.8,12.3v0.2c0,0.1,0,0.2-0.1,0.3
			s-0.2,0.1-0.3,0.1h-0.4c-0.1,0-0.2,0-0.3-0.1s-0.1-0.1-0.1-0.2l-1.2-3H-244z M-237.7,579l-2.9-7.5l-2.9,7.5H-237.7z"/>
		<path class="st12" d="M-231.9,583.3c-0.1,0.1-0.2,0.1-0.3,0.1h-0.3c-0.1,0-0.2,0-0.3-0.1s-0.1-0.2-0.1-0.3v-12.7
			c0-0.1,0-0.2,0.1-0.3s0.2-0.1,0.3-0.1h0.3c0.1,0,0.2,0,0.3,0.1s0.1,0.2,0.1,0.3V583C-231.7,583.1-231.8,583.2-231.9,583.3z"/>
		<path class="st12" d="M-227.1,581.7c0.5,0.6,1.3,0.8,2.2,0.8c0.7,0,1.3-0.1,1.7-0.4c0.5-0.3,0.8-0.8,1.1-1.5
			c0.1-0.2,0.1-0.3,0.2-0.3c0.1-0.1,0.1-0.1,0.3-0.1h0.3c0.1,0,0.2,0,0.3,0.1s0.1,0.2,0.1,0.3c0,0.5-0.2,1-0.5,1.4
			c-0.3,0.5-0.7,0.8-1.3,1.1s-1.3,0.4-2.1,0.4c-1.3,0-2.3-0.4-3.1-1.2c-0.7-0.8-1.1-1.8-1.1-3.2v-0.8v-0.8c0-1.4,0.4-2.5,1.1-3.2
			c0.7-0.8,1.7-1.1,3.1-1.1c0.8,0,1.5,0.1,2.1,0.4c0.6,0.3,1,0.7,1.3,1.1c0.3,0.5,0.4,0.9,0.5,1.4c0,0.1,0,0.2-0.1,0.3
			s-0.2,0.1-0.3,0.1h-0.3c-0.1,0-0.2,0-0.3-0.1s-0.1-0.2-0.2-0.3c-0.3-0.7-0.6-1.2-1.1-1.5s-1-0.4-1.7-0.4c-0.9,0-1.6,0.3-2.2,0.8
			c-0.5,0.6-0.8,1.4-0.9,2.5v0.7v0.7C-227.9,580.3-227.6,581.1-227.1,581.7z"/>
		<path class="st12" d="M-217,583.3c-0.1,0.1-0.2,0.1-0.3,0.1h-0.9c-0.1,0-0.2,0-0.3-0.1s-0.1-0.2-0.1-0.3v-0.9c0-0.1,0-0.2,0.1-0.3
			s0.2-0.1,0.3-0.1h0.9c0.1,0,0.2,0,0.3,0.1s0.1,0.2,0.1,0.3v0.9C-216.8,583.1-216.9,583.2-217,583.3z"/>
		<path class="st12" d="M-206.5,576.3c-0.3,0.1-0.6,0.3-0.9,0.5c-0.2,0.1-0.3,0.2-0.5,0.3c-0.1,0.1-0.2,0.1-0.4,0.1h-0.3
			c-0.1,0-0.2,0-0.3-0.1s-0.1-0.2-0.1-0.3l0.6-6.2c0-0.1,0.1-0.2,0.1-0.3c0.1-0.1,0.2-0.1,0.3-0.1h6.2c0.1,0,0.2,0,0.3,0.1
			s0.1,0.2,0.1,0.3v0.3c0,0.1,0,0.2-0.1,0.3s-0.2,0.1-0.3,0.1h-5.5l-0.4,4.3c0.7-0.4,1.5-0.6,2.5-0.6c0.9,0,1.6,0.2,2.3,0.5
			s1.2,0.8,1.6,1.5c0.4,0.6,0.6,1.4,0.6,2.3c0,1-0.2,1.8-0.6,2.4c-0.4,0.7-1,1.2-1.6,1.5c-0.7,0.3-1.5,0.5-2.3,0.5
			c-0.9,0-1.7-0.2-2.3-0.5c-0.7-0.3-1.2-0.8-1.5-1.3s-0.5-1.1-0.6-1.7l0,0c0-0.1,0-0.2,0.1-0.2c0.1-0.1,0.2-0.1,0.3-0.1h0.4
			c0.1,0,0.2,0,0.3,0.1s0.1,0.2,0.2,0.4c0.2,0.8,0.6,1.3,1.2,1.7s1.2,0.6,2,0.6c1,0,1.8-0.3,2.4-0.9c0.6-0.6,1-1.4,1-2.4
			c0-0.6-0.1-1.2-0.4-1.7s-0.7-0.8-1.2-1.1s-1.1-0.4-1.7-0.4C-205.8,576.1-206.2,576.1-206.5,576.3z"/>
		<path class="st12" d="M-197.8,581.7h0.9c0.1,0,0.2,0,0.2,0.1c0.1,0.1,0.1,0.1,0.1,0.2c0,0.1,0,0.2-0.1,0.3l-0.8,2.1
			c-0.1,0.1-0.1,0.2-0.2,0.3s-0.2,0.1-0.3,0.1h-0.3c-0.1,0-0.2,0-0.2-0.1c-0.1-0.1-0.1-0.2,0-0.3l0.4-2.3
			C-198.2,581.8-198,581.7-197.8,581.7z"/>
		<path class="st12" d="M-186.2,571.4c0.7,1,1.1,2.2,1.1,3.8c0,0.4,0,0.9,0,1.6c0,0.7,0,1.2,0,1.6c0,1.6-0.4,2.8-1.1,3.8
			s-1.9,1.4-3.4,1.4s-2.7-0.5-3.4-1.4c-0.7-1-1.1-2.2-1.1-3.8v-1.6v-1.6c0-1.6,0.4-2.8,1.1-3.8s1.9-1.4,3.4-1.4
			S-186.9,570.4-186.2,571.4z M-192.1,572.2c-0.6,0.7-0.9,1.8-0.9,3.1v1.5v1.5c0,1.3,0.3,2.4,0.9,3.1c0.6,0.7,1.4,1.1,2.5,1.1
			s1.9-0.4,2.5-1.1c0.6-0.7,0.9-1.8,0.9-3.1c0-0.4,0-0.9,0-1.5s0-1.1,0-1.5c0-1.3-0.3-2.3-0.9-3.1c-0.6-0.7-1.4-1.1-2.5-1.1
			S-191.6,571.5-192.1,572.2z"/>
		<path class="st12" d="M-178.2,576.1c-0.5,0.4-1.1,0.7-1.9,0.7s-1.4-0.2-1.9-0.7c-0.5-0.4-0.7-1-0.8-1.8c0-0.2,0-0.5,0-0.8
			c0-0.4,0-0.6,0-0.9c0-0.8,0.3-1.4,0.7-1.9s1.1-0.7,1.9-0.7s1.5,0.2,1.9,0.7s0.7,1.1,0.7,1.9c0,0.5,0,0.7,0,0.9c0,0.1,0,0.4,0,0.8
			C-177.5,575.1-177.7,575.7-178.2,576.1z M-181.1,583.3c-0.1,0.1-0.2,0.1-0.4,0.1h-0.3c-0.1,0-0.2,0-0.3-0.1s-0.1-0.2-0.1-0.3
			s0-0.1,0.1-0.2l9.4-12.4c0.1-0.1,0.2-0.2,0.3-0.3s0.2-0.1,0.4-0.1h0.3c0.1,0,0.2,0,0.3,0.1s0.1,0.2,0.1,0.3s0,0.1-0.1,0.2
			l-9.4,12.3C-180.9,583.2-181,583.3-181.1,583.3z M-179,575.4c0.2-0.3,0.4-0.7,0.4-1.1c0-0.5,0-0.7,0-0.8s0-0.3,0-0.8
			c0-0.4-0.2-0.8-0.4-1.1s-0.6-0.5-1.1-0.5s-0.9,0.2-1.1,0.5s-0.4,0.7-0.4,1.1c0,0.2,0,0.5,0,0.8s0,0.6,0,0.8c0,0.4,0.2,0.8,0.4,1.1
			s0.6,0.5,1.1,0.5C-179.6,575.8-179.2,575.7-179,575.4z M-171.5,582.9c-0.5,0.5-1.1,0.7-1.9,0.7s-1.4-0.2-1.9-0.7s-0.7-1.1-0.8-1.9
			c0-0.2,0-0.5,0-0.8c0-0.4,0-0.6,0-0.9c0-0.8,0.3-1.4,0.7-1.9s1.1-0.7,1.9-0.7s1.5,0.2,1.9,0.7s0.7,1.1,0.7,1.9c0,0.5,0,0.7,0,0.9
			c0,0.1,0,0.4,0,0.8C-170.8,581.8-171,582.4-171.5,582.9z M-172.3,582c0.2-0.3,0.4-0.7,0.4-1.1c0-0.5,0-0.7,0-0.8s0-0.3,0-0.8
			c0-0.4-0.2-0.8-0.4-1.1s-0.6-0.5-1.1-0.5s-0.9,0.2-1.1,0.5s-0.4,0.7-0.4,1.1c0,0.2,0,0.5,0,0.8s0,0.6,0,0.8c0,0.4,0.2,0.8,0.4,1.1
			s0.6,0.5,1.1,0.5S-172.5,582.3-172.3,582z"/>
	</g>
	<g>
		<path class="st13" d="M-287.4,548.2c-0.2-0.2-0.3-0.4-0.3-0.6v-20.7c0-0.2,0.1-0.4,0.3-0.6s0.4-0.3,0.6-0.3h1.3
			c0.2,0,0.4,0.1,0.6,0.3s0.3,0.4,0.3,0.6v20.7c0,0.2-0.1,0.4-0.3,0.6c-0.2,0.2-0.4,0.3-0.6,0.3h-1.3
			C-287,548.4-287.2,548.3-287.4,548.2z"/>
		<path class="st13" d="M-270.4,532c0.2,0.2,0.3,0.4,0.3,0.6v1c0,0.2-0.1,0.4-0.3,0.6c-0.2,0.2-0.4,0.3-0.6,0.3h-1.9
			c-1.2,0-2.1,0.3-2.7,0.9c-0.6,0.6-0.9,1.5-0.9,2.7v9.3c0,0.2-0.1,0.4-0.3,0.6c-0.2,0.2-0.4,0.3-0.6,0.3h-1.2
			c-0.2,0-0.4-0.1-0.6-0.3s-0.3-0.4-0.3-0.6v-14.9c0-0.2,0.1-0.4,0.3-0.6c0.2-0.2,0.4-0.3,0.6-0.3h1.2c0.2,0,0.4,0.1,0.6,0.3
			s0.3,0.4,0.3,0.6v1c0.4-0.6,0.9-1.1,1.5-1.4c0.6-0.3,1.4-0.4,2.3-0.4h1.7C-270.8,531.8-270.6,531.9-270.4,532z"/>
		<path class="st13" d="M-264.4,529c-0.2,0.2-0.4,0.3-0.6,0.3h-1.8c-0.2,0-0.4-0.1-0.6-0.3s-0.3-0.4-0.3-0.6v-1.8
			c0-0.2,0.1-0.4,0.3-0.6c0.2-0.2,0.4-0.3,0.6-0.3h1.8c0.2,0,0.4,0.1,0.6,0.3s0.3,0.4,0.3,0.6v1.8
			C-264.1,528.6-264.2,528.8-264.4,529z M-264.7,548.2c-0.2,0.2-0.4,0.3-0.6,0.3h-1.2c-0.2,0-0.4-0.1-0.6-0.3s-0.3-0.4-0.3-0.6
			v-14.9c0-0.2,0.1-0.4,0.3-0.6c0.2-0.2,0.4-0.3,0.6-0.3h1.2c0.2,0,0.4,0.1,0.6,0.3s0.3,0.4,0.3,0.6v14.9
			C-264.4,547.8-264.5,548-264.7,548.2z"/>
		<path class="st13" d="M-260.2,536.3c0-0.9,0.2-1.7,0.7-2.4s1.2-1.3,2.1-1.7s2.1-0.7,3.4-0.7s2.5,0.2,3.4,0.6
			c0.9,0.4,1.7,0.9,2.2,1.4c0.5,0.6,0.8,1.1,0.8,1.7c0,0.2-0.1,0.4-0.3,0.6c-0.2,0.2-0.4,0.2-0.6,0.2h-1.1c-0.4,0-0.7-0.1-1-0.4
			c-0.7-0.9-1.8-1.3-3.5-1.3c-1,0-1.8,0.2-2.4,0.5c-0.6,0.4-0.9,0.9-0.9,1.5c0,0.5,0.1,0.9,0.4,1.2s0.7,0.5,1.3,0.7s1.7,0.4,3.2,0.8
			c1.9,0.4,3.2,1,4,1.9c0.8,0.8,1.2,1.8,1.2,3c0,0.9-0.3,1.7-0.8,2.4s-1.3,1.3-2.3,1.8s-2.2,0.7-3.5,0.7s-2.5-0.2-3.5-0.6
			s-1.8-0.9-2.4-1.5s-0.8-1.2-0.8-1.7c0-0.2,0.1-0.4,0.3-0.6c0.2-0.2,0.4-0.2,0.6-0.2h1.2c0.2,0,0.4,0,0.5,0.1
			c0.1,0,0.3,0.2,0.4,0.4c0.7,1,2,1.5,3.7,1.5c1,0,1.9-0.2,2.6-0.6s1.1-0.9,1.1-1.6c0-0.5-0.2-0.9-0.6-1.2s-0.9-0.6-1.6-0.8
			s-1.8-0.5-3.3-0.8C-258.8,540.4-260.2,538.8-260.2,536.3z"/>
		<path class="st13" d="M-228.9,548.2c-0.2,0.2-0.4,0.3-0.6,0.3h-1.2c-0.2,0-0.4-0.1-0.6-0.3s-0.3-0.4-0.3-0.6v-8.5
			c0-1.6-0.4-2.8-1.2-3.6s-1.9-1.2-3.3-1.2s-2.5,0.4-3.3,1.2s-1.2,2-1.2,3.6v8.4c0,0.2-0.1,0.4-0.3,0.6c-0.2,0.2-0.4,0.3-0.6,0.3
			h-1.2c-0.2,0-0.4-0.1-0.6-0.3s-0.3-0.4-0.3-0.6v-21c0-0.2,0.1-0.4,0.3-0.6c0.2-0.2,0.4-0.3,0.6-0.3h1.2c0.2,0,0.4,0.1,0.6,0.3
			s0.3,0.4,0.3,0.6v7.1c0.5-0.6,1.1-1.1,1.9-1.6c0.8-0.4,1.8-0.6,3-0.6c1.3,0,2.5,0.3,3.6,0.9c1,0.6,1.9,1.4,2.4,2.5
			c0.6,1.1,0.9,2.4,0.9,3.8v8.9C-228.7,547.8-228.8,548-228.9,548.2z"/>
		<path class="st13" d="M-201.7,527.7c1.5,1.1,2.2,2.8,2.2,5c0,1.7-0.4,3-1.2,4.1c-0.8,1-2,1.8-3.4,2.2l4.8,8.4
			c0.1,0.1,0.1,0.2,0.1,0.4s-0.1,0.4-0.2,0.5s-0.3,0.2-0.5,0.2h-1.4c-0.6,0-1.1-0.3-1.4-0.9l-4.6-8.2h-5.5v8.2
			c0,0.2-0.1,0.4-0.3,0.6c-0.2,0.2-0.4,0.3-0.6,0.3h-1.3c-0.2,0-0.4-0.1-0.6-0.3s-0.3-0.4-0.3-0.6v-20.7c0-0.2,0.1-0.4,0.3-0.6
			s0.4-0.3,0.6-0.3h7.7C-205,526-203.2,526.6-201.7,527.7z M-207.4,536.5c3.2,0,4.8-1.3,4.8-3.9c0-1.3-0.4-2.3-1.2-2.9
			c-0.8-0.6-2-0.9-3.6-0.9h-5.4v7.6h5.4V536.5L-207.4,536.5z"/>
		<path class="st13" d="M-183.6,533.6c1.3,1.5,2,3.4,2,5.9v0.9c0,0.2-0.1,0.4-0.3,0.6c-0.2,0.2-0.4,0.3-0.6,0.3h-11v0.2
			c0,1.4,0.5,2.5,1.3,3.3s1.9,1.2,3.2,1.2c1.1,0,1.9-0.1,2.5-0.4c0.6-0.3,1.1-0.7,1.6-1.2c0.2-0.2,0.3-0.3,0.5-0.4
			c0.1-0.1,0.3-0.1,0.6-0.1h1c0.3,0,0.5,0.1,0.6,0.3c0.2,0.2,0.2,0.4,0.2,0.6c-0.1,0.6-0.4,1.2-0.9,1.8s-1.3,1.1-2.3,1.5
			s-2.2,0.6-3.6,0.6s-2.6-0.3-3.6-0.9c-1.1-0.6-1.9-1.5-2.5-2.6s-1-2.4-1.1-3.7c0-0.6-0.1-1.1-0.1-1.5c0-0.3,0-0.8,0.1-1.5
			c0.1-1.3,0.5-2.5,1.1-3.6s1.5-1.9,2.5-2.5c1.1-0.6,2.3-0.9,3.7-0.9C-186.8,531.5-185,532.2-183.6,533.6z M-184.5,538.6
			L-184.5,538.6c0-1.4-0.4-2.4-1.2-3.2s-1.9-1.2-3.3-1.2c-1.2,0-2.3,0.4-3.2,1.2s-1.3,1.8-1.3,3.1v0.1L-184.5,538.6L-184.5,538.6z"
			/>
		<path class="st13" d="M-166.4,526.6c0-0.2,0.1-0.4,0.3-0.6c0.2-0.2,0.4-0.3,0.6-0.3h1.2c0.2,0,0.4,0.1,0.6,0.3s0.3,0.4,0.3,0.6v21
			c0,0.2-0.1,0.4-0.3,0.6c-0.2,0.2-0.4,0.3-0.6,0.3h-1.2c-0.2,0-0.4-0.1-0.6-0.3s-0.3-0.4-0.3-0.6v-1c-1.1,1.5-2.7,2.2-5,2.2
			c-1.3,0-2.5-0.3-3.6-0.9c-1.1-0.6-1.9-1.5-2.6-2.7s-1-2.5-1.1-4v-1.1v-1c0.1-1.5,0.4-2.9,1.1-4s1.5-2,2.6-2.6s2.3-0.9,3.6-0.9
			c1.2,0,2.2,0.2,3,0.6c0.8,0.4,1.5,0.9,1.9,1.6v-7.2L-166.4,526.6L-166.4,526.6z M-167.7,535.5c-0.8-0.8-1.9-1.2-3.3-1.2
			s-2.5,0.4-3.3,1.3c-0.8,0.9-1.3,2.1-1.4,3.6v0.9v0.9c0.1,1.5,0.5,2.8,1.4,3.6c0.8,0.9,1.9,1.3,3.3,1.3c1.3,0,2.4-0.4,3.3-1.2
			s1.3-1.9,1.4-3.3c0-0.2,0-0.6,0-1.3c0-0.6,0-1,0-1.2C-166.4,537.5-166.9,536.3-167.7,535.5z"/>
	</g>
	<g>
		<path class="st13" d="M-116.7,527.7c1.5,1.2,2.2,2.8,2.2,5.1c0,1.5-0.3,2.8-1,3.8s-1.6,1.8-2.8,2.3c-1.2,0.5-2.5,0.8-3.9,0.8h-5.9
			v7.8c0,0.2-0.1,0.4-0.3,0.6c-0.2,0.2-0.4,0.3-0.6,0.3h-1.3c-0.2,0-0.4-0.1-0.6-0.3s-0.3-0.4-0.3-0.6v-20.7c0-0.2,0.1-0.4,0.3-0.6
			s0.4-0.3,0.6-0.3h8.1C-120,526-118.2,526.6-116.7,527.7z M-122.4,536.8c1.6,0,2.8-0.3,3.6-1s1.2-1.7,1.2-3c0-2.6-1.6-3.9-4.8-3.9
			h-5.7v7.9H-122.4z"/>
		<path class="st13" d="M-111,532c0.2-0.2,0.4-0.3,0.6-0.3h1.2c0.2,0,0.4,0.1,0.6,0.3s0.3,0.4,0.3,0.6v8.4c0,1.6,0.4,2.8,1.1,3.7
			c0.7,0.8,1.8,1.2,3.2,1.2c1.4,0,2.4-0.4,3.2-1.2s1.1-2,1.1-3.6v-8.4c0-0.2,0.1-0.4,0.3-0.6c0.2-0.2,0.4-0.3,0.6-0.3h1.2
			c0.2,0,0.4,0.1,0.6,0.3s0.3,0.4,0.3,0.6v14.9c0,0.2-0.1,0.4-0.3,0.6c-0.2,0.2-0.4,0.3-0.6,0.3h-1.2c-0.2,0-0.4-0.1-0.6-0.3
			s-0.3-0.4-0.3-0.6v-1c-1.1,1.5-2.7,2.2-4.8,2.2c-2,0-3.7-0.6-4.9-1.9c-1.2-1.3-1.8-3-1.8-5.2v-8.9
			C-111.2,532.4-111.1,532.2-111,532z"/>
		<path class="st13" d="M-87.3,532c0.6-0.4,1.5-0.6,2.6-0.6c2.5,0,4.2,0.9,5.2,2.8c0.6-0.9,1.3-1.6,2.1-2.1c0.8-0.5,1.8-0.7,3.1-0.7
			c2.1,0,3.6,0.6,4.7,1.9c1,1.3,1.5,3,1.5,5.3v8.9c0,0.2-0.1,0.4-0.3,0.6c-0.2,0.2-0.4,0.3-0.6,0.3h-1.2c-0.2,0-0.4-0.1-0.6-0.3
			s-0.3-0.4-0.3-0.6V539c0-3.2-1.3-4.8-3.8-4.8c-1.2,0-2.1,0.4-2.8,1.2c-0.7,0.8-1,1.9-1,3.4v8.8c0,0.2-0.1,0.4-0.3,0.6
			c-0.2,0.2-0.4,0.3-0.6,0.3h-1.2c-0.2,0-0.4-0.1-0.6-0.3s-0.3-0.4-0.3-0.6v-8.5c0-3.2-1.3-4.8-3.8-4.8c-1.2,0-2.1,0.4-2.8,1.2
			c-0.7,0.8-1,1.9-1,3.4v8.8c0,0.2-0.1,0.4-0.3,0.6c-0.2,0.2-0.4,0.3-0.6,0.3h-0.9c-0.2,0-0.4-0.1-0.6-0.3s-0.3-0.4-0.3-0.6v-14.9
			c0-0.2,0.1-0.4,0.3-0.6s0.4-0.3,0.6-0.3h1.2c0.2,0,0.4,0.1,0.6,0.3s0.3,0.4,0.3,0.6v1C-88.5,533-88,532.4-87.3,532z"/>
		<path class="st13" d="M-60.6,553.6c0,0.2-0.1,0.4-0.3,0.6c-0.2,0.2-0.4,0.3-0.6,0.3h-1.2c-0.2,0-0.4-0.1-0.6-0.3s-0.3-0.4-0.3-0.6
			v-21c0-0.2,0.1-0.4,0.3-0.6s0.4-0.3,0.6-0.3h1.2c0.2,0,0.4,0.1,0.6,0.3s0.3,0.4,0.3,0.6v1c1.1-1.5,2.7-2.2,5-2.2
			c1.3,0,2.5,0.3,3.6,0.9c1.1,0.6,1.9,1.5,2.6,2.7s1,2.5,1.1,4c0,0.2,0,0.6,0,1c0,0.5,0,0.8,0,1.1c-0.1,1.5-0.4,2.9-1.1,4
			s-1.5,2-2.6,2.6s-2.3,0.9-3.6,0.9c-1.2,0-2.2-0.2-3-0.6c-0.8-0.4-1.5-0.9-1.9-1.6L-60.6,553.6L-60.6,553.6L-60.6,553.6z
			 M-59.2,544.7c0.8,0.8,1.9,1.2,3.3,1.2s2.5-0.4,3.3-1.3c0.8-0.9,1.3-2.1,1.4-3.6c0-0.2,0-0.5,0-0.9s0-0.7,0-0.9
			c-0.1-1.5-0.5-2.8-1.4-3.6c-0.8-0.9-1.9-1.3-3.3-1.3c-1.3,0-2.4,0.4-3.3,1.2s-1.3,1.9-1.4,3.3v1.2v1.3
			C-60.5,542.7-60.1,543.9-59.2,544.7z"/>
		<path class="st13" d="M-41.4,547.6c0,0.2-0.1,0.4-0.3,0.6c-0.2,0.2-0.4,0.3-0.6,0.3h-1.2c-0.2,0-0.4-0.1-0.6-0.3s-0.3-0.4-0.3-0.6
			v-21c0-0.2,0.1-0.4,0.3-0.6c0.2-0.2,0.4-0.3,0.6-0.3h1.2c0.2,0,0.4,0.1,0.6,0.3s0.3,0.4,0.3,0.6v10.6l6.2-4.8
			c0.2-0.2,0.4-0.3,0.6-0.4c0.2-0.1,0.4-0.1,0.6-0.1h1.6c0.2,0,0.4,0.1,0.5,0.2c0.1,0.1,0.2,0.3,0.2,0.5s-0.1,0.4-0.4,0.6l-7.7,6
			l8.5,7.8c0.2,0.2,0.3,0.4,0.3,0.6c0,0.2-0.1,0.4-0.2,0.5s-0.3,0.2-0.5,0.2h-1.4c-0.4,0-0.9-0.2-1.3-0.5l-7-6.5
			C-41.4,541.3-41.4,547.6-41.4,547.6z"/>
		<path class="st13" d="M-25,529c-0.2,0.2-0.4,0.3-0.6,0.3h-1.8c-0.2,0-0.4-0.1-0.6-0.3s-0.3-0.4-0.3-0.6v-1.8
			c0-0.2,0.1-0.4,0.3-0.6c0.2-0.2,0.4-0.3,0.6-0.3h1.8c0.2,0,0.4,0.1,0.6,0.3s0.3,0.4,0.3,0.6v1.8C-24.8,528.6-24.9,528.8-25,529z
			 M-25.3,548.2c-0.2,0.2-0.4,0.3-0.6,0.3h-1.2c-0.2,0-0.4-0.1-0.6-0.3s-0.3-0.4-0.3-0.6v-14.9c0-0.2,0.1-0.4,0.3-0.6
			s0.4-0.3,0.6-0.3h1.2c0.2,0,0.4,0.1,0.6,0.3s0.3,0.4,0.3,0.6v14.9C-25.1,547.8-25.2,548-25.3,548.2z"/>
		<path class="st13" d="M-5.8,548.2c-0.2,0.2-0.4,0.3-0.6,0.3h-1.2c-0.2,0-0.4-0.1-0.6-0.3s-0.3-0.4-0.3-0.6v-8.5
			c0-1.6-0.4-2.8-1.2-3.6s-1.9-1.2-3.3-1.2s-2.5,0.4-3.3,1.2c-0.8,0.8-1.2,2-1.2,3.6v8.4c0,0.2-0.1,0.4-0.3,0.6
			c-0.2,0.2-0.4,0.3-0.6,0.3h-1.2c-0.2,0-0.4-0.1-0.6-0.3s-0.3-0.4-0.3-0.6v-14.9c0-0.2,0.1-0.4,0.3-0.6s0.4-0.3,0.6-0.3h1.2
			c0.2,0,0.4,0.1,0.6,0.3s0.3,0.4,0.3,0.6v1c0.5-0.6,1.1-1.1,1.9-1.6c0.8-0.4,1.8-0.6,3-0.6c1.3,0,2.5,0.3,3.6,0.9
			c1,0.6,1.9,1.4,2.4,2.5c0.6,1.1,0.9,2.4,0.9,3.8v8.9C-5.5,547.8-5.6,548-5.8,548.2z"/>
		<path class="st13" d="M9,543.4l-1.7,4.3c-0.2,0.5-0.6,0.8-1.2,0.8H4.9c-0.2,0-0.4-0.1-0.5-0.2c-0.1-0.1-0.2-0.3-0.2-0.5
			c0-0.1,0-0.3,0.1-0.4l7.8-20.2c0.3-0.7,0.8-1.1,1.4-1.1h1.9c0.7,0,1.2,0.4,1.4,1.1l7.8,20.2c0.1,0.2,0.1,0.3,0.1,0.4
			c0,0.2-0.1,0.4-0.2,0.5c-0.1,0.1-0.3,0.2-0.5,0.2h-1.2c-0.6,0-1.1-0.3-1.2-0.8l-1.7-4.3H9L9,543.4z M19,540.5l-4.4-11.4l-4.4,11.4
			H19z"/>
		<path class="st13" d="M30.5,548.2c-0.2,0.2-0.4,0.3-0.6,0.3h-1.2c-0.2,0-0.4-0.1-0.6-0.3s-0.3-0.4-0.3-0.6v-21
			c0-0.2,0.1-0.4,0.3-0.6c0.2-0.2,0.4-0.3,0.6-0.3h1.2c0.2,0,0.4,0.1,0.6,0.3s0.3,0.4,0.3,0.6v21C30.8,547.8,30.7,548,30.5,548.2z"
			/>
		<path class="st13" d="M47.6,533.6c1.3,1.5,2,3.4,2,5.9v0.9c0,0.2-0.1,0.4-0.3,0.6c-0.2,0.2-0.4,0.3-0.6,0.3h-11v0.2
			c0,1.4,0.5,2.5,1.3,3.3s1.9,1.2,3.2,1.2c1.1,0,1.9-0.1,2.5-0.4c0.6-0.3,1.1-0.7,1.6-1.2c0.2-0.2,0.3-0.3,0.5-0.4
			c0.1-0.1,0.3-0.1,0.6-0.1h1c0.3,0,0.5,0.1,0.6,0.3c0.2,0.2,0.2,0.4,0.2,0.6c-0.1,0.6-0.4,1.2-0.9,1.8s-1.3,1.1-2.3,1.5
			s-2.2,0.6-3.6,0.6c-1.4,0-2.6-0.3-3.6-0.9c-1.1-0.6-1.9-1.5-2.5-2.6s-1-2.4-1.1-3.7c0-0.6-0.1-1.1-0.1-1.5c0-0.3,0-0.8,0.1-1.5
			c0.1-1.3,0.5-2.5,1.1-3.6s1.5-1.9,2.5-2.5c1.1-0.6,2.3-0.9,3.7-0.9C44.4,531.5,46.2,532.2,47.6,533.6z M46.7,538.6L46.7,538.6
			c0-1.4-0.4-2.4-1.2-3.2s-1.9-1.2-3.3-1.2c-1.2,0-2.3,0.4-3.2,1.2s-1.3,1.8-1.3,3.1v0.1L46.7,538.6L46.7,538.6z"/>
	</g>
	<path class="st16" d="M-76.2,495.7L-87.4,366c-0.2-1.8,1.3-3.3,3.1-3.2c41.9,1.6,69,0.6,78,0.1c1.8-0.1,3.2,1.4,3,3.2l-11.2,129.6
		c-0.2,2.2-1.7,4-3.8,4.5c-8.6,2.2-31.4,6.7-54.2,0.1C-74.5,499.6-76,497.8-76.2,495.7z"/>
	<g>
		<g>
			<path class="st17" d="M-38.9,359.8c8.5,12.7,23.2,10.7,30.6,7.7c7.4-2.9,15.5-20.6-0.7-30.2s-34.8,1.5-34.8,1.5
				c-20.6-9.2-28,6.6-28,6.6c-21.4-1.1-14.1,17.8-14.1,17.8l45.6,0.4"/>
			<g>
				<path class="st18" d="M-23,339.9c0,0,18.8,0.4,16.4,14.9c0,0-0.9,5.3-6.4,6.6"/>
				<path class="st18" d="M-73.7,352.7c0,0-2.5-0.9-5.3,2.2s-0.5,6.6-0.5,6.6"/>
			</g>
		</g>
		<g>
			<path class="st19" d="M-79.2,396.7l7.9,91.3c0.4,4.3,3.6,7.9,7.9,8.6c5.3,1,10.8,1.5,16.6,1.5c7.5,0,14.2-0.8,19.4-1.7
				c4.3-0.8,7.6-4.3,8-8.7l7.9-91.1C-42.9,399.5-67.4,397.9-79.2,396.7z"/>
			<g>
				<path class="st15" d="M-84.8,396.6c0,0,40.9,3.8,78.9,0"/>
				<g>
					<g>
						<g>
							<line class="st5" x1="-11.5" y1="368.3" x2="-19.5" y2="461.4"/>
							<polygon class="st6" points="-9.8,368.5 -19.5,461.4 -13.1,368.2 							"/>
						</g>
						<g>
							<line class="st5" x1="-17.7" y1="369.7" x2="-23" y2="437.6"/>
							<polygon class="st6" points="-16.1,369.9 -23,437.6 -19.4,369.6 							"/>
						</g>
					</g>
					<g>
						<path class="st7" d="M-65.8,375.1l-1.9,78.2l-9.1-77.7c-0.4-3,1.8-5.8,4.9-6.2c3-0.4,5.8,1.8,6.2,4.9
							C-65.8,374.6-65.8,374.9-65.8,375.1z"/>
					</g>
				</g>
			</g>
		</g>
	</g>
</g>
<g id="Texture">
</g>
<g id="Designed_by_Freepik" class="st20">
	<path class="st21" d="M-224.4-52.9"/>
	<path class="st22" d="M-214-52.9"/>
	<text transform="matrix(1 0 0 1 -956.9322 -9.5857)" class="st27 st28 st29">V</text>
	<text transform="matrix(1 0 0 1 -945.8322 -9.5857)" class="st27 st28 st29">ol.</text>
	<text transform="matrix(1 0 0 1 -926.4322 -9.5857)" class="st27 st28 st29"> </text>
	<text transform="matrix(1 0 0 1 -922.0322 -9.5857)" class="st27 st28 st29">Alc. </text>
	<text transform="matrix(1 0 0 1 -885.7322 -9.5857)" class="st27 st28 st29">4</text>
	<text transform="matrix(1 0 0 1 -874.6322 -9.5857)" class="st27 st28 st29">,</text>
	<text transform="matrix(1 0 0 1 -871.0322 -9.5857)" class="st27 st28 st29">9% </text>
	<text transform="matrix(1 0 0 1 -949.1996 -41.8882)" class="st30 st31 st32">W</text>
	<text transform="matrix(1 0 0 1 -924.5996 -41.8882)" class="st30 st31 st32">eisse</text>
	<text transform="matrix(1 0 0 1 -753.6463 333.3304)" class="st27 st28 st29">V</text>
	<text transform="matrix(1 0 0 1 -742.5463 333.3304)" class="st27 st28 st29">ol.</text>
	<text transform="matrix(1 0 0 1 -723.1463 333.3304)" class="st27 st28 st29"> </text>
	<text transform="matrix(1 0 0 1 -718.7463 333.3304)" class="st27 st28 st29">Alc.  5,6%</text>
	<text transform="matrix(1 0 0 1 -581.4198 333.3297)" class="st27 st28 st29">V</text>
	<text transform="matrix(1 0 0 1 -570.3198 333.3297)" class="st27 st28 st29">ol.</text>
	<text transform="matrix(1 0 0 1 -550.9198 333.3297)" class="st27 st28 st29"> </text>
	<text transform="matrix(1 0 0 1 -546.5198 333.3297)" class="st27 st28 st29">Alc. 6</text>
	<text transform="matrix(1 0 0 1 -499.2198 333.3297)" class="st27 st28 st29">,</text>
	<text transform="matrix(1 0 0 1 -495.5198 333.3297)" class="st27 st28 st29">9%</text>
	<text transform="matrix(1 0 0 1 -225.7236 333.3305)" class="st27 st28 st29">V</text>
	<text transform="matrix(1 0 0 1 -214.6238 333.3305)" class="st27 st28 st29">ol.</text>
	<text transform="matrix(1 0 0 1 -195.2236 333.3305)" class="st27 st28 st29"> </text>
	<text transform="matrix(1 0 0 1 -190.8237 333.3305)" class="st27 st28 st29">Alc. </text>
	<text transform="matrix(1 0 0 1 -154.5237 333.3305)" class="st27 st28 st29">9</text>
	<text transform="matrix(1 0 0 1 -144.9237 333.3305)" class="st27 st28 st29">,</text>
	<text transform="matrix(1 0 0 1 -141.6238 333.3305)" class="st27 st28 st29">1%</text>
	<text transform="matrix(1 0 0 1 -411.49 333.3303)" class="st27 st28 st29">V</text>
	<text transform="matrix(1 0 0 1 -400.39 333.3303)" class="st27 st28 st29">ol.</text>
	<text transform="matrix(1 0 0 1 -380.99 333.3303)" class="st27 st28 st29"> </text>
	<text transform="matrix(1 0 0 1 -376.5898 333.3303)" class="st27 st28 st29">Alc. 6</text>
	<text transform="matrix(1 0 0 1 -329.2899 333.3303)" class="st27 st28 st29">,</text>
	<text transform="matrix(1 0 0 1 -325.99 333.3303)" class="st27 st28 st29">1%</text>
	<text transform="matrix(1 0 0 1 -947.6426 333.3303)" class="st27 st28 st29">V</text>
	<text transform="matrix(1 0 0 1 -936.5426 333.3303)" class="st27 st28 st29">ol.</text>
	<text transform="matrix(1 0 0 1 -917.1426 333.3303)" class="st27 st28 st29"> </text>
	<text transform="matrix(1 0 0 1 -912.7426 333.3303)" class="st27 st28 st29">Alc. 5</text>
	<text transform="matrix(1 0 0 1 -865.6426 333.3303)" class="st27 st28 st29">,</text>
	<text transform="matrix(1 0 0 1 -861.3426 333.3303)" class="st27 st28 st29">0%</text>
	<text transform="matrix(1 0 0 1 -956.293 298.3163)" class="st30 st31 st32">Irish </text>
	<text transform="matrix(1 0 0 1 -884.493 298.3163)" class="st30 st31 st32">R</text>
	<text transform="matrix(1 0 0 1 -863.893 298.3163)" class="st30 st31 st32">ed</text>
	<text transform="matrix(1 0 0 1 -288.449 298.3165)" class="st30 st31 st32">Dar</text>
	<text transform="matrix(1 0 0 1 -236.849 298.3165)" class="st30 st31 st32">k</text>
	<text transform="matrix(1 0 0 1 -220.849 298.3165)" class="st30 st31 st32"> St</text>
	<text transform="matrix(1 0 0 1 -180.449 298.3165)" class="st30 st31 st32">r</text>
	<text transform="matrix(1 0 0 1 -168.5491 298.3165)" class="st30 st31 st32">ong</text>
	<text transform="matrix(1 0 0 1 -111.5491 298.3165)" class="st30 st31 st32"> </text>
	<text transform="matrix(1 0 0 1 -104.5491 298.3165)" class="st30 st31 st32">Ale</text>
	<text transform="matrix(1 0 0 1 -787.834 298.3163)" class="st30 st31 st32">Pumpkin</text>
	<text transform="matrix(1 0 0 1 -657.134 298.3163)" class="st30 st31 st32"> </text>
	<text transform="matrix(1 0 0 1 -650.134 298.3163)" class="st30 st31 st32">Ale</text>
	<text transform="matrix(1 0 0 1 -578.4608 298.3157)" class="st30 st31 st32">Dubbel</text>
	<text transform="matrix(1 0 0 1 -399.4011 298.3163)" class="st30 st31 st32">Stout</text>
	<text transform="matrix(1 0 0 1 -784.2906 -9.5857)" class="st27 st28 st29">V</text>
	<text transform="matrix(1 0 0 1 -773.1906 -9.5857)" class="st27 st28 st29">ol.</text>
	<text transform="matrix(1 0 0 1 -753.7906 -9.5857)" class="st27 st28 st29"> </text>
	<text transform="matrix(1 0 0 1 -749.3906 -9.5857)" class="st27 st28 st29">Alc. 5</text>
	<text transform="matrix(1 0 0 1 -702.2906 -9.5857)" class="st27 st28 st29">,</text>
	<text transform="matrix(1 0 0 1 -697.9906 -9.5857)" class="st27 st28 st29">0%</text>
	<text transform="matrix(1 0 0 1 -86.5264 -9.5855)" class="st27 st28 st29">V</text>
	<text transform="matrix(1 0 0 1 -75.4265 -9.5855)" class="st27 st28 st29">ol.</text>
	<text transform="matrix(1 0 0 1 -56.0264 -9.5855)" class="st27 st28 st29"> </text>
	<text transform="matrix(1 0 0 1 -51.6265 -9.5855)" class="st27 st28 st29">Alc. 5,6%</text>
	<text transform="matrix(1 0 0 1 -269.9841 -9.5855)" class="st27 st28 st29">V</text>
	<text transform="matrix(1 0 0 1 -258.8843 -9.5855)" class="st27 st28 st29">ol.</text>
	<text transform="matrix(1 0 0 1 -239.4841 -9.5855)" class="st27 st28 st29"> </text>
	<text transform="matrix(1 0 0 1 -235.0842 -9.5855)" class="st27 st28 st29">Alc. 5</text>
	<text transform="matrix(1 0 0 1 -187.9841 -9.5855)" class="st27 st28 st29">,</text>
	<text transform="matrix(1 0 0 1 -183.6842 -9.5855)" class="st27 st28 st29">0%</text>
	<text transform="matrix(1 0 0 1 -600.7618 -9.5853)" class="st27 st28 st29">V</text>
	<text transform="matrix(1 0 0 1 -589.6618 -9.5853)" class="st27 st28 st29">ol.</text>
	<text transform="matrix(1 0 0 1 -570.2618 -9.5853)" class="st27 st28 st29"> </text>
	<text transform="matrix(1 0 0 1 -565.8618 -9.5853)" class="st27 st28 st29">Alc. 5</text>
	<text transform="matrix(1 0 0 1 -518.7618 -9.5853)" class="st27 st28 st29">,</text>
	<text transform="matrix(1 0 0 1 -514.4618 -9.5853)" class="st27 st28 st29">0%</text>
	<text transform="matrix(1 0 0 1 -409.4583 -41.8879)" class="st30 st31 st32">I</text>
	<text transform="matrix(1 0 0 1 -400.9583 -41.8879)" class="st30 st31 st32">P</text>
	<text transform="matrix(1 0 0 1 -381.7583 -41.8879)" class="st30 st31 st32">A</text>
	<text transform="matrix(1 0 0 1 -360.8583 -41.8879)" class="st30 st31 st32"> </text>
	<text transform="matrix(1 0 0 1 -245.2905 -41.8882)" class="st30 st31 st32">A</text>
	<text transform="matrix(1 0 0 1 -223.4906 -41.8882)" class="st30 st31 st32">P</text>
	<text transform="matrix(1 0 0 1 -204.3906 -41.8882)" class="st30 st31 st32">A</text>
	<text transform="matrix(1 0 0 1 -574.6606 -41.8879)" class="st30 st31 st32">E</text>
	<text transform="matrix(1 0 0 1 -555.7606 -41.8879)" class="st30 st31 st32">P</text>
	<text transform="matrix(1 0 0 1 -536.5606 -41.8879)" class="st30 st31 st32">A</text>
	<text transform="matrix(1 0 0 1 -120.2053 -41.8879)" class="st30 st31 st32">Sc</text>
	<text transform="matrix(1 0 0 1 -82.7053 -41.8879)" class="st30 st31 st32">o</text>
	<text transform="matrix(1 0 0 1 -64.4053 -41.8879)" class="st30 st31 st32">ttish</text>
	<text transform="matrix(1 0 0 1 4.5947 -41.8879)" class="st30 st31 st32"> </text>
	<text transform="matrix(1 0 0 1 11.4946 -41.8879)" class="st30 st31 st32">Ale</text>
	<text transform="matrix(1 0 0 1 -807.3567 -41.8883)" class="st30 st31 st32">Blonde</text>
	<text transform="matrix(1 0 0 1 -703.4567 -41.8883)" class="st30 st31 st32"> </text>
	<text transform="matrix(1 0 0 1 -696.4567 -41.8883)" class="st30 st31 st32">Ale</text>
	<text transform="matrix(1 0 0 1 -437.2712 -9.5854)" class="st27 st28 st29">V</text>
	<text transform="matrix(1 0 0 1 -426.1711 -9.5854)" class="st27 st28 st29">ol.</text>
	<text transform="matrix(1 0 0 1 -406.7712 -9.5854)" class="st27 st28 st29"> </text>
	<text transform="matrix(1 0 0 1 -402.3712 -9.5854)" class="st27 st28 st29">Alc. 5</text>
	<text transform="matrix(1 0 0 1 -355.2712 -9.5854)" class="st27 st28 st29">,</text>
	<text transform="matrix(1 0 0 1 -350.9712 -9.5854)" class="st27 st28 st29">0%</text>
</g>
</svg>
