<?xml version="1.0" encoding="utf-8"?>
<!-- Generator: Adobe Illustrator 19.0.0, SVG Export Plug-In . SVG Version: 6.00 Build 0)  -->
<!DOCTYPE svg PUBLIC "-//W3C//DTD SVG 1.1//EN" "http://www.w3.org/Graphics/SVG/1.1/DTD/svg11.dtd">
<svg version="1.1" xmlns="http://www.w3.org/2000/svg" xmlns:xlink="http://www.w3.org/1999/xlink" x="0px" y="0px"
	 viewBox="0 0 1022.2 716" style="enable-background:new 0 0 1022.2 716;" xml:space="preserve">
<style type="text/css">
	.st0{fill:none;stroke:#5A4941;stroke-width:3.3163;stroke-miterlimit:10;}
	.st1{fill:none;stroke:#F7ECDA;stroke-width:11.0544;stroke-linecap:round;stroke-miterlimit:10;}
	.st2{fill:#F1E0C2;stroke:#5A4941;stroke-width:3.3163;stroke-linecap:round;stroke-linejoin:round;stroke-miterlimit:10;}
	.st3{fill:#F1E0C2;stroke:#5A4941;stroke-width:3.3163;stroke-miterlimit:10;}
	.st4{fill:#F1E0C2;stroke:#5A4941;stroke-width:3.3163;stroke-linecap:round;stroke-miterlimit:10;}
	.st5{fill:none;stroke:#5A4941;stroke-width:3.3163;stroke-linecap:round;stroke-miterlimit:10;}
	.st6{fill:#E0A328;}
	.st7{fill:#F1E0C2;}
	.st8{fill:#5A4941;}
	.st9{fill:#F7ECDA;}
	.st10{fill:none;stroke:#5A4941;stroke-width:3.3163;stroke-linecap:round;stroke-linejoin:round;stroke-miterlimit:10;}
	.st11{fill:#C17529;}
	.st12{fill:#C17529;stroke:#5A4941;stroke-width:3.3163;stroke-miterlimit:10;}
	.st13{fill:#E18726;}
	.st14{fill:#E18726;stroke:#5A4941;stroke-width:3.3163;stroke-miterlimit:10;}
	.st15{fill:#5A4941;stroke:#5A4941;stroke-width:1.1054;stroke-miterlimit:10;}
	.st16{fill:#7C6157;}
	.st17{fill:#E0A328;stroke:#5A4941;stroke-width:3.3163;stroke-miterlimit:10;}
	.st18{fill:#AAAAAA;}
	.st19{font-family:'Rubik-Light';}
	.st20{font-size:19px;}
	.st21{fill:#FFFFFF;}
	.st22{font-family:'Rubik-Regular';}
	.st23{font-size:32px;}
	.st24{letter-spacing:-1;}
</style>
<g id="Objects">
	<path class="st0" d="M735.4,307.1"/>
	<path class="st1" d="M745.9,307.1"/>
	<path class="st2" d="M935,305.1"/>
	<path class="st2" d="M945.1,305.1"/>
	<path class="st2" d="M673.3,829"/>
	<path class="st2" d="M683.4,829"/>
	<g>
		<g>
			<g>
				<g>
					<path class="st3" d="M549.9,254.3l-11.2-129.7c-0.2-1.8,1.3-3.3,3.1-3.2c41.9,1.6,69,0.6,78,0.1c1.8-0.1,3.2,1.4,3,3.2
						l-11.2,129.6c-0.2,2.2-1.7,4-3.8,4.5c-8.6,2.2-31.4,6.7-54.2,0.1C551.6,258.2,550.1,256.4,549.9,254.3z"/>
					<g>
						<g>
							<path class="st4" d="M587.2,118.4c8.5,12.7,23.2,10.7,30.6,7.7c7.4-2.9,15.5-20.6-0.7-30.2c-16.2-9.6-34.8,1.5-34.8,1.5
								c-20.6-9.2-28,6.6-28,6.6c-21.4-1.1-14.1,17.8-14.1,17.8l45.6,0.4"/>
							<g>
								<path class="st5" d="M603.1,98.5c0,0,18.8,0.4,16.4,14.9c0,0-0.9,5.3-6.4,6.6"/>
								<path class="st5" d="M552.5,111.3c0,0-2.5-0.9-5.3,2.2c-2.8,3.1-0.5,6.6-0.5,6.6"/>
							</g>
						</g>
						<g>
							<path class="st6" d="M546.9,155.3l7.9,91.3c0.4,4.3,3.6,7.9,7.9,8.6c5.3,1,10.8,1.5,16.6,1.5c7.5,0,14.2-0.8,19.4-1.7
								c4.3-0.8,7.6-4.3,8-8.7l7.9-91.1C583.2,158,558.7,156.5,546.9,155.3z"/>
							<g>
								<path class="st0" d="M541.4,155.1c0,0,40.9,3.8,78.9,0"/>
								<g>
									<g>
										<g>
											<line class="st7" x1="614.7" y1="126.9" x2="606.6" y2="220"/>
											<polygon class="st8" points="616.3,127.1 606.6,220 613,126.8 											"/>
										</g>
										<g>
											<line class="st7" x1="608.4" y1="128.3" x2="603.1" y2="196.1"/>
											<polygon class="st8" points="610.1,128.4 603.1,196.1 606.7,128.2 											"/>
										</g>
									</g>
									<g>
										<path class="st9" d="M560.3,133.7l-1.9,78.2l-9.1-77.7c-0.4-3,1.8-5.8,4.9-6.2c3-0.4,5.8,1.8,6.2,4.9
											C560.3,133.2,560.3,133.4,560.3,133.7z"/>
									</g>
								</g>
							</g>
						</g>
					</g>
				</g>
				<g>
					<g>
						<g>
							<g>
								<path class="st2" d="M897.6,258.5c-1.1,0-1.9-0.9-1.9-1.9l0,0c0-1.1,0.8-2.1,1.9-2.3c33.2-5.9,30.8-34.3,30.8-34.3V194
									c4.6,0,13.4,0,13.4,0v25.9c0,0-2.4,28.4,30.8,34.3c1.1,0.2,1.9,1.2,1.9,2.3l0,0c0,1.1-0.9,1.9-1.9,1.9
									C972.6,258.5,933.8,262.4,897.6,258.5z"/>
								<g>
									<path class="st7" d="M901.3,253.5c0,0,25.7,2.4,53.9,1"/>
									<path class="st8" d="M901.4,251.8c0,0,3.3,0.4,8.3,0.9c5,0.5,11.7,1,18.5,1.3c3.4,0.2,6.7,0.3,9.9,0.4
										c3.2,0.1,6.1,0.1,8.6,0.1c2.5,0,4.6,0,6.1,0c1.5,0,2.3,0,2.3,0s-0.8,0.1-2.3,0.2c-1.5,0.1-3.6,0.3-6.1,0.4
										c-2.5,0.2-5.5,0.3-8.6,0.4c-3.2,0.1-6.5,0.2-9.9,0.2c-6.8,0.1-13.5,0-18.6-0.2c-5.1-0.2-8.5-0.4-8.5-0.4
										c-0.9-0.1-1.6-0.8-1.6-1.8c0.1-0.9,0.8-1.6,1.8-1.6C901.4,251.8,901.4,251.8,901.4,251.8z"/>
								</g>
							</g>
							<g>
								<path class="st7" d="M936.9,195.2v24.4c-0.4,5.6,0.8,14,5.8,21.7"/>
								<path class="st8" d="M938.6,195.2l-0.9,24.4l0,0.1l0,0c-0.4,3.7-0.1,7.5,0.8,11.1c0.2,0.9,0.5,1.8,0.7,2.7
									c0.1,0.5,0.3,0.9,0.5,1.3c0.1,0.4,0.3,0.9,0.5,1.3c0.2,0.4,0.4,0.9,0.6,1.3c0.2,0.4,0.4,0.9,0.6,1.3
									c0.4,0.9,0.9,1.7,1.4,2.5c-0.5-0.8-1.1-1.6-1.5-2.4c-0.3-0.4-0.5-0.8-0.7-1.2c-0.2-0.4-0.4-0.8-0.7-1.3
									c-0.2-0.4-0.4-0.9-0.6-1.3c-0.2-0.4-0.4-0.9-0.6-1.3c-0.4-0.9-0.7-1.8-1-2.7c-1.1-3.7-1.7-7.5-1.6-11.4l0,0.1l-0.9-24.4
									c0-0.9,0.7-1.7,1.6-1.7c0.9,0,1.7,0.7,1.7,1.6C938.6,195.1,938.6,195.2,938.6,195.2z"/>
							</g>
						</g>
						<g>
							<path class="st2" d="M898.1,66c-1.2-17.9,17-16.4,17-16.4s3.3-10.6,17-10.3c13.7,0.3,17.3,11.6,17.3,11.6
								c24-0.9,21.9,15.2,21.9,15.2H898.1z"/>
							<g>
								<path class="st10" d="M905,59.9c0.3-0.6,0.6-1.1,1-1.6c2.4-2.5,6.8-2.7,8.1-2.7c0.3,0,0.5,0,0.6,0c0.2,0,0.3,0,0.5,0
									c2.7,0,5.1-1.6,5.8-4.3c2.1-5.8,9.2-6.1,10.7-6.1l0.4,0c4.3,0.1,7.1,1.7,8.9,3.4"/>
								<path class="st10" d="M951.4,56.8c5.4,0,9.5,1.1,11.7,3.1"/>
							</g>
						</g>
						<path class="st2" d="M894.6,66c0,0,3.2,18.7-7.3,56.8c-10.5,38.1,1.2,64.6,34.5,70c16.6,2.7,26.7,0,26.7,0
							c33.2-5.4,45-31.9,34.5-70c-10.5-38.1-7.3-56.8-7.3-56.8H894.6z"/>
					</g>
					<g>
						<path class="st11" d="M977,124.4c-2.5-8.9-4.2-16.8-5.4-23.7c-32.3,1.8-61,0.7-73.1,0c-1.2,6.9-2.9,14.7-5.4,23.6
							c-5.4,19.6-4.6,35.7,2.4,46.6c5.4,8.5,14.6,13.8,27.2,15.8c4.6,0.8,9.1,1.1,13.3,1.1c0,0,0,0,0,0c6.8,0,10.8-1,10.8-1
							c0.2-0.1,0.4-0.1,0.6-0.1c12.6-2,21.7-7.4,27.2-15.8C981.6,160,982.4,143.9,977,124.4z"/>
						<g>
							<path class="st10" d="M892.4,100.3c0,0,39.9,3,85.3,0"/>
							<g>
								<g>
									<path class="st9" d="M915.6,81.2c0,0-0.2,1.5-0.5,4.2c-0.3,2.7-0.8,6.5-1.7,11.1c-0.9,4.6-2.1,9.9-3.8,15.4
										c-0.9,2.8-1.9,5.6-3.1,8.5c-0.3,0.7-0.6,1.4-0.9,2.1c-0.3,0.7-0.6,1.4-0.9,2c-0.3,0.7-0.6,1.4-0.9,2l-0.8,2
										c-2.1,5.4-3.3,11.1-3.7,16.5c-0.4,5.4,0.1,10.6,1.2,14.9c1.1,4.3,2.7,7.7,4.3,9.7c0.8,1,1.5,1.7,2.1,2.1
										c0.3,0.2,0.5,0.3,0.7,0.4c0.2,0.1,0.2,0.1,0.2,0.1s-0.1,0-0.3-0.1c-0.2-0.1-0.4-0.2-0.7-0.4c-0.6-0.3-1.5-1-2.4-1.9
										c-1.9-1.9-4-5.2-5.6-9.5c-1.6-4.3-2.8-9.6-3.1-15.4c-0.3-5.8,0.4-12.1,1.9-18.1l0.6-2.3c0.2-0.8,0.4-1.4,0.7-2.2
										c0.2-0.7,0.5-1.4,0.7-2.1c0.2-0.7,0.4-1.4,0.6-2.1c0.8-2.7,1.4-5.5,1.9-8.1c1-5.3,1.6-10.4,1.9-14.8
										c0.3-4.4,0.4-8,0.4-10.5c0-2.6,0-4,0-4l0-0.1c0-3.1,2.4-5.6,5.5-5.6c3.1,0,5.6,2.4,5.6,5.5
										C915.6,80.7,915.6,80.9,915.6,81.2z"/>
								</g>
								<g>
									<g>
										<path class="st8" d="M968.3,66.1c0,0,0,0.4-0.1,1.1c0,0.8-0.1,1.9-0.1,3.3c0,1.4-0.1,3.2,0,5.2c0,2,0.1,4.2,0.2,6.7
											c0.1,1.2,0.2,2.5,0.3,3.8c0.1,1.3,0.2,2.7,0.4,4.1c0.1,1.4,0.3,2.8,0.5,4.3c0.2,1.5,0.4,3,0.6,4.5
											c0.2,1.5,0.5,3.1,0.7,4.6c0.3,1.6,0.5,3.2,0.9,4.7c0.6,3.2,1.3,6.4,2.1,9.6c0.8,3.2,1.5,6.4,2.2,9.6
											c0.3,1.6,0.7,3.2,1,4.8c0.3,1.6,0.6,3.1,0.8,4.7c0.5,3.1,0.9,6.1,1,8.9c0.1,2.9,0.1,5.6-0.3,8.1c-0.3,2.5-0.9,4.7-1.6,6.6
											c-0.2,0.5-0.3,0.9-0.5,1.4c-0.2,0.4-0.4,0.9-0.5,1.3c-0.3,0.8-0.7,1.5-1,2.2c-0.6,1.3-1.2,2.3-1.5,3c-0.4,0.7-0.6,1-0.6,1
											s0.2-0.4,0.5-1.1c0.3-0.7,0.9-1.7,1.4-3c0.3-0.7,0.6-1.4,0.9-2.2c0.2-0.4,0.3-0.8,0.5-1.3c0.1-0.4,0.3-0.9,0.4-1.4
											c0.6-1.9,1.1-4.1,1.4-6.6c0.3-2.4,0.2-5.1,0-7.9c-0.2-2.8-0.7-5.8-1.3-8.8c-0.3-1.5-0.6-3-1-4.6c-0.4-1.5-0.7-3.1-1.1-4.7
											c-0.8-3.1-1.6-6.3-2.5-9.5c-0.8-3.2-1.7-6.4-2.4-9.6c-0.4-1.6-0.7-3.2-1-4.8c-0.3-1.6-0.6-3.1-0.9-4.7
											c-0.3-1.5-0.5-3-0.8-4.5c-0.2-1.5-0.5-2.9-0.6-4.4c-0.2-1.4-0.4-2.8-0.5-4.1c-0.1-1.3-0.3-2.6-0.4-3.9
											c-0.2-2.5-0.4-4.8-0.5-6.8c-0.1-2-0.1-3.8-0.2-5.3c0-1.5,0-2.6,0-3.4c0-0.8,0-1.2,0-1.2L968.3,66.1z"/>
									</g>
									<g>
										<path class="st8" d="M961.5,66.2c0,0,0,0.3-0.1,0.7c0,0.5-0.1,1.2-0.1,2.1c-0.1,1.8-0.1,4.4,0,7.6
											c0.2,6.3,0.8,14.6,2.1,22.9c0.3,2.1,0.7,4.1,1,6.2c0.4,2,0.8,4,1.2,6c0.9,3.9,1.7,7.4,2.4,10.5c1.4,6.2,2.4,10.3,2.4,10.3
											s-1.1-4.1-2.9-10.2c-0.9-3-1.9-6.6-2.9-10.4c-0.5-1.9-1-3.9-1.5-5.9c-0.5-2-1-4.1-1.3-6.2c-1.7-8.3-2.8-16.7-3.3-23.1
											c-0.2-3.2-0.3-5.8-0.4-7.7c0-0.9,0-1.7,0-2.2c0-0.5,0-0.8,0-0.8L961.5,66.2z"/>
									</g>
								</g>
							</g>
							<g>
								<circle class="st12" cx="925.7" cy="112.3" r="3.1"/>
								<circle class="st12" cx="928.7" cy="124.3" r="1.3"/>
								<circle class="st8" cx="923" cy="138.4" r="1.5"/>
							</g>
						</g>
					</g>
				</g>
				<g>
					<g>
						<path class="st2" d="M693.3,100c0,0,2.6,47.1-9.7,141.9c-0.8,5.9,2.8,11.6,8.6,13.2c44.7,13.2,87.8,4.9,106.9-0.1
							c5.9-1.6,9.8-7.3,9-13.4C795.8,147,798.3,100,798.3,100H693.3z"/>
						<g>
							<path class="st2" d="M804.4,211.3c44-16.6,37.4-64.2,34.8-81.8s-21.3-18.5-21.3-18.5h-19.8l0.4,21.4h12.6
								c0,0,11.8,0.4,11.3,20c-0.6,19.6-8.3,25.8-20.5,33.2L804.4,211.3z"/>
							<g>
								<g>
									<path class="st7" d="M803.9,206.3c0,0,16.6-7.7,24.9-20.7"/>
									<path class="st8" d="M803.2,204.8c0,0,0.1,0,0.3-0.1c0.2-0.1,0.5-0.2,0.9-0.4c0.8-0.4,1.9-0.9,3.3-1.6
										c1.3-0.7,2.9-1.5,4.5-2.5c0.8-0.5,1.6-1,2.5-1.6c0.8-0.6,1.7-1.1,2.5-1.7c0.8-0.6,1.6-1.2,2.4-1.8c0.8-0.6,1.6-1.2,2.2-1.9
										c0.7-0.6,1.4-1.2,2-1.9c0.6-0.6,1.2-1.2,1.7-1.8c0.5-0.6,1-1.1,1.4-1.6c0.4-0.5,0.7-0.9,1-1.3c0.5-0.7,0.9-1.1,0.9-1.1
										s-0.3,0.4-0.7,1.2c-0.2,0.4-0.5,0.9-0.9,1.4c-0.4,0.5-0.8,1.1-1.2,1.7c-0.4,0.6-1,1.3-1.6,2c-0.5,0.7-1.2,1.4-1.8,2.1
										c-0.6,0.7-1.4,1.4-2.1,2.1c-0.7,0.7-1.5,1.4-2.3,2.1c-0.8,0.7-1.6,1.3-2.4,2c-0.8,0.6-1.6,1.3-2.4,1.8
										c-1.6,1.2-3.1,2.2-4.4,3.1c-1.3,0.9-2.4,1.5-3.2,2c-0.4,0.2-0.7,0.4-0.9,0.5c-0.2,0.1-0.3,0.2-0.3,0.2
										c-0.8,0.4-1.8,0.1-2.3-0.7c-0.4-0.8-0.1-1.8,0.7-2.3C803.1,204.8,803.1,204.8,803.2,204.8L803.2,204.8z"/>
								</g>
								<g>
									<path class="st7" d="M807.7,120.4h9.8c2.1,0.2,10.9,1.5,12.3,10.5c0.5,3.4,1.3,8.4,1.7,14.4"/>
									<g>
										<path class="st8" d="M807.7,118.7l9.8,0.4l0.1,0l0,0c0.7,0.1,1.4,0.2,2.1,0.4c0.7,0.2,1.4,0.4,2,0.6
											c0.7,0.2,1.3,0.5,1.9,0.9c0.6,0.3,1.2,0.7,1.8,1.1l0.8,0.7c0.3,0.2,0.5,0.5,0.8,0.8c0.3,0.2,0.5,0.5,0.7,0.8
											c0.2,0.3,0.5,0.6,0.6,0.9l0.6,0.9l0.4,1c0.2,0.3,0.3,0.7,0.4,1c0.1,0.3,0.2,0.7,0.3,1c0.1,0.7,0.3,1.4,0.3,2l0.2,2
											c0.1,1.3,0.3,2.7,0.4,4c0.2,2.7,0.4,5.3,0.4,8c-0.3-2.7-0.6-5.3-1.1-7.9c-0.2-1.3-0.4-2.6-0.7-3.9l-0.4-2
											c-0.1-0.7-0.3-1.3-0.5-1.9c-0.1-0.3-0.2-0.6-0.3-0.9c-0.1-0.3-0.2-0.6-0.4-0.9l-0.4-0.8l-0.5-0.8
											c-0.2-0.3-0.4-0.5-0.6-0.7c-0.2-0.2-0.4-0.5-0.7-0.6c-0.2-0.2-0.5-0.4-0.7-0.6l-0.8-0.5c-0.5-0.3-1.1-0.6-1.6-0.9
											c-0.6-0.3-1.1-0.5-1.7-0.6c-0.6-0.2-1.2-0.3-1.8-0.4c-0.6-0.1-1.2-0.2-1.8-0.2l0.1,0l-9.8,0.4c-0.9,0-1.7-0.7-1.7-1.6
											c0-0.9,0.7-1.7,1.6-1.7C807.7,118.7,807.7,118.7,807.7,118.7z"/>
									</g>
								</g>
								<g>
									<path class="st8" d="M802.9,114l14.8,0.3l0.1,0l0,0c1.7,0.2,3.2,0.5,4.7,1c1.5,0.5,3,1.1,4.4,2c1.4,0.8,2.7,1.8,3.8,3
										c1.1,1.2,2.1,2.5,2.8,4l0.5,1.1c0.1,0.4,0.3,0.8,0.4,1.1l0.4,1.1l0.2,1.2l0.2,1.2l0.1,1.1l0.3,2.3c0.4,3,0.6,6.1,0.8,9.1
										c0.4,6.1,0.4,12.2-0.3,18.3c-0.2,1.5-0.4,3-0.6,4.5c-0.2,1.5-0.6,3-0.9,4.5c-0.4,1.5-0.7,3-1.2,4.4c-0.4,1.5-1,2.9-1.5,4.3
										c0.5-1.4,1-2.9,1.3-4.4c0.4-1.5,0.7-3,1-4.4c0.3-1.5,0.5-3,0.7-4.5c0.2-1.5,0.3-3,0.4-4.5c0.4-6,0.2-12.1-0.4-18.1
										c-0.3-3-0.7-6-1.2-9l-0.4-2.2l-0.2-1.1l-0.3-1.1l-0.2-1.1l-0.4-1c-0.1-0.3-0.2-0.7-0.4-1l-0.5-0.9
										c-0.7-1.3-1.6-2.3-2.6-3.4c-1.1-0.9-2.2-1.8-3.5-2.5c-1.3-0.7-2.6-1.2-4-1.6c-1.4-0.4-2.8-0.7-4.2-0.8l0.1,0l-14.8,0.3
										c-0.9,0-1.7-0.7-1.7-1.6C801.2,114.8,801.9,114,802.9,114C802.9,114,802.9,114,802.9,114z"/>
								</g>
							</g>
						</g>
					</g>
					<g>
						<g>
							<path class="st13" d="M700.1,137.4c-1,23.8-3.4,58.8-9.5,105.4c-0.3,2.5,1.2,4.8,3.5,5.5c15.3,4.5,31.9,6.8,49.3,6.8
								c0,0,0,0,0,0c22.6,0,41.7-3.8,53.8-7c2.5-0.7,4.1-3.1,3.7-5.6c-6.1-47-8.6-82.2-9.5-105.9
								C791.5,136.6,730.6,142.1,700.1,137.4z"/>
							<g>
								<path class="st0" d="M693,136.6c0,0,35,6.3,105.1,0"/>
								<g>
									<g>
										<circle class="st14" cx="734.2" cy="151.9" r="4"/>
										<circle class="st14" cx="729.9" cy="165.3" r="3"/>
										<circle class="st14" cx="737.1" cy="188.5" r="1.3"/>
									</g>
									<g>
										<g>
											<path class="st9" d="M717.3,114.6c0,0-0.2,2-0.5,5.5c-0.2,1.7-0.4,3.9-0.6,6.3c-0.3,2.4-0.6,5.2-0.9,8.2
												c-0.6,6-1.4,13-2.4,20.5c-0.5,3.7-1,7.6-1.5,11.5c-0.5,3.9-1.1,7.9-1.6,11.9c-0.6,4-1.1,8-1.8,11.9
												c-0.6,3.9-1.2,7.8-1.8,11.5c-0.6,3.7-1.2,7.3-1.8,10.7c-0.6,3.4-1.2,6.6-1.7,9.6c-1.1,5.9-2.1,10.8-2.9,14.3
												c-0.7,3.4-1.2,5.4-1.2,5.4s0.3-2,0.7-5.5c0.4-3.5,1-8.5,1.6-14.4c0.3-3,0.6-6.2,0.9-9.7c0.3-3.4,0.6-7,0.9-10.8
												c0.3-3.7,0.6-7.6,0.8-11.5c0.3-3.9,0.5-7.9,0.7-11.9c0.2-4,0.4-8,0.6-11.9c0.2-3.9,0.3-7.8,0.5-11.6
												c0.3-7.5,0.5-14.5,0.6-20.5c0.1-3,0.1-5.7,0.2-8.2c0-2.4,0.1-4.6,0.1-6.3c0-3.5,0.1-5.5,0.1-5.5c0-3.1,2.5-5.5,5.6-5.5
												c3.1,0,5.5,2.5,5.5,5.6C717.3,114.3,717.3,114.5,717.3,114.6z"/>
										</g>
										<g>
											<g>
												<path class="st8" d="M789,139.6c0,0,0,1.2,0.1,3.4c0,2.1,0.1,5.2,0.3,8.9c0.3,7.4,0.8,17.3,1.6,27.1
													c0.7,9.9,1.7,19.7,2.4,27.1c0.4,3.7,0.7,6.8,0.9,8.9c0.2,2.1,0.4,3.4,0.4,3.4s-0.2-1.2-0.5-3.4
													c-0.3-2.1-0.8-5.2-1.3-8.9c-1.1-7.3-2.4-17.1-3.6-27c-1.2-9.8-2.1-19.7-2.7-27.1c-0.3-3.7-0.5-6.8-0.7-9
													c-0.1-2.2-0.2-3.4-0.2-3.4L789,139.6z"/>
											</g>
											<g>
												<path class="st8" d="M781.1,139.6c0,0,0,3.1,0.2,7.9c0.1,4.7,0.4,11,0.8,17.3c0.7,12.6,1.9,25.1,1.9,25.1
													s-2-12.4-3.5-25c-0.8-6.3-1.5-12.5-1.9-17.2c-0.5-4.7-0.7-7.9-0.7-7.9L781.1,139.6z"/>
											</g>
										</g>
									</g>
								</g>
							</g>
						</g>
						<g>
							<path class="st2" d="M726.7,55.9c0,0-36.4-3.8-36.4,35.2c0,39.1,56.5,32,67.8,17c0,0-5,33.3,24.3,33.3s16.6-45.6,16.6-45.6
								s9.8-15.7-5.6-21.6c0,0,4.4-21.8-20.7-18.5C772.6,55.8,752.7,32.2,726.7,55.9z"/>
							<g>
								<path class="st2" d="M792.1,131.4c-1.3,1.8-3.8,4.1-9.7,4.1c-6.2,0-10.7-1.7-13.8-5.3"/>
								<path class="st2" d="M777.5,61.3c4,0,6.8,0.9,8.3,2.8c2.3,2.8,1.9,7.7,1.7,8.9c-0.6,2.8,1,5.7,3.7,6.7
									c3.8,1.5,4.4,3.3,4.6,3.9c1.1,3.1-1.1,7.8-1.9,9.1"/>
								<path class="st2" d="M750.2,51.2c10.5,0,17.8,8.3,17.8,8.3"/>
								<path class="st2" d="M696.2,91.1c0-25.6,17.5-29.4,27.9-29.4"/>
							</g>
						</g>
					</g>
				</g>
				<g>
					<g>
						<g>
							<path class="st7" d="M419.9,238.1c-18.3,0-30.9-2.6-35.5-3.7l-1.4-0.3l0.1-1.4c1.4-15.5,1.6-39.9-5.3-67.9
								c-6.7-27.1-8.9-58.2-9.7-79.5l-0.1-1.6l1.6-0.1c7.1-0.6,26.3-2.1,51.9-2.1c17.8,0,35.3,0.7,52,2.1l1.6,0.1l-0.1,1.6
								c-0.7,21.3-3,52.3-9.7,79.4c-6.9,28-6.7,52.3-5.3,67.8l0.1,1.5l-1.5,0.3C445.8,236.9,432.7,238.1,419.9,238.1
								C419.9,238.1,419.9,238.1,419.9,238.1z"/>
							<path class="st8" d="M421.6,83.2c15.4,0,33.2,0.5,51.9,2.1c-0.8,23.3-3.2,53-9.6,79.1c-6.8,27.6-6.8,51.7-5.3,68.4
								c-14.6,2.8-27.7,3.8-38.7,3.8c-18.1,0-30.7-2.6-35.1-3.6c1.5-16.6,1.5-40.8-5.3-68.5c-6.4-26.1-8.8-55.8-9.6-79.1
								C376.7,84.6,395.9,83.2,421.6,83.2 M421.6,79.8c-25.7,0-44.9,1.5-52,2.1l-3.1,0.3l0.1,3.1c0.7,21.4,3,52.6,9.7,79.8
								c6.9,27.8,6.6,52,5.3,67.4l-0.3,2.8l2.8,0.7c4.6,1.1,17.4,3.7,35.8,3.7c12.9,0,26.1-1.3,39.3-3.8l2.9-0.6l-0.3-3
								c-1.4-15.4-1.6-39.5,5.3-67.3c6.7-27.2,9-58.4,9.7-79.8l0.1-3.2l-3.1-0.3C457,80.5,439.5,79.8,421.6,79.8L421.6,79.8z"/>
						</g>
						<g>
							<path class="st7" d="M421.6,263.9c-15.3,0-27.6-2.2-35.2-4.1c-4.1-1-6.6-5-5.8-9.1c0.8-3.8,1.8-10,2.6-17.9l0.2-1.9l1.9,0.5
								c4.5,1.1,16.8,3.6,34.7,3.6c12.6,0,25.5-1.3,38.3-3.7l1.8-0.3l0.2,1.8c0.7,8,1.8,14.2,2.5,18c0.8,4.1-1.7,8.1-5.8,9.1
								C445.5,262.5,433.7,263.9,421.6,263.9z"/>
							<path class="st8" d="M458.5,232.7c0.7,7.9,1.7,14.1,2.6,18.1c0.7,3.3-1.4,6.4-4.6,7.2c-12.6,3.1-24.4,4.1-34.9,4.1
								c-15.6,0-28-2.4-34.8-4.1c-3.2-0.8-5.2-4-4.6-7.2c0.8-4.1,1.9-10.2,2.6-18.1c4.4,1.1,16.9,3.6,35.1,3.6
								C430.9,236.5,444,235.5,458.5,232.7 M381.9,228.7l-0.3,3.8c-0.7,7.9-1.8,14-2.5,17.7c-1,5,2.1,9.8,7,11.1
								c7.7,1.9,20.1,4.2,35.6,4.2c12.2,0,24.1-1.4,35.6-4.2c5-1.2,8.1-6.1,7.1-11.1c-0.8-3.7-1.8-9.9-2.5-17.8l-0.3-3.7l-3.6,0.7
								c-12.7,2.5-25.5,3.7-38,3.7c-17.7,0-29.9-2.5-34.3-3.5L381.9,228.7L381.9,228.7z"/>
						</g>
						<g>
							<path class="st7" d="M473.4,86.9c-16.6-1.4-34-2.1-51.8-2.1c-25.5,0-44.6,1.5-51.6,2.1l-1.7,0.2l-0.1-1.8
								c-0.5-15.7-0.3-28.6-0.2-34.8c0.1-4,3.2-7.3,7.3-7.6c16.2-1.1,32.6-1.7,48.6-1.7c21.2,0,36.8,1,44.2,1.6
								c4,0.3,7.1,3.6,7.2,7.6c0.2,6.3,0.4,19.1-0.2,34.9l-0.1,1.7L473.4,86.9z"/>
							<path class="st8" d="M423.9,42.8c21,0,36.4,1,44.1,1.6c3.1,0.3,5.6,2.8,5.6,6c0.2,6.8,0.4,19.4-0.2,34.8
								c-18.8-1.6-36.5-2.1-51.9-2.1c-25.7,0-44.9,1.5-51.7,2.1c-0.5-15.3-0.3-27.9-0.2-34.7c0.1-3.2,2.6-5.8,5.7-6
								C393.6,43.3,410,42.8,423.9,42.8 M423.9,39.5v3.3V39.5c-16.1,0-32.4,0.6-48.7,1.7c-4.9,0.3-8.7,4.3-8.8,9.2
								c-0.2,6.3-0.4,19.1,0.2,34.9l0.1,3.5l3.5-0.3c7-0.6,26-2.1,51.4-2.1c17.7,0,35.1,0.7,51.6,2.1l3.5,0.3l0.1-3.5
								c0.5-15.8,0.3-28.8,0.2-35c-0.1-4.8-3.9-8.8-8.7-9.2C460.9,40.5,445.2,39.5,423.9,39.5L423.9,39.5z"/>
						</g>
					</g>
					<g>
						<g>
							<path class="st3" d="M373.5,44.5c-6.8,1.7-13.4,0.6-16-4.4c-4.7-9.1,4.7-17.7,4.7-17.7c19.9-17.7,55.8,0.8,55.8,0.8
								c19.6-11.6,32.1,1.7,32.1,1.7s22-1.2,20.7,18.3c0,0-34.1-4.2-92.5-0.3C378.3,42.8,375.6,42.5,373.5,44.5z"/>
							<g>
								<path class="st4" d="M367.4,45.2c0,0,16-1.8,26.3-13.4"/>
								<g>
									<path class="st4" d="M376.6,21.3c0,0-14.2,4.9-14.1,14.9"/>
									<path class="st4" d="M465.4,42.6c0,0,0.6-8.1-7.7-10.8"/>
								</g>
							</g>
						</g>
						<g>
							<g>
								<path class="st15" d="M421.6,257.8c-12.7,0-23.3-1.7-30-3.1c-3-0.6-4.9-3.5-4.4-6.4c0.3-1.8,0.6-3.8,1-6.1
									c0.3-2.1,2.3-3.6,4.4-3.3c6.5,1,15.8,2,27.3,2c10.2,0,20.5-0.8,30.9-2.4c2.1-0.3,4.1,1.2,4.4,3.3c0.6,4.1,1.2,7.5,1.7,9.9
									c0.2,0.9-0.4,1.8-1.3,2C444.6,256.4,433.2,257.8,421.6,257.8z"/>
								<path class="st8" d="M469.1,85c-44.2-3.5-82.2-1-94.8,0c0.8,22.5,3.1,51.3,9.5,76.4c6,23.6,6.8,44.7,6,60.1
									c-0.1,2.6,1.8,4.8,4.4,5.2c6.1,0.9,14.9,1.8,25.7,1.8c0,0,0,0,0,0c9.6,0,19.4-0.7,29.2-2.2c2.6-0.4,4.6-2.6,4.4-5.2
									c-0.7-15.3,0.1-36.3,6-59.8C465.9,136.3,468.3,107.5,469.1,85z"/>
							</g>
							<g>
								<g>
									<path class="st9" d="M389.6,54.3c0,0-0.1,0.5-0.2,1.3c-0.1,0.8-0.3,2.2-0.5,3.7c-0.2,1.6-0.4,3.5-0.6,5.7
										c-0.2,2.2-0.4,4.7-0.6,7.5c-0.2,2.7-0.4,5.7-0.5,8.9c-0.1,3.2-0.2,6.5-0.3,10c-0.1,3.5-0.1,7,0,10.7
										c0,3.6,0.1,7.3,0.2,11.1c0.5,14.8,1.6,29.7,2.8,40.8c0.1,1.4,0.3,2.7,0.4,3.9c0.2,1.3,0.4,2.4,0.6,3.6
										c0.4,2.2,0.7,4.2,1,5.8c0.6,3.2,0.9,5.1,0.9,5.1s-0.5-1.8-1.4-4.9c-0.4-1.6-1-3.5-1.6-5.7c-0.3-1.1-0.6-2.3-1-3.5
										c-0.3-1.3-0.6-2.6-0.9-4c-2.3-11-5-25.7-7-40.6c-0.5-3.7-1-7.4-1.4-11.1c-0.4-3.7-0.8-7.3-1.1-10.8
										c-0.3-3.5-0.5-6.9-0.7-10.2c-0.2-3.2-0.3-6.3-0.4-9.2c-0.1-2.8-0.1-5.5-0.1-7.8c0-2.3,0-4.4,0-6.1c0-1.7,0.1-2.9,0.1-3.8
										c0-0.9,0-1.3,0-1.3c0.1-3.4,2.9-6,6.3-5.9c3.4,0.1,6,2.9,5.9,6.3C389.6,53.9,389.6,54.1,389.6,54.3z"/>
								</g>
								<g>
									<g>
										<path class="st8" d="M468.3,42.6c0,0,0,1.8,0.1,4.8c0,3.1,0,7.5,0,12.8c-0.1,5.3-0.2,11.4-0.5,18
											c-0.1,3.3-0.3,6.7-0.5,10.2c-0.2,3.5-0.5,7-0.8,10.5c-0.3,3.5-0.6,7-1,10.5c-0.4,3.4-0.8,6.8-1.2,10.1
											c-0.4,3.3-0.9,6.4-1.3,9.4c-0.5,3-0.9,5.8-1.4,8.4c-1,5.2-1.9,9.5-2.6,12.5c-0.7,3-1.1,4.7-1.1,4.7s0.4-1.7,1-4.7
											c0.6-3,1.4-7.3,2.2-12.5c0.4-2.6,0.8-5.4,1.2-8.4c0.4-3,0.7-6.2,1.1-9.4c0.3-3.3,0.6-6.7,0.9-10.1
											c0.3-3.4,0.5-6.9,0.7-10.4c0.2-3.5,0.3-7,0.4-10.5c0.1-3.4,0.2-6.8,0.2-10.1c0.1-6.6,0.1-12.7,0-18
											c-0.1-5.3-0.2-9.6-0.3-12.7c-0.1-3.1-0.2-4.8-0.2-4.8L468.3,42.6z"/>
									</g>
									<g>
										<path class="st8" d="M462.4,42.6c0,0,0.1,4.9,0.1,12.3c0,7.4-0.3,17.3-0.8,27.1c-0.5,9.8-1.3,19.7-2.1,27
											c-0.8,7.3-1.5,12.2-1.5,12.2s0.5-4.9,1-12.3c0.5-7.4,0.9-17.2,1-27c0.1-9.8-0.1-19.7-0.4-27c-0.3-7.4-0.6-12.3-0.6-12.3
											L462.4,42.6z"/>
									</g>
								</g>
							</g>
							<g>
								<circle class="st16" cx="405.7" cy="101.6" r="4.7"/>
								<circle class="st16" cx="410.6" cy="116.9" r="2.4"/>
								<circle class="st16" cx="404.9" cy="140.3" r="1.5"/>
							</g>
						</g>
					</g>
				</g>
			</g>
			<g>
				<g>
					<path class="st7" d="M852.6,615.4c-15.3,0-27.6-2.2-35.2-4.1c-4.1-1-6.6-5-5.8-9.1c0.8-3.8,1.8-10,2.6-17.9l0.2-1.9l1.9,0.5
						c4.5,1.1,16.8,3.6,34.7,3.6c12.6,0,25.5-1.3,38.3-3.7l1.8-0.3l0.2,1.8c0.7,8,1.8,14.2,2.5,18c0.8,4.1-1.7,8.1-5.8,9.1
						C876.5,614,864.7,615.4,852.6,615.4z"/>
					<path class="st8" d="M889.5,584.3c0.7,7.9,1.7,14.1,2.6,18.1c0.7,3.3-1.4,6.4-4.6,7.2c-12.6,3.1-24.4,4.1-34.9,4.1
						c-15.6,0-28-2.4-34.8-4.1c-3.2-0.8-5.2-4-4.6-7.2c0.8-4.1,1.9-10.2,2.6-18.1c4.4,1.1,16.9,3.6,35.1,3.6
						C861.9,588,874.9,587.1,889.5,584.3 M812.8,580.3l-0.3,3.8c-0.7,7.9-1.8,14-2.5,17.7c-1,5,2.1,9.8,7,11.1
						c7.7,1.9,20.1,4.2,35.6,4.2c12.2,0,24.1-1.4,35.6-4.2c5-1.2,8.1-6.1,7.1-11.1c-0.8-3.7-1.8-9.9-2.5-17.8l-0.3-3.7l-3.6,0.7
						c-12.7,2.5-25.5,3.7-38,3.7c-17.7,0-29.9-2.5-34.3-3.5L812.8,580.3L812.8,580.3z"/>
				</g>
				<g>
					<g>
						<path class="st2" d="M551.7,465.6l2.9-31.2c0.3-3-2.1-5.5-5.1-5.5h-97.8c-3,0-5.3,2.6-5.1,5.5l2.9,31.2
							c-5,1.6-8.4,8.1-7.7,15.5c0.7,7.4,5.2,13.1,10.4,13.8l10.4,111.7c0.2,2.3,1.9,4.1,4.2,4.5c27.4,4.9,56.9,1.4,67.4-0.1
							c2.3-0.3,4.1-2.2,4.3-4.6L549,494.9c5.2-0.7,9.7-6.4,10.4-13.8C560.1,473.7,556.8,467.2,551.7,465.6z"/>
						<g>
							<path class="st2" d="M549.6,428.8c0,0,3.8-19-11.3-30.3c-15.1-11.2-35.9-1.3-37.6,5.6c0,0-13.4-16-26.8,2.2
								c0,0-22.6,0-22.1,22.5H549.6z"/>
							<g>
								<path class="st10" d="M487.8,404.2c4.1,0,7.9,4.1,7.9,4.2c1.2,1.5,3.1,2.3,5,2.3c0.5,0,1-0.1,1.5-0.2
									c1.8-0.4,3.4-1.6,4.3-3.3c1.1-2,2.8-3.5,4.8-4.5c2.9-1.5,6.9-2.8,11.4-2.8c4.5,0,8.5,1.3,11.9,3.8c3,2.2,5.1,4.9,6.4,7.6"/>
								<path class="st10" d="M459.1,422.4c0.6-1.9,1.5-3.5,2.8-4.8c4.4-4.5,11.9-4.7,12-4.7"/>
							</g>
						</g>
					</g>
					<g>
						<path class="st13" d="M448.8,482.7c0.9,3.4,3,5.5,4.3,5.7c3,0.4,5.3,2.8,5.6,5.8l9.8,105.6c0.3,3,2.6,5.4,5.5,5.8
							c7.4,1,15.4,1.5,24,1.5c0,0,0,0,0,0c11.5,0,21.8-0.9,29-1.7c3-0.4,5.4-2.8,5.7-5.8l9.8-105.4c0.3-3,2.6-5.4,5.6-5.8
							c1.4-0.2,3.5-2.3,4.4-5.8C493.9,486.9,457.2,483.6,448.8,482.7z"/>
						<g>
							<path class="st10" d="M441.9,481.1c0,0,40.9,7.7,117.5,0"/>
							<g>
								<g>
									<circle class="st14" cx="491.5" cy="498.5" r="3.7"/>
									<circle class="st14" cx="495.2" cy="518.8" r="2.8"/>
									<circle class="st14" cx="491.4" cy="530.2" r="1.2"/>
								</g>
								<g>
									<g>
										<g>
											<line class="st7" x1="543.7" y1="428.1" x2="534.3" y2="537.3"/>
											<polygon class="st8" points="545.3,428.2 534.3,537.3 542,427.9 											"/>
										</g>
										<g>
											<line class="st7" x1="536.1" y1="429.7" x2="530.3" y2="509.3"/>
											<polygon class="st8" points="537.8,429.8 530.3,509.3 534.5,429.6 											"/>
										</g>
									</g>
									<g>
										<path class="st9" d="M472,444l1.9,125.8L461,444.6c-0.3-3,1.9-5.8,4.9-6.1s5.8,1.9,6.1,4.9C472,443.6,472,443.8,472,444z"
											/>
									</g>
								</g>
							</g>
						</g>
					</g>
				</g>
				<g>
					<g>
						<g>
							<g>
								<path class="st2" d="M635.9,612.5c-1.1,0-1.9-0.9-1.9-1.9l0,0c0-1.1,0.8-2.1,1.9-2.3c33.2-5.9,30.8-34.3,30.8-34.3V548
									c4.6,0,13.4,0,13.4,0v25.9c0,0-2.4,28.4,30.8,34.3c1.1,0.2,1.9,1.2,1.9,2.3l0,0c0,1.1-0.9,1.9-1.9,1.9
									C710.9,612.5,672.2,616.4,635.9,612.5z"/>
								<g>
									<path class="st7" d="M639.6,607.5c0,0,25.7,2.4,53.9,1"/>
									<path class="st8" d="M639.8,605.9c0,0,3.3,0.4,8.3,0.9c5,0.5,11.7,1,18.5,1.3c3.4,0.2,6.7,0.3,9.9,0.4
										c3.2,0.1,6.1,0.1,8.6,0.1c2.5,0,4.6,0,6.1,0c1.5,0,2.3,0,2.3,0s-0.8,0.1-2.3,0.2c-1.5,0.1-3.6,0.3-6.1,0.4
										c-2.5,0.2-5.5,0.3-8.6,0.4c-3.2,0.1-6.5,0.2-9.9,0.2c-6.8,0.1-13.5,0-18.6-0.2c-5.1-0.2-8.5-0.4-8.5-0.4
										c-0.9-0.1-1.6-0.8-1.6-1.8c0.1-0.9,0.8-1.6,1.8-1.6C639.7,605.9,639.7,605.9,639.8,605.9z"/>
								</g>
							</g>
							<g>
								<path class="st7" d="M675.2,549.2v24.4c-0.4,5.6,0.8,14,5.8,21.7"/>
								<path class="st8" d="M676.9,549.2l-0.9,24.4l0,0.1l0,0c-0.4,3.7-0.1,7.5,0.8,11.1c0.2,0.9,0.5,1.8,0.7,2.7
									c0.1,0.5,0.3,0.9,0.5,1.3c0.1,0.4,0.3,0.9,0.5,1.3c0.2,0.4,0.4,0.9,0.6,1.3c0.2,0.4,0.4,0.9,0.6,1.3
									c0.4,0.9,0.9,1.7,1.4,2.5c-0.5-0.8-1.1-1.6-1.5-2.4c-0.3-0.4-0.5-0.8-0.7-1.2c-0.2-0.4-0.4-0.8-0.7-1.3
									c-0.2-0.4-0.4-0.9-0.6-1.3c-0.2-0.4-0.4-0.9-0.6-1.3c-0.4-0.9-0.7-1.8-1-2.7c-1.1-3.7-1.7-7.5-1.6-11.4l0,0.1l-0.9-24.4
									c0-0.9,0.7-1.7,1.6-1.7c0.9,0,1.7,0.7,1.7,1.6C676.9,549.2,676.9,549.2,676.9,549.2z"/>
							</g>
						</g>
						<g>
							<path class="st2" d="M636.5,420c-1.2-17.9,17-16.4,17-16.4s3.3-10.6,17-10.3c13.7,0.3,17.3,11.6,17.3,11.6
								c24-0.9,21.9,15.2,21.9,15.2H636.5z"/>
							<g>
								<path class="st10" d="M643.3,413.9c0.3-0.6,0.6-1.1,1-1.6c2.4-2.5,6.8-2.7,8.1-2.7c0.3,0,0.5,0,0.6,0c0.2,0,0.3,0,0.5,0
									c2.7,0,5.1-1.6,5.8-4.3c2.1-5.8,9.2-6.1,10.7-6.1l0.4,0c4.3,0.1,7.1,1.7,8.9,3.4"/>
								<path class="st10" d="M689.8,410.9c5.4,0,9.5,1.1,11.7,3.1"/>
							</g>
						</g>
						<path class="st2" d="M632.9,420c0,0,3.2,18.7-7.3,56.8c-10.5,38.1,1.2,64.6,34.5,70c16.6,2.7,26.7,0,26.7,0
							c33.2-5.4,45-31.9,34.5-70c-10.5-38.1-7.3-56.8-7.3-56.8H632.9z"/>
					</g>
					<g>
						<path class="st6" d="M715.4,478.4c-2.5-8.9-4.2-16.8-5.4-23.7c-32.3,1.8-61,0.7-73.1,0c-1.2,6.9-2.9,14.7-5.4,23.6
							c-5.4,19.6-4.6,35.7,2.4,46.6c5.4,8.5,14.6,13.8,27.2,15.8c4.6,0.8,9.1,1.1,13.3,1.1c0,0,0,0,0,0c6.8,0,10.8-1,10.8-1
							c0.2-0.1,0.4-0.1,0.6-0.1c12.6-2,21.7-7.4,27.2-15.8C719.9,514.1,720.8,498,715.4,478.4z"/>
						<g>
							<path class="st10" d="M630.8,454.4c0,0,39.9,3,85.3,0"/>
							<g>
								<g>
									<path class="st9" d="M653.9,435.2c0,0-0.2,1.5-0.5,4.2c-0.3,2.7-0.8,6.5-1.7,11.1c-0.9,4.6-2.1,9.9-3.8,15.4
										c-0.9,2.8-1.9,5.6-3.1,8.5c-0.3,0.7-0.6,1.4-0.9,2.1c-0.3,0.7-0.6,1.4-0.9,2c-0.3,0.7-0.6,1.4-0.9,2l-0.8,2
										c-2.1,5.4-3.3,11.1-3.7,16.5c-0.4,5.4,0.1,10.6,1.2,14.9c1.1,4.3,2.7,7.7,4.3,9.7c0.8,1,1.5,1.7,2.1,2.1
										c0.3,0.2,0.5,0.3,0.7,0.4c0.2,0.1,0.2,0.1,0.2,0.1s-0.1,0-0.3-0.1c-0.2-0.1-0.4-0.2-0.7-0.4c-0.6-0.3-1.5-1-2.4-1.9
										c-1.9-1.9-4-5.2-5.6-9.5c-1.6-4.3-2.8-9.6-3.1-15.4c-0.3-5.8,0.4-12.1,1.9-18.1l0.6-2.3c0.2-0.8,0.4-1.4,0.7-2.2
										c0.2-0.7,0.5-1.4,0.7-2.1c0.2-0.7,0.4-1.4,0.6-2.1c0.8-2.7,1.4-5.5,1.9-8.1c1-5.3,1.6-10.4,1.9-14.8
										c0.3-4.4,0.4-8,0.4-10.5c0-2.6,0-4,0-4l0-0.1c0-3.1,2.4-5.6,5.5-5.6c3.1,0,5.6,2.4,5.6,5.5
										C653.9,434.8,653.9,435,653.9,435.2z"/>
								</g>
								<g>
									<g>
										<path class="st8" d="M706.7,420.1c0,0,0,0.4-0.1,1.1c0,0.8-0.1,1.9-0.1,3.3c0,1.4-0.1,3.2,0,5.2c0,2,0.1,4.2,0.2,6.7
											c0.1,1.2,0.2,2.5,0.3,3.8c0.1,1.3,0.2,2.7,0.4,4.1c0.1,1.4,0.3,2.8,0.5,4.3c0.2,1.5,0.4,3,0.6,4.5
											c0.2,1.5,0.5,3.1,0.7,4.6c0.3,1.6,0.5,3.2,0.9,4.7c0.6,3.2,1.3,6.4,2.1,9.6c0.8,3.2,1.5,6.4,2.2,9.6
											c0.3,1.6,0.7,3.2,1,4.8c0.3,1.6,0.6,3.1,0.8,4.7c0.5,3.1,0.9,6.1,1,8.9c0.1,2.9,0.1,5.6-0.3,8.1c-0.3,2.5-0.9,4.7-1.6,6.6
											c-0.2,0.5-0.3,0.9-0.5,1.4c-0.2,0.4-0.4,0.9-0.5,1.3c-0.3,0.8-0.7,1.5-1,2.2c-0.6,1.3-1.2,2.3-1.5,3c-0.4,0.7-0.6,1-0.6,1
											s0.2-0.4,0.5-1.1c0.3-0.7,0.9-1.7,1.4-3c0.3-0.7,0.6-1.4,0.9-2.2c0.2-0.4,0.3-0.8,0.5-1.3c0.1-0.4,0.3-0.9,0.4-1.4
											c0.6-1.9,1.1-4.1,1.4-6.6c0.3-2.4,0.2-5.1,0-7.9c-0.2-2.8-0.7-5.8-1.3-8.8c-0.3-1.5-0.6-3-1-4.6c-0.4-1.5-0.7-3.1-1.1-4.7
											c-0.8-3.1-1.6-6.3-2.5-9.5c-0.8-3.2-1.7-6.4-2.4-9.6c-0.4-1.6-0.7-3.2-1-4.8c-0.3-1.6-0.6-3.1-0.9-4.7
											c-0.3-1.5-0.5-3-0.8-4.5c-0.2-1.5-0.5-2.9-0.6-4.4c-0.2-1.4-0.4-2.8-0.5-4.1c-0.1-1.3-0.3-2.6-0.4-3.9
											c-0.2-2.5-0.4-4.8-0.5-6.8c-0.1-2-0.1-3.8-0.2-5.3c0-1.5,0-2.6,0-3.4c0-0.8,0-1.2,0-1.2L706.7,420.1z"/>
									</g>
									<g>
										<path class="st8" d="M699.9,420.2c0,0,0,0.3-0.1,0.7c0,0.5-0.1,1.2-0.1,2.1c-0.1,1.8-0.1,4.4,0,7.6
											c0.2,6.3,0.8,14.6,2.1,22.9c0.3,2.1,0.7,4.1,1,6.2c0.4,2,0.8,4,1.2,6c0.9,3.9,1.7,7.4,2.4,10.5c1.4,6.2,2.4,10.3,2.4,10.3
											s-1.1-4.1-2.9-10.2c-0.9-3-1.9-6.6-2.9-10.4c-0.5-1.9-1-3.9-1.5-5.9c-0.5-2-1-4.1-1.3-6.2c-1.7-8.3-2.8-16.7-3.3-23.1
											c-0.2-3.2-0.3-5.8-0.4-7.7c0-0.9,0-1.7,0-2.2c0-0.5,0-0.8,0-0.8L699.9,420.2z"/>
									</g>
								</g>
							</g>
							<g>
								<circle class="st17" cx="664" cy="466.3" r="3.1"/>
								<circle class="st12" cx="667.1" cy="478.3" r="1.3"/>
								<circle class="st8" cx="661.3" cy="492.4" r="1.5"/>
							</g>
						</g>
					</g>
				</g>
				<g>
					<path class="st7" d="M850.9,605.8c-18.3,0-30.9-2.6-35.5-3.7l-1.4-0.3l0.1-1.4c1.4-15.5,1.6-39.9-5.3-67.9
						c-6.7-27.1-8.9-58.2-9.7-79.5l-0.1-1.6l1.6-0.1c7.1-0.6,26.3-2.1,51.9-2.1c17.8,0,35.3,0.7,52.1,2.1l1.6,0.1l-0.1,1.6
						c-0.7,21.3-3,52.3-9.7,79.4c-6.9,28-6.7,52.3-5.3,67.8l0.1,1.5l-1.5,0.3C876.9,604.6,863.8,605.8,850.9,605.8
						C850.9,605.8,850.9,605.8,850.9,605.8z"/>
					<path class="st8" d="M852.7,450.9c15.4,0,33.2,0.5,51.9,2.1c-0.8,23.3-3.2,53-9.6,79.1c-6.8,27.6-6.8,51.7-5.3,68.4
						c-14.6,2.8-27.7,3.8-38.7,3.8c-18.1,0-30.7-2.6-35.1-3.6c1.5-16.6,1.5-40.8-5.3-68.5c-6.4-26.1-8.8-55.8-9.6-79.1
						C807.7,452.3,827,450.9,852.7,450.9 M852.7,447.5c-25.7,0-44.9,1.5-52,2.1l-3.1,0.3l0.1,3.1c0.7,21.4,3,52.6,9.7,79.8
						c6.9,27.8,6.6,52,5.3,67.4l-0.3,2.8l2.8,0.7c4.6,1.1,17.4,3.7,35.8,3.7c12.9,0,26.1-1.3,39.3-3.8l2.9-0.6l-0.3-3
						c-1.4-15.4-1.6-39.5,5.3-67.3c6.7-27.2,9-58.4,9.7-79.8l0.1-3.2l-3.1-0.3C888.1,448.3,870.5,447.5,852.7,447.5L852.7,447.5z"/>
				</g>
				<g>
					<g>
						<path class="st3" d="M804.5,412.2c-6.8,1.7-13.4,0.6-16-4.4c-4.7-9.1,4.7-17.7,4.7-17.7c19.9-17.7,55.8,0.8,55.8,0.8
							c19.6-11.6,32.1,1.7,32.1,1.7s22-1.2,20.7,18.3c0,0-34.1-4.2-92.5-0.3C809.3,410.5,806.6,410.2,804.5,412.2z"/>
						<g>
							<path class="st4" d="M798.5,412.9c0,0,16-1.8,26.3-13.4"/>
							<g>
								<path class="st4" d="M807.6,389c0,0-14.2,4.9-14.1,14.9"/>
								<path class="st4" d="M896.4,410.3c0,0,0.6-8.1-7.7-10.8"/>
							</g>
						</g>
					</g>
					<g>
						<g>
							<path class="st11" d="M900.1,455.7c-44.2-3.5-82.2-1-94.8,0c0.8,22.5,3.1,51.3,9.5,76.4c6,23.6,6.8,44.7,6,60.1
								c-0.1,2.6,1.8,4.8,4.4,5.2c6.1,0.9,14.9,1.8,25.7,1.8c0,0,0,0,0,0c9.6,0,19.4-0.7,29.2-2.2c2.6-0.4,4.6-2.6,4.4-5.2
								c-0.7-15.3,0.1-36.3,6-59.8C897,507,899.3,478.2,900.1,455.7z"/>
						</g>
						<g>
							<g>
								<path class="st7" d="M904.4,454.6c-16.6-1.4-34-2.1-51.8-2.1c-25.5,0-44.6,1.5-51.6,2.1l-1.7,0.2l-0.1-1.8
									c-0.5-15.7-0.3-28.6-0.2-34.8c0.1-4,3.2-7.3,7.3-7.6c16.2-1.1,32.6-1.7,48.6-1.7c21.2,0,36.8,1,44.2,1.6
									c4,0.3,7,3.6,7.2,7.6c0.2,6.3,0.4,19.2-0.2,34.9l-0.1,1.7L904.4,454.6z"/>
								<path class="st8" d="M855,410.5c21,0,36.4,1,44.1,1.6c3.1,0.3,5.6,2.8,5.6,6c0.2,6.8,0.4,19.4-0.2,34.8
									c-18.8-1.6-36.5-2.1-51.9-2.1c-25.7,0-44.9,1.5-51.7,2.1c-0.5-15.3-0.3-27.9-0.2-34.7c0.1-3.2,2.6-5.8,5.7-6
									C824.7,411,841,410.5,855,410.5 M855,407.2v3.3V407.2c-16.1,0-32.4,0.6-48.7,1.7c-4.9,0.3-8.7,4.3-8.8,9.2
									c-0.2,6.3-0.4,19.1,0.2,34.9l0.1,3.5l3.5-0.3c7-0.6,26-2.1,51.4-2.1c17.7,0,35.1,0.7,51.6,2.1l3.5,0.3l0.1-3.5
									c0.5-15.9,0.3-28.8,0.2-35c-0.1-4.8-3.9-8.8-8.7-9.2C891.9,408.3,876.2,407.2,855,407.2L855,407.2z"/>
							</g>
							<g>
								<g>
									<path class="st9" d="M820.6,422.1c0,0-0.1,0.5-0.2,1.3c-0.1,0.8-0.3,2.2-0.5,3.7c-0.2,1.6-0.4,3.5-0.6,5.7
										c-0.2,2.2-0.4,4.7-0.6,7.5c-0.2,2.7-0.4,5.7-0.5,8.9c-0.1,3.2-0.2,6.5-0.3,10c-0.1,3.5-0.1,7,0,10.7
										c0,3.6,0.1,7.3,0.2,11.1c0.5,14.8,1.6,29.7,2.8,40.8c0.1,1.4,0.3,2.7,0.4,3.9c0.2,1.3,0.4,2.4,0.6,3.6
										c0.4,2.2,0.7,4.2,1,5.8c0.6,3.2,0.9,5.1,0.9,5.1s-0.5-1.8-1.4-4.9c-0.4-1.6-1-3.5-1.6-5.7c-0.3-1.1-0.6-2.3-1-3.5
										c-0.3-1.3-0.6-2.6-0.9-4c-2.3-11-5-25.7-7-40.6c-0.5-3.7-1-7.4-1.4-11.1c-0.4-3.7-0.8-7.3-1.1-10.8
										c-0.3-3.5-0.5-6.9-0.7-10.2c-0.2-3.2-0.3-6.3-0.4-9.2c-0.1-2.8-0.1-5.5-0.1-7.8c0-2.3,0-4.4,0-6.1c0-1.7,0.1-2.9,0.1-3.8
										c0-0.9,0-1.3,0-1.3c0.1-3.4,2.9-6,6.3-5.9c3.4,0.1,6,2.9,5.9,6.3C820.7,421.6,820.7,421.9,820.6,422.1z"/>
								</g>
								<g>
									<g>
										<path class="st8" d="M899.4,410.4c0,0,0,1.8,0.1,4.8c0,3.1,0,7.5,0,12.8c-0.1,5.3-0.2,11.4-0.5,18
											c-0.1,3.3-0.3,6.7-0.5,10.2c-0.2,3.5-0.5,7-0.8,10.5c-0.3,3.5-0.6,7-1,10.5c-0.4,3.4-0.8,6.8-1.2,10.1
											c-0.4,3.3-0.9,6.4-1.3,9.4c-0.5,3-0.9,5.8-1.4,8.4c-1,5.2-1.9,9.5-2.6,12.5c-0.7,3-1.1,4.7-1.1,4.7s0.4-1.7,1-4.7
											c0.6-3,1.4-7.3,2.2-12.5c0.4-2.6,0.8-5.4,1.2-8.4c0.4-3,0.7-6.2,1.1-9.4c0.3-3.3,0.6-6.7,0.9-10.1
											c0.3-3.4,0.5-6.9,0.7-10.4c0.2-3.5,0.3-7,0.4-10.5c0.1-3.4,0.2-6.8,0.2-10.1c0.1-6.6,0.1-12.7,0-18
											c-0.1-5.3-0.2-9.6-0.3-12.7c-0.1-3.1-0.2-4.8-0.2-4.8L899.4,410.4z"/>
									</g>
									<g>
										<path class="st8" d="M893.5,410.3c0,0,0.1,4.9,0.1,12.3c0,7.4-0.3,17.3-0.8,27.1c-0.5,9.8-1.3,19.7-2.1,27
											c-0.8,7.3-1.5,12.2-1.5,12.2s0.5-4.9,1-12.3c0.5-7.4,0.9-17.2,1-27c0.1-9.8-0.1-19.7-0.4-27c-0.3-7.4-0.6-12.3-0.6-12.3
											L893.5,410.3z"/>
									</g>
								</g>
							</g>
							<g>
								<circle class="st12" cx="844.3" cy="479.2" r="4.7"/>
								<circle class="st12" cx="839.1" cy="494.4" r="2.4"/>
								<circle class="st12" cx="843.5" cy="459.9" r="1.5"/>
							</g>
						</g>
					</g>
				</g>
			</g>
			<g>
				<g>
					<g>
						<path class="st2" d="M112.6,116.5l2.9-31.2c0.3-3-2.1-5.5-5.1-5.5H12.6c-3,0-5.3,2.6-5.1,5.5l2.9,31.2
							c-5,1.6-8.4,8.1-7.7,15.5c0.7,7.4,5.2,13.1,10.4,13.8l10.4,111.7c0.2,2.3,1.9,4.1,4.2,4.5c27.4,4.9,56.9,1.4,67.4-0.1
							c2.3-0.3,4.1-2.2,4.3-4.6l10.4-111.6c5.2-0.7,9.7-6.4,10.4-13.8C121,124.6,117.6,118.1,112.6,116.5z"/>
						<g>
							<path class="st2" d="M110.4,79.8c0,0,3.8-19-11.3-30.3C84,38.3,63.3,48.2,61.5,55.2c0,0-13.4-16-26.8,2.2
								c0,0-22.6,0-22.1,22.5H110.4z"/>
							<g>
								<path class="st10" d="M48.7,55.1c4.1,0,7.9,4.1,7.9,4.2c1.2,1.5,3.1,2.3,5,2.3c0.5,0,1-0.1,1.5-0.2c1.8-0.4,3.4-1.6,4.3-3.3
									c1.1-2,2.8-3.5,4.8-4.5c2.9-1.5,6.9-2.8,11.4-2.8c4.5,0,8.5,1.3,11.9,3.8c3,2.2,5.1,4.9,6.4,7.6"/>
								<path class="st10" d="M19.9,73.3c0.6-1.9,1.5-3.5,2.8-4.8c4.4-4.5,11.9-4.7,12-4.7"/>
							</g>
						</g>
					</g>
					<g>
						<path class="st13" d="M9.7,133.7c0.9,3.4,3,5.5,4.3,5.7c3,0.4,5.3,2.8,5.6,5.8l9.8,105.6c0.3,3,2.6,5.4,5.5,5.8
							c7.4,1,15.4,1.5,24,1.5c0,0,0,0,0,0c11.5,0,21.8-0.9,29-1.7c3-0.4,5.4-2.8,5.7-5.8l9.8-105.4c0.3-3,2.6-5.4,5.6-5.8
							c1.4-0.2,3.5-2.3,4.4-5.8C54.7,137.8,18.1,134.6,9.7,133.7z"/>
						<g>
							<path class="st10" d="M2.8,132.1c0,0,40.9,7.7,117.5,0"/>
							<g>
								<g>
									<circle class="st14" cx="52.4" cy="149.5" r="3.7"/>
									<circle class="st14" cx="56" cy="169.8" r="2.8"/>
									<circle class="st14" cx="52.3" cy="181.2" r="1.2"/>
								</g>
								<g>
									<g>
										<g>
											<line class="st7" x1="104.5" y1="79" x2="95.1" y2="188.2"/>
											<polygon class="st8" points="106.2,79.2 95.1,188.2 102.9,78.9 											"/>
										</g>
										<g>
											<line class="st7" x1="97" y1="80.6" x2="91.2" y2="160.3"/>
											<polygon class="st8" points="98.6,80.8 91.2,160.3 95.3,80.5 											"/>
										</g>
									</g>
									<g>
										<path class="st9" d="M32.8,94.9l1.9,125.8L21.8,95.6c-0.3-3,1.9-5.8,4.9-6.1c3-0.3,5.8,1.9,6.1,4.9
											C32.8,94.6,32.8,94.8,32.8,94.9z"/>
									</g>
								</g>
							</g>
						</g>
					</g>
				</g>
				<g>
					<g>
						<g>
							<g>
								<path class="st2" d="M196.8,261.4c-1.1,0-1.9-0.9-1.9-1.9l0,0c0-1.1,0.8-2.1,1.9-2.3c33.2-5.9,30.8-34.3,30.8-34.3V197
									c4.6,0,13.4,0,13.4,0v25.9c0,0-2.4,28.4,30.8,34.3c1.1,0.2,1.9,1.2,1.9,2.3l0,0c0,1.1-0.9,1.9-1.9,1.9
									C271.8,261.4,233,265.4,196.8,261.4z"/>
								<g>
									<path class="st7" d="M200.5,256.5c0,0,25.7,2.4,53.9,1"/>
									<path class="st8" d="M200.6,254.8c0,0,3.3,0.4,8.3,0.9c5,0.5,11.7,1,18.5,1.3c3.4,0.2,6.7,0.3,9.9,0.4
										c3.2,0.1,6.1,0.1,8.6,0.1c2.5,0,4.6,0,6.1,0c1.5,0,2.3,0,2.3,0s-0.8,0.1-2.3,0.2c-1.5,0.1-3.6,0.3-6.1,0.4
										c-2.5,0.2-5.5,0.3-8.6,0.4c-3.2,0.1-6.5,0.2-9.9,0.2c-6.8,0.1-13.5,0-18.6-0.2c-5.1-0.2-8.5-0.4-8.5-0.4
										c-0.9-0.1-1.6-0.8-1.6-1.8c0.1-0.9,0.8-1.6,1.8-1.6C200.6,254.8,200.6,254.8,200.6,254.8z"/>
								</g>
							</g>
							<g>
								<path class="st7" d="M236.1,198.2v24.4c-0.4,5.6,0.8,14,5.8,21.7"/>
								<path class="st8" d="M237.8,198.2l-0.9,24.4l0,0.1l0,0c-0.4,3.7-0.1,7.5,0.8,11.1c0.2,0.9,0.5,1.8,0.7,2.7
									c0.1,0.5,0.3,0.9,0.5,1.3c0.1,0.4,0.3,0.9,0.5,1.3c0.2,0.4,0.4,0.9,0.6,1.3c0.2,0.4,0.4,0.9,0.6,1.3
									c0.4,0.9,0.9,1.7,1.4,2.5c-0.5-0.8-1.1-1.6-1.5-2.4c-0.3-0.4-0.5-0.8-0.7-1.2c-0.2-0.4-0.4-0.8-0.7-1.3
									c-0.2-0.4-0.4-0.9-0.6-1.3c-0.2-0.4-0.4-0.9-0.6-1.3c-0.4-0.9-0.7-1.8-1-2.7c-1.1-3.7-1.7-7.5-1.6-11.4l0,0.1l-0.9-24.4
									c0-0.9,0.7-1.7,1.6-1.7c0.9,0,1.7,0.7,1.7,1.6C237.8,198.1,237.8,198.2,237.8,198.2z"/>
							</g>
						</g>
						<g>
							<path class="st2" d="M197.3,69c-1.2-17.9,17-16.4,17-16.4s3.3-10.6,17-10.3c13.7,0.3,17.3,11.6,17.3,11.6
								c24-0.9,21.9,15.2,21.9,15.2H197.3z"/>
							<g>
								<path class="st10" d="M204.2,62.9c0.3-0.6,0.6-1.1,1-1.6c2.4-2.5,6.8-2.7,8.1-2.7c0.3,0,0.5,0,0.6,0c0.2,0,0.3,0,0.5,0
									c2.7,0,5.1-1.6,5.8-4.3c2.1-5.8,9.2-6.1,10.7-6.1l0.4,0c4.3,0.1,7.1,1.7,8.9,3.4"/>
								<path class="st10" d="M250.6,59.8c5.4,0,9.5,1.1,11.7,3.1"/>
							</g>
						</g>
						<path class="st2" d="M193.8,69c0,0,3.2,18.7-7.3,56.8c-10.5,38.1,1.2,64.6,34.5,70c16.6,2.7,26.7,0,26.7,0
							c33.2-5.4,45-31.9,34.5-70c-10.5-38.1-7.3-56.8-7.3-56.8H193.8z"/>
					</g>
					<g>
						<path class="st6" d="M276.2,127.4c-2.5-8.9-4.2-16.8-5.4-23.7c-32.3,1.8-61,0.7-73.1,0c-1.2,6.9-2.9,14.7-5.4,23.6
							c-5.4,19.6-4.6,35.7,2.4,46.6c5.4,8.5,14.6,13.8,27.2,15.8c4.6,0.8,9.1,1.1,13.3,1.1c0,0,0,0,0,0c6.8,0,10.8-1,10.8-1
							c0.2-0.1,0.4-0.1,0.6-0.1c12.6-2,21.7-7.4,27.2-15.8C280.8,163,281.6,146.9,276.2,127.4z"/>
						<g>
							<path class="st10" d="M191.6,103.3c0,0,39.9,3,85.3,0"/>
							<g>
								<g>
									<path class="st9" d="M214.8,84.2c0,0-0.2,1.5-0.5,4.2c-0.3,2.7-0.8,6.5-1.7,11.1c-0.9,4.6-2.1,9.9-3.8,15.4
										c-0.9,2.8-1.9,5.6-3.1,8.5c-0.3,0.7-0.6,1.4-0.9,2.1c-0.3,0.7-0.6,1.4-0.9,2c-0.3,0.7-0.6,1.4-0.9,2l-0.8,2
										c-2.1,5.4-3.3,11.1-3.7,16.5c-0.4,5.4,0.1,10.6,1.2,14.9c1.1,4.3,2.7,7.7,4.3,9.7c0.8,1,1.5,1.7,2.1,2.1
										c0.3,0.2,0.5,0.3,0.7,0.4c0.2,0.1,0.2,0.1,0.2,0.1s-0.1,0-0.3-0.1c-0.2-0.1-0.4-0.2-0.7-0.4c-0.6-0.3-1.5-1-2.4-1.9
										c-1.9-1.9-4-5.2-5.6-9.5c-1.6-4.3-2.8-9.6-3.1-15.4c-0.3-5.8,0.4-12.1,1.9-18.1l0.6-2.3c0.2-0.8,0.4-1.4,0.7-2.2
										c0.2-0.7,0.5-1.4,0.7-2.1c0.2-0.7,0.4-1.4,0.6-2.1c0.8-2.7,1.4-5.5,1.9-8.1c1-5.3,1.6-10.4,1.9-14.8
										c0.3-4.4,0.4-8,0.4-10.5c0-2.6,0-4,0-4l0-0.1c0-3.1,2.4-5.6,5.5-5.6s5.6,2.4,5.6,5.5C214.8,83.7,214.8,83.9,214.8,84.2z"/>
								</g>
								<g>
									<g>
										<path class="st8" d="M267.5,69.1c0,0,0,0.4-0.1,1.1c0,0.8-0.1,1.9-0.1,3.3c0,1.4-0.1,3.2,0,5.2c0,2,0.1,4.2,0.2,6.7
											c0.1,1.2,0.2,2.5,0.3,3.8c0.1,1.3,0.2,2.7,0.4,4.1c0.1,1.4,0.3,2.8,0.5,4.3c0.2,1.5,0.4,3,0.6,4.5
											c0.2,1.5,0.5,3.1,0.7,4.6c0.3,1.6,0.5,3.2,0.9,4.7c0.6,3.2,1.3,6.4,2.1,9.6c0.8,3.2,1.5,6.4,2.2,9.6
											c0.3,1.6,0.7,3.2,1,4.8c0.3,1.6,0.6,3.1,0.8,4.7c0.5,3.1,0.9,6.1,1,8.9c0.1,2.9,0.1,5.6-0.3,8.1c-0.3,2.5-0.9,4.7-1.6,6.6
											c-0.2,0.5-0.3,0.9-0.5,1.4c-0.2,0.4-0.4,0.9-0.5,1.3c-0.3,0.8-0.7,1.5-1,2.2c-0.6,1.3-1.2,2.3-1.5,3c-0.4,0.7-0.6,1-0.6,1
											s0.2-0.4,0.5-1.1c0.3-0.7,0.9-1.7,1.4-3c0.3-0.7,0.6-1.4,0.9-2.2c0.2-0.4,0.3-0.8,0.5-1.3c0.1-0.4,0.3-0.9,0.4-1.4
											c0.6-1.9,1.1-4.1,1.4-6.6c0.3-2.4,0.2-5.1,0-7.9c-0.2-2.8-0.7-5.8-1.3-8.8c-0.3-1.5-0.6-3-1-4.6c-0.4-1.5-0.7-3.1-1.1-4.7
											c-0.8-3.1-1.6-6.3-2.5-9.5c-0.8-3.2-1.7-6.4-2.4-9.6c-0.4-1.6-0.7-3.2-1-4.8c-0.3-1.6-0.6-3.1-0.9-4.7
											c-0.3-1.5-0.5-3-0.8-4.5c-0.2-1.5-0.5-2.9-0.6-4.4c-0.2-1.4-0.4-2.8-0.5-4.1c-0.1-1.3-0.3-2.6-0.4-3.9
											c-0.2-2.5-0.4-4.8-0.5-6.8c-0.1-2-0.1-3.8-0.2-5.3c0-1.5,0-2.6,0-3.4c0-0.8,0-1.2,0-1.2L267.5,69.1z"/>
									</g>
									<g>
										<path class="st8" d="M260.7,69.2c0,0,0,0.3-0.1,0.7c0,0.5-0.1,1.2-0.1,2.1c-0.1,1.8-0.1,4.4,0,7.6
											c0.2,6.3,0.8,14.6,2.1,22.9c0.3,2.1,0.7,4.1,1,6.2c0.4,2,0.8,4,1.2,6c0.9,3.9,1.7,7.4,2.4,10.5c1.4,6.2,2.4,10.3,2.4,10.3
											s-1.1-4.1-2.9-10.2c-0.9-3-1.9-6.6-2.9-10.4c-0.5-1.9-1-3.9-1.5-5.9c-0.5-2-1-4.1-1.3-6.2c-1.7-8.3-2.8-16.7-3.3-23.1
											c-0.2-3.2-0.3-5.8-0.4-7.7c0-0.9,0-1.7,0-2.2c0-0.5,0-0.8,0-0.8L260.7,69.2z"/>
									</g>
								</g>
							</g>
							<g>
								<circle class="st17" cx="224.9" cy="115.3" r="3.1"/>
								<circle class="st12" cx="227.9" cy="127.3" r="1.3"/>
								<circle class="st8" cx="222.2" cy="141.3" r="1.5"/>
							</g>
						</g>
					</g>
				</g>
			</g>
		</g>
	</g>
	<g>
		<g>
			<path class="st2" d="M90.1,454c0,0,2.6,47.1-9.7,141.9c-0.8,5.9,2.8,11.6,8.6,13.2c44.7,13.2,87.8,4.9,106.9-0.1
				c5.9-1.6,9.8-7.3,9-13.4c-12.3-94.6-9.7-141.6-9.7-141.6H90.1z"/>
			<g>
				<path class="st2" d="M201.2,565.3c44-16.6,37.4-64.2,34.8-81.8c-2.7-17.6-21.3-18.5-21.3-18.5h-19.8l0.4,21.4h12.6
					c0,0,11.8,0.4,11.3,20c-0.6,19.6-8.3,25.8-20.5,33.2L201.2,565.3z"/>
				<g>
					<g>
						<path class="st7" d="M200.7,560.3c0,0,16.6-7.7,24.9-20.7"/>
						<path class="st8" d="M200,558.8c0,0,0.1,0,0.3-0.1c0.2-0.1,0.5-0.2,0.9-0.4c0.8-0.4,1.9-0.9,3.3-1.6c1.3-0.7,2.9-1.5,4.5-2.5
							c0.8-0.5,1.6-1,2.5-1.6c0.8-0.6,1.7-1.1,2.5-1.7c0.8-0.6,1.6-1.2,2.4-1.8c0.8-0.6,1.6-1.2,2.2-1.9c0.7-0.6,1.4-1.2,2-1.9
							c0.6-0.6,1.2-1.2,1.7-1.8c0.5-0.6,1-1.1,1.4-1.6c0.4-0.5,0.7-0.9,1-1.3c0.5-0.7,0.9-1.1,0.9-1.1s-0.3,0.4-0.7,1.2
							c-0.2,0.4-0.5,0.9-0.9,1.4c-0.4,0.5-0.8,1.1-1.2,1.7c-0.4,0.6-1,1.3-1.6,2c-0.5,0.7-1.2,1.4-1.8,2.1c-0.6,0.7-1.4,1.4-2.1,2.1
							c-0.7,0.7-1.5,1.4-2.3,2.1c-0.8,0.7-1.6,1.3-2.4,2c-0.8,0.6-1.6,1.3-2.4,1.8c-1.6,1.2-3.1,2.2-4.4,3.1c-1.3,0.9-2.4,1.5-3.2,2
							c-0.4,0.2-0.7,0.4-0.9,0.5c-0.2,0.1-0.3,0.2-0.3,0.2c-0.8,0.4-1.8,0.1-2.3-0.7s-0.1-1.8,0.7-2.3
							C199.9,558.9,199.9,558.8,200,558.8L200,558.8z"/>
					</g>
					<g>
						<path class="st7" d="M204.6,474.5h9.8c2.1,0.2,10.9,1.5,12.3,10.5c0.5,3.4,1.3,8.4,1.7,14.4"/>
						<g>
							<path class="st8" d="M204.6,472.8l9.8,0.4l0.1,0l0,0c0.7,0.1,1.4,0.2,2.1,0.4c0.7,0.2,1.4,0.4,2,0.6c0.7,0.2,1.3,0.5,1.9,0.9
								c0.6,0.3,1.2,0.7,1.8,1.1l0.8,0.7c0.3,0.2,0.5,0.5,0.8,0.8c0.3,0.2,0.5,0.5,0.7,0.8c0.2,0.3,0.5,0.6,0.6,0.9l0.6,0.9l0.4,1
								c0.2,0.3,0.3,0.7,0.4,1c0.1,0.3,0.2,0.7,0.3,1c0.1,0.7,0.3,1.4,0.3,2l0.2,2c0.1,1.3,0.3,2.7,0.4,4c0.2,2.7,0.4,5.3,0.4,8
								c-0.3-2.7-0.6-5.3-1.1-7.9c-0.2-1.3-0.4-2.6-0.7-3.9l-0.4-2c-0.1-0.7-0.3-1.3-0.5-1.9c-0.1-0.3-0.2-0.6-0.3-0.9
								c-0.1-0.3-0.2-0.6-0.4-0.9l-0.4-0.8l-0.5-0.8c-0.2-0.3-0.4-0.5-0.6-0.7c-0.2-0.2-0.4-0.5-0.7-0.6c-0.2-0.2-0.5-0.4-0.7-0.6
								l-0.8-0.5c-0.5-0.3-1.1-0.6-1.6-0.9c-0.6-0.3-1.1-0.5-1.7-0.6c-0.6-0.2-1.2-0.3-1.8-0.4c-0.6-0.1-1.2-0.2-1.8-0.2l0.1,0
								l-9.8,0.4c-0.9,0-1.7-0.7-1.7-1.6c0-0.9,0.7-1.7,1.6-1.7C204.5,472.8,204.5,472.8,204.6,472.8z"/>
						</g>
					</g>
					<g>
						<path class="st8" d="M199.7,468.1l14.8,0.3l0.1,0l0,0c1.7,0.2,3.2,0.5,4.7,1c1.5,0.5,3,1.1,4.4,2c1.4,0.8,2.7,1.8,3.8,3
							c1.1,1.2,2.1,2.5,2.8,4l0.5,1.1c0.1,0.4,0.3,0.8,0.4,1.1l0.4,1.1l0.2,1.2l0.2,1.2l0.1,1.1l0.3,2.3c0.4,3,0.6,6.1,0.8,9.1
							c0.4,6.1,0.4,12.2-0.3,18.3c-0.2,1.5-0.4,3-0.6,4.5c-0.2,1.5-0.6,3-0.9,4.5c-0.4,1.5-0.7,3-1.2,4.4c-0.4,1.5-1,2.9-1.5,4.3
							c0.5-1.4,1-2.9,1.3-4.4c0.4-1.5,0.7-3,1-4.4c0.3-1.5,0.5-3,0.7-4.5c0.2-1.5,0.3-3,0.4-4.5c0.4-6,0.2-12.1-0.4-18.1
							c-0.3-3-0.7-6-1.2-9l-0.4-2.2l-0.2-1.1l-0.3-1.1l-0.2-1.1l-0.4-1c-0.1-0.3-0.2-0.7-0.4-1l-0.5-0.9c-0.7-1.3-1.6-2.3-2.6-3.4
							c-1.1-0.9-2.2-1.8-3.5-2.5c-1.3-0.7-2.6-1.2-4-1.6c-1.4-0.4-2.8-0.7-4.2-0.8l0.1,0l-14.8,0.3c-0.9,0-1.7-0.7-1.7-1.6
							C198,468.8,198.8,468.1,199.7,468.1C199.7,468.1,199.7,468.1,199.7,468.1z"/>
					</g>
				</g>
			</g>
		</g>
		<g>
			<g>
				<path class="st13" d="M96.9,491.4c-1,23.8-3.4,58.8-9.5,105.4c-0.3,2.5,1.2,4.8,3.5,5.5c15.3,4.5,31.9,6.8,49.3,6.8c0,0,0,0,0,0
					c22.6,0,41.7-3.8,53.8-7c2.5-0.7,4.1-3.1,3.7-5.6c-6.1-47-8.6-82.2-9.5-105.9C188.3,490.6,127.4,496.2,96.9,491.4z"/>
				<g>
					<path class="st0" d="M89.8,490.6c0,0,35,6.3,105.1,0"/>
					<g>
						<g>
							<circle class="st14" cx="131" cy="506" r="4"/>
							<circle class="st14" cx="126.7" cy="519.4" r="3"/>
							<circle class="st14" cx="133.9" cy="542.5" r="1.3"/>
						</g>
						<g>
							<g>
								<path class="st9" d="M114.1,468.7c0,0-0.2,2-0.5,5.5c-0.2,1.7-0.4,3.9-0.6,6.3c-0.3,2.4-0.6,5.2-0.9,8.2
									c-0.6,6-1.4,13-2.4,20.5c-0.5,3.7-1,7.6-1.5,11.5c-0.5,3.9-1.1,7.9-1.6,11.9c-0.6,4-1.1,8-1.8,11.9
									c-0.6,3.9-1.2,7.8-1.8,11.5c-0.6,3.7-1.2,7.3-1.8,10.7c-0.6,3.4-1.2,6.6-1.7,9.6c-1.1,5.9-2.1,10.8-2.9,14.3
									c-0.7,3.4-1.2,5.4-1.2,5.4s0.3-2,0.7-5.5c0.4-3.5,1-8.5,1.6-14.4c0.3-3,0.6-6.2,0.9-9.7c0.3-3.4,0.6-7,0.9-10.8
									c0.3-3.7,0.6-7.6,0.8-11.5c0.3-3.9,0.5-7.9,0.7-11.9c0.2-4,0.4-8,0.6-11.9c0.2-3.9,0.3-7.8,0.5-11.6
									c0.3-7.5,0.5-14.5,0.6-20.5c0.1-3,0.1-5.7,0.2-8.2c0-2.4,0.1-4.6,0.1-6.3c0-3.5,0.1-5.5,0.1-5.5c0-3.1,2.5-5.5,5.6-5.5
									c3.1,0,5.5,2.5,5.5,5.6C114.1,468.4,114.1,468.5,114.1,468.7z"/>
							</g>
							<g>
								<g>
									<path class="st8" d="M185.8,493.6c0,0,0,1.2,0.1,3.4c0,2.1,0.1,5.2,0.3,8.9c0.3,7.4,0.8,17.3,1.6,27.1
										c0.7,9.9,1.7,19.7,2.4,27.1c0.4,3.7,0.7,6.8,0.9,8.9c0.2,2.1,0.4,3.4,0.4,3.4s-0.2-1.2-0.5-3.4c-0.3-2.1-0.8-5.2-1.3-8.9
										c-1.1-7.3-2.4-17.1-3.6-27c-1.2-9.8-2.1-19.7-2.7-27.1c-0.3-3.7-0.5-6.8-0.7-9c-0.1-2.2-0.2-3.4-0.2-3.4L185.8,493.6z"/>
								</g>
								<g>
									<path class="st8" d="M178,493.6c0,0,0,3.1,0.2,7.9c0.1,4.7,0.4,11,0.8,17.3c0.7,12.6,1.9,25.1,1.9,25.1s-2-12.4-3.5-25
										c-0.8-6.3-1.5-12.5-1.9-17.2c-0.5-4.7-0.7-7.9-0.7-7.9L178,493.6z"/>
								</g>
							</g>
						</g>
					</g>
				</g>
			</g>
			<g>
				<path class="st2" d="M123.5,409.9c0,0-36.4-3.8-36.4,35.2c0,39.1,56.5,32,67.8,17c0,0-5,33.3,24.3,33.3s16.6-45.6,16.6-45.6
					s9.8-15.7-5.6-21.6c0,0,4.4-21.8-20.7-18.5C169.4,409.8,149.5,386.2,123.5,409.9z"/>
				<g>
					<path class="st2" d="M188.9,485.5c-1.3,1.8-3.8,4.1-9.7,4.1c-6.2,0-10.7-1.7-13.8-5.3"/>
					<path class="st2" d="M174.3,415.4c4,0,6.8,0.9,8.3,2.8c2.3,2.8,1.9,7.7,1.7,8.9c-0.6,2.8,1,5.7,3.7,6.7
						c3.8,1.5,4.4,3.3,4.6,3.9c1.1,3.1-1.1,7.8-1.9,9.1"/>
					<path class="st2" d="M147,405.3c10.5,0,17.8,8.3,17.8,8.3"/>
					<path class="st2" d="M93,445.1c0-25.6,17.5-29.4,27.9-29.4"/>
				</g>
			</g>
		</g>
	</g>
</g>
<g id="Background">
	<text transform="matrix(1 0 0 1 2.8961 350.4143)"><tspan x="0" y="0" class="st18 st19 st20">V</tspan><tspan x="11.1" y="0" class="st18 st19 st20">ol.</tspan><tspan x="30.5" y="0" class="st18 st19 st20"> </tspan><tspan x="34.9" y="0" class="st18 st19 st20">Alc. </tspan><tspan x="71.2" y="0" class="st18 st19 st20">4</tspan><tspan x="82.3" y="0" class="st18 st19 st20">,</tspan><tspan x="85.9" y="0" class="st18 st19 st20">9% </tspan></text>
	<text transform="matrix(1 0 0 1 10.6288 318.1118)"><tspan x="0" y="0" class="st21 st22 st23">W</tspan><tspan x="24.6" y="0" class="st21 st22 st23">eisse</tspan></text>
	<text transform="matrix(1 0 0 1 276.2241 693.3304)"><tspan x="0" y="0" class="st18 st19 st20">V</tspan><tspan x="11.1" y="0" class="st18 st19 st20">ol.</tspan><tspan x="30.5" y="0" class="st18 st19 st20"> </tspan><tspan x="34.9" y="0" class="st18 st19 st20">Alc.  5,6%</tspan></text>
	<text transform="matrix(1 0 0 1 448.4506 693.3297)"><tspan x="0" y="0" class="st18 st19 st20">V</tspan><tspan x="11.1" y="0" class="st18 st19 st20">ol.</tspan><tspan x="30.5" y="0" class="st18 st19 st20"> </tspan><tspan x="34.9" y="0" class="st18 st19 st20">Alc. 6</tspan><tspan x="82.2" y="0" class="st18 st19 st20">,</tspan><tspan x="85.9" y="0" class="st18 st19 st20">9%</tspan></text>
	<text transform="matrix(1 0 0 1 804.1467 693.3305)"><tspan x="0" y="0" class="st18 st19 st20">V</tspan><tspan x="11.1" y="0" class="st18 st19 st20">ol.</tspan><tspan x="30.5" y="0" class="st18 st19 st20"> </tspan><tspan x="34.9" y="0" class="st18 st19 st20">Alc. </tspan><tspan x="71.2" y="0" class="st18 st19 st20 st24">9</tspan><tspan x="80.8" y="0" class="st18 st19 st20 st24">,</tspan><tspan x="84.1" y="0" class="st18 st19 st20">1%</tspan></text>
	<text transform="matrix(1 0 0 1 618.3804 693.3303)"><tspan x="0" y="0" class="st18 st19 st20">V</tspan><tspan x="11.1" y="0" class="st18 st19 st20">ol.</tspan><tspan x="30.5" y="0" class="st18 st19 st20"> </tspan><tspan x="34.9" y="0" class="st18 st19 st20">Alc. 6</tspan><tspan x="82.2" y="0" class="st18 st19 st20 st24">,</tspan><tspan x="85.5" y="0" class="st18 st19 st20">1%</tspan></text>
	<text transform="matrix(1 0 0 1 82.2278 693.3303)"><tspan x="0" y="0" class="st18 st19 st20">V</tspan><tspan x="11.1" y="0" class="st18 st19 st20">ol.</tspan><tspan x="30.5" y="0" class="st18 st19 st20"> </tspan><tspan x="34.9" y="0" class="st18 st19 st20">Alc. 5</tspan><tspan x="82" y="0" class="st18 st19 st20">,</tspan><tspan x="86.3" y="0" class="st18 st19 st20">0%</tspan></text>
	<text transform="matrix(1 0 0 1 73.5775 658.3163)"><tspan x="0" y="0" class="st21 st22 st23">Irish </tspan><tspan x="71.8" y="0" class="st21 st22 st23">R</tspan><tspan x="92.4" y="0" class="st21 st22 st23">ed</tspan></text>
	<text transform="matrix(1 0 0 1 741.4214 658.3165)"><tspan x="0" y="0" class="st21 st22 st23">Dar</tspan><tspan x="51.6" y="0" class="st21 st22 st23">k</tspan><tspan x="67.6" y="0" class="st21 st22 st23"> St</tspan><tspan x="108" y="0" class="st21 st22 st23">r</tspan><tspan x="119.9" y="0" class="st21 st22 st23">ong</tspan><tspan x="176.9" y="0" class="st21 st22 st23"> </tspan><tspan x="183.9" y="0" class="st21 st22 st23">Ale</tspan></text>
	<text transform="matrix(1 0 0 1 242.0363 658.3163)"><tspan x="0" y="0" class="st21 st22 st23">Pumpkin</tspan><tspan x="130.7" y="0" class="st21 st22 st23"> </tspan><tspan x="137.7" y="0" class="st21 st22 st23">Ale</tspan></text>
	<text transform="matrix(1 0 0 1 451.4095 658.3157)" class="st21 st22 st23">Dubbel</text>
	<text transform="matrix(1 0 0 1 630.4692 658.3163)" class="st21 st22 st23">Stout</text>
	<text transform="matrix(1 0 0 1 175.5378 350.4143)"><tspan x="0" y="0" class="st18 st19 st20">V</tspan><tspan x="11.1" y="0" class="st18 st19 st20">ol.</tspan><tspan x="30.5" y="0" class="st18 st19 st20"> </tspan><tspan x="34.9" y="0" class="st18 st19 st20">Alc. 5</tspan><tspan x="82" y="0" class="st18 st19 st20">,</tspan><tspan x="86.3" y="0" class="st18 st19 st20">0%</tspan></text>
	<text transform="matrix(1 0 0 1 873.302 350.4145)"><tspan x="0" y="0" class="st18 st19 st20">V</tspan><tspan x="11.1" y="0" class="st18 st19 st20">ol.</tspan><tspan x="30.5" y="0" class="st18 st19 st20"> </tspan><tspan x="34.9" y="0" class="st18 st19 st20">Alc. 5,6%</tspan></text>
	<text transform="matrix(1 0 0 1 689.8442 350.4145)"><tspan x="0" y="0" class="st18 st19 st20">V</tspan><tspan x="11.1" y="0" class="st18 st19 st20">ol.</tspan><tspan x="30.5" y="0" class="st18 st19 st20"> </tspan><tspan x="34.9" y="0" class="st18 st19 st20">Alc. 5</tspan><tspan x="82" y="0" class="st18 st19 st20">,</tspan><tspan x="86.3" y="0" class="st18 st19 st20">0%</tspan></text>
	<text transform="matrix(1 0 0 1 359.0665 350.4147)"><tspan x="0" y="0" class="st18 st19 st20">V</tspan><tspan x="11.1" y="0" class="st18 st19 st20">ol.</tspan><tspan x="30.5" y="0" class="st18 st19 st20"> </tspan><tspan x="34.9" y="0" class="st18 st19 st20">Alc. 5</tspan><tspan x="82" y="0" class="st18 st19 st20">,</tspan><tspan x="86.3" y="0" class="st18 st19 st20">0%</tspan></text>
	<text transform="matrix(1 0 0 1 550.37 318.1121)"><tspan x="0" y="0" class="st21 st22 st23">I</tspan><tspan x="8.5" y="0" class="st21 st22 st23 st24">P</tspan><tspan x="27.7" y="0" class="st21 st22 st23">A</tspan><tspan x="48.6" y="0" class="st21 st22 st23"> </tspan></text>
	<text transform="matrix(1 0 0 1 714.5377 318.1118)"><tspan x="0" y="0" class="st21 st22 st23">A</tspan><tspan x="21.8" y="0" class="st21 st22 st23 st24">P</tspan><tspan x="40.9" y="0" class="st21 st22 st23">A</tspan></text>
	<text transform="matrix(1 0 0 1 385.1677 318.1121)"><tspan x="0" y="0" class="st21 st22 st23">E</tspan><tspan x="18.9" y="0" class="st21 st22 st23 st24">P</tspan><tspan x="38.1" y="0" class="st21 st22 st23">A</tspan></text>
	<text transform="matrix(1 0 0 1 839.623 318.1121)"><tspan x="0" y="0" class="st21 st22 st23">Sc</tspan><tspan x="37.5" y="0" class="st21 st22 st23">o</tspan><tspan x="55.8" y="0" class="st21 st22 st23">ttish</tspan><tspan x="124.8" y="0" class="st21 st22 st23"> </tspan><tspan x="131.7" y="0" class="st21 st22 st23">Ale</tspan></text>
	<text transform="matrix(1 0 0 1 152.4717 318.1117)"><tspan x="0" y="0" class="st21 st22 st23">Blonde</tspan><tspan x="103.9" y="0" class="st21 st22 st23"> </tspan><tspan x="110.9" y="0" class="st21 st22 st23">Ale</tspan></text>
	<g>
		<path class="st3" d="M299.8,605.6l-11.2-129.7c-0.2-1.8,1.3-3.3,3.1-3.2c41.9,1.6,69,0.6,78,0.1c1.8-0.1,3.2,1.4,3,3.2
			l-11.2,129.6c-0.2,2.2-1.7,4-3.8,4.5c-8.6,2.2-31.4,6.7-54.2,0.1C301.4,609.5,300,607.7,299.8,605.6z"/>
		<g>
			<g>
				<path class="st4" d="M337,469.7c8.5,12.7,23.2,10.7,30.6,7.7c7.4-2.9,15.5-20.6-0.7-30.2c-16.2-9.6-34.8,1.5-34.8,1.5
					c-20.6-9.2-28,6.6-28,6.6c-21.4-1.1-14.1,17.8-14.1,17.8l45.6,0.4"/>
				<g>
					<path class="st5" d="M352.9,449.8c0,0,18.8,0.4,16.4,14.9c0,0-0.9,5.3-6.4,6.6"/>
					<path class="st5" d="M302.3,462.6c0,0-2.5-0.9-5.3,2.2c-2.8,3.1-0.5,6.6-0.5,6.6"/>
				</g>
			</g>
			<g>
				<path class="st6" d="M296.8,506.6l7.9,91.3c0.4,4.3,3.6,7.9,7.9,8.6c5.3,1,10.8,1.5,16.6,1.5c7.5,0,14.2-0.8,19.4-1.7
					c4.3-0.8,7.6-4.3,8-8.7l7.9-91.1C333,509.4,308.6,507.8,296.8,506.6z"/>
				<g>
					<path class="st0" d="M291.2,506.5c0,0,40.9,3.8,78.9,0"/>
					<g>
						<g>
							<g>
								<line class="st7" x1="364.5" y1="478.2" x2="356.5" y2="571.3"/>
								<polygon class="st8" points="366.2,478.4 356.5,571.3 362.8,478.1 								"/>
							</g>
							<g>
								<line class="st7" x1="358.2" y1="479.6" x2="352.9" y2="547.5"/>
								<polygon class="st8" points="359.9,479.8 352.9,547.5 356.6,479.5 								"/>
							</g>
						</g>
						<g>
							<path class="st9" d="M310.2,485l-1.9,78.2l-9.1-77.7c-0.4-3,1.8-5.8,4.9-6.2c3-0.4,5.8,1.8,6.2,4.9
								C310.2,484.5,310.2,484.8,310.2,485z"/>
						</g>
					</g>
				</g>
			</g>
		</g>
	</g>
	<text transform="matrix(1 0 0 1 522.5571 350.4146)"><tspan x="0" y="0" class="st18 st19 st20">V</tspan><tspan x="11.1" y="0" class="st18 st19 st20">ol.</tspan><tspan x="30.5" y="0" class="st18 st19 st20"> </tspan><tspan x="34.9" y="0" class="st18 st19 st20">Alc. 5</tspan><tspan x="82" y="0" class="st18 st19 st20">,</tspan><tspan x="86.3" y="0" class="st18 st19 st20">0%</tspan></text>
</g>
<g id="Texture">
</g>
<g id="Designed_by_Freepik">
</g>
</svg>
