<?xml version="1.0" encoding="UTF-8" standalone="no"?>
<svg width="1107px" height="716px" viewBox="0 0 1107 716" version="1.1" xmlns="http://www.w3.org/2000/svg" xmlns:xlink="http://www.w3.org/1999/xlink">
    <!-- Generator: Sketch 39.1 (31720) - http://www.bohemiancoding.com/sketch -->
    <title>beers</title>
    <desc>Created with Sketch.</desc>
    <defs></defs>
    <g id="Page-1" stroke="none" stroke-width="1" fill="none" fill-rule="evenodd">
        <g id="beers" transform="translate(-3.000000, 0.000000)">
            <g id="objects">
                <g id="Group-Copy-2" transform="translate(754.000000, 0.000000)">
                    <path d="M65.6,12.8 C62.2,12 59.5,13.4 57.2,15.4 C54.1,13.4 50.7,12 47.1,12.8 C42.8,13.7 40.3,16.3 37.7,19.1 C33.1,15.3 30.3,10.5 23,9.9 C16.2,9.4 6.2,10.7 2.6,17.7 C-0.6,24.1 -0.1,31.6 3.6,37.8 C6.7,43.1 10,44.6 14.4,45.3 C11.7,60 32.7,73.5 42.1,54 C43,52 43.5,49.9 43.9,47.7 C44.1,46.6 44.1,45.5 43.9,44.4 L43.9,43.4 C48.3,41.7 52.8,41.2 56.2,37.3 C58,35.3 58.5,34.5 59.5,32 C60.3,30 61.2,31.3 63.6,30.6 C67.9,29.4 70.9,27.9 72.5,23.8 C73,22.8 73.3,21.6 73.4,20.3 C73.7,16 68.9,13.6 65.6,12.8 L65.6,12.8 Z" id="Shape" fill="#FFFAF2"></path>
                    <path d="M56.6,64.3 C59.9,63.4 61.7,60.9 62.7,57.9 C66.3,58.2 70.1,57.7 72.8,55.3 C76.1,52.4 77.1,49 78,45.2 C83.9,46.3 88.6,49.2 95.3,46.1 C101.5,43.3 109.6,37.3 109.4,29.5 C109.2,22.4 105.1,16.1 98.9,12.4 C93.6,9.3 90,9.6 85.8,11.1 C81.1,-3.1 56.2,-4.8 57.3,16.9 C57.4,19.1 58.1,21.2 58.7,23.3 C59.1,24.3 59.6,25.3 60.3,26.2 C60.5,26.5 60.7,26.8 60.8,27.1 C57.8,30.7 54.1,33.3 53,38.4 C52.4,41 52.3,42 52.7,44.6 C53,46.7 51.6,46 49.8,47.8 C46.6,50.9 44.7,53.6 45.3,58 C45.4,59.1 45.6,60.3 46.2,61.5 C47.9,65.3 53.3,65.1 56.6,64.3 L56.6,64.3 Z" id="Shape" fill="#FFFAF2"></path>
                    <ellipse id="Oval" fill="#333333" opacity="0.05" cx="55.2" cy="247.2" rx="53.9" ry="10.9"></ellipse>
                    <g id="Group" transform="translate(1.000000, 26.000000)">
                        <path d="M108,7.5 C83.1,-1.3 25.3,-1.3 0.4,7.5 C0.4,7.5 -1.2,56.1 5.6,74.9 C12.4,93.8 20.4,136.7 18.4,172 C16.4,207.3 4,219 23.6,224.2 C43.3,229.4 64.9,229.4 84.6,224.2 C104.3,219 91.8,207.3 89.8,172 C87.8,136.7 95.8,93.7 102.6,74.9 C109.6,56.1 108,7.5 108,7.5 L108,7.5 Z" id="Shape" fill="#F0F9FF"></path>
                        <path d="M21.5,172.2 C20.9,182.8 19.4,191.3 18,198.2 C18,198.2 19.9,207.3 54.2,207.3 C88.5,207.3 90.4,198.2 90.4,198.2 C89.1,191.3 87.5,182.9 86.9,172.2 C84.8,135.5 93.4,91.8 99.9,73.9 C105.7,58 105.2,19.1 105,9.7 C93.4,6.1 74.7,3.9 54.2,3.9 C33.7,3.9 15,6.1 3.4,9.7 C3.2,19.1 2.7,58 8.5,73.9 C15,91.8 23.6,135.5 21.5,172.2 L21.5,172.2 Z" id="Shape" fill="#F4BE14"></path>
                        <path d="M104.4,44.6 C105.3,29.9 105.1,15 105,9.7 C93.4,6.1 74.7,3.9 54.2,3.9 C33.7,3.9 15,6.1 3.4,9.7 C3.3,15.1 3.1,29.9 4,44.6 C4,44.6 11.9,39.2 54.2,39.2 C96.5,39.2 104.4,44.6 104.4,44.6 L104.4,44.6 Z" id="Shape" fill="#FFF6E6"></path>
                        <path d="M105,9.7 C103,9.1 100.8,8.5 98.4,8 C99.6,24.6 97.1,41.8 93.6,57.8 C91.1,69.2 87.8,80.5 85.5,92 C83.1,104.2 79.7,116.2 77.6,128.5 C76.3,142.3 77.4,156.1 77.5,169.9 C77.5,187.1 63.1,201.5 45.9,201.5 C35.2,201.5 25.6,195.9 19.9,187.6 C19.3,191.5 18.6,195.1 18,198.3 C18,198.3 19.9,207.4 54.2,207.4 C88.5,207.4 90.4,198.3 90.4,198.3 C89.1,191.4 87.5,183 86.9,172.3 C84.8,135.6 93.4,91.9 99.9,74 C105.7,58 105.2,19.1 105,9.7 L105,9.7 Z" id="Shape" fill="#E07227" opacity="0.3"></path>
                        <path d="M108,7.5 C107.2,7.2 106.3,6.9 105.4,6.7 C104,25.4 100.4,43.9 95.9,62 C91.5,79.7 85.7,97.3 82.6,115.3 C81.4,128.5 81.8,141.8 83.2,155 C83.7,157.9 84.1,160.8 84.7,163.7 C86.8,171.4 86.8,179.1 84.7,186.7 C83.2,190.1 81.8,193.6 80.3,197 C74.6,206.7 65.2,213.9 54.4,216.9 C43.2,220 31,218.4 21,212.5 C18.4,211 15.7,209 13.3,206.7 C11.8,216.4 12.8,221.2 23.7,224.1 C43.4,229.3 65,229.3 84.7,224.1 C104.4,218.9 91.9,207.2 89.9,171.9 C87.9,136.6 95.9,93.6 102.7,74.8 C109.6,56.1 108,7.5 108,7.5 L108,7.5 Z" id="Shape" fill="#F2F2F2"></path>
                        <path d="M23.4,92.9 C28.5,109.9 31.3,127.8 32.5,145.5 C33.2,155.1 32.9,167.5 32.9,174.2 C32.9,180.9 40.9,185 41.8,185 C41.8,183.7 41.9,171.9 41.9,170.6 C42.2,158.3 42.2,146 41.8,133.7 C41.5,123.4 41.2,113 40.1,102.8 C38.4,93.3 35.4,84.2 33,74.8 C29.8,61.9 28.2,48.9 29.3,35.6 C30.2,24.2 31.5,12.9 32.9,1.5 C25.6,2.1 18.6,3 12.5,4.2 L12.5,27.4 C12.5,37.1 12.2,46.8 13.1,56.5 C15.3,69.1 19.7,80.8 23.4,92.9 L23.4,92.9 Z" id="Shape" fill="#F0F9FF" opacity="0.2"></path>
                    </g>
                </g>
                <g id="Group" transform="translate(307.000000, 393.000000)">
                    <path d="M22.4,44.7 C25.4,45.6 27.9,44.5 30.1,42.7 C32.8,44.6 35.8,46 39.1,45.5 C43,44.9 45.4,42.7 47.8,40.2 C51.8,43.8 54.1,48.2 60.6,49.1 C66.7,49.9 75.7,49.1 79.2,43 C82.4,37.4 82.2,30.7 79.2,24.9 C76.6,20 73.7,18.5 69.8,17.7 C72.9,4.6 54.6,-8.4 45.2,8.7 C44.3,10.4 43.8,12.4 43.3,14.2 C43.1,15.2 43.1,16.2 43.2,17.2 L43.2,18.1 C39.2,19.4 35.1,19.7 31.9,23.1 C30.2,24.8 29.7,25.5 28.7,27.7 C27.9,29.5 27.2,28.3 24.9,28.8 C21,29.7 18.3,30.9 16.6,34.5 C16.1,35.4 15.8,36.4 15.6,37.6 C15.2,41.4 19.5,43.9 22.4,44.7 L22.4,44.7 Z" id="Shape" fill="#FFFAF2"></path>
                    <path d="M100.8,73.5 C103,71.3 103.2,68.5 102.6,65.8 C105.5,64.3 108.2,62.3 109.2,59.1 C110.5,55.3 109.6,52.2 108.6,48.9 C113.7,47.1 118.6,47.1 122.4,41.7 C125.9,36.7 129.5,28.3 125.6,22.3 C122.1,16.9 116.1,13.9 109.6,13.9 C104.1,13.9 101.4,15.8 98.9,18.9 C88.7,10.1 68.7,20.2 79.5,36.5 C80.6,38.1 82.1,39.5 83.5,40.8 C84.3,41.4 85.1,41.9 86.1,42.3 C86.4,42.5 86.7,42.6 86.9,42.7 C86.2,46.9 84.6,50.6 86,55 C86.7,57.3 87.1,58.1 88.6,60 C89.8,61.5 88.4,61.6 87.8,63.9 C86.8,67.8 86.6,70.8 89,73.9 C89.6,74.7 90.3,75.5 91.3,76.2 C94.5,78.3 98.7,75.6 100.8,73.5 L100.8,73.5 Z" id="Shape" fill="#FFFAF2"></path>
                    <ellipse id="Oval" fill="#333333" opacity="0.05" cx="69" cy="231.8" rx="53.9" ry="10.9"></ellipse>
                    <g transform="translate(15.000000, 38.000000)" id="Shape">
                        <path d="M108.8,0.8 L54.6,0.8 L0.4,0.8 C-1.2,36.5 12.8,187.8 15.7,193.8 C18.5,199.8 54.6,199.8 54.6,199.8 C54.6,199.8 90.7,199.8 93.5,193.8 C96.4,187.8 110.4,36.5 108.8,0.8 L108.8,0.8 Z" fill="#F0F9FF"></path>
                        <path d="M23.2,185.4 L86,185.4 C87.8,172.3 96.8,143.3 99.9,107.2 C104,58.8 106.2,20.7 105.9,3.8 L3.4,3.8 C3.1,20.7 5.3,58.7 9.4,107.2 C12.4,143.3 21.4,172.4 23.2,185.4 L23.2,185.4 Z" fill="#7A0404"></path>
                        <path d="M105,36.5 C105.7,22.3 106.1,11.1 105.9,3.8 L3.4,3.8 C3.3,11.1 3.6,22.2 4.3,36.5 L105,36.5 L105,36.5 Z" fill="#FFF6E6"></path>
                        <path d="M105.9,3.8 L91.4,3.8 L91.4,131 C91.4,155.1 71.3,175.2 47.2,175.2 C36.5,175.2 26.7,171.3 19,164.8 C21,173.6 22.6,180.6 23.3,185.5 L86,185.5 C87.8,172.4 96.8,143.4 99.9,107.3 C104,58.8 106.2,20.7 105.9,3.8 L105.9,3.8 Z" fill="#7A0404" opacity="0.3"></path>
                        <path d="M54.6,178 L44.4,0.8 L10.1,0.8 C10.1,0.8 13.7,96.1 19.1,137 C24.5,178 54.6,178 54.6,178 L54.6,178 Z" fill="#F0F9FF" opacity="0.2"></path>
                        <path d="M104.4,0.8 L100,0.8 C102.4,18.1 88,153.9 80.2,171.4 C75.7,181.5 65,188.8 55,191.7 C44.1,194.8 32.3,193.2 22.5,187.2 C19.1,185.1 16,182.5 13.3,179.6 C14.2,187.7 15,192.8 15.5,193.8 C18.2,199.8 52.6,199.8 52.6,199.8 C52.6,199.8 87,199.8 89.7,193.8 C92.5,187.8 105.9,36.5 104.4,0.8 L104.4,0.8 Z" fill="#F2F2F2"></path>
                    </g>
                    <g transform="translate(0.672900, 292.069500)"></g>
                </g>
                <g id="Group" transform="translate(939.000000, 15.000000)">
                    <path d="M116.1,14.1 C110.5,13 105.7,14 102,16.3 C101,14 99,12.1 95.8,11.3 C89.7,9.8 85.5,13.7 84.4,18.4 C65.3,21.9 60.4,53.7 83.3,59.4 C89.7,61 95.2,59.8 99.3,56.9 C100.2,59.7 102.5,62.1 106.3,62.9 C112.4,64.1 116.4,59.9 117.3,55.1 C136.2,50.5 139.3,18.5 116.1,14.1 L116.1,14.1 Z" id="Shape" fill="#FFFAF2"></path>
                    <ellipse id="Oval" fill="#333333" opacity="0.05" cx="79" cy="223.1" rx="78.8" ry="16.9"></ellipse>
                    <g transform="translate(9.000000, 38.000000)" id="Shape">
                        <path d="M143.3,28.7 C137.2,25.9 130.2,24.4 123.6,23.6 L123.6,40.2 C129.7,40.3 135.2,41 136.4,43 C139.3,48.2 148.7,115.5 140.1,122.1 C135.4,125.7 130.3,129.5 123.7,131.8 C123.7,131.8 124.4,148.9 125.1,148.7 C136,145.3 159,138.7 159,117.8 C159,97 161.9,37.3 143.3,28.7 L143.3,28.7 Z" fill="#F0F9FF"></path>
                        <path d="M130.8,36.3 C130.8,32.4 131.4,28.7 132.5,25.2 C129.5,24.5 126.6,24 123.6,23.7 L123.6,40.3 C126.3,40.3 128.9,40.5 131.1,40.8 C130.9,39.3 130.8,37.8 130.8,36.3 L130.8,36.3 Z" fill="#F0F9FF"></path>
                        <path d="M132.6,127.5 C129.9,129.2 127,130.7 123.7,131.8 C123.7,131.8 124.4,148.9 125.1,148.7 C128.9,147.5 134.3,145.9 139.6,143.4 C136.2,138.8 133.7,133.4 132.6,127.5 L132.6,127.5 Z" fill="#F0F9FF"></path>
                        <path d="M123.6,116.8 L123.6,7.3 C123.6,7.3 126.3,7.1 126.3,3.9 C126.3,0.7 123.5,0.4 121.7,0.4 L65.8,0.4 L9.9,0.4 C8.1,0.4 5.3,0.6 5.3,3.9 C5.3,7.1 8,7.3 8,7.3 L8,116.8 C8,179.4 -3.6,169.4 2.8,183 C9.2,196.6 65.8,195 65.8,195 C65.8,195 122.4,196.6 128.8,183 C135.3,169.3 123.6,179.4 123.6,116.8 L123.6,116.8 Z" fill="#F0F9FF"></path>
                        <path d="M120.6,7.3 L120.5,6.8 L11.1,6.8 L11.1,116.8 C11.1,138.2 9.8,151.2 8.2,159.6 C8.2,159.6 8.6,174.8 65.9,174.8 C123.2,174.8 123.6,159.6 123.6,159.6 C122.1,151.2 120.7,138.1 120.7,116.8 L120.7,7.3 L120.6,7.3 Z" fill-opacity="0.739583333" fill="#F6A623"></path>
                        <polygon fill="#FFF6E6" points="120.6 33.3 120.6 7.3 120.6 6.8 11.1 6.8 11.1 33.3"></polygon>
                        <path d="M120.6,116.8 L120.6,7.3 L120.5,6.8 L109.7,6.8 C109.7,11.6 109.8,16.4 109.8,21.2 C109.9,33.9 110,46.6 109.9,59.3 C109.8,67.8 114.3,124.9 107,137.3 C99.5,150.1 87.2,159.6 72.9,163.5 C58.2,167.6 42.1,165.5 28.9,157.7 C21.3,153.2 15.1,147.4 10.3,140.2 C9.8,148.5 9,154.8 8.1,159.5 C8.1,159.5 8.5,174.7 65.8,174.7 C123.1,174.7 123.5,159.5 123.5,159.5 C122,151.1 120.6,138.1 120.6,116.8 L120.6,116.8 Z" fill="#2E2516" opacity="0.3"></path>
                        <path d="M123.6,116.8 L123.6,7.3 C123.6,7.3 126.3,7.1 126.3,3.9 C126.3,0.7 123.5,0.4 121.7,0.4 L117.1,0.4 C116.2,4.5 115.4,8.7 114.7,12.9 C113.3,25.7 112.7,38.6 112.6,51.5 C112.5,60.5 112.6,69.6 112.7,78.6 C112.8,86.1 112.4,93.7 113,101.2 C113.8,111.9 116,122.5 115.6,133.3 C115.2,143.4 113.6,156.5 107.5,165.1 C105.3,168.2 102.9,172.2 99.7,174.8 C90.7,181.9 91.4,181.6 80.7,185.9 C75.5,188 69.5,188.5 63.9,188.4 C54.5,188.2 45,186.3 36,183.5 C30.8,181.9 25.6,179.9 20.3,178.8 C13.9,177.5 7.7,173.6 2.9,168.6 C0.8,175.4 -0.4,176.4 2.8,183.1 C9.2,196.7 65.8,195.1 65.8,195.1 C65.8,195.1 122.4,196.7 128.8,183.1 C135.3,169.3 123.6,179.4 123.6,116.8 L123.6,116.8 Z" fill="#F2F2F2"></path>
                        <path d="M30.2,143.4 C31.9,145.3 33.8,147.1 35.7,148.9 C37.5,150 39.3,151.1 41.1,152.1 C43,152.7 44.9,153.3 46.9,153.8 L46.9,0.4 L22.2,0.4 L22.2,129.4 C24.6,134.2 27.3,138.9 30.2,143.4 L30.2,143.4 Z" fill="#F0F9FF" opacity="0.2"></path>
                    </g>
                    <g transform="translate(13.122100, 298.585300)"></g>
                    <path d="M54.2,0.6 C15.1,0.6 9.7,52.6 37.8,67.3 C37.4,75.7 42.7,84.4 53.5,84.4 C64,84.4 69.3,76.2 69.2,68.1 C99,54.4 94,0.6 54.2,0.6 L54.2,0.6 Z" id="Shape" fill="#FFFAF2"></path>
                    <path d="M52.5,107.2 C42,107.2 42,123.5 52.5,123.5 C62.9,123.4 62.9,107.2 52.5,107.2 L52.5,107.2 Z" id="Shape" fill="#FFFAF2"></path>
                </g>
                <g id="Group-Copy" transform="translate(897.000000, 393.000000)">
                    <path d="M116.1,14.1 C110.5,13 105.7,14 102,16.3 C101,14 99,12.1 95.8,11.3 C89.7,9.8 85.5,13.7 84.4,18.4 C65.3,21.9 60.4,53.7 83.3,59.4 C89.7,61 95.2,59.8 99.3,56.9 C100.2,59.7 102.5,62.1 106.3,62.9 C112.4,64.1 116.4,59.9 117.3,55.1 C136.2,50.5 139.3,18.5 116.1,14.1 L116.1,14.1 Z" id="Shape" fill="#FFFAF2"></path>
                    <ellipse id="Oval" fill="#333333" opacity="0.05" cx="79" cy="223.1" rx="78.8" ry="16.9"></ellipse>
                    <g id="Group" transform="translate(9.000000, 38.000000)">
                        <path d="M143.3,28.7 C137.2,25.9 130.2,24.4 123.6,23.6 L123.6,40.2 C129.7,40.3 135.2,41 136.4,43 C139.3,48.2 148.7,115.5 140.1,122.1 C135.4,125.7 130.3,129.5 123.7,131.8 C123.7,131.8 124.4,148.9 125.1,148.7 C136,145.3 159,138.7 159,117.8 C159,97 161.9,37.3 143.3,28.7 L143.3,28.7 Z" id="Shape" fill="#F0F9FF"></path>
                        <path d="M130.8,36.3 C130.8,32.4 131.4,28.7 132.5,25.2 C129.5,24.5 126.6,24 123.6,23.7 L123.6,40.3 C126.3,40.3 128.9,40.5 131.1,40.8 C130.9,39.3 130.8,37.8 130.8,36.3 L130.8,36.3 Z" id="Shape" fill="#F0F9FF"></path>
                        <path d="M132.6,127.5 C129.9,129.2 127,130.7 123.7,131.8 C123.7,131.8 124.4,148.9 125.1,148.7 C128.9,147.5 134.3,145.9 139.6,143.4 C136.2,138.8 133.7,133.4 132.6,127.5 L132.6,127.5 Z" id="Shape" fill="#F0F9FF"></path>
                        <path d="M123.6,116.8 L123.6,7.3 C123.6,7.3 126.3,7.1 126.3,3.9 C126.3,0.7 123.5,0.4 121.7,0.4 L65.8,0.4 L9.9,0.4 C8.1,0.4 5.3,0.6 5.3,3.9 C5.3,7.1 8,7.3 8,7.3 L8,116.8 C8,179.4 -3.6,169.4 2.8,183 C9.2,196.6 65.8,195 65.8,195 C65.8,195 122.4,196.6 128.8,183 C135.3,169.3 123.6,179.4 123.6,116.8 L123.6,116.8 Z" id="Shape" fill="#F0F9FF"></path>
                        <path d="M120.6,7.3 L120.5,6.8 L11.1,6.8 L11.1,116.8 C11.1,138.2 9.8,151.2 8.2,159.6 C8.2,159.6 8.6,174.8 65.9,174.8 C123.2,174.8 123.6,159.6 123.6,159.6 C122.1,151.2 120.7,138.1 120.7,116.8 L120.7,7.3 L120.6,7.3 Z" id="Shape" fill="#000000"></path>
                        <polygon id="Shape" fill="#FFF6E6" points="120.6 33.3 120.6 7.3 120.6 6.8 11.1 6.8 11.1 33.3"></polygon>
                        <path d="M120.6,116.8 L120.6,7.3 L120.5,6.8 L109.7,6.8 C109.7,11.6 109.8,16.4 109.8,21.2 C109.9,33.9 110,46.6 109.9,59.3 C109.8,67.8 114.3,124.9 107,137.3 C99.5,150.1 87.2,159.6 72.9,163.5 C58.2,167.6 42.1,165.5 28.9,157.7 C21.3,153.2 15.1,147.4 10.3,140.2 C9.8,148.5 9,154.8 8.1,159.5 C8.1,159.5 8.5,174.7 65.8,174.7 C123.1,174.7 123.5,159.5 123.5,159.5 C122,151.1 120.6,138.1 120.6,116.8 L120.6,116.8 Z" id="Shape" fill="#2E2516" opacity="0.3"></path>
                        <path d="M123.6,116.8 L123.6,7.3 C123.6,7.3 126.3,7.1 126.3,3.9 C126.3,0.7 123.5,0.4 121.7,0.4 L117.1,0.4 C116.2,4.5 115.4,8.7 114.7,12.9 C113.3,25.7 112.7,38.6 112.6,51.5 C112.5,60.5 112.6,69.6 112.7,78.6 C112.8,86.1 112.4,93.7 113,101.2 C113.8,111.9 116,122.5 115.6,133.3 C115.2,143.4 113.6,156.5 107.5,165.1 C105.3,168.2 102.9,172.2 99.7,174.8 C90.7,181.9 91.4,181.6 80.7,185.9 C75.5,188 69.5,188.5 63.9,188.4 C54.5,188.2 45,186.3 36,183.5 C30.8,181.9 25.6,179.9 20.3,178.8 C13.9,177.5 7.7,173.6 2.9,168.6 C0.8,175.4 -0.4,176.4 2.8,183.1 C9.2,196.7 65.8,195.1 65.8,195.1 C65.8,195.1 122.4,196.7 128.8,183.1 C135.3,169.3 123.6,179.4 123.6,116.8 L123.6,116.8 Z" id="Shape" fill="#F2F2F2"></path>
                        <path d="M30.2,143.4 C31.9,145.3 33.8,147.1 35.7,148.9 C37.5,150 39.3,151.1 41.1,152.1 C43,152.7 44.9,153.3 46.9,153.8 L46.9,0.4 L22.2,0.4 L22.2,129.4 C24.6,134.2 27.3,138.9 30.2,143.4 L30.2,143.4 Z" id="Shape" fill="#F0F9FF" opacity="0.2"></path>
                    </g>
                    <g id="Group" transform="translate(18.122100, 284.585300)"></g>
                    <path d="M54.2,0.6 C15.1,0.6 9.7,52.6 37.8,67.3 C37.4,75.7 42.7,84.4 53.5,84.4 C64,84.4 69.3,76.2 69.2,68.1 C99,54.4 94,0.6 54.2,0.6 L54.2,0.6 Z" id="Shape" fill="#FFFAF2"></path>
                    <path d="M52.5,107.2 C42,107.2 42,123.5 52.5,123.5 C62.9,123.4 62.9,107.2 52.5,107.2 L52.5,107.2 Z" id="Shape" fill="#FFFAF2"></path>
                </g>
                <g id="Group" transform="translate(515.000000, 386.000000)">
                    <ellipse id="Oval" fill="#333333" opacity="0.05" cx="66.8" cy="241.3" rx="53.9" ry="10.9"></ellipse>
                    <g transform="translate(12.000000, 21.000000)" id="Shape">
                        <path d="M108.6,7.1 C83.7,-1.7 25.9,-1.7 1,7.1 C1,7.1 -0.6,55.7 6.2,74.5 C13,93.4 21,136.3 19,171.6 C17,206.9 4.6,218.6 24.2,223.8 C43.9,229 65.5,229 85.2,223.8 C104.9,218.6 92.4,206.9 90.4,171.6 C88.4,136.3 96.4,93.3 103.2,74.5 C110.2,55.7 108.6,7.1 108.6,7.1 L108.6,7.1 Z" fill="#F0F9FF"></path>
                        <path d="M22.1,171.8 C21.5,182.4 20,190.9 18.6,197.8 C18.6,197.8 20.5,206.9 54.8,206.9 C89.1,206.9 91,197.8 91,197.8 C89.7,190.9 88.1,182.5 87.5,171.8 C85.4,135.1 94,91.4 100.5,73.5 C106.3,57.6 105.8,18.7 105.6,9.3 C94,5.7 75.3,3.5 54.8,3.5 C34.3,3.5 15.6,5.7 4,9.3 C3.8,18.7 3.3,57.6 9.1,73.5 C15.5,91.5 24.1,135.1 22.1,171.8 L22.1,171.8 Z" fill="#F4BE14"></path>
                        <path d="M105,44.2 C105.9,29.5 105.7,14.6 105.6,9.3 C94,5.7 75.3,3.5 54.8,3.5 C34.3,3.5 15.6,5.7 4,9.3 C3.9,14.7 3.7,29.5 4.6,44.2 C4.6,44.2 12.5,38.8 54.8,38.8 C97.1,38.8 105,44.2 105,44.2 L105,44.2 Z" fill="#FFF1D9"></path>
                        <path d="M105.6,9.3 C103.6,8.7 101.4,8.1 99,7.6 C100.2,24.2 97.7,41.4 94.2,57.4 C91.7,68.8 88.4,80.1 86.1,91.6 C83.7,103.8 80.3,115.8 78.2,128.1 C76.9,141.9 78,155.7 78.1,169.5 C78.1,186.7 63.7,201.1 46.5,201.1 C35.8,201.1 26.2,195.5 20.5,187.2 C19.9,191.1 19.2,194.7 18.6,197.9 C18.6,197.9 20.5,207 54.8,207 C89.1,207 91,197.9 91,197.9 C89.7,191 88.1,182.6 87.5,171.9 C85.4,135.2 94,91.5 100.5,73.6 C106.3,57.6 105.8,18.8 105.6,9.3 L105.6,9.3 Z" fill="#F5C71C" opacity="0.3"></path>
                        <path d="M108.6,7.1 C107.8,6.8 106.9,6.5 106,6.3 C104.6,25 101,43.5 96.5,61.6 C92.1,79.3 86.3,96.9 83.2,114.9 C82,128.1 82.4,141.4 83.8,154.6 C84.3,157.5 84.7,160.4 85.3,163.3 C87.4,171 87.4,178.7 85.3,186.3 C83.8,189.7 82.4,193.2 80.9,196.6 C75.2,206.3 65.8,213.5 55,216.5 C43.8,219.6 31.6,218 21.6,212.1 C19,210.6 16.3,208.6 13.9,206.3 C12.4,216 13.4,220.8 24.3,223.7 C44,228.9 65.6,228.9 85.3,223.7 C105,218.5 92.5,206.8 90.5,171.5 C88.5,136.2 96.5,93.2 103.3,74.4 C110.2,55.7 108.6,7.1 108.6,7.1 L108.6,7.1 Z" fill="#F2F2F2"></path>
                        <path d="M24,92.6 C29.1,109.6 31.9,127.5 33.1,145.2 C33.8,154.8 33.5,167.2 33.5,173.9 C33.5,180.6 41.5,184.7 42.4,184.7 C42.4,183.4 42.5,171.6 42.5,170.3 C42.8,158 42.8,145.7 42.4,133.4 C42.1,123.1 41.8,112.7 40.7,102.5 C39,93 36,83.9 33.6,74.5 C30.4,61.6 28.8,48.6 29.9,35.3 C30.8,23.9 32.1,12.6 33.5,1.2 C26.2,1.8 19.2,2.7 13.1,3.9 L13.1,27.1 C13.1,36.8 12.8,46.5 13.7,56.2 C15.9,68.7 20.3,80.4 24,92.6 L24,92.6 Z" fill="#F0F9FF" opacity="0.2"></path>
                    </g>
                    <g transform="translate(0.000500, 267.069500)"></g>
                    <path d="M99.9,5.8 C83.8,-1.1 64.7,-7.81597009e-14 47.7,2.8 C33.6,5.1 15.8,12.2 12.1,27.1 C9.1,39.6 13.2,60.2 21.9,70.1 C33.1,82.9 49.7,82.5 63.9,74.7 C70.4,71.1 75.1,64.9 79.1,59 C82.9,53.5 86.8,41.1 94.4,40.4 C103.6,39.6 119.5,38.5 121.5,27.3 C121.6,26.8 121.6,26.4 121.6,26 C119.9,13.5 107.9,9.3 99.9,5.8 L99.9,5.8 Z" id="Shape" fill="#FFFAF2"></path>
                </g>
                <g id="Group" transform="translate(58.000000, 417.000000)">
                    <ellipse id="Oval" fill="#333333" opacity="0.05" cx="79.3" cy="204.3" rx="78.8" ry="16.9"></ellipse>
                    <g transform="translate(13.000000, 20.000000)" id="Shape">
                        <path d="M142.4,28.4 C136.3,25.6 129.3,24.1 122.7,23.3 L122.7,39.9 C128.8,40 134.3,40.7 135.5,42.7 C138.4,47.9 147.8,115.2 139.2,121.8 C134.5,125.4 129.4,129.2 122.8,131.5 C122.8,131.5 123.5,148.6 124.2,148.4 C135.1,145 158.1,138.4 158.1,117.5 C158.2,96.6 161.1,37 142.4,28.4 L142.4,28.4 Z" fill="#F0F9FF"></path>
                        <path d="M129.9,35.9 C129.9,32 130.5,28.3 131.6,24.8 C128.6,24.1 125.7,23.6 122.7,23.3 L122.7,39.9 C125.4,39.9 128,40.1 130.2,40.4 C130,38.9 129.9,37.4 129.9,35.9 L129.9,35.9 Z" fill="#F0F9FF"></path>
                        <path d="M131.8,127.2 C129.1,128.9 126.2,130.4 122.9,131.5 C122.9,131.5 123.6,148.6 124.3,148.4 C128.1,147.2 133.5,145.6 138.8,143.1 C135.3,138.5 132.9,133 131.8,127.2 L131.8,127.2 Z" fill="#F0F9FF"></path>
                        <path d="M122.8,116.4 L122.8,6.9 C122.8,6.9 125.5,6.7 125.5,3.5 C125.5,0.3 122.7,1.13686838e-13 120.9,1.13686838e-13 L65,1.13686838e-13 L9.1,1.13686838e-13 C7.3,1.13686838e-13 4.5,0.2 4.5,3.5 C4.5,6.7 7.2,6.9 7.2,6.9 L7.2,116.4 C7.2,179 -4.4,169 2,182.6 C8.4,196.2 65,194.6 65,194.6 C65,194.6 121.6,196.2 128,182.6 C134.4,169 122.8,179 122.8,116.4 L122.8,116.4 Z" fill="#F0F9FF"></path>
                        <path d="M119.8,6.9 L119.7,6.4 L10.2,6.4 L10.2,116.4 C10.2,137.8 8.9,150.8 7.3,159.2 C7.3,159.2 7.7,174.4 65,174.4 C122.3,174.4 122.7,159.2 122.7,159.2 C121.2,150.8 119.8,137.7 119.8,116.4 L119.8,6.9 L119.8,6.9 Z" fill="#EF6F24"></path>
                        <polygon fill="#FBF7CA" points="119.8 32.9 119.8 6.9 119.7 6.4 10.2 6.4 10.2 32.9"></polygon>
                        <path d="M119.8,116.4 L119.8,6.9 L119.7,6.4 L108.9,6.4 C108.9,11.2 109,16 109,20.8 C109.1,33.5 109.2,46.2 109.1,58.9 C109,67.4 113.5,124.5 106.2,136.9 C98.7,149.7 86.4,159.2 72.1,163.1 C57.4,167.2 41.3,165.1 28.1,157.3 C20.5,152.8 14.3,147 9.5,139.8 C9,148.1 8.2,154.4 7.3,159.1 C7.3,159.1 7.7,174.3 65,174.3 C122.3,174.3 122.7,159.1 122.7,159.1 C121.1,150.8 119.8,137.8 119.8,116.4 L119.8,116.4 Z" fill="#E07227" opacity="0.3"></path>
                        <path d="M122.8,116.4 L122.8,6.9 C122.8,6.9 125.5,6.7 125.5,3.5 C125.5,0.3 122.7,0 120.9,0 L116.3,0 C115.4,4.1 114.6,8.3 113.9,12.5 C112.5,25.3 111.9,38.2 111.8,51.1 C111.7,60.1 111.8,69.2 111.9,78.2 C112,85.7 111.6,93.3 112.2,100.8 C113,111.5 115.2,122.1 114.8,132.9 C114.4,143 112.8,156.1 106.7,164.7 C104.5,167.8 102.1,171.8 98.9,174.4 C89.9,181.5 90.6,181.2 79.9,185.5 C74.7,187.6 68.7,188.1 63.1,188 C53.7,187.8 44.2,185.9 35.2,183.1 C30,181.5 24.8,179.5 19.5,178.4 C13.1,177.1 6.9,173.2 2.1,168.2 C-1.82007187e-14,175 -1.2,176 2,182.7 C8.4,196.3 65,194.7 65,194.7 C65,194.7 121.6,196.3 128,182.7 C134.4,169 122.8,179 122.8,116.4 L122.8,116.4 Z" fill="#F2F2F2"></path>
                        <path d="M29.4,143.1 C31.1,145 33,146.8 34.9,148.6 C36.7,149.7 38.5,150.8 40.3,151.8 C42.2,152.4 44.1,153 46.1,153.5 L46.1,0 L21.4,0 L21.4,129 C23.8,133.8 26.4,138.6 29.4,143.1 L29.4,143.1 Z" fill="#F0F9FF" opacity="0.2"></path>
                    </g>
                    <path d="M132,12.9 C125.4,4.6 110.2,2.8 100.3,1.6 C86.3,-0.1 71.2,1.4 57.3,3 C44.2,4.6 33.5,5.5 23,14.1 C21.7,15.2 21.1,16.5 21.1,17.7 C19.7,20.1 19.9,22.8 23.2,25.4 C30.8,31.3 40.7,36 50.5,37.4 C59.9,42.1 61.2,54.5 58,64.7 C57.2,67.3 55.8,72 57.2,74.7 C58.5,77.2 61.9,79 64.8,78.2 C73.7,75.7 70.3,61.5 69,55.2 C68.1,50.6 65.5,42.4 72.5,41.5 C75.1,41.2 78,42 80.6,42.1 C82.5,42.2 84.3,41.9 86.1,41.4 C87.6,41.3 89.2,41.2 90.8,40.9 C97.2,39.8 102.6,34.5 109.1,32.9 C114.4,31.6 119.9,31.1 124.9,28.6 C130.5,25.7 137.2,19.4 132,12.9 L132,12.9 Z" id="Shape" fill="#FFFDE6"></path>
                </g>
                <g id="Group" transform="translate(384.000000, 18.000000)">
                    <ellipse id="Oval" fill="#333333" opacity="0.05" cx="60.6" cy="229.2" rx="53.9" ry="10.9"></ellipse>
                    <g transform="translate(0.000000, 13.000000)" id="Shape">
                        <path d="M118.4,107.6 C127.6,67.1 101.9,2.1 101.9,2.1 C101.9,2.1 87.1,0.1 60.6,0.1 C34.1,0.1 19.3,2.1 19.3,2.1 C19.3,2.1 -6.4,67.1 2.8,107.6 C12,148.1 48.2,161.4 48.2,161.4 C48.2,161.4 51.8,178.3 51.8,195.1 C51.8,212 11.7,210.4 14.5,216 C17.3,221.6 60.7,222.4 60.7,222.4 C60.7,222.4 104,221.6 106.9,216 C109.7,210.4 69.6,212 69.6,195.1 C69.6,178.2 73.2,161.4 73.2,161.4 C73.2,161.4 109.2,148.2 118.4,107.6 L118.4,107.6 Z" fill="#F0F9FF"></path>
                        <path d="M30.7,147.3 C40.4,155.3 49.1,158.6 49.2,158.6 L50.6,159.1 L70.7,159.1 L72.1,158.6 C72.4,158.5 106.8,145.5 115.6,107 C123.7,71.4 103.8,15.3 99.9,4.9 C95.3,4.4 81.6,3.1 60.7,3.1 C39.9,3.1 26.2,4.4 21.5,4.9 C17.6,15.3 -2.3,71.4 5.8,107 C9.4,123 17.8,136.6 30.7,147.3 L30.7,147.3 Z" fill="#F0B617"></path>
                        <path d="M108.8,33 C105.1,19.4 101.3,8.8 99.8,4.9 C95.2,4.4 81.5,3.1 60.6,3.1 C39.8,3.1 26.1,4.4 21.4,4.9 C19.9,8.8 16.1,19.4 12.4,33 C12.4,33 21.7,25.4 60.5,25.4 C99.3,25.4 108.8,33 108.8,33 L108.8,33 Z" fill="#FBF7CA"></path>
                        <path d="M99.8,4.9 C98.8,4.8 97.5,4.7 95.7,4.5 C98.2,10.7 100.4,17 101.9,23.4 C107,44.2 108.7,66 105.9,87.2 C105.9,96.9 103.4,106 98.5,114.5 C95.7,118.1 92.9,121.8 90.1,125.4 C80,135.5 66.2,141.2 51.9,141.2 C37.6,141.2 23.8,135.5 13.7,125.4 C12.8,124.5 11.9,123.5 11.1,122.6 C15.6,132 22.1,140.3 30.6,147.3 C40.3,155.3 49,158.6 49.1,158.6 L50.5,159.1 L70.6,159.1 L72,158.6 C72.3,158.5 106.7,145.5 115.5,107 C123.6,71.4 103.7,15.2 99.8,4.9 L99.8,4.9 Z" fill="#F5C71C" opacity="0.3"></path>
                        <path d="M118.4,107.6 C124.2,82 116.1,46.5 109.3,23.9 C110.7,36.9 110.5,50 110.1,63.1 C109.5,81.3 107,98.9 101.1,116.2 C98.4,124 94.9,130.8 89.2,136.9 C84.6,141.7 79.4,145.8 74.5,150.2 C62.9,163.4 67.1,196.3 66.6,200.9 L66.6,201.3 C70,205.9 81.7,214.7 60.4,214.4 C47.5,214.4 34.5,214.6 21.9,212.1 C16.9,213.2 13.6,214.3 14.5,216 C17.3,221.6 60.7,222.4 60.7,222.4 C60.7,222.4 104,221.6 106.9,216 C109.7,210.4 69.6,212 69.6,195.1 C69.6,178.2 73.2,161.4 73.2,161.4 C73.2,161.4 109.2,148.2 118.4,107.6 L118.4,107.6 Z" fill="#F2F2F2"></path>
                        <path d="M21.2,116.8 C24.7,120.8 28.4,124.6 32.3,128.1 C32.5,128.2 32.7,128.3 32.9,128.5 C32.7,126.9 32.5,125.3 32.3,123.7 C30.4,108 30,92 31.6,76.2 C33.3,59 36.3,42.1 38.8,25 C39.7,17.4 40.3,9.9 40.3,2.2 C40.3,1.5 40.3,0.8 40.4,0.1 C33.7,0.2 28.1,0.5 23.5,0.8 C22.9,3.6 22.4,6.4 21.9,9.2 C20.3,17.7 18.9,26.3 17.6,34.9 C14.7,59 13.4,83.4 15.5,107.6 C17.2,110.8 19.1,113.9 21.2,116.8 L21.2,116.8 Z" fill="#F0F9FF" opacity="0.2"></path>
                    </g>
                    <path d="M100.7,9.4 C95.8,3.3 84.7,2 77.4,1.1 C67.1,-0.1 56,0.9 45.8,2.1 C36.2,3.3 28.3,3.9 20.6,10.3 C19.6,11.1 19.2,12 19.2,13 C18.2,14.7 18.3,16.7 20.8,18.6 C26.4,22.9 33.6,26.4 40.8,27.4 C47.7,30.8 48.7,39.9 46.3,47.4 C45.7,49.3 44.7,52.8 45.7,54.7 C46.7,56.5 49.2,57.9 51.3,57.3 C57.8,55.5 55.3,45.1 54.4,40.4 C53.7,37 51.9,31 56.9,30.3 C58.8,30.1 60.9,30.6 62.9,30.7 C64.3,30.8 65.6,30.5 66.9,30.2 C68,30.2 69.2,30 70.3,29.8 C75,29 78.9,25.1 83.7,23.9 C87.6,22.9 91.7,22.6 95.3,20.8 C99.6,18.8 104.5,14.2 100.7,9.4 L100.7,9.4 Z" id="Shape" fill="#FFFAF2"></path>
                </g>
                <g id="Group" transform="translate(7.000000, 35.000000)">
                    <g transform="translate(3.400400, 281.585300)"></g>
                    <g id="1"></g>
                    <g id="1-copy" transform="translate(565.000000, 0.000000)">
                        <g id="Group" transform="translate(2.000000, 16.000000)">
                            <path d="M109,0.2 L54.8,0.2 L0.6,0.2 C-1,35.9 13,187.2 15.9,193.2 C18.7,199.2 54.8,199.2 54.8,199.2 C54.8,199.2 90.9,199.2 93.7,193.2 C96.5,187.2 110.6,35.9 109,0.2 L109,0.2 Z" id="Shape" fill="#F0F9FF"></path>
                            <path d="M23.4,184.8 L86.2,184.8 C88,171.7 97,142.7 100.1,106.6 C104.2,58.2 106.4,20.1 106.1,3.2 L3.5,3.2 C3.2,20.1 5.4,58.1 9.5,106.6 C12.5,142.7 21.6,171.7 23.4,184.8 L23.4,184.8 Z" id="Shape" fill="#F8E890"></path>
                            <path d="M105.1,35.8 C105.8,21.6 106.2,10.4 106,3.1 L3.5,3.1 C3.4,10.4 3.7,21.5 4.4,35.8 L105.1,35.8 L105.1,35.8 Z" id="Shape" fill="#FBF7CA"></path>
                            <path d="M106,3.2 L91.5,3.2 L91.5,130.4 C91.5,154.5 71.4,174.6 47.3,174.6 C36.6,174.6 26.8,170.7 19.1,164.2 C21.1,173 22.7,180 23.4,184.9 L86.2,184.9 C88,171.8 97,142.8 100.1,106.7 C104.2,58.1 106.4,20 106,3.2 L106,3.2 Z" id="Shape" fill="#F8E890" opacity="0.4"></path>
                            <path d="M54.8,177.3 L44.6,0.1 L10.2,0.1 C10.2,0.1 13.8,95.4 19.2,136.3 C24.7,177.3 54.8,177.3 54.8,177.3 L54.8,177.3 Z" id="Shape" fill="#F0F9FF" opacity="0.2"></path>
                            <path d="M104.5,0.2 L100.2,0.2 C102.6,17.5 88.2,153.3 80.4,170.8 C75.9,180.9 65.2,188.2 55.2,191.1 C44.3,194.2 32.5,192.6 22.7,186.6 C19.3,184.5 16.2,181.9 13.5,179 C14.4,187.1 15.2,192.2 15.7,193.2 C18.4,199.2 52.8,199.2 52.8,199.2 C52.8,199.2 87.2,199.2 89.9,193.2 C92.7,187.2 106,35.9 104.5,0.2 L104.5,0.2 Z" id="Shape" fill="#F2F2F2"></path>
                        </g>
                        <path d="M107.9,7.2 C97.2,0.9 84.3,3.8 81.3,16.5 C80,21.8 80.2,28.5 83.8,32.9 C84.8,34.1 85.7,35 86.8,35.9 C86.5,36.8 86.4,37.8 86.3,38.8 C86,41.7 87.3,45.7 88.6,48.2 C88.9,48.8 90.2,50.5 91.5,52.3 C91.2,53.2 91,54.1 91,55.1 C90.9,60 93.8,63.3 98.8,63 C100.9,62.9 102.5,61.7 103.2,59.7 C104.1,56.9 103.2,54.6 101.9,52.4 C102.3,52 102.7,51.7 103.2,51.4 C105.3,49.6 106.8,47.8 108.1,45.4 C109.9,42 108.9,37.5 106.5,34.6 C110.4,31.6 113.2,28.4 113.4,22.9 C113.5,17.1 113.5,10.5 107.9,7.2 L107.9,7.2 Z" id="Shape" fill="#FFFAF2"></path>
                        <path d="M59.3,5.4 C56.3,4.5 53.8,5.6 51.6,7.4 C48.9,5.5 45.9,4.1 42.6,4.6 C38.7,5.2 36.3,7.4 33.9,9.9 C29.9,6.3 27.6,1.9 21.1,1 C15,0.2 6,1 2.5,7.1 C-0.7,12.7 -0.5,19.4 2.5,25.2 C5.1,30.1 8,31.6 11.9,32.4 C8.8,45.5 27.1,58.5 36.5,41.4 C37.4,39.7 37.9,37.7 38.4,35.9 C38.6,34.9 38.6,33.9 38.5,32.9 L38.5,32 C42.5,30.7 46.6,30.4 49.8,27 C51.5,25.3 52,24.6 53,22.4 C53.8,20.6 54.5,21.8 56.8,21.3 C60.7,20.4 63.4,19.2 65.1,15.6 C65.6,14.7 65.9,13.7 66.1,12.5 C66.4,8.7 62.2,6.2 59.3,5.4 L59.3,5.4 Z" id="Shape" fill="#FFFAF2"></path>
                    </g>
                </g>
                <g id="Group" transform="translate(696.000000, 397.000000)">
                    <path d="M105.7,8.6 C95.1,2.1 82.1,4.9 79,17.6 C77.7,22.9 77.7,29.6 81.3,34 C82.3,35.2 83.2,36.2 84.3,37 C84,37.9 83.8,38.9 83.7,39.9 C83.3,42.8 84.6,46.8 85.9,49.3 C86.2,49.9 87.5,51.7 88.8,53.5 C88.5,54.4 88.3,55.3 88.3,56.3 C88.2,61.2 91,64.5 96,64.2 C98.1,64.1 99.8,62.9 100.4,60.9 C101.3,58.1 100.5,55.8 99.2,53.6 C99.6,53.2 100,52.9 100.5,52.6 C102.6,50.9 104.1,49.1 105.5,46.7 C107.3,43.3 106.3,38.8 104,35.8 C107.9,32.8 110.8,29.7 111,24.2 C111.2,18.6 111.3,12.1 105.7,8.6 L105.7,8.6 Z" id="Shape" fill="#FFFAF2"></path>
                    <ellipse id="Oval" fill="#333333" opacity="0.05" cx="70" cy="230.3" rx="53.9" ry="10.9"></ellipse>
                    <g transform="translate(10.000000, 14.000000)" id="Shape">
                        <path d="M117.8,108.3 C127,67.8 101.3,2.8 101.3,2.8 C101.3,2.8 86.5,0.8 60,0.8 C33.5,0.8 18.7,2.8 18.7,2.8 C18.7,2.8 -7,67.8 2.2,108.3 C11.4,148.8 47.6,162.1 47.6,162.1 C47.6,162.1 51.2,179 51.2,195.8 C51.2,212.7 11.1,211.1 13.9,216.7 C16.7,222.3 60.1,223.1 60.1,223.1 C60.1,223.1 103.4,222.3 106.3,216.7 C109.1,211.1 69,212.7 69,195.8 C69,178.9 72.6,162.1 72.6,162.1 C72.6,162.1 108.6,148.8 117.8,108.3 L117.8,108.3 Z" fill="#F0F9FF"></path>
                        <path d="M30.1,147.9 C39.8,155.9 48.5,159.2 48.6,159.2 L50,159.7 L70.1,159.7 L71.5,159.2 C71.8,159.1 106.2,146.1 115,107.6 C123.1,72 103.2,15.9 99.3,5.5 C94.7,5 81,3.7 60.1,3.7 C39.2,3.7 25.6,5 20.9,5.5 C17,15.9 -2.9,72 5.2,107.6 C8.8,123.7 17.2,137.2 30.1,147.9 L30.1,147.9 Z" fill="#4A4A4A"></path>
                        <path d="M108.2,33.6 C104.5,20 100.7,9.4 99.2,5.5 C94.6,5 80.9,3.7 60,3.7 C39.1,3.7 25.5,5 20.8,5.5 C19.3,9.4 15.5,20 11.8,33.6 C11.8,33.6 21.1,26 59.9,26 C98.9,26 108.2,33.6 108.2,33.6 L108.2,33.6 Z" fill="#FFF1D9"></path>
                        <path d="M99.2,5.5 C98.2,5.4 96.9,5.3 95.1,5.1 C97.6,11.3 99.8,17.6 101.3,24 C106.4,44.8 108.1,66.6 105.3,87.8 C105.3,97.5 102.8,106.6 97.9,115.1 C95.1,118.7 92.3,122.4 89.5,126 C79.4,136.1 65.6,141.8 51.3,141.8 C37,141.8 23.2,136.1 13.1,126 C12.2,125.1 11.3,124.1 10.5,123.2 C15,132.6 21.5,140.9 30,147.9 C39.7,155.9 48.4,159.2 48.5,159.2 L49.9,159.7 L70,159.7 L71.4,159.2 C71.7,159.1 106.1,146.1 114.9,107.6 C123,72 103.1,15.9 99.2,5.5 L99.2,5.5 Z" fill="#000000" opacity="0.3"></path>
                        <path d="M117.8,108.3 C123.6,82.7 115.5,47.2 108.7,24.6 C110.1,37.6 109.9,50.7 109.5,63.8 C108.9,82 106.4,99.6 100.5,116.9 C97.8,124.7 94.3,131.5 88.6,137.6 C84,142.4 78.8,146.5 73.9,150.9 C62.3,164.1 66.5,197 66,201.6 L66,202 C69.4,206.6 81.1,215.4 59.8,215.1 C46.9,215.1 33.9,215.3 21.3,212.8 C16.3,213.9 13,215 13.9,216.7 C16.7,222.3 60.1,223.1 60.1,223.1 C60.1,223.1 103.4,222.3 106.3,216.7 C109.1,211.1 69,212.7 69,195.8 C69,178.9 72.6,162.1 72.6,162.1 C72.6,162.1 108.6,148.8 117.8,108.3 L117.8,108.3 Z" fill="#F2F2F2"></path>
                        <path d="M20.6,117.5 C24.1,121.5 27.8,125.3 31.7,128.8 C31.9,128.9 32.1,129 32.3,129.2 C32.1,127.6 31.9,126 31.7,124.4 C29.8,108.7 29.4,92.7 31,76.9 C32.7,59.7 35.7,42.8 38.2,25.7 C39.1,18.1 39.7,10.6 39.7,2.9 C39.7,2.2 39.7,1.5 39.8,0.8 C33.1,0.9 27.5,1.2 22.9,1.5 C22.3,4.3 21.8,7.1 21.3,9.9 C19.7,18.4 18.3,27 17,35.6 C14.1,59.7 12.8,84.1 14.9,108.3 C16.6,111.4 18.5,114.5 20.6,117.5 L20.6,117.5 Z" fill="#F0F9FF" opacity="0.2"></path>
                    </g>
                    <g transform="translate(0.234400, 254.069500)"></g>
                    <path d="M85.5,5.5 C82.5,4.6 80,5.7 77.8,7.4 C75.2,5.5 72.1,4 68.8,4.5 C64.9,5.1 62.5,7.3 60,9.7 C56.1,6 53.8,1.6 47.3,0.7 C41.2,-0.1 32.2,0.5 28.6,6.6 C25.3,12.1 25.4,18.9 28.4,24.7 C30.9,29.6 33.8,31.1 37.7,32 C34.5,45.1 52.6,58.3 62.2,41.3 C63.2,39.6 63.7,37.7 64.2,35.8 C64.4,34.8 64.5,33.8 64.3,32.8 L64.3,31.9 C68.3,30.6 72.4,30.4 75.7,27.1 C77.4,25.4 77.9,24.7 78.9,22.5 C79.7,20.7 80.4,21.9 82.7,21.4 C86.6,20.5 89.4,19.4 91,15.8 C91.5,14.9 91.8,13.9 92,12.7 C92.6,8.9 88.4,6.4 85.5,5.5 L85.5,5.5 Z" id="Shape" fill="#FFFAF2"></path>
                </g>
                <g id="Group-2">
                    <g id="Group" transform="translate(206.000000, 0.000000)">
                        <path d="M65.6,12.8 C62.2,12 59.5,13.4 57.2,15.4 C54.1,13.4 50.7,12 47.1,12.8 C42.8,13.7 40.3,16.3 37.7,19.1 C33.1,15.3 30.3,10.5 23,9.9 C16.2,9.4 6.2,10.7 2.6,17.7 C-0.6,24.1 -0.1,31.6 3.6,37.8 C6.7,43.1 10,44.6 14.4,45.3 C11.7,60 32.7,73.5 42.1,54 C43,52 43.5,49.9 43.9,47.7 C44.1,46.6 44.1,45.5 43.9,44.4 L43.9,43.4 C48.3,41.7 52.8,41.2 56.2,37.3 C58,35.3 58.5,34.5 59.5,32 C60.3,30 61.2,31.3 63.6,30.6 C67.9,29.4 70.9,27.9 72.5,23.8 C73,22.8 73.3,21.6 73.4,20.3 C73.7,16 68.9,13.6 65.6,12.8 L65.6,12.8 Z" id="Shape" fill="#FFFAF2"></path>
                        <path d="M56.6,64.3 C59.9,63.4 61.7,60.9 62.7,57.9 C66.3,58.2 70.1,57.7 72.8,55.3 C76.1,52.4 77.1,49 78,45.2 C83.9,46.3 88.6,49.2 95.3,46.1 C101.5,43.3 109.6,37.3 109.4,29.5 C109.2,22.4 105.1,16.1 98.9,12.4 C93.6,9.3 90,9.6 85.8,11.1 C81.1,-3.1 56.2,-4.8 57.3,16.9 C57.4,19.1 58.1,21.2 58.7,23.3 C59.1,24.3 59.6,25.3 60.3,26.2 C60.5,26.5 60.7,26.8 60.8,27.1 C57.8,30.7 54.1,33.3 53,38.4 C52.4,41 52.3,42 52.7,44.6 C53,46.7 51.6,46 49.8,47.8 C46.6,50.9 44.7,53.6 45.3,58 C45.4,59.1 45.6,60.3 46.2,61.5 C47.9,65.3 53.3,65.1 56.6,64.3 L56.6,64.3 Z" id="Shape" fill="#FFFAF2"></path>
                        <ellipse id="Oval" fill="#333333" opacity="0.05" cx="55.2" cy="247.2" rx="53.9" ry="10.9"></ellipse>
                        <g transform="translate(1.000000, 26.000000)" id="Shape">
                            <path d="M108,7.5 C83.1,-1.3 25.3,-1.3 0.4,7.5 C0.4,7.5 -1.2,56.1 5.6,74.9 C12.4,93.8 20.4,136.7 18.4,172 C16.4,207.3 4,219 23.6,224.2 C43.3,229.4 64.9,229.4 84.6,224.2 C104.3,219 91.8,207.3 89.8,172 C87.8,136.7 95.8,93.7 102.6,74.9 C109.6,56.1 108,7.5 108,7.5 L108,7.5 Z" fill="#F0F9FF"></path>
                            <path d="M21.5,172.2 C20.9,182.8 19.4,191.3 18,198.2 C18,198.2 19.9,207.3 54.2,207.3 C88.5,207.3 90.4,198.2 90.4,198.2 C89.1,191.3 87.5,182.9 86.9,172.2 C84.8,135.5 93.4,91.8 99.9,73.9 C105.7,58 105.2,19.1 105,9.7 C93.4,6.1 74.7,3.9 54.2,3.9 C33.7,3.9 15,6.1 3.4,9.7 C3.2,19.1 2.7,58 8.5,73.9 C15,91.8 23.6,135.5 21.5,172.2 L21.5,172.2 Z" fill="#F4BE14"></path>
                            <path d="M104.4,44.6 C105.3,29.9 105.1,15 105,9.7 C93.4,6.1 74.7,3.9 54.2,3.9 C33.7,3.9 15,6.1 3.4,9.7 C3.3,15.1 3.1,29.9 4,44.6 C4,44.6 11.9,39.2 54.2,39.2 C96.5,39.2 104.4,44.6 104.4,44.6 L104.4,44.6 Z" fill="#FFF6E6"></path>
                            <path d="M105,9.7 C103,9.1 100.8,8.5 98.4,8 C99.6,24.6 97.1,41.8 93.6,57.8 C91.1,69.2 87.8,80.5 85.5,92 C83.1,104.2 79.7,116.2 77.6,128.5 C76.3,142.3 77.4,156.1 77.5,169.9 C77.5,187.1 63.1,201.5 45.9,201.5 C35.2,201.5 25.6,195.9 19.9,187.6 C19.3,191.5 18.6,195.1 18,198.3 C18,198.3 19.9,207.4 54.2,207.4 C88.5,207.4 90.4,198.3 90.4,198.3 C89.1,191.4 87.5,183 86.9,172.3 C84.8,135.6 93.4,91.9 99.9,74 C105.7,58 105.2,19.1 105,9.7 L105,9.7 Z" fill="#E07227" opacity="0.3"></path>
                            <path d="M108,7.5 C107.2,7.2 106.3,6.9 105.4,6.7 C104,25.4 100.4,43.9 95.9,62 C91.5,79.7 85.7,97.3 82.6,115.3 C81.4,128.5 81.8,141.8 83.2,155 C83.7,157.9 84.1,160.8 84.7,163.7 C86.8,171.4 86.8,179.1 84.7,186.7 C83.2,190.1 81.8,193.6 80.3,197 C74.6,206.7 65.2,213.9 54.4,216.9 C43.2,220 31,218.4 21,212.5 C18.4,211 15.7,209 13.3,206.7 C11.8,216.4 12.8,221.2 23.7,224.1 C43.4,229.3 65,229.3 84.7,224.1 C104.4,218.9 91.9,207.2 89.9,171.9 C87.9,136.6 95.9,93.6 102.7,74.8 C109.6,56.1 108,7.5 108,7.5 L108,7.5 Z" fill="#F2F2F2"></path>
                            <path d="M23.4,92.9 C28.5,109.9 31.3,127.8 32.5,145.5 C33.2,155.1 32.9,167.5 32.9,174.2 C32.9,180.9 40.9,185 41.8,185 C41.8,183.7 41.9,171.9 41.9,170.6 C42.2,158.3 42.2,146 41.8,133.7 C41.5,123.4 41.2,113 40.1,102.8 C38.4,93.3 35.4,84.2 33,74.8 C29.8,61.9 28.2,48.9 29.3,35.6 C30.2,24.2 31.5,12.9 32.9,1.5 C25.6,2.1 18.6,3 12.5,4.2 L12.5,27.4 C12.5,37.1 12.2,46.8 13.1,56.5 C15.3,69.1 19.7,80.8 23.4,92.9 L23.4,92.9 Z" fill="#F0F9FF" opacity="0.2"></path>
                        </g>
                    </g>
                    <text id="Vol.-Alc.-4,9%" fill="#9B9B9B" font-family="Rubik-Regular, Rubik" font-size="22" font-weight="normal">
                        <tspan x="2.747" y="331">Vol. Alc. 4,9% </tspan>
                    </text>
                    <text id="Weisse" font-family="Rubik-Medium, Rubik" font-size="32" font-weight="400" fill="#FFFFFF">
                        <tspan x="15.772" y="302">Weisse</tspan>
                    </text>
                </g>
            </g>
            <g id="2ND" transform="translate(8.000000, 35.000000)">
                <g id="Group-3">
                    <g id="Group" transform="translate(2.000000, 16.000000)">
                        <path d="M109,0.2 L54.8,0.2 L0.6,0.2 C-1,35.9 13,187.2 15.9,193.2 C18.7,199.2 54.8,199.2 54.8,199.2 C54.8,199.2 90.9,199.2 93.7,193.2 C96.5,187.2 110.6,35.9 109,0.2 L109,0.2 Z" id="Shape" fill="#F0F9FF"></path>
                        <path d="M23.4,184.8 L86.2,184.8 C88,171.7 97,142.7 100.1,106.6 C104.2,58.2 106.4,20.1 106.1,3.2 L3.5,3.2 C3.2,20.1 5.4,58.1 9.5,106.6 C12.5,142.7 21.6,171.7 23.4,184.8 L23.4,184.8 Z" id="Shape" fill="#F8E890"></path>
                        <path d="M105.1,35.8 C105.8,21.6 106.2,10.4 106,3.1 L3.5,3.1 C3.4,10.4 3.7,21.5 4.4,35.8 L105.1,35.8 L105.1,35.8 Z" id="Shape" fill="#FBF7CA"></path>
                        <path d="M106,3.2 L91.5,3.2 L91.5,130.4 C91.5,154.5 71.4,174.6 47.3,174.6 C36.6,174.6 26.8,170.7 19.1,164.2 C21.1,173 22.7,180 23.4,184.9 L86.2,184.9 C88,171.8 97,142.8 100.1,106.7 C104.2,58.1 106.4,20 106,3.2 L106,3.2 Z" id="Shape" fill="#F8E890" opacity="0.4"></path>
                        <path d="M54.8,177.3 L44.6,0.1 L10.2,0.1 C10.2,0.1 13.8,95.4 19.2,136.3 C24.7,177.3 54.8,177.3 54.8,177.3 L54.8,177.3 Z" id="Shape" fill="#F0F9FF" opacity="0.2"></path>
                        <path d="M104.5,0.2 L100.2,0.2 C102.6,17.5 88.2,153.3 80.4,170.8 C75.9,180.9 65.2,188.2 55.2,191.1 C44.3,194.2 32.5,192.6 22.7,186.6 C19.3,184.5 16.2,181.9 13.5,179 C14.4,187.1 15.2,192.2 15.7,193.2 C18.4,199.2 52.8,199.2 52.8,199.2 C52.8,199.2 87.2,199.2 89.9,193.2 C92.7,187.2 106,35.9 104.5,0.2 L104.5,0.2 Z" id="Shape" fill="#F2F2F2"></path>
                    </g>
                    <path d="M107.9,7.2 C97.2,0.9 84.3,3.8 81.3,16.5 C80,21.8 80.2,28.5 83.8,32.9 C84.8,34.1 85.7,35 86.8,35.9 C86.5,36.8 86.4,37.8 86.3,38.8 C86,41.7 87.3,45.7 88.6,48.2 C88.9,48.8 90.2,50.5 91.5,52.3 C91.2,53.2 91,54.1 91,55.1 C90.9,60 93.8,63.3 98.8,63 C100.9,62.9 102.5,61.7 103.2,59.7 C104.1,56.9 103.2,54.6 101.9,52.4 C102.3,52 102.7,51.7 103.2,51.4 C105.3,49.6 106.8,47.8 108.1,45.4 C109.9,42 108.9,37.5 106.5,34.6 C110.4,31.6 113.2,28.4 113.4,22.9 C113.5,17.1 113.5,10.5 107.9,7.2 L107.9,7.2 Z" id="Shape" fill="#FFFAF2"></path>
                    <path d="M59.3,5.4 C56.3,4.5 53.8,5.6 51.6,7.4 C48.9,5.5 45.9,4.1 42.6,4.6 C38.7,5.2 36.3,7.4 33.9,9.9 C29.9,6.3 27.6,1.9 21.1,1 C15,0.2 6,1 2.5,7.1 C-0.7,12.7 -0.5,19.4 2.5,25.2 C5.1,30.1 8,31.6 11.9,32.4 C8.8,45.5 27.1,58.5 36.5,41.4 C37.4,39.7 37.9,37.7 38.4,35.9 C38.6,34.9 38.6,33.9 38.5,32.9 L38.5,32 C42.5,30.7 46.6,30.4 49.8,27 C51.5,25.3 52,24.6 53,22.4 C53.8,20.6 54.5,21.8 56.8,21.3 C60.7,20.4 63.4,19.2 65.1,15.6 C65.6,14.7 65.9,13.7 66.1,12.5 C66.4,8.7 62.2,6.2 59.3,5.4 L59.3,5.4 Z" id="Shape" fill="#FFFAF2"></path>
                    <ellipse id="Oval" fill="#333333" opacity="0.05" cx="67.3" cy="212.2" rx="53.4" ry="10.9"></ellipse>
                </g>
                <text id="Vol.-Alc.-5,6%" fill="#9B9B9B" font-family="Rubik-Regular, Rubik" font-size="21" font-weight="normal">
                    <tspan x="306.077" y="679">Vol. Alc.  5,6%</tspan>
                </text>
                <text id="Vol.-Alc.-6,9%" fill="#9B9B9B" font-family="Rubik-Regular, Rubik" font-size="21" font-weight="normal">
                    <tspan x="509.7585" y="679">Vol. Alc. 6,9%</tspan>
                </text>
                <text id="Vol.-Alc.-9,1%" fill="#9B9B9B" font-family="Rubik-Regular, Rubik" font-size="21" font-weight="normal">
                    <tspan x="911.0305" y="679">Vol. Alc. 9,1%</tspan>
                </text>
                <text id="Vol.-Alc.-6,1%" fill="#9B9B9B" font-family="Rubik-Regular, Rubik" font-size="21" font-weight="normal">
                    <tspan x="696.159" y="679">Vol. Alc. 6,1%</tspan>
                </text>
                <text id="Vol.-Alc.-5,0%" fill="#9B9B9B" font-family="Rubik-Regular, Rubik" font-size="21" font-weight="normal">
                    <tspan x="65.429" y="679">Vol. Alc. 5,0%</tspan>
                </text>
                <text id="Irish-Red" font-family="Rubik-Medium, Rubik" font-size="32" font-weight="400" fill="#FFFFFF">
                    <tspan x="62.284" y="650">Irish Red</tspan>
                </text>
                <text id="Dark-Strong-Ale" font-family="Rubik-Medium, Rubik" font-size="32" font-weight="400" fill="#FFFFFF">
                    <tspan x="850.168" y="650">Dark Strong Ale</tspan>
                </text>
                <text id="Pumpkin-Ale" font-family="Rubik-Medium, Rubik" font-size="32" font-weight="400" fill="#FFFFFF">
                    <tspan x="276.388" y="650">Pumpkin Ale</tspan>
                </text>
                <text id="Dubbel" font-family="Rubik-Medium, Rubik" font-size="32" font-weight="400" fill="#FFFFFF">
                    <tspan x="518.68" y="650">Dubbel</tspan>
                </text>
                <text id="Stout" font-family="Rubik-Medium, Rubik" font-size="32" font-weight="400" fill="#FFFFFF">
                    <tspan x="713.788" y="650">Stout</tspan>
                </text>
            </g>
            <text id="Vol.-Alc.-5,0%" fill="#9B9B9B" font-family="Rubik-Regular, Rubik" font-size="22" font-weight="normal">
                <tspan x="198.30925" y="331">Vol. Alc. 5,0%</tspan>
            </text>
            <text id="Vol.-Alc.-5,0%" font-family="Rubik-Regular, Rubik" font-size="22" font-weight="normal" fill="#9B9B9B">
                <tspan x="386.378" y="331">Vol. Alc. 5,0%</tspan>
            </text>
            <text id="Vol.-Alc.-5,6%" fill="#9B9B9B" font-family="Rubik-Regular, Rubik" font-size="22" font-weight="normal">
                <tspan x="952.598" y="331">Vol. Alc. 5,6%</tspan>
            </text>
            <text id="Vol.-Alc.-5,0%" fill="#9B9B9B" font-family="Rubik-Regular, Rubik" font-size="22" font-weight="normal">
                <tspan x="746.30925" y="331">Vol. Alc. 5,0%</tspan>
            </text>
            <text id="Vol.-Alc.-5,0%" fill="#9B9B9B" font-family="Rubik-Regular, Rubik" font-size="22" font-weight="normal">
                <tspan x="564.378" y="331">Vol. Alc. 5,0%</tspan>
            </text>
            <text id="IPA" font-family="Rubik-Medium, Rubik" font-size="32" font-weight="400" fill="#FFFFFF">
                <tspan x="601.624" y="302">IPA </tspan>
            </text>
            <text id="APA" font-family="Rubik-Medium, Rubik" font-size="32" font-weight="400" fill="#FFFFFF">
                <tspan x="781.6" y="302">APA</tspan>
            </text>
            <g id="Group" transform="translate(425.810900, 277.585300)"></g>
            <text id="EPA" fill="#FFFFFF" font-family="Rubik-Medium, Rubik" font-size="32" font-weight="400">
                <tspan x="420.992" y="302">EPA</tspan>
            </text>
            <text id="Scottish-Ale" font-family="Rubik-Medium, Rubik" font-size="32" font-weight="400" fill="#FFFFFF">
                <tspan x="923.416" y="301">Scottish Ale</tspan>
            </text>
            <text id="Blonde-Ale" font-family="Rubik-Medium, Rubik" font-size="32" font-weight="400" fill="#FFFFFF">
                <tspan x="183.724" y="302">Blonde Ale</tspan>
            </text>
        </g>
    </g>
</svg>