<?xml version="1.0" encoding="utf-8"?>
<!-- Generator: Adobe Illustrator 19.0.0, SVG Export Plug-In . SVG Version: 6.00 Build 0)  -->
<!DOCTYPE svg PUBLIC "-//W3C//DTD SVG 1.1//EN" "http://www.w3.org/Graphics/SVG/1.1/DTD/svg11.dtd">
<svg version="1.1" id="Layer_1" xmlns="http://www.w3.org/2000/svg" xmlns:xlink="http://www.w3.org/1999/xlink" x="0px" y="0px"
	 viewBox="-299 -78 360.1 716" style="enable-background:new -299 -78 360.1 716;" xml:space="preserve">
<style type="text/css">
	.st0{fill:#FAFAFA;stroke:#5A4941;stroke-width:3.3163;stroke-miterlimit:10;}
	.st1{fill:#FAFAFA;stroke:#F7ECDA;stroke-width:11.0544;stroke-linecap:round;stroke-miterlimit:10;}
	.st2{fill:#FAFAFA;stroke:#5A4941;stroke-width:3.3163;stroke-linecap:round;stroke-linejoin:round;stroke-miterlimit:10;}
	.st3{fill:#F1E0C2;stroke:#5A4941;stroke-width:3.3163;stroke-linecap:round;stroke-linejoin:round;stroke-miterlimit:10;}
	.st4{fill:#F1E0C2;}
	.st5{fill:#5A4941;}
	.st6{fill:none;stroke:#5A4941;stroke-width:3.3163;stroke-linecap:round;stroke-linejoin:round;stroke-miterlimit:10;}
	.st7{fill:#F5A623;}
	.st8{fill:#F7ECDA;}
	.st9{fill:#C17529;stroke:#5A4941;stroke-width:3.3163;stroke-miterlimit:10;}
	.st10{fill:#E18726;}
	.st11{fill:none;stroke:#5A4941;stroke-width:3.3163;stroke-miterlimit:10;}
	.st12{fill:#E18726;stroke:#5A4941;stroke-width:3.3163;stroke-miterlimit:10;}
	.st13{fill:#F1E0C2;stroke:#5A4941;stroke-width:3.3163;stroke-miterlimit:10;}
	.st14{fill:#F1E0C2;stroke:#5A4941;stroke-width:3.3163;stroke-linecap:round;stroke-miterlimit:10;}
	.st15{fill:#3F322D;}
	.st16{fill:#4F3F38;stroke:#5A4941;stroke-width:3.3163;stroke-miterlimit:10;}
	.st17{fill:#493A34;stroke:#5A4941;stroke-width:3.3163;stroke-miterlimit:10;}
	.st18{fill:#8E8D8B;}
	.st19{fill:#FAFAFA;}
	.st20{fill:#E8D480;}
	.st21{fill:#E8D480;stroke:#5A4941;stroke-width:3.3163;stroke-miterlimit:10;}
	.st22{fill:none;}
	.st23{display:none;}
	.st24{display:inline;fill:none;stroke:#5A4941;stroke-width:3.3163;stroke-miterlimit:10;}
	.st25{display:inline;fill:none;stroke:#F7ECDA;stroke-width:11.0544;stroke-linecap:round;stroke-miterlimit:10;}
	.st26{display:inline;}
	.st27{enable-background:new    ;}
	.st28{fill:#AAAAAA;}
	.st29{fill:#FFFFFF;}
	.st30{display:inline;fill:#AAAAAA;}
	.st31{font-family:'Rubik-Light';}
	.st32{font-size:19px;}
	.st33{display:inline;fill:#FFFFFF;}
	.st34{font-family:'Rubik-Regular';}
	.st35{font-size:32px;}
</style>
<g id="Objects">
	<g>
		<path class="st0" d="M-220.7,197.7"/>
	</g>
	<g>
		<path class="st1" d="M-210.3,197.7"/>
	</g>
	<g>
		<path class="st2" d="M-21.1,195.7"/>
	</g>
	<g>
		<path class="st2" d="M-11,195.7"/>
	</g>
	<g>
		<g>
			<g>
				<g>
					<path class="st3" d="M-58.5,149.1c-1.1,0-1.9-0.9-1.9-1.9l0,0c0-1.1,0.8-2.1,1.9-2.3c33.2-5.9,30.8-34.3,30.8-34.3v-26
						c4.6,0,13.4,0,13.4,0v25.9c0,0-2.4,28.4,30.8,34.3c1.1,0.2,1.9,1.2,1.9,2.3l0,0c0,1.1-0.9,1.9-1.9,1.9
						C16.4,149.1-22.3,153-58.5,149.1z"/>
					<g>
						<path class="st4" d="M-54.8,144.1c0,0,25.7,2.4,53.9,1"/>
						<path class="st5" d="M-54.7,142.4c0,0,3.3,0.4,8.3,0.9s11.7,1,18.5,1.3c3.4,0.2,6.7,0.3,9.9,0.4c3.2,0.1,6.1,0.1,8.6,0.1
							s4.6,0,6.1,0s2.3,0,2.3,0s-0.8,0.1-2.3,0.2s-3.6,0.3-6.1,0.4c-2.5,0.2-5.5,0.3-8.6,0.4c-3.2,0.1-6.5,0.2-9.9,0.2
							c-6.8,0.1-13.5,0-18.6-0.2s-8.5-0.4-8.5-0.4c-0.9-0.1-1.6-0.8-1.6-1.8c0.1-0.9,0.8-1.6,1.8-1.6
							C-54.8,142.4-54.7,142.4-54.7,142.4z"/>
					</g>
				</g>
				<g>
					<path class="st4" d="M-19.2,85.8v24.4c-0.4,5.6,0.8,14,5.8,21.7"/>
					<path class="st5" d="M-17.6,85.8l-0.9,24.4v0.1l0,0c-0.4,3.7-0.1,7.5,0.8,11.1c0.2,0.9,0.5,1.8,0.7,2.7
						c0.1,0.5,0.3,0.9,0.5,1.3c0.1,0.4,0.3,0.9,0.5,1.3s0.4,0.9,0.6,1.3c0.2,0.4,0.4,0.9,0.6,1.3c0.4,0.9,0.9,1.7,1.4,2.5
						c-0.5-0.8-1.1-1.6-1.5-2.4c-0.3-0.4-0.5-0.8-0.7-1.2c-0.2-0.4-0.4-0.8-0.7-1.3c-0.2-0.4-0.4-0.9-0.6-1.3s-0.4-0.9-0.6-1.3
						c-0.4-0.9-0.7-1.8-1-2.7c-1.1-3.7-1.7-7.5-1.6-11.4v0.1L-21,85.9c0-0.9,0.7-1.7,1.6-1.7S-17.7,84.9-17.6,85.8
						C-17.6,85.7-17.6,85.8-17.6,85.8z"/>
				</g>
			</g>
			<g>
				<path class="st3" d="M-58-43.4c-1.2-17.9,17-16.4,17-16.4s3.3-10.6,17-10.3S-6.7-58.5-6.7-58.5c24-0.9,21.9,15.2,21.9,15.2
					L-58-43.4L-58-43.4z"/>
				<g>
					<path class="st6" d="M-51.1-49.5c0.3-0.6,0.6-1.1,1-1.6c2.4-2.5,6.8-2.7,8.1-2.7c0.3,0,0.5,0,0.6,0c0.2,0,0.3,0,0.5,0
						c2.7,0,5.1-1.6,5.8-4.3c2.1-5.8,9.2-6.1,10.7-6.1h0.4c4.3,0.1,7.1,1.7,8.9,3.4"/>
					<path class="st6" d="M-4.7-52.6c5.4,0,9.5,1.1,11.7,3.1"/>
				</g>
			</g>
			<path class="st3" d="M-61.5-43.4c0,0,3.2,18.7-7.3,56.8s1.2,64.6,34.5,70c16.6,2.7,26.7,0,26.7,0c33.2-5.4,45-31.9,34.5-70
				s-7.3-56.8-7.3-56.8L-61.5-43.4z"/>
		</g>
		<g>
			<path class="st7" d="M20.9,15c-2.5-8.9-4.2-16.8-5.4-23.7c-32.3,1.8-61,0.7-73.1,0C-58.8-1.8-60.5,6-63,14.9
				c-5.4,19.6-4.6,35.7,2.4,46.6C-55.2,70-46,75.3-33.4,77.3c4.6,0.8,9.1,1.1,13.3,1.1l0,0c6.8,0,10.8-1,10.8-1
				c0.2-0.1,0.4-0.1,0.6-0.1c12.6-2,21.7-7.4,27.2-15.8C25.5,50.6,26.3,34.5,20.9,15z"/>
			<g>
				<path class="st6" d="M-63.7-9.1c0,0,39.9,3,85.3,0"/>
				<g>
					<g>
						<path class="st8" d="M-40.6-28.2c0,0-0.2,1.5-0.5,4.2s-0.8,6.5-1.7,11.1S-44.9-3-46.6,2.5c-0.9,2.8-1.9,5.6-3.1,8.5
							c-0.3,0.7-0.6,1.4-0.9,2.1c-0.3,0.7-0.6,1.4-0.9,2c-0.3,0.7-0.6,1.4-0.9,2l-0.8,2c-2.1,5.4-3.3,11.1-3.7,16.5
							s0.1,10.6,1.2,14.9s2.7,7.7,4.3,9.7c0.8,1,1.5,1.7,2.1,2.1c0.3,0.2,0.5,0.3,0.7,0.4s0.2,0.1,0.2,0.1s-0.1,0-0.3-0.1
							s-0.4-0.2-0.7-0.4c-0.6-0.3-1.5-1-2.4-1.9c-1.9-1.9-4-5.2-5.6-9.5s-2.8-9.6-3.1-15.4s0.4-12.1,1.9-18.1l0.6-2.3
							c0.2-0.8,0.4-1.4,0.7-2.2c0.2-0.7,0.5-1.4,0.7-2.1c0.2-0.7,0.4-1.4,0.6-2.1c0.8-2.7,1.4-5.5,1.9-8.1c1-5.3,1.6-10.4,1.9-14.8
							s0.4-8,0.4-10.5c0-2.6,0-4,0-4v-0.1c0-3.1,2.4-5.6,5.5-5.6s5.6,2.4,5.6,5.5C-40.5-28.7-40.5-28.5-40.6-28.2z"/>
					</g>
					<g>
						<g>
							<path class="st5" d="M12.2-43.3c0,0,0,0.4-0.1,1.1c0,0.8-0.1,1.9-0.1,3.3s-0.1,3.2,0,5.2c0,2,0.1,4.2,0.2,6.7
								c0.1,1.2,0.2,2.5,0.3,3.8s0.2,2.7,0.4,4.1c0.1,1.4,0.3,2.8,0.5,4.3s0.4,3,0.6,4.5s0.5,3.1,0.7,4.6C15-4.1,15.2-2.5,15.6-1
								c0.6,3.2,1.3,6.4,2.1,9.6s1.5,6.4,2.2,9.6c0.3,1.6,0.7,3.2,1,4.8s0.6,3.1,0.8,4.7c0.5,3.1,0.9,6.1,1,8.9
								c0.1,2.9,0.1,5.6-0.3,8.1c-0.3,2.5-0.9,4.7-1.6,6.6c-0.2,0.5-0.3,0.9-0.5,1.4c-0.2,0.4-0.4,0.9-0.5,1.3
								c-0.3,0.8-0.7,1.5-1,2.2c-0.6,1.3-1.2,2.3-1.5,3c-0.4,0.7-0.6,1-0.6,1s0.2-0.4,0.5-1.1s0.9-1.7,1.4-3
								c0.3-0.7,0.6-1.4,0.9-2.2c0.2-0.4,0.3-0.8,0.5-1.3c0.1-0.4,0.3-0.9,0.4-1.4c0.6-1.9,1.1-4.1,1.4-6.6c0.3-2.4,0.2-5.1,0-7.9
								c-0.2-2.8-0.7-5.8-1.3-8.8c-0.3-1.5-0.6-3-1-4.6c-0.4-1.5-0.7-3.1-1.1-4.7c-0.8-3.1-1.6-6.3-2.5-9.5
								c-0.8-3.2-1.7-6.4-2.4-9.6c-0.4-1.6-0.7-3.2-1-4.8s-0.6-3.1-0.9-4.7c-0.3-1.5-0.5-3-0.8-4.5c-0.2-1.5-0.5-2.9-0.6-4.4
								C10-20.3,9.8-21.7,9.7-23s-0.3-2.6-0.4-3.9c-0.2-2.5-0.4-4.8-0.5-6.8S8.7-37.5,8.6-39c0-1.5,0-2.6,0-3.4s0-1.2,0-1.2
								L12.2-43.3z"/>
						</g>
						<g>
							<path class="st5" d="M5.4-43.2c0,0,0,0.3-0.1,0.7c0,0.5-0.1,1.2-0.1,2.1c-0.1,1.8-0.1,4.4,0,7.6C5.4-26.5,6-18.2,7.3-9.9
								c0.3,2.1,0.7,4.1,1,6.2c0.4,2,0.8,4,1.2,6c0.9,3.9,1.7,7.4,2.4,10.5c1.4,6.2,2.4,10.3,2.4,10.3s-1.1-4.1-2.9-10.2
								c-0.9-3-1.9-6.6-2.9-10.4C8,0.6,7.5-1.4,7-3.4S6-7.5,5.7-9.6C4-17.9,2.9-26.3,2.4-32.7c-0.2-3.2-0.3-5.8-0.4-7.7
								c0-0.9,0-1.7,0-2.2s0-0.8,0-0.8L5.4-43.2z"/>
						</g>
					</g>
				</g>
				<g>
					<circle class="st9" cx="-30.5" cy="2.9" r="3.1"/>
					<circle class="st9" cx="-27.4" cy="14.9" r="1.3"/>
					<circle class="st5" cx="-33.1" cy="29" r="1.5"/>
				</g>
			</g>
		</g>
	</g>
	<g>
		<g>
			<path class="st3" d="M-262.8-9.4c0,0,2.6,47.1-9.7,141.9c-0.8,5.9,2.8,11.6,8.6,13.2c44.7,13.2,87.8,4.9,106.9-0.1
				c5.9-1.6,9.8-7.3,9-13.4c-12.4-94.6-9.8-141.6-9.8-141.6L-262.8-9.4L-262.8-9.4z"/>
			<g>
				<path class="st3" d="M-151.7,101.9c44-16.6,37.4-64.2,34.8-81.8c-2.7-17.6-21.3-18.5-21.3-18.5H-158l0.4,21.4h12.6
					c0,0,11.8,0.4,11.3,20c-0.6,19.6-8.3,25.8-20.5,33.2L-151.7,101.9z"/>
				<g>
					<g>
						<path class="st4" d="M-152.2,96.9c0,0,16.6-7.7,24.9-20.7"/>
						<path class="st5" d="M-152.9,95.4c0,0,0.1,0,0.3-0.1s0.5-0.2,0.9-0.4c0.8-0.4,1.9-0.9,3.3-1.6c1.3-0.7,2.9-1.5,4.5-2.5
							c0.8-0.5,1.6-1,2.5-1.6c0.8-0.6,1.7-1.1,2.5-1.7s1.6-1.2,2.4-1.8s1.6-1.2,2.2-1.9c0.7-0.6,1.4-1.2,2-1.9
							c0.6-0.6,1.2-1.2,1.7-1.8s1-1.1,1.4-1.6s0.7-0.9,1-1.3c0.5-0.7,0.9-1.1,0.9-1.1s-0.3,0.4-0.7,1.2c-0.2,0.4-0.5,0.9-0.9,1.4
							s-0.8,1.1-1.2,1.7s-1,1.3-1.6,2c-0.5,0.7-1.2,1.4-1.8,2.1s-1.4,1.4-2.1,2.1s-1.5,1.4-2.3,2.1s-1.6,1.3-2.4,2
							c-0.8,0.6-1.6,1.3-2.4,1.8c-1.6,1.2-3.1,2.2-4.4,3.1s-2.4,1.5-3.2,2c-0.4,0.2-0.7,0.4-0.9,0.5s-0.3,0.2-0.3,0.2
							c-0.8,0.4-1.8,0.1-2.3-0.7c-0.4-0.8-0.1-1.8,0.7-2.3C-153.1,95.4-153,95.4-152.9,95.4L-152.9,95.4z"/>
					</g>
					<g>
						<path class="st4" d="M-148.4,11h9.8c2.1,0.2,10.9,1.5,12.3,10.5c0.5,3.4,1.3,8.4,1.7,14.4"/>
						<g>
							<path class="st5" d="M-148.4,9.3l9.8,0.4h0.1l0,0c0.7,0.1,1.4,0.2,2.1,0.4s1.4,0.4,2,0.6c0.7,0.2,1.3,0.5,1.9,0.9
								c0.6,0.3,1.2,0.7,1.8,1.1l0.8,0.7c0.3,0.2,0.5,0.5,0.8,0.8c0.3,0.2,0.5,0.5,0.7,0.8s0.5,0.6,0.6,0.9l0.6,0.9l0.4,1
								c0.2,0.3,0.3,0.7,0.4,1s0.2,0.7,0.3,1c0.1,0.7,0.3,1.4,0.3,2l0.2,2c0.1,1.3,0.3,2.7,0.4,4c0.2,2.7,0.4,5.3,0.4,8
								c-0.3-2.7-0.6-5.3-1.1-7.9c-0.2-1.3-0.4-2.6-0.7-3.9l-0.4-2c-0.1-0.7-0.3-1.3-0.5-1.9c-0.1-0.3-0.2-0.6-0.3-0.9
								c-0.1-0.3-0.2-0.6-0.4-0.9l-0.4-0.8l-0.5-0.8c-0.2-0.3-0.4-0.5-0.6-0.7c-0.2-0.2-0.4-0.5-0.7-0.6c-0.2-0.2-0.5-0.4-0.7-0.6
								l-0.8-0.5c-0.5-0.3-1.1-0.6-1.6-0.9c-0.6-0.3-1.1-0.5-1.7-0.6c-0.6-0.2-1.2-0.3-1.8-0.4s-1.2-0.2-1.8-0.2h0.1l-9.8,0.4
								c-0.9,0-1.7-0.7-1.7-1.6s0.7-1.7,1.6-1.7C-148.5,9.3-148.4,9.3-148.4,9.3z"/>
						</g>
					</g>
					<g>
						<path class="st5" d="M-153.2,4.6l14.8,0.3h0.1l0,0c1.7,0.2,3.2,0.5,4.7,1s3,1.1,4.4,2c1.4,0.8,2.7,1.8,3.8,3
							c1.1,1.2,2.1,2.5,2.8,4l0.5,1.1c0.1,0.4,0.3,0.8,0.4,1.1l0.4,1.1l0.2,1.2l0.2,1.2l0.1,1.1l0.3,2.3c0.4,3,0.6,6.1,0.8,9.1
							c0.4,6.1,0.4,12.2-0.3,18.3c-0.2,1.5-0.4,3-0.6,4.5s-0.6,3-0.9,4.5c-0.4,1.5-0.7,3-1.2,4.4c-0.4,1.5-1,2.9-1.5,4.3
							c0.5-1.4,1-2.9,1.3-4.4c0.4-1.5,0.7-3,1-4.4c0.3-1.5,0.5-3,0.7-4.5s0.3-3,0.4-4.5c0.4-6,0.2-12.1-0.4-18.1c-0.3-3-0.7-6-1.2-9
							l-0.4-2.2l-0.2-1.1l-0.3-1.1l-0.2-1.1l-0.4-1c-0.1-0.3-0.2-0.7-0.4-1l-0.5-0.9c-0.7-1.3-1.6-2.3-2.6-3.4
							c-1.1-0.9-2.2-1.8-3.5-2.5s-2.6-1.2-4-1.6c-1.4-0.4-2.8-0.7-4.2-0.8h0.1l-14.8,0.3c-0.9,0-1.7-0.7-1.7-1.6
							C-154.9,5.4-154.2,4.6-153.2,4.6L-153.2,4.6z"/>
					</g>
				</g>
			</g>
		</g>
		<g>
			<g>
				<path class="st10" d="M-256,28c-1,23.8-3.4,58.8-9.5,105.4c-0.3,2.5,1.2,4.8,3.5,5.5c15.3,4.5,31.9,6.8,49.3,6.8l0,0
					c22.6,0,41.7-3.8,53.8-7c2.5-0.7,4.1-3.1,3.7-5.6c-6.1-47-8.6-82.2-9.5-105.9C-164.6,27.2-225.5,32.7-256,28z"/>
				<g>
					<path class="st11" d="M-263.1,27.2c0,0,35,6.3,105.1,0"/>
					<g>
						<g>
							<circle class="st12" cx="-221.9" cy="42.5" r="4"/>
							<circle class="st12" cx="-226.2" cy="55.9" r="3"/>
							<circle class="st12" cx="-219.1" cy="79.1" r="1.3"/>
						</g>
						<g>
							<g>
								<path class="st8" d="M-238.8,5.2c0,0-0.2,2-0.5,5.5c-0.2,1.7-0.4,3.9-0.6,6.3c-0.3,2.4-0.6,5.2-0.9,8.2
									c-0.6,6-1.4,13-2.4,20.5c-0.5,3.7-1,7.6-1.5,11.5s-1.1,7.9-1.6,11.9c-0.6,4-1.1,8-1.8,11.9c-0.6,3.9-1.2,7.8-1.8,11.5
									s-1.2,7.3-1.8,10.7c-0.6,3.4-1.2,6.6-1.7,9.6c-1.1,5.9-2.1,10.8-2.9,14.3c-0.7,3.4-1.2,5.4-1.2,5.4s0.3-2,0.7-5.5
									s1-8.5,1.6-14.4c0.3-3,0.6-6.2,0.9-9.7c0.3-3.4,0.6-7,0.9-10.8c0.3-3.7,0.6-7.6,0.8-11.5c0.3-3.9,0.5-7.9,0.7-11.9
									s0.4-8,0.6-11.9c0.2-3.9,0.3-7.8,0.5-11.6c0.3-7.5,0.5-14.5,0.6-20.5c0.1-3,0.1-5.7,0.2-8.2c0-2.4,0.1-4.6,0.1-6.3
									c0-3.5,0.1-5.5,0.1-5.5c0-3.1,2.5-5.5,5.6-5.5s5.5,2.5,5.5,5.6C-238.8,4.9-238.8,5.1-238.8,5.2z"/>
							</g>
							<g>
								<g>
									<path class="st5" d="M-167.2,30.2c0,0,0,1.2,0.1,3.4c0,2.1,0.1,5.2,0.3,8.9c0.3,7.4,0.8,17.3,1.6,27.1
										c0.7,9.9,1.7,19.7,2.4,27.1c0.4,3.7,0.7,6.8,0.9,8.9s0.4,3.4,0.4,3.4s-0.2-1.2-0.5-3.4c-0.3-2.1-0.8-5.2-1.3-8.9
										c-1.1-7.3-2.4-17.1-3.6-27c-1.2-9.8-2.1-19.7-2.7-27.1c-0.3-3.7-0.5-6.8-0.7-9c-0.1-2.2-0.2-3.4-0.2-3.4L-167.2,30.2z"/>
								</g>
								<g>
									<path class="st5" d="M-175,30.2c0,0,0,3.1,0.2,7.9c0.1,4.7,0.4,11,0.8,17.3c0.7,12.6,1.9,25.1,1.9,25.1s-2-12.4-3.5-25
										c-0.8-6.3-1.5-12.5-1.9-17.2c-0.5-4.7-0.7-7.9-0.7-7.9L-175,30.2z"/>
								</g>
							</g>
						</g>
					</g>
				</g>
			</g>
			<g>
				<path class="st3" d="M-229.5-53.5c0,0-36.4-3.8-36.4,35.2c0,39.1,56.5,32,67.8,17c0,0-5,33.3,24.3,33.3s16.6-45.6,16.6-45.6
					s9.8-15.7-5.6-21.6c0,0,4.4-21.8-20.7-18.5C-183.6-53.6-203.4-77.2-229.5-53.5z"/>
				<g>
					<path class="st3" d="M-164.1,22c-1.3,1.8-3.8,4.1-9.7,4.1c-6.2,0-10.7-1.7-13.8-5.3"/>
					<path class="st3" d="M-178.6-48.1c4,0,6.8,0.9,8.3,2.8c2.3,2.8,1.9,7.7,1.7,8.9c-0.6,2.8,1,5.7,3.7,6.7
						c3.8,1.5,4.4,3.3,4.6,3.9c1.1,3.1-1.1,7.8-1.9,9.1"/>
					<path class="st3" d="M-205.9-58.2c10.5,0,17.8,8.3,17.8,8.3"/>
					<path class="st3" d="M-259.9-18.3c0-25.6,17.5-29.4,27.9-29.4"/>
				</g>
			</g>
		</g>
	</g>
	<g>
		<path class="st4" d="M-210.6,506c-15.3,0-27.6-2.2-35.2-4.1c-4.1-1-6.6-5-5.8-9.1c0.8-3.8,1.8-10,2.6-17.9l0.2-1.9l1.9,0.5
			c4.5,1.1,16.8,3.6,34.7,3.6c12.6,0,25.5-1.3,38.3-3.7l1.8-0.3l0.2,1.8c0.7,8,1.8,14.2,2.5,18c0.8,4.1-1.7,8.1-5.8,9.1
			C-186.7,504.6-198.5,506-210.6,506z"/>
		<path class="st5" d="M-173.7,474.9c0.7,7.9,1.7,14.1,2.6,18.1c0.7,3.3-1.4,6.4-4.6,7.2c-12.6,3.1-24.4,4.1-34.9,4.1
			c-15.6,0-28-2.4-34.8-4.1c-3.2-0.8-5.2-4-4.6-7.2c0.8-4.1,1.9-10.2,2.6-18.1c4.4,1.1,16.9,3.6,35.1,3.6
			C-201.3,478.6-188.2,477.7-173.7,474.9 M-250.3,470.9l-0.3,3.8c-0.7,7.9-1.8,14-2.5,17.7c-1,5,2.1,9.8,7,11.1
			c7.7,1.9,20.1,4.2,35.6,4.2c12.2,0,24.1-1.4,35.6-4.2c5-1.2,8.1-6.1,7.1-11.1c-0.8-3.7-1.8-9.9-2.5-17.8l-0.3-3.7l-3.7,0.7
			c-12.7,2.5-25.5,3.7-38,3.7c-17.7,0-29.9-2.5-34.3-3.5L-250.3,470.9L-250.3,470.9z"/>
	</g>
	<g>
		<path class="st4" d="M-212.3,496.4c-18.3,0-30.9-2.6-35.5-3.7l-1.4-0.3l0.1-1.4c1.4-15.5,1.6-39.9-5.3-67.9
			c-6.7-27.1-8.9-58.2-9.7-79.5l-0.1-1.6l1.6-0.1c7.1-0.6,26.3-2.1,51.9-2.1c17.8,0,35.3,0.7,52,2.1l1.6,0.1l-0.1,1.6
			c-0.7,21.3-3,52.3-9.7,79.4c-6.9,28-6.7,52.3-5.3,67.8l0.1,1.5l-1.5,0.3C-186.3,495.2-199.4,496.4-212.3,496.4L-212.3,496.4z"/>
		<path class="st5" d="M-210.5,341.5c15.4,0,33.2,0.5,51.9,2.1c-0.8,23.3-3.2,53-9.6,79.1c-6.8,27.6-6.8,51.7-5.3,68.4
			c-14.6,2.8-27.7,3.8-38.7,3.8c-18.1,0-30.7-2.6-35.1-3.6c1.5-16.6,1.5-40.8-5.3-68.5c-6.4-26.1-8.8-55.8-9.6-79.1
			C-255.5,342.9-236.2,341.5-210.5,341.5 M-210.5,338.1c-25.7,0-44.9,1.5-52,2.1l-3.1,0.3l0.1,3.1c0.7,21.4,3,52.6,9.7,79.8
			c6.9,27.8,6.6,52,5.3,67.4l-0.3,2.8l2.8,0.7c4.6,1.1,17.4,3.7,35.8,3.7c12.9,0,26.1-1.3,39.3-3.8l2.9-0.6l-0.3-3
			c-1.4-15.4-1.6-39.5,5.3-67.3c6.7-27.2,9-58.4,9.7-79.8l0.1-3.2l-3.1-0.3C-175.1,338.9-192.7,338.1-210.5,338.1L-210.5,338.1z"/>
	</g>
	<g>
		<g>
			<path class="st13" d="M-258.6,302.8c-6.8,1.7-13.4,0.6-16-4.4c-4.7-9.1,4.7-17.7,4.7-17.7c19.9-17.7,55.8,0.8,55.8,0.8
				c19.6-11.6,32.1,1.7,32.1,1.7s22-1.2,20.7,18.3c0,0-34.1-4.2-92.5-0.3C-253.9,301.1-256.6,300.8-258.6,302.8z"/>
			<g>
				<path class="st14" d="M-264.7,303.5c0,0,16-1.8,26.3-13.4"/>
				<g>
					<path class="st14" d="M-255.6,279.6c0,0-14.2,4.9-14.1,14.9"/>
					<path class="st14" d="M-166.8,300.9c0,0,0.6-8.1-7.7-10.8"/>
				</g>
			</g>
		</g>
		<g>
			<g>
				<path class="st15" d="M-163.1,346.3c-44.2-3.5-82.2-1-94.8,0c0.8,22.5,3.1,51.3,9.5,76.4c6,23.6,6.8,44.7,6,60.1
					c-0.1,2.6,1.8,4.8,4.4,5.2c6.1,0.9,14.9,1.8,25.7,1.8l0,0c9.6,0,19.4-0.7,29.2-2.2c2.6-0.4,4.6-2.6,4.4-5.2
					c-0.7-15.3,0.1-36.3,6-59.8C-166.2,397.6-163.8,368.8-163.1,346.3z"/>
			</g>
			<g>
				<g>
					<path class="st4" d="M-158.8,345.2c-16.6-1.4-34-2.1-51.8-2.1c-25.5,0-44.6,1.5-51.6,2.1l-1.7,0.2l-0.1-1.8
						c-0.5-15.7-0.3-28.6-0.2-34.8c0.1-4,3.2-7.3,7.3-7.6c16.2-1.1,32.6-1.7,48.6-1.7c21.2,0,36.8,1,44.2,1.6c4,0.3,7.1,3.6,7.2,7.6
						c0.2,6.3,0.4,19.1-0.2,34.9l-0.1,1.7L-158.8,345.2z"/>
					<path class="st5" d="M-208.2,301.1c21,0,36.4,1,44.1,1.6c3.1,0.3,5.6,2.8,5.6,6c0.2,6.8,0.4,19.4-0.2,34.8
						c-18.8-1.6-36.5-2.1-51.9-2.1c-25.7,0-44.9,1.5-51.7,2.1c-0.5-15.3-0.3-27.9-0.2-34.7c0.1-3.2,2.6-5.8,5.7-6
						C-238.5,301.6-222.2,301.1-208.2,301.1 M-208.2,297.8v3.3V297.8c-16.1,0-32.4,0.6-48.7,1.7c-4.9,0.3-8.7,4.3-8.8,9.2
						c-0.2,6.3-0.4,19.1,0.2,34.9l0.1,3.5l3.5-0.3c7-0.6,26-2.1,51.4-2.1c17.7,0,35.1,0.7,51.6,2.1l3.5,0.3l0.1-3.5
						c0.5-15.9,0.3-28.8,0.2-35c-0.1-4.8-3.9-8.8-8.7-9.2C-171.3,298.9-187,297.8-208.2,297.8L-208.2,297.8z"/>
				</g>
				<g>
					<g>
						<path class="st8" d="M-242.6,312.7c0,0-0.1,0.5-0.2,1.3c-0.1,0.8-0.3,2.2-0.5,3.7c-0.2,1.6-0.4,3.5-0.6,5.7
							c-0.2,2.2-0.4,4.7-0.6,7.5c-0.2,2.7-0.4,5.7-0.5,8.9c-0.1,3.2-0.2,6.5-0.3,10s-0.1,7,0,10.7c0,3.6,0.1,7.3,0.2,11.1
							c0.5,14.8,1.6,29.7,2.8,40.8c0.1,1.4,0.3,2.7,0.4,3.9c0.2,1.3,0.4,2.4,0.6,3.6c0.4,2.2,0.7,4.2,1,5.8c0.6,3.2,0.9,5.1,0.9,5.1
							s-0.5-1.8-1.4-4.9c-0.4-1.6-1-3.5-1.6-5.7c-0.3-1.1-0.6-2.3-1-3.5c-0.3-1.3-0.6-2.6-0.9-4c-2.3-11-5-25.7-7-40.6
							c-0.5-3.7-1-7.4-1.4-11.1s-0.8-7.3-1.1-10.8s-0.5-6.9-0.7-10.2c-0.2-3.2-0.3-6.3-0.4-9.2c-0.1-2.8-0.1-5.5-0.1-7.8
							s0-4.4,0-6.1s0.1-2.9,0.1-3.8s0-1.3,0-1.3c0.1-3.4,2.9-6,6.3-5.9c3.4,0.1,6,2.9,5.9,6.3C-242.5,312.2-242.5,312.5-242.6,312.7
							z"/>
					</g>
					<g>
						<g>
							<path class="st5" d="M-163.8,301c0,0,0,1.8,0.1,4.8c0,3.1,0,7.5,0,12.8c-0.1,5.3-0.2,11.4-0.5,18c-0.1,3.3-0.3,6.7-0.5,10.2
								s-0.5,7-0.8,10.5s-0.6,7-1,10.5c-0.4,3.4-0.8,6.8-1.2,10.1c-0.4,3.3-0.9,6.4-1.3,9.4c-0.5,3-0.9,5.8-1.4,8.4
								c-1,5.2-1.9,9.5-2.6,12.5c-0.7,3-1.1,4.7-1.1,4.7s0.4-1.7,1-4.7s1.4-7.3,2.2-12.5c0.4-2.6,0.8-5.4,1.2-8.4s0.7-6.2,1.1-9.4
								c0.3-3.3,0.6-6.7,0.9-10.1c0.3-3.4,0.5-6.9,0.7-10.4s0.3-7,0.4-10.5c0.1-3.4,0.2-6.8,0.2-10.1c0.1-6.6,0.1-12.7,0-18
								s-0.2-9.6-0.3-12.7s-0.2-4.8-0.2-4.8L-163.8,301z"/>
						</g>
						<g>
							<path class="st5" d="M-169.7,300.9c0,0,0.1,4.9,0.1,12.3s-0.3,17.3-0.8,27.1c-0.5,9.8-1.3,19.7-2.1,27s-1.5,12.2-1.5,12.2
								s0.5-4.9,1-12.3s0.9-17.2,1-27s-0.1-19.7-0.4-27c-0.3-7.4-0.6-12.3-0.6-12.3L-169.7,300.9z"/>
						</g>
					</g>
				</g>
				<g>
					<circle class="st16" cx="-218.9" cy="369.8" r="4.7"/>
					<circle class="st17" cx="-224" cy="385" r="2.4"/>
					<circle class="st9" cx="-219.7" cy="350.5" r="1.5"/>
				</g>
			</g>
		</g>
	</g>
</g>
<g id="Background">
	<g>
		<path class="st18" d="M-248.7,570.7c0.1-0.1,0.2-0.1,0.3-0.1h0.4c0.1,0,0.2,0,0.3,0.1s0.1,0.2,0.1,0.3v0.2l-4.4,12.3
			c-0.1,0.3-0.3,0.5-0.6,0.5h-0.7c-0.3,0-0.5-0.2-0.6-0.5l-4.4-12.3V571c0-0.1,0-0.2,0.1-0.3s0.2-0.1,0.3-0.1h0.4
			c0.1,0,0.2,0,0.3,0.1s0.1,0.1,0.1,0.2l4.2,11.6l4.2-11.6C-248.8,570.9-248.8,570.8-248.7,570.7z"/>
		<path class="st18" d="M-238.4,579c0,0.4,0,0.7,0,0.8c0,1.3-0.4,2.3-1.1,3.1c-0.7,0.8-1.8,1.2-3.1,1.2s-2.3-0.4-3.1-1.2
			c-0.7-0.8-1.1-1.8-1.1-3.1V579v-0.8c0-1.3,0.4-2.3,1.1-3.1s1.8-1.2,3.1-1.2s2.3,0.4,3.1,1.2s1.1,1.8,1.1,3.1
			C-238.4,578.3-238.4,578.6-238.4,579z M-244.8,575.8c-0.6,0.6-0.8,1.4-0.9,2.5v0.7v0.7c0,1.1,0.3,1.9,0.9,2.5s1.3,0.9,2.2,0.9
			s1.6-0.3,2.2-0.9c0.6-0.6,0.8-1.4,0.9-2.5c0-0.1,0-0.4,0-0.7s0-0.6,0-0.7c0-1.1-0.3-1.9-0.9-2.5c-0.6-0.6-1.3-0.9-2.2-0.9
			S-244.2,575.3-244.8,575.8z"/>
		<path class="st18" d="M-234.7,583.8c-0.1,0.1-0.2,0.1-0.3,0.1h-0.3c-0.1,0-0.2,0-0.3-0.1s-0.1-0.2-0.1-0.3v-12.7
			c0-0.1,0-0.2,0.1-0.3s0.2-0.1,0.3-0.1h0.3c0.1,0,0.2,0,0.3,0.1s0.1,0.2,0.1,0.3v12.7C-234.6,583.6-234.6,583.7-234.7,583.8z"/>
		<path class="st18" d="M-230,583.8c-0.1,0.1-0.2,0.1-0.3,0.1h-0.9c-0.1,0-0.2,0-0.3-0.1s-0.1-0.2-0.1-0.3v-0.9c0-0.1,0-0.2,0.1-0.3
			s0.2-0.1,0.3-0.1h0.9c0.1,0,0.2,0,0.3,0.1s0.1,0.2,0.1,0.3v0.9C-229.9,583.6-229.9,583.7-230,583.8z"/>
		<path class="st18" d="M-221.3,580.6l-1.2,3c0,0.1-0.1,0.1-0.1,0.2s-0.2,0.1-0.3,0.1h-0.4c-0.1,0-0.2,0-0.3-0.1s-0.1-0.2-0.1-0.3
			v-0.2l4.8-12.3c0.1-0.3,0.3-0.4,0.6-0.4h0.6c0.3,0,0.4,0.1,0.6,0.4l4.8,12.3v0.2c0,0.1,0,0.2-0.1,0.3s-0.2,0.1-0.3,0.1h-0.4
			c-0.1,0-0.2,0-0.3-0.1s-0.1-0.1-0.1-0.2l-1.2-3H-221.3z M-215,579.5l-2.9-7.5l-2.9,7.5H-215z"/>
		<path class="st18" d="M-209.2,583.8c-0.1,0.1-0.2,0.1-0.3,0.1h-0.3c-0.1,0-0.2,0-0.3-0.1s-0.1-0.2-0.1-0.3v-12.7
			c0-0.1,0-0.2,0.1-0.3s0.2-0.1,0.3-0.1h0.3c0.1,0,0.2,0,0.3,0.1s0.1,0.2,0.1,0.3v12.7C-209,583.6-209.1,583.7-209.2,583.8z"/>
		<path class="st18" d="M-204.4,582.2c0.5,0.6,1.3,0.8,2.2,0.8c0.7,0,1.3-0.1,1.7-0.4c0.5-0.3,0.8-0.8,1.1-1.5
			c0.1-0.2,0.1-0.3,0.2-0.3c0.1-0.1,0.1-0.1,0.3-0.1h0.3c0.1,0,0.2,0,0.3,0.1s0.1,0.2,0.1,0.3c0,0.5-0.2,1-0.5,1.4
			c-0.3,0.5-0.7,0.8-1.3,1.1s-1.3,0.4-2.1,0.4c-1.3,0-2.3-0.4-3.1-1.2c-0.7-0.8-1.1-1.8-1.1-3.2v-0.8V578c0-1.4,0.4-2.5,1.1-3.2
			c0.7-0.8,1.7-1.1,3.1-1.1c0.8,0,1.5,0.1,2.1,0.4c0.6,0.3,1,0.7,1.3,1.1c0.3,0.5,0.4,0.9,0.5,1.4c0,0.1,0,0.2-0.1,0.3
			s-0.2,0.1-0.3,0.1h-0.3c-0.1,0-0.2,0-0.3-0.1s-0.1-0.2-0.2-0.3c-0.3-0.7-0.6-1.2-1.1-1.5s-1-0.4-1.7-0.4c-0.9,0-1.6,0.3-2.2,0.8
			s-0.8,1.4-0.9,2.5v0.7v0.7C-205.2,580.8-204.9,581.6-204.4,582.2z"/>
		<path class="st18" d="M-194.3,583.8c-0.1,0.1-0.2,0.1-0.3,0.1h-0.9c-0.1,0-0.2,0-0.3-0.1s-0.1-0.2-0.1-0.3v-0.9
			c0-0.1,0-0.2,0.1-0.3s0.2-0.1,0.3-0.1h0.9c0.1,0,0.2,0,0.3,0.1s0.1,0.2,0.1,0.3v0.9C-194.1,583.6-194.2,583.7-194.3,583.8z"/>
		<path class="st18" d="M-183.1,583.6C-183.1,583.6-183.1,583.7-183.1,583.6c-0.2,0.2-0.2,0.2-0.3,0.3c-0.1,0-0.2,0.1-0.3,0.1h-0.4
			c-0.1,0-0.2,0-0.3-0.1s-0.1-0.2-0.1-0.3s0-0.2,0.1-0.2l3-4.2c-0.4,0.1-0.8,0.2-1.2,0.2c-1,0-1.8-0.2-2.5-0.6s-1.2-1-1.5-1.6
			c-0.3-0.7-0.5-1.4-0.5-2.1c0-0.7,0.2-1.4,0.5-2.1c0.3-0.7,0.9-1.2,1.5-1.6c0.7-0.4,1.5-0.6,2.5-0.6s1.8,0.2,2.5,0.6
			c0.7,0.4,1.2,1,1.5,1.6c0.3,0.7,0.5,1.4,0.5,2.1c0,0.7-0.1,1.2-0.3,1.7s-0.5,1-0.8,1.4L-183.1,583.6z M-180.9,577.7
			c0.5-0.3,0.9-0.6,1.2-1.1s0.5-1.1,0.5-1.7c0-0.6-0.2-1.2-0.5-1.7s-0.7-0.9-1.2-1.1c-0.5-0.3-1.1-0.4-1.7-0.4
			c-0.6,0-1.1,0.1-1.7,0.4c-0.5,0.3-0.9,0.6-1.2,1.1s-0.4,1.1-0.4,1.7c0,0.6,0.1,1.2,0.4,1.7c0.3,0.5,0.7,0.9,1.2,1.1
			c0.5,0.3,1.1,0.4,1.7,0.4S-181.4,577.9-180.9,577.7z"/>
		<path class="st18" d="M-176.3,582.2h0.9c0.1,0,0.2,0,0.2,0.1s0.1,0.1,0.1,0.2c0,0.1,0,0.2-0.1,0.3l-0.8,2.1
			c-0.1,0.1-0.1,0.2-0.2,0.3c-0.1,0.1-0.2,0.1-0.3,0.1h-0.3c-0.1,0-0.2,0-0.2-0.1c-0.1-0.1-0.1-0.2,0-0.3l0.4-2.3
			C-176.7,582.3-176.5,582.2-176.3,582.2z"/>
		<path class="st18" d="M-169.1,583.8c-0.1,0.1-0.2,0.1-0.3,0.1h-0.4c-0.1,0-0.2,0-0.3-0.1s-0.1-0.2-0.1-0.3v-11.3l-3.4,2.6
			c-0.1,0.1-0.2,0.1-0.3,0.1s-0.2-0.1-0.3-0.2l-0.2-0.3c-0.1-0.1-0.1-0.2-0.1-0.3s0.1-0.2,0.2-0.3l4-3.1c0.1-0.1,0.3-0.1,0.5-0.1
			h0.4c0.1,0,0.2,0,0.3,0.1s0.1,0.2,0.1,0.3v12.5C-168.9,583.6-169,583.7-169.1,583.8z"/>
		<path class="st18" d="M-161.8,576.6c-0.5,0.4-1.1,0.7-1.9,0.7c-0.8,0-1.4-0.2-1.9-0.7c-0.5-0.4-0.7-1-0.8-1.8c0-0.2,0-0.5,0-0.8
			c0-0.4,0-0.6,0-0.9c0-0.8,0.3-1.4,0.7-1.9s1.1-0.7,1.9-0.7s1.5,0.2,1.9,0.7s0.7,1.1,0.7,1.9c0,0.5,0,0.7,0,0.9c0,0.1,0,0.4,0,0.8
			C-161.1,575.6-161.4,576.2-161.8,576.6z M-164.7,583.8c-0.1,0.1-0.2,0.1-0.4,0.1h-0.3c-0.1,0-0.2,0-0.3-0.1s-0.1-0.2-0.1-0.3
			s0-0.1,0.1-0.2l9.4-12.4c0.1-0.1,0.2-0.2,0.3-0.3s0.2-0.1,0.4-0.1h0.3c0.1,0,0.2,0,0.3,0.1s0.1,0.2,0.1,0.3s0,0.1-0.1,0.2
			l-9.4,12.3C-164.5,583.7-164.6,583.8-164.7,583.8z M-162.6,575.9c0.2-0.3,0.4-0.7,0.4-1.1c0-0.5,0-0.7,0-0.8s0-0.3,0-0.8
			c0-0.4-0.2-0.8-0.4-1.1s-0.6-0.5-1.1-0.5s-0.9,0.2-1.1,0.5s-0.4,0.7-0.4,1.1c0,0.2,0,0.5,0,0.8s0,0.6,0,0.8c0,0.4,0.2,0.8,0.4,1.1
			s0.6,0.5,1.1,0.5C-163.2,576.3-162.8,576.2-162.6,575.9z M-155.1,583.4c-0.5,0.5-1.1,0.7-1.9,0.7s-1.4-0.2-1.9-0.7
			s-0.7-1.1-0.8-1.9c0-0.2,0-0.5,0-0.8c0-0.4,0-0.6,0-0.9c0-0.8,0.3-1.4,0.7-1.9s1.1-0.7,1.9-0.7s1.5,0.2,1.9,0.7s0.7,1.1,0.7,1.9
			c0,0.5,0,0.7,0,0.9c0,0.1,0,0.4,0,0.8C-154.4,582.3-154.6,582.9-155.1,583.4z M-155.9,582.5c0.2-0.3,0.4-0.7,0.4-1.1
			c0-0.5,0-0.7,0-0.8s0-0.3,0-0.8c0-0.4-0.2-0.8-0.4-1.1s-0.6-0.5-1.1-0.5s-0.9,0.2-1.1,0.5s-0.4,0.7-0.4,1.1c0,0.2,0,0.5,0,0.8
			s0,0.6,0,0.8c0,0.4,0.2,0.8,0.4,1.1s0.6,0.5,1.1,0.5S-156.1,582.8-155.9,582.5z"/>
	</g>
	<g>
		<path class="st19" d="M-282.8,544.9c-0.8,1.3-1.8,2.3-3.2,3c-1.3,0.7-2.9,1-4.6,1h-7.5c-0.2,0-0.4-0.1-0.6-0.3s-0.3-0.4-0.3-0.6
			v-20.7c0-0.2,0.1-0.4,0.3-0.6s0.4-0.3,0.6-0.3h7.3c1.8,0,3.3,0.3,4.7,1s2.5,1.7,3.2,3c0.8,1.3,1.2,2.9,1.2,4.6c0,0.6,0,1.5,0,2.5
			s0,1.9,0,2.5C-281.7,542-282,543.6-282.8,544.9z M-296,529.4V546h5.2c2.1,0,3.7-0.6,4.6-1.7s1.4-2.5,1.5-4.3c0-0.6,0-1.4,0-2.4
			c0-0.9,0-1.7,0-2.4c0-1.7-0.6-3.2-1.6-4.3s-2.6-1.7-4.7-1.7h-5V529.4z"/>
		<path class="st19" d="M-267.5,538.4V538c0-1-0.3-1.9-1-2.4c-0.7-0.6-1.6-0.8-2.7-0.8c-0.9,0-1.5,0.1-2,0.4
			c-0.5,0.3-0.9,0.7-1.4,1.3c-0.1,0.2-0.3,0.3-0.4,0.4c-0.1,0.1-0.4,0.1-0.6,0.1h-1c-0.2,0-0.4-0.1-0.6-0.3s-0.3-0.4-0.2-0.6
			c0.1-0.6,0.4-1.3,0.9-1.9s1.3-1.1,2.3-1.6c0.9-0.4,1.9-0.6,3-0.6c2,0,3.6,0.6,4.8,1.7s1.8,2.7,1.8,4.7v9.8c0,0.2-0.1,0.4-0.3,0.6
			s-0.4,0.3-0.6,0.3h-1.2c-0.2,0-0.4-0.1-0.6-0.3s-0.3-0.4-0.3-0.6v-1.3c-0.3,0.8-1.1,1.4-2.2,1.8c-1.1,0.4-2.2,0.7-3.3,0.7
			s-2.1-0.2-2.9-0.6c-0.9-0.4-1.5-0.9-2-1.6s-0.7-1.5-0.7-2.3c0-1.6,0.6-2.9,1.8-3.8c1.2-0.9,2.8-1.5,4.8-1.8L-267.5,538.4z
			 M-267.5,540.9l-3.8,0.6c-1.4,0.2-2.5,0.6-3.2,1c-0.8,0.5-1.2,1.1-1.2,1.8c0,0.5,0.2,1,0.7,1.4s1.2,0.6,2.2,0.6
			c1.5,0,2.8-0.4,3.7-1.3c1-0.9,1.4-2,1.4-3.4v-0.7L-267.5,540.9L-267.5,540.9z"/>
		<path class="st19" d="M-250.8,532.5c0.2,0.2,0.3,0.4,0.3,0.6v1c0,0.2-0.1,0.4-0.3,0.6c-0.2,0.2-0.4,0.3-0.6,0.3h-1.9
			c-1.2,0-2.1,0.3-2.7,0.9c-0.6,0.6-0.9,1.5-0.9,2.7v9.3c0,0.2-0.1,0.4-0.3,0.6s-0.4,0.3-0.6,0.3h-1.2c-0.2,0-0.4-0.1-0.6-0.3
			s-0.3-0.4-0.3-0.6V533c0-0.2,0.1-0.4,0.3-0.6s0.4-0.3,0.6-0.3h1.2c0.2,0,0.4,0.1,0.6,0.3s0.3,0.4,0.3,0.6v1
			c0.4-0.6,0.9-1.1,1.5-1.4c0.6-0.3,1.4-0.4,2.3-0.4h1.7C-251.2,532.3-251,532.4-250.8,532.5z"/>
		<path class="st19" d="M-244.9,548.1c0,0.2-0.1,0.4-0.3,0.6s-0.4,0.3-0.6,0.3h-1.2c-0.2,0-0.4-0.1-0.6-0.3s-0.3-0.4-0.3-0.6v-21
			c0-0.2,0.1-0.4,0.3-0.6s0.4-0.3,0.6-0.3h1.2c0.2,0,0.4,0.1,0.6,0.3s0.3,0.4,0.3,0.6v10.6l6.2-4.8c0.2-0.2,0.4-0.3,0.6-0.4
			c0.2-0.1,0.4-0.1,0.6-0.1h1.6c0.2,0,0.4,0.1,0.5,0.2s0.2,0.3,0.2,0.5s-0.1,0.4-0.4,0.6l-7.7,6l8.5,7.8c0.2,0.2,0.3,0.4,0.3,0.6
			c0,0.2-0.1,0.4-0.2,0.5c-0.1,0.1-0.3,0.2-0.5,0.2h-1.5c-0.4,0-0.9-0.2-1.3-0.5l-7-6.5L-244.9,548.1L-244.9,548.1L-244.9,548.1z"/>
		<path class="st19" d="M-208.8,532.5c-0.1,0.1-0.3,0.2-0.5,0.2h-1.3c-0.3,0-0.4,0-0.6-0.1s-0.3-0.3-0.4-0.6c-0.3-0.7-0.9-1.3-1.8-2
			c-0.8-0.6-2-1-3.3-1s-2.4,0.3-3.2,0.9c-0.9,0.6-1.3,1.4-1.3,2.5c0,0.7,0.2,1.3,0.7,1.8c0.4,0.5,1.1,0.9,2,1.2s2.2,0.7,4,1.2
			c2.4,0.6,4.2,1.4,5.2,2.4c1,0.9,1.5,2.2,1.5,3.8c0,1.3-0.4,2.4-1.1,3.4c-0.7,1-1.7,1.8-3,2.3c-1.3,0.6-2.8,0.8-4.5,0.8
			c-1.6,0-3-0.3-4.3-0.9c-1.3-0.6-2.3-1.4-3.1-2.3c-0.7-0.9-1.1-1.9-1.2-2.8c0-0.2,0.1-0.4,0.2-0.5s0.3-0.2,0.5-0.2h1.3
			c0.2,0,0.4,0,0.6,0.1c0.1,0.1,0.3,0.3,0.4,0.6c0.3,0.8,1,1.5,1.9,2.1s2.1,1,3.7,1s2.9-0.3,4-1s1.6-1.6,1.6-2.6
			c0-0.7-0.3-1.3-0.8-1.8c-0.6-0.5-1.3-0.9-2.3-1.2s-2.4-0.7-4.3-1.2c-2.1-0.5-3.6-1.3-4.5-2.3s-1.4-2.3-1.4-3.8
			c0-1.1,0.3-2.1,0.9-3.1c0.6-0.9,1.4-1.7,2.6-2.3c1.2-0.6,2.5-0.9,4.2-0.9s3,0.3,4.3,0.9c1.2,0.6,2.2,1.4,2.8,2.3
			c0.7,0.9,1,1.8,1.1,2.5C-208.6,532.2-208.6,532.3-208.8,532.5z"/>
		<path class="st19" d="M-199.2,545.4c0.4,0.5,1.1,0.7,2.1,0.7h1.7c0.2,0,0.4,0.1,0.6,0.3c0.2,0.2,0.3,0.4,0.3,0.6v1
			c0,0.2-0.1,0.4-0.3,0.6c-0.2,0.2-0.4,0.3-0.6,0.3h-2c-1.8,0-3.1-0.5-4-1.4s-1.3-2.3-1.3-4.2V535h-2.4c-0.2,0-0.4-0.1-0.6-0.3
			s-0.3-0.4-0.3-0.6v-1c0-0.2,0.1-0.4,0.3-0.6s0.4-0.3,0.6-0.3h2.4V527c0-0.2,0.1-0.4,0.3-0.6s0.4-0.3,0.6-0.3h1.2
			c0.2,0,0.4,0.1,0.6,0.3c0.2,0.2,0.3,0.4,0.3,0.6v5.2h4.1c0.2,0,0.4,0.1,0.6,0.3s0.3,0.4,0.3,0.6v1c0,0.2-0.1,0.4-0.3,0.6
			s-0.4,0.3-0.6,0.3h-4.1v8.3C-199.8,544.2-199.6,544.9-199.2,545.4z"/>
		<path class="st19" d="M-182.3,532.5c0.2,0.2,0.3,0.4,0.3,0.6v1c0,0.2-0.1,0.4-0.3,0.6c-0.2,0.2-0.4,0.3-0.6,0.3h-1.9
			c-1.2,0-2.1,0.3-2.7,0.9c-0.6,0.6-0.9,1.5-0.9,2.7v9.3c0,0.2-0.1,0.4-0.3,0.6s-0.4,0.3-0.6,0.3h-1.2c-0.2,0-0.4-0.1-0.6-0.3
			s-0.3-0.4-0.3-0.6V533c0-0.2,0.1-0.4,0.3-0.6s0.4-0.3,0.6-0.3h1.2c0.2,0,0.4,0.1,0.6,0.3s0.3,0.4,0.3,0.6v1
			c0.4-0.6,0.9-1.1,1.5-1.4c0.6-0.3,1.4-0.4,2.3-0.4h1.7C-182.7,532.3-182.5,532.4-182.3,532.5z"/>
		<path class="st19" d="M-165,540.6c0,0.5,0,1-0.1,1.5c-0.2,2.2-0.9,3.9-2.3,5.2c-1.3,1.3-3.1,1.9-5.3,1.9s-4-0.6-5.3-1.9
			c-1.3-1.3-2.1-3-2.3-5.2c0-0.2,0-0.7,0-1.5s0-1.3,0-1.5c0.2-2.2,0.9-3.9,2.2-5.2s3.1-1.9,5.3-1.9s4,0.6,5.3,1.9
			c1.3,1.3,2.1,3,2.2,5.2C-165,539.6-165,540.1-165,540.6z M-169.4,536c-0.8-0.8-1.9-1.2-3.3-1.2c-1.4,0-2.5,0.4-3.3,1.2
			s-1.2,1.9-1.4,3.3c0,0.3,0,0.7,0,1.4c0,0.6,0,1.1,0,1.3c0.1,1.4,0.6,2.5,1.4,3.3c0.8,0.8,1.9,1.2,3.3,1.2c1.4,0,2.5-0.4,3.3-1.2
			s1.2-1.9,1.4-3.3c0-0.5,0.1-0.9,0.1-1.3s0-0.9-0.1-1.4C-168.1,537.9-168.6,536.8-169.4,536z"/>
		<path class="st19" d="M-146.5,548.7c-0.2,0.2-0.4,0.3-0.6,0.3h-1.2c-0.2,0-0.4-0.1-0.6-0.3s-0.3-0.4-0.3-0.6v-8.5
			c0-1.6-0.4-2.8-1.2-3.6s-1.9-1.2-3.3-1.2s-2.5,0.4-3.3,1.2s-1.2,2-1.2,3.6v8.4c0,0.2-0.1,0.4-0.3,0.6c-0.2,0.2-0.4,0.3-0.6,0.3
			h-1.2c-0.2,0-0.4-0.1-0.6-0.3s-0.3-0.4-0.3-0.6v-14.9c0-0.2,0.1-0.4,0.3-0.6c0.2-0.2,0.4-0.3,0.6-0.3h1.2c0.2,0,0.4,0.1,0.6,0.3
			s0.3,0.4,0.3,0.6v1c0.5-0.6,1.1-1.1,1.9-1.6s1.8-0.6,3-0.6c1.3,0,2.5,0.3,3.6,0.9c1,0.6,1.9,1.4,2.4,2.5c0.6,1.1,0.9,2.4,0.9,3.8
			v8.9C-146.2,548.3-146.3,548.5-146.5,548.7z"/>
		<path class="st19" d="M-132.1,532.6c0.8,0.4,1.5,0.9,1.9,1.6v-1c0-0.2,0.1-0.4,0.3-0.6s0.4-0.3,0.6-0.3h1.2c0.2,0,0.4,0.1,0.6,0.3
			s0.3,0.4,0.3,0.6v15.6c0,2.3-0.6,4-1.9,5.3s-3.2,1.9-5.6,1.9c-1.6,0-2.9-0.2-4-0.7s-1.9-1.1-2.4-1.8s-0.8-1.5-0.8-2.2
			c0-0.2,0.1-0.4,0.2-0.6s0.4-0.3,0.6-0.3h1c0.3,0,0.5,0.1,0.6,0.2s0.3,0.4,0.4,0.7c0.2,0.5,0.6,0.9,1.2,1.4
			c0.6,0.4,1.6,0.6,2.9,0.6c3.3,0,5-1.4,5-4.1v-2c-1.1,1.5-2.7,2.2-5,2.2c-1.3,0-2.5-0.3-3.6-0.9c-1.1-0.6-1.9-1.5-2.6-2.6
			s-1-2.5-1.1-4v-1.1v-1.1c0.1-1.5,0.4-2.9,1.1-4s1.5-2,2.6-2.6s2.3-0.9,3.6-0.9C-133.9,532-132.9,532.2-132.1,532.6z M-138.1,536.1
			c-0.8,0.9-1.3,2.1-1.4,3.6v0.9v0.9c0.1,1.5,0.5,2.8,1.4,3.6c0.8,0.9,1.9,1.3,3.3,1.3s2.5-0.4,3.3-1.3c0.8-0.8,1.3-2,1.3-3.5
			c0-0.2,0-0.6,0-1.2c0-0.6,0-0.9,0-1.2c-0.1-1.5-0.5-2.7-1.3-3.5s-1.9-1.2-3.3-1.2C-136.2,534.7-137.3,535.2-138.1,536.1z"/>
	</g>
	<g>
		<path class="st18" d="M-72.5,227.8c0.1-0.1,0.2-0.1,0.3-0.1h0.4c0.1,0,0.2,0,0.3,0.1c0.1,0.1,0.1,0.2,0.1,0.3v0.2l-4.4,12.3
			c-0.1,0.3-0.3,0.5-0.6,0.5h-0.5c-0.3,0-0.5-0.2-0.6-0.5l-4.4-12.3v-0.2c0-0.1,0-0.2,0.1-0.3s0.2-0.1,0.3-0.1h0.4
			c0.1,0,0.2,0,0.3,0.1c0.1,0.1,0.1,0.1,0.1,0.2l4.2,11.6l4.2-11.6C-72.6,227.9-72.5,227.9-72.5,227.8z"/>
		<path class="st18" d="M-62.2,236.1c0,0.4,0,0.7,0,0.8c0,1.3-0.4,2.3-1.1,3.1c-0.7,0.8-1.8,1.2-3.1,1.2s-2.3-0.4-3.1-1.2
			c-0.7-0.8-1.1-1.8-1.1-3.1v-0.8v-0.8c0-1.3,0.4-2.3,1.1-3.1s1.8-1.2,3.1-1.2s2.3,0.4,3.1,1.2s1.1,1.8,1.1,3.1
			C-62.2,235.4-62.2,235.7-62.2,236.1z M-68.6,232.9c-0.6,0.6-0.8,1.4-0.9,2.5v0.7v0.7c0,1.1,0.3,1.9,0.9,2.5s1.3,0.9,2.2,0.9
			s1.6-0.3,2.2-0.9s0.8-1.4,0.9-2.5c0-0.1,0-0.4,0-0.7s0-0.6,0-0.7c0-1.1-0.3-1.9-0.9-2.5c-0.6-0.6-1.3-0.9-2.2-0.9
			S-68,232.3-68.6,232.9z"/>
		<path class="st18" d="M-58.5,240.9c-0.1,0.1-0.2,0.1-0.3,0.1h-0.3c-0.1,0-0.2,0-0.3-0.1s-0.1-0.2-0.1-0.3v-12.7
			c0-0.1,0-0.2,0.1-0.3s0.2-0.1,0.3-0.1h0.3c0.1,0,0.2,0,0.3,0.1s0.1,0.2,0.1,0.3v12.7C-58.4,240.7-58.4,240.8-58.5,240.9z"/>
		<path class="st18" d="M-53.8,240.9c-0.1,0.1-0.2,0.1-0.3,0.1H-55c-0.1,0-0.2,0-0.3-0.1s-0.1-0.2-0.1-0.3v-0.9c0-0.1,0-0.2,0.1-0.3
			s0.2-0.1,0.3-0.1h0.9c0.1,0,0.2,0,0.3,0.1s0.1,0.2,0.1,0.3v0.9C-53.7,240.7-53.7,240.8-53.8,240.9z"/>
		<path class="st18" d="M-45.1,237.7l-1.2,3c0,0.1-0.1,0.1-0.1,0.2s-0.2,0.1-0.3,0.1h-0.4c-0.1,0-0.2,0-0.3-0.1s-0.1-0.2-0.1-0.3
			v-0.2l4.8-12.3c0.1-0.3,0.3-0.4,0.6-0.4h0.6c0.3,0,0.4,0.1,0.6,0.4l4.8,12.3v0.2c0,0.1,0,0.2-0.1,0.3s-0.2,0.1-0.3,0.1h-0.4
			c-0.1,0-0.2,0-0.3-0.1s-0.1-0.1-0.1-0.2l-1.2-3H-45.1z M-38.8,236.5l-2.9-7.5l-2.9,7.5H-38.8z"/>
		<path class="st18" d="M-32.9,240.9c-0.1,0.1-0.2,0.1-0.3,0.1h-0.3c-0.1,0-0.2,0-0.3-0.1s-0.1-0.2-0.1-0.3v-12.7
			c0-0.1,0-0.2,0.1-0.3s0.2-0.1,0.3-0.1h0.3c0.1,0,0.2,0,0.3,0.1s0.1,0.2,0.1,0.3v12.7C-32.8,240.7-32.9,240.8-32.9,240.9z"/>
		<path class="st18" d="M-28.2,239.3c0.5,0.6,1.3,0.8,2.2,0.8c0.7,0,1.3-0.1,1.7-0.4c0.5-0.3,0.8-0.8,1.1-1.5
			c0.1-0.2,0.1-0.3,0.2-0.3c0.1-0.1,0.1-0.1,0.3-0.1h0.3c0.1,0,0.2,0,0.3,0.1c0.1,0.1,0.1,0.2,0.1,0.3c0,0.5-0.2,1-0.5,1.4
			c-0.3,0.5-0.7,0.8-1.3,1.1c-0.6,0.3-1.3,0.4-2.1,0.4c-1.3,0-2.3-0.4-3.1-1.2c-0.7-0.8-1.1-1.8-1.1-3.2v-0.8v-0.8
			c0-1.4,0.4-2.5,1.1-3.2c0.7-0.8,1.7-1.1,3.1-1.1c0.8,0,1.5,0.1,2.1,0.4s1,0.7,1.3,1.1c0.3,0.5,0.4,0.9,0.5,1.4
			c0,0.1,0,0.2-0.1,0.3s-0.2,0.1-0.3,0.1h-0.3c-0.1,0-0.2,0-0.3-0.1c-0.1-0.1-0.1-0.2-0.2-0.3c-0.3-0.7-0.6-1.2-1.1-1.5
			s-1-0.4-1.7-0.4c-0.9,0-1.6,0.3-2.2,0.8s-0.8,1.4-0.9,2.5v0.7v0.7C-29,237.9-28.7,238.7-28.2,239.3z"/>
		<path class="st18" d="M-18,240.9c-0.1,0.1-0.2,0.1-0.3,0.1h-0.9c-0.1,0-0.2,0-0.3-0.1s-0.1-0.2-0.1-0.3v-0.9c0-0.1,0-0.2,0.1-0.3
			s0.2-0.1,0.3-0.1h0.9c0.1,0,0.2,0,0.3,0.1c0.1,0.1,0.1,0.2,0.1,0.3v0.9C-17.9,240.7-18,240.8-18,240.9z"/>
		<path class="st18" d="M-7.6,233.8c-0.3,0.1-0.6,0.3-0.9,0.5c-0.2,0.1-0.3,0.2-0.5,0.3c-0.1,0.1-0.2,0.1-0.4,0.1h-0.3
			c-0.1,0-0.2,0-0.3-0.1s-0.1-0.2-0.1-0.3l0.6-6.2c0-0.1,0.1-0.2,0.1-0.3c0.1-0.1,0.2-0.1,0.3-0.1h6.2c0.1,0,0.2,0,0.3,0.1
			s0.1,0.2,0.1,0.3v0.3c0,0.1,0,0.2-0.1,0.3s-0.2,0.1-0.3,0.1h-5.5l-0.4,4.3c0.7-0.4,1.5-0.6,2.5-0.6c0.9,0,1.6,0.2,2.3,0.5
			s1.2,0.8,1.6,1.5c0.4,0.6,0.6,1.4,0.6,2.3c0,1-0.2,1.8-0.6,2.4c-0.4,0.7-1,1.2-1.6,1.5c-0.7,0.3-1.5,0.5-2.3,0.5
			c-0.9,0-1.7-0.2-2.3-0.5c-0.7-0.3-1.2-0.8-1.5-1.3s-0.5-1.1-0.6-1.7l0,0c0-0.1,0-0.2,0.1-0.2c0.1-0.1,0.2-0.1,0.3-0.1h0.4
			c0.1,0,0.2,0,0.3,0.1s0.1,0.2,0.2,0.4c0.2,0.8,0.6,1.3,1.2,1.7s1.2,0.6,2,0.6c1,0,1.8-0.3,2.4-0.9s1-1.4,1-2.4
			c0-0.6-0.1-1.2-0.4-1.7s-0.7-0.8-1.2-1.1s-1.1-0.4-1.7-0.4C-6.8,233.6-7.2,233.7-7.6,233.8z"/>
		<path class="st18" d="M1.2,239.2h0.9c0.1,0,0.2,0,0.2,0.1s0.1,0.1,0.1,0.2s0,0.2-0.1,0.3l-0.8,2.1c-0.1,0.1-0.1,0.2-0.2,0.3
			s-0.2,0.1-0.3,0.1H0.7c-0.1,0-0.2,0-0.2-0.1c-0.1-0.1-0.1-0.2,0-0.3l0.4-2.3C0.7,239.4,0.9,239.2,1.2,239.2z"/>
		<path class="st18" d="M9.7,228.1c0,0,0-0.1,0.1-0.1s0.1-0.1,0.2-0.2c0.1,0,0.2-0.1,0.3-0.1h0.4c0.1,0,0.2,0,0.3,0.1
			s0.1,0.2,0.1,0.3s0,0.1-0.1,0.2l-2.9,4c0.4-0.1,0.8-0.2,1.3-0.2c1,0,1.8,0.2,2.5,0.6s1.2,1,1.6,1.6s0.5,1.4,0.5,2.2
			s-0.2,1.5-0.5,2.2c-0.4,0.7-0.9,1.2-1.6,1.7c-0.7,0.4-1.5,0.6-2.5,0.6s-1.8-0.2-2.5-0.6s-1.2-1-1.6-1.7s-0.5-1.4-0.5-2.2
			c0-1.1,0.4-2.2,1.2-3.4L9.7,228.1z M7.7,233.8c-0.5,0.3-0.9,0.6-1.3,1.1c-0.3,0.5-0.5,1.1-0.5,1.8s0.2,1.3,0.5,1.8
			s0.7,0.9,1.3,1.1c0.5,0.3,1.1,0.4,1.7,0.4s1.2-0.1,1.7-0.4s0.9-0.6,1.3-1.1c0.3-0.5,0.5-1.1,0.5-1.8s-0.2-1.3-0.5-1.8
			s-0.7-0.9-1.3-1.1c-0.5-0.3-1.1-0.4-1.7-0.4C8.8,233.4,8.2,233.5,7.7,233.8z"/>
		<path class="st18" d="M20.4,233.7c-0.5,0.4-1.1,0.7-1.9,0.7s-1.4-0.2-1.9-0.7c-0.5-0.4-0.7-1-0.8-1.8c0-0.2,0-0.5,0-0.8
			c0-0.4,0-0.6,0-0.9c0-0.8,0.3-1.4,0.7-1.9s1.1-0.7,1.9-0.7s1.5,0.2,1.9,0.7s0.7,1.1,0.7,1.9c0,0.5,0,0.7,0,0.9c0,0.1,0,0.4,0,0.8
			C21.1,232.7,20.8,233.3,20.4,233.7z M17.5,240.9c-0.1,0.1-0.2,0.1-0.4,0.1h-0.3c-0.1,0-0.2,0-0.3-0.1c-0.1-0.1-0.1-0.2-0.1-0.3
			s0-0.1,0.1-0.2l9.4-12.4c0.1-0.1,0.2-0.2,0.3-0.3s0.2-0.1,0.4-0.1h0.3c0.1,0,0.2,0,0.3,0.1c0.1,0.1,0.1,0.2,0.1,0.3s0,0.1-0.1,0.2
			l-9.4,12.3C17.7,240.8,17.6,240.9,17.5,240.9z M19.6,232.9c0.2-0.3,0.4-0.7,0.4-1.1c0-0.5,0-0.7,0-0.8s0-0.3,0-0.8
			c0-0.4-0.2-0.8-0.4-1.1s-0.6-0.5-1.1-0.5s-0.9,0.2-1.1,0.5s-0.4,0.7-0.4,1.1c0,0.2,0,0.5,0,0.8s0,0.6,0,0.8c0,0.4,0.2,0.8,0.4,1.1
			c0.2,0.3,0.6,0.5,1.1,0.5S19.4,233.2,19.6,232.9z M27.1,240.4c-0.5,0.5-1.1,0.7-1.9,0.7s-1.4-0.2-1.9-0.7s-0.7-1.1-0.8-1.9
			c0-0.2,0-0.5,0-0.8c0-0.4,0-0.6,0-0.9c0-0.8,0.3-1.4,0.7-1.9c0.4-0.5,1.1-0.7,1.9-0.7s1.5,0.2,1.9,0.7s0.7,1.1,0.7,1.9
			c0,0.5,0,0.7,0,0.9c0,0.1,0,0.4,0,0.8C27.8,239.3,27.5,240,27.1,240.4z M26.3,239.6c0.2-0.3,0.4-0.7,0.4-1.1c0-0.5,0-0.7,0-0.8
			s0-0.3,0-0.8c0-0.4-0.2-0.8-0.4-1.1s-0.6-0.5-1.1-0.5s-0.9,0.2-1.1,0.5s-0.4,0.7-0.4,1.1c0,0.2,0,0.5,0,0.8s0,0.6,0,0.8
			c0,0.4,0.2,0.8,0.4,1.1c0.2,0.3,0.6,0.5,1.1,0.5S26.1,239.9,26.3,239.6z"/>
	</g>
	<g>
		<path class="st18" d="M-255.9,227.8c0.1-0.1,0.2-0.1,0.3-0.1h0.4c0.1,0,0.2,0,0.3,0.1s0.1,0.2,0.1,0.3v0.2l-4.5,12.3
			c-0.1,0.3-0.3,0.5-0.6,0.5h-0.5c-0.3,0-0.5-0.2-0.6-0.5l-4.4-12.3v-0.2c0-0.1,0-0.2,0.1-0.3s0.2-0.1,0.3-0.1h0.4
			c0.1,0,0.2,0,0.3,0.1s0.1,0.1,0.1,0.2l4.2,11.6l4.2-11.6C-256,227.9-256,227.9-255.9,227.8z"/>
		<path class="st18" d="M-245.6,236.1c0,0.4,0,0.7,0,0.8c0,1.3-0.4,2.3-1.1,3.1c-0.7,0.8-1.8,1.2-3.1,1.2s-2.3-0.4-3.1-1.2
			c-0.7-0.8-1.1-1.8-1.1-3.1v-0.8v-0.8c0-1.3,0.4-2.3,1.1-3.1s1.8-1.2,3.1-1.2s2.3,0.4,3.1,1.2s1.1,1.8,1.1,3.1
			C-245.6,235.4-245.6,235.7-245.6,236.1z M-252,232.9c-0.6,0.6-0.8,1.4-0.9,2.5v0.7v0.7c0,1.1,0.3,1.9,0.9,2.5s1.3,0.9,2.2,0.9
			s1.6-0.3,2.2-0.9c0.6-0.6,0.8-1.4,0.9-2.5c0-0.1,0-0.4,0-0.7s0-0.6,0-0.7c0-1.1-0.3-1.9-0.9-2.5c-0.6-0.6-1.3-0.9-2.2-0.9
			S-251.5,232.3-252,232.9z"/>
		<path class="st18" d="M-241.9,240.9c-0.1,0.1-0.2,0.1-0.3,0.1h-0.3c-0.1,0-0.2,0-0.3-0.1s-0.1-0.2-0.1-0.3v-12.7
			c0-0.1,0-0.2,0.1-0.3s0.2-0.1,0.3-0.1h0.3c0.1,0,0.2,0,0.3,0.1s0.1,0.2,0.1,0.3v12.7C-241.8,240.7-241.9,240.8-241.9,240.9z"/>
		<path class="st18" d="M-237.2,240.9c-0.1,0.1-0.2,0.1-0.3,0.1h-0.9c-0.1,0-0.2,0-0.3-0.1s-0.1-0.2-0.1-0.3v-0.9
			c0-0.1,0-0.2,0.1-0.3s0.2-0.1,0.3-0.1h0.9c0.1,0,0.2,0,0.3,0.1s0.1,0.2,0.1,0.3v0.9C-237.1,240.7-237.2,240.8-237.2,240.9z"/>
		<path class="st18" d="M-228.5,237.7l-1.2,3c0,0.1-0.1,0.1-0.1,0.2s-0.2,0.1-0.3,0.1h-0.4c-0.1,0-0.2,0-0.3-0.1s-0.1-0.2-0.1-0.3
			v-0.2l4.8-12.3c0.1-0.3,0.3-0.4,0.6-0.4h0.6c0.3,0,0.4,0.1,0.6,0.4l4.8,12.3v0.2c0,0.1,0,0.2-0.1,0.3s-0.2,0.1-0.3,0.1h-0.4
			c-0.1,0-0.2,0-0.3-0.1s-0.1-0.1-0.1-0.2l-1.2-3H-228.5z M-222.3,236.5l-2.9-7.5l-2.9,7.5H-222.3z"/>
		<path class="st18" d="M-216.4,240.9c-0.1,0.1-0.2,0.1-0.3,0.1h-0.3c-0.1,0-0.2,0-0.3-0.1s-0.1-0.2-0.1-0.3v-12.7
			c0-0.1,0-0.2,0.1-0.3s0.2-0.1,0.3-0.1h0.3c0.1,0,0.2,0,0.3,0.1s0.1,0.2,0.1,0.3v12.7C-216.3,240.7-216.3,240.8-216.4,240.9z"/>
		<path class="st18" d="M-211.6,239.3c0.5,0.6,1.3,0.8,2.2,0.8c0.7,0,1.3-0.1,1.7-0.4c0.5-0.3,0.8-0.8,1.1-1.5
			c0.1-0.2,0.1-0.3,0.2-0.3c0.1-0.1,0.1-0.1,0.3-0.1h0.3c0.1,0,0.2,0,0.3,0.1s0.1,0.2,0.1,0.3c0,0.5-0.2,1-0.5,1.4
			c-0.3,0.5-0.7,0.8-1.3,1.1s-1.3,0.4-2.1,0.4c-1.3,0-2.3-0.4-3.1-1.2c-0.7-0.8-1.1-1.8-1.1-3.2v-0.8v-0.8c0-1.4,0.4-2.5,1.1-3.2
			c0.7-0.8,1.7-1.1,3.1-1.1c0.8,0,1.5,0.1,2.1,0.4s1,0.7,1.3,1.1c0.3,0.5,0.4,0.9,0.5,1.4c0,0.1,0,0.2-0.1,0.3s-0.2,0.1-0.3,0.1
			h-0.3c-0.1,0-0.2,0-0.3-0.1s-0.1-0.2-0.2-0.3c-0.3-0.7-0.6-1.2-1.1-1.5s-1-0.4-1.7-0.4c-0.9,0-1.6,0.3-2.2,0.8s-0.8,1.4-0.9,2.5
			v0.7v0.7C-212.4,237.9-212.2,238.7-211.6,239.3z"/>
		<path class="st18" d="M-201.5,240.9c-0.1,0.1-0.2,0.1-0.3,0.1h-0.9c-0.1,0-0.2,0-0.3-0.1s-0.1-0.2-0.1-0.3v-0.9
			c0-0.1,0-0.2,0.1-0.3s0.2-0.1,0.3-0.1h0.9c0.1,0,0.2,0,0.3,0.1s0.1,0.2,0.1,0.3v0.9C-201.4,240.7-201.4,240.8-201.5,240.9z"/>
		<path class="st18" d="M-191,233.8c-0.3,0.1-0.6,0.3-0.9,0.5c-0.2,0.1-0.3,0.2-0.5,0.3c-0.1,0.1-0.2,0.1-0.4,0.1h-0.3
			c-0.1,0-0.2,0-0.3-0.1s-0.1-0.2-0.1-0.3l0.6-6.2c0-0.1,0.1-0.2,0.1-0.3c0.1-0.1,0.2-0.1,0.3-0.1h6.2c0.1,0,0.2,0,0.3,0.1
			s0.1,0.2,0.1,0.3v0.3c0,0.1,0,0.2-0.1,0.3s-0.2,0.1-0.3,0.1h-5.5l-0.4,4.3c0.7-0.4,1.5-0.6,2.5-0.6c0.9,0,1.6,0.2,2.3,0.5
			s1.2,0.8,1.6,1.5c0.4,0.6,0.6,1.4,0.6,2.3c0,1-0.2,1.8-0.6,2.4c-0.4,0.7-1,1.2-1.6,1.5c-0.7,0.3-1.5,0.5-2.3,0.5
			c-0.9,0-1.7-0.2-2.3-0.5c-0.7-0.3-1.2-0.8-1.5-1.3s-0.5-1.1-0.6-1.7l0,0c0-0.1,0-0.2,0.1-0.2c0.1-0.1,0.2-0.1,0.3-0.1h0.4
			c0.1,0,0.2,0,0.3,0.1s0.1,0.2,0.2,0.4c0.2,0.8,0.6,1.3,1.2,1.7c0.6,0.4,1.2,0.6,2,0.6c1,0,1.8-0.3,2.4-0.9c0.6-0.6,1-1.4,1-2.4
			c0-0.6-0.1-1.2-0.4-1.7s-0.7-0.8-1.2-1.1s-1.1-0.4-1.7-0.4C-190.3,233.6-190.7,233.7-191,233.8z"/>
		<path class="st18" d="M-182.3,239.2h0.9c0.1,0,0.2,0,0.2,0.1s0.1,0.1,0.1,0.2s0,0.2-0.1,0.3l-0.8,2.1c-0.1,0.1-0.1,0.2-0.2,0.3
			c-0.1,0.1-0.2,0.1-0.3,0.1h-0.3c-0.1,0-0.2,0-0.2-0.1c-0.1-0.1-0.1-0.2,0-0.3l0.4-2.3C-182.7,239.4-182.6,239.2-182.3,239.2z"/>
		<path class="st18" d="M-170.7,229c0.7,1,1.1,2.2,1.1,3.8c0,0.4,0,0.9,0,1.6s0,1.2,0,1.6c0,1.6-0.4,2.8-1.1,3.8s-1.9,1.4-3.4,1.4
			c-1.6,0-2.7-0.5-3.4-1.4c-0.7-1-1.1-2.2-1.1-3.8v-1.6v-1.6c0-1.6,0.4-2.8,1.1-3.8c0.7-1,1.9-1.4,3.4-1.4
			C-172.6,227.5-171.4,228-170.7,229z M-176.7,229.8c-0.6,0.7-0.9,1.8-0.9,3.1v1.5v1.5c0,1.3,0.3,2.4,0.9,3.1
			c0.6,0.7,1.4,1.1,2.5,1.1s1.9-0.4,2.5-1.1s0.9-1.8,0.9-3.1c0-0.4,0-0.9,0-1.5s0-1.1,0-1.5c0-1.3-0.3-2.3-0.9-3.1
			c-0.6-0.7-1.4-1.1-2.5-1.1S-176.1,229-176.7,229.8z"/>
		<path class="st18" d="M-162.7,233.7c-0.5,0.4-1.1,0.7-1.9,0.7c-0.8,0-1.4-0.2-1.9-0.7c-0.5-0.4-0.7-1-0.8-1.8c0-0.2,0-0.5,0-0.8
			c0-0.4,0-0.6,0-0.9c0-0.8,0.3-1.4,0.7-1.9s1.1-0.7,1.9-0.7s1.5,0.2,1.9,0.7s0.7,1.1,0.7,1.9c0,0.5,0,0.7,0,0.9c0,0.1,0,0.4,0,0.8
			C-162,232.7-162.3,233.3-162.7,233.7z M-165.6,240.9c-0.1,0.1-0.2,0.1-0.4,0.1h-0.3c-0.1,0-0.2,0-0.3-0.1s-0.1-0.2-0.1-0.3
			s0-0.1,0.1-0.2l9.4-12.4c0.1-0.1,0.2-0.2,0.3-0.3s0.2-0.1,0.4-0.1h0.3c0.1,0,0.2,0,0.3,0.1s0.1,0.2,0.1,0.3s0,0.1-0.1,0.2
			l-9.4,12.3C-165.4,240.8-165.5,240.9-165.6,240.9z M-163.5,232.9c0.2-0.3,0.4-0.7,0.4-1.1c0-0.5,0-0.7,0-0.8s0-0.3,0-0.8
			c0-0.4-0.2-0.8-0.4-1.1s-0.6-0.5-1.1-0.5s-0.9,0.2-1.1,0.5s-0.4,0.7-0.4,1.1c0,0.2,0,0.5,0,0.8s0,0.6,0,0.8c0,0.4,0.2,0.8,0.4,1.1
			s0.6,0.5,1.1,0.5S-163.7,233.2-163.5,232.9z M-156,240.4c-0.5,0.5-1.1,0.7-1.9,0.7s-1.4-0.2-1.9-0.7s-0.7-1.1-0.8-1.9
			c0-0.2,0-0.5,0-0.8c0-0.4,0-0.6,0-0.9c0-0.8,0.3-1.4,0.7-1.9s1.1-0.7,1.9-0.7s1.5,0.2,1.9,0.7s0.7,1.1,0.7,1.9c0,0.5,0,0.7,0,0.9
			c0,0.1,0,0.4,0,0.8C-155.3,239.3-155.6,240-156,240.4z M-156.8,239.6c0.2-0.3,0.4-0.7,0.4-1.1c0-0.5,0-0.7,0-0.8s0-0.3,0-0.8
			c0-0.4-0.2-0.8-0.4-1.1s-0.6-0.5-1.1-0.5s-0.9,0.2-1.1,0.5s-0.4,0.7-0.4,1.1c0,0.2,0,0.5,0,0.8s0,0.6,0,0.8c0,0.4,0.2,0.8,0.4,1.1
			s0.6,0.5,1.1,0.5S-157,239.9-156.8,239.6z"/>
	</g>
	<g>
		<path class="st19" d="M-236.3,203.7l-1.7,4.3c-0.2,0.5-0.6,0.8-1.2,0.8h-1.2c-0.2,0-0.4-0.1-0.5-0.2c-0.1-0.1-0.2-0.3-0.2-0.5
			c0-0.1,0-0.3,0.1-0.4l7.8-20.2c0.3-0.7,0.8-1.1,1.4-1.1h1.9c0.7,0,1.2,0.4,1.4,1.1l7.8,20.2c0.1,0.2,0.1,0.3,0.1,0.4
			c0,0.2-0.1,0.4-0.2,0.5s-0.3,0.2-0.5,0.2h-1c-0.6,0-1.1-0.3-1.2-0.8l-1.7-4.3H-236.3z M-226.3,200.8l-4.4-11.4l-4.4,11.4H-226.3z"
			/>
		<path class="st19" d="M-202.6,188c1.5,1.2,2.2,2.8,2.2,5.1c0,1.5-0.3,2.8-1,3.8s-1.6,1.8-2.8,2.3s-2.5,0.8-3.9,0.8h-5.9v7.8
			c0,0.2-0.1,0.4-0.3,0.6s-0.4,0.3-0.6,0.3h-1.3c-0.2,0-0.4-0.1-0.6-0.3c-0.2-0.2-0.3-0.4-0.3-0.6v-20.7c0-0.2,0.1-0.4,0.3-0.6
			s0.4-0.3,0.6-0.3h8.1C-205.9,186.3-204.1,186.9-202.6,188z M-208.3,197.1c1.6,0,2.8-0.3,3.6-1s1.2-1.7,1.2-3
			c0-2.6-1.6-3.9-4.8-3.9h-5.7v7.9H-208.3z"/>
		<path class="st19" d="M-195.4,203.7l-1.7,4.3c-0.2,0.5-0.6,0.8-1.2,0.8h-1.2c-0.2,0-0.4-0.1-0.5-0.2c-0.1-0.1-0.2-0.3-0.2-0.5
			c0-0.1,0-0.3,0.1-0.4l7.8-20.2c0.3-0.7,0.8-1.1,1.4-1.1h1.9c0.7,0,1.2,0.4,1.4,1.1l7.8,20.2c0.1,0.2,0.1,0.3,0.1,0.4
			c0,0.2-0.1,0.4-0.2,0.5s-0.3,0.2-0.5,0.2h-1.2c-0.6,0-1.1-0.3-1.2-0.8l-1.7-4.3H-195.4z M-185.4,200.8l-4.4-11.4l-4.4,11.4H-185.4
			z"/>
	</g>
	<g>
		<path class="st19" d="M-98.9,192.3c-0.1,0.1-0.3,0.2-0.5,0.2h-1.3c-0.3,0-0.4,0-0.6-0.1s-0.3-0.3-0.4-0.6c-0.3-0.7-0.9-1.3-1.8-2
			c-0.8-0.6-2-1-3.3-1s-2.4,0.3-3.2,0.9c-0.9,0.6-1.3,1.4-1.3,2.5c0,0.7,0.2,1.3,0.7,1.8c0.4,0.5,1.1,0.9,2,1.2s2.2,0.7,4,1.2
			c2.4,0.6,4.2,1.4,5.2,2.4c1,0.9,1.5,2.2,1.5,3.8c0,1.3-0.4,2.4-1.1,3.4s-1.7,1.8-3,2.3c-1.3,0.6-2.8,0.8-4.5,0.8
			c-1.6,0-3-0.3-4.3-0.9c-1.3-0.6-2.3-1.4-3.1-2.3c-0.7-0.9-1.1-1.9-1.2-2.8c0-0.2,0.1-0.4,0.2-0.5s0.3-0.2,0.5-0.2h1.3
			c0.2,0,0.4,0,0.6,0.1c0.1,0.1,0.3,0.3,0.4,0.6c0.3,0.8,1,1.5,1.9,2.1s2.1,1,3.7,1s2.9-0.3,4-1s1.6-1.6,1.6-2.6
			c0-0.7-0.3-1.3-0.8-1.8c-0.6-0.5-1.3-0.9-2.3-1.2s-2.4-0.7-4.3-1.2c-2.1-0.5-3.6-1.3-4.5-2.3s-1.4-2.3-1.4-3.8
			c0-1.1,0.3-2.1,0.9-3.1c0.6-0.9,1.4-1.7,2.6-2.3s2.5-0.9,4.2-0.9s3,0.3,4.3,0.9c1.2,0.6,2.2,1.4,2.8,2.3c0.7,0.9,1,1.8,1.1,2.5
			C-98.7,192-98.8,192.1-98.9,192.3z"/>
		<path class="st19" d="M-83.3,203.8c0.1-0.3,0.3-0.5,0.4-0.7s0.4-0.2,0.6-0.2h1c0.2,0,0.4,0.1,0.6,0.2c0.2,0.1,0.3,0.3,0.3,0.6
			c0,0.7-0.3,1.5-0.9,2.3s-1.4,1.5-2.5,2.1s-2.4,0.9-3.8,0.9c-1.5,0-2.8-0.3-3.9-1c-1.1-0.6-2-1.5-2.6-2.6s-0.9-2.4-1-3.8
			c0-0.3,0-0.7,0-1.5c0-0.5,0-0.9,0-1.1c0.2-2.2,0.9-3.9,2.2-5.3c1.3-1.4,3-2,5.3-2c1.5,0,2.7,0.3,3.8,0.8c1.1,0.6,1.9,1.3,2.5,2.1
			s0.9,1.6,0.9,2.3c0,0.2-0.1,0.4-0.2,0.6c-0.2,0.2-0.4,0.3-0.6,0.3h-1c-0.3,0-0.5-0.1-0.6-0.2c-0.1-0.1-0.3-0.4-0.4-0.7
			c-0.7-1.7-2.2-2.5-4.3-2.5c-1.2,0-2.2,0.4-3.1,1.2s-1.4,2-1.5,3.6c0,0.2,0,0.6,0,1.2c0,0.5,0,0.9,0,1.1c0.1,1.6,0.7,2.8,1.5,3.6
			c0.9,0.8,1.9,1.2,3.1,1.2C-85.5,206.3-84,205.4-83.3,203.8z"/>
		<path class="st19" d="M-62.1,200.4c0,0.5,0,1-0.1,1.5c-0.2,2.2-0.9,3.9-2.3,5.2c-1.3,1.3-3.1,1.9-5.3,1.9c-2.2,0-4-0.6-5.3-1.9
			s-2.1-3-2.3-5.2c0-0.2,0-0.7,0-1.5s0-1.3,0-1.5c0.2-2.2,0.9-3.9,2.2-5.2c1.3-1.3,3.1-1.9,5.3-1.9c2.2,0,4,0.6,5.3,1.9
			s2.1,3,2.2,5.2C-62.1,199.4-62.1,199.9-62.1,200.4z M-66.4,195.8c-0.8-0.8-1.9-1.2-3.3-1.2s-2.5,0.4-3.3,1.2s-1.2,1.9-1.4,3.3
			c0,0.3,0,0.7,0,1.4c0,0.6,0,1.1,0,1.3c0.1,1.4,0.6,2.5,1.4,3.3s1.9,1.2,3.3,1.2s2.5-0.4,3.3-1.2s1.2-1.9,1.4-3.3
			c0-0.5,0.1-0.9,0.1-1.3c0-0.4,0-0.9-0.1-1.4C-65.2,197.7-65.7,196.6-66.4,195.8z"/>
		<path class="st19" d="M-53.4,205.2c0.4,0.5,1.1,0.7,2.1,0.7h1.7c0.2,0,0.4,0.1,0.6,0.3c0.2,0.2,0.3,0.4,0.3,0.6v1
			c0,0.2-0.1,0.4-0.3,0.6c-0.2,0.2-0.4,0.3-0.6,0.3h-2c-1.8,0-3.1-0.5-4-1.4s-1.3-2.3-1.3-4.2v-8.3h-2.4c-0.2,0-0.4-0.1-0.6-0.3
			c-0.2-0.2-0.3-0.4-0.3-0.6v-1c0-0.2,0.1-0.4,0.3-0.6s0.4-0.3,0.6-0.3h2.4v-5.2c0-0.2,0.1-0.4,0.3-0.6c0.2-0.2,0.4-0.3,0.6-0.3h1.2
			c0.2,0,0.4,0.1,0.6,0.3c0.2,0.2,0.3,0.4,0.3,0.6v5.2h4.1c0.2,0,0.4,0.1,0.6,0.3c0.2,0.2,0.3,0.4,0.3,0.6v1c0,0.2-0.1,0.4-0.3,0.6
			c-0.2,0.2-0.4,0.3-0.6,0.3h-4.1v8.3C-53.9,204-53.7,204.7-53.4,205.2z"/>
		<path class="st19" d="M-40.6,205.2c0.4,0.5,1.1,0.7,2.1,0.7h1.7c0.2,0,0.4,0.1,0.6,0.3c0.2,0.2,0.3,0.4,0.3,0.6v1
			c0,0.2-0.1,0.4-0.3,0.6c-0.2,0.2-0.4,0.3-0.6,0.3h-2c-1.8,0-3.1-0.5-4-1.4s-1.3-2.3-1.3-4.2v-8.3h-2.4c-0.2,0-0.4-0.1-0.6-0.3
			c-0.2-0.2-0.3-0.4-0.3-0.6v-1c0-0.2,0.1-0.4,0.3-0.6c0.2-0.2,0.4-0.3,0.6-0.3h2.4v-5.2c0-0.2,0.1-0.4,0.3-0.6s0.4-0.3,0.6-0.3h1.2
			c0.2,0,0.4,0.1,0.6,0.3c0.2,0.2,0.3,0.4,0.3,0.6v5.2h4.1c0.2,0,0.4,0.1,0.6,0.3c0.2,0.2,0.3,0.4,0.3,0.6v1c0,0.2-0.1,0.4-0.3,0.6
			s-0.4,0.3-0.6,0.3h-4.1v8.3C-41.1,204-40.9,204.7-40.6,205.2z"/>
		<path class="st19" d="M-29.7,189.3c-0.2,0.2-0.4,0.3-0.6,0.3h-1.8c-0.2,0-0.4-0.1-0.6-0.3c-0.2-0.2-0.3-0.4-0.3-0.6v-1.8
			c0-0.2,0.1-0.4,0.3-0.6c0.2-0.2,0.4-0.3,0.6-0.3h1.8c0.2,0,0.4,0.1,0.6,0.3s0.3,0.4,0.3,0.6v1.8
			C-29.4,188.9-29.5,189.1-29.7,189.3z M-30,208.5c-0.2,0.2-0.4,0.3-0.6,0.3h-1.2c-0.2,0-0.4-0.1-0.6-0.3s-0.3-0.4-0.3-0.6V193
			c0-0.2,0.1-0.4,0.3-0.6s0.4-0.3,0.6-0.3h1.2c0.2,0,0.4,0.1,0.6,0.3s0.3,0.4,0.3,0.6v14.9C-29.8,208.1-29.8,208.3-30,208.5z"/>
		<path class="st19" d="M-25.6,196.6c0-0.9,0.2-1.7,0.7-2.4s1.2-1.3,2.1-1.7s2.1-0.7,3.4-0.7s2.5,0.2,3.4,0.6
			c0.9,0.4,1.7,0.9,2.2,1.4c0.5,0.6,0.8,1.1,0.8,1.7c0,0.2-0.1,0.4-0.3,0.6c-0.2,0.2-0.4,0.2-0.6,0.2H-15c-0.4,0-0.7-0.1-1-0.4
			c-0.7-0.9-1.8-1.3-3.5-1.3c-1,0-1.8,0.2-2.4,0.5c-0.6,0.4-0.9,0.9-0.9,1.5c0,0.5,0.1,0.9,0.4,1.2s0.7,0.5,1.3,0.7
			c0.6,0.2,1.7,0.4,3.2,0.8c1.9,0.4,3.2,1,4,1.9s1.2,1.8,1.2,3c0,0.9-0.3,1.7-0.8,2.4s-1.3,1.3-2.3,1.8s-2.2,0.7-3.5,0.7
			s-2.5-0.2-3.5-0.6c-1-0.4-1.8-0.9-2.4-1.5s-0.8-1.2-0.8-1.7c0-0.2,0.1-0.4,0.3-0.6c0.2-0.2,0.4-0.2,0.6-0.2h1.2
			c0.2,0,0.4,0,0.5,0.1s0.3,0.2,0.4,0.4c0.7,1,2,1.5,3.7,1.5c1,0,1.9-0.2,2.6-0.6c0.8-0.4,1.1-0.9,1.1-1.6c0-0.5-0.2-0.9-0.6-1.2
			c-0.4-0.3-0.9-0.6-1.6-0.8s-1.8-0.5-3.3-0.8C-24.1,200.7-25.6,199.1-25.6,196.6z"/>
		<path class="st19" d="M5.8,208.5c-0.2,0.2-0.4,0.3-0.6,0.3H4c-0.2,0-0.4-0.1-0.6-0.3c-0.2-0.2-0.3-0.4-0.3-0.6v-8.4
			c0-1.6-0.4-2.8-1.2-3.6s-1.9-1.2-3.3-1.2s-2.5,0.4-3.3,1.2s-1.2,2-1.2,3.6v8.4c0,0.2-0.1,0.4-0.3,0.6c-0.2,0.2-0.4,0.3-0.6,0.3H-8
			c-0.2,0-0.4-0.1-0.6-0.3c-0.2-0.2-0.3-0.4-0.3-0.6v-21c0-0.2,0.1-0.4,0.3-0.6S-8.2,186-8,186h1.2c0.2,0,0.4,0.1,0.6,0.3
			s0.3,0.4,0.3,0.6v7.1c0.5-0.6,1.1-1.1,1.9-1.6s1.8-0.6,3-0.6c1.3,0,2.5,0.3,3.6,0.9c1,0.6,1.9,1.4,2.4,2.5
			c0.6,1.1,0.9,2.4,0.9,3.8v8.9C6,208.1,5.9,208.3,5.8,208.5z"/>
		<path class="st19" d="M20.5,203.7l-1.7,4.3c-0.2,0.5-0.6,0.8-1.2,0.8h-1.2c-0.2,0-0.4-0.1-0.5-0.2c-0.1-0.1-0.2-0.3-0.2-0.5
			c0-0.1,0-0.3,0.1-0.4l7.8-20.2c0.3-0.7,0.8-1.1,1.4-1.1h1.9c0.7,0,1.2,0.4,1.4,1.1l7.8,20.2c0.1,0.2,0.1,0.3,0.1,0.4
			c0,0.2-0.1,0.4-0.2,0.5s-0.3,0.2-0.5,0.2h-1.2c-0.6,0-1.1-0.3-1.2-0.8l-1.7-4.3H20.5z M30.5,200.8l-4.4-11.4l-4.4,11.4H30.5z"/>
		<path class="st19" d="M42.1,208.5c-0.2,0.2-0.4,0.3-0.6,0.3h-1.2c-0.2,0-0.4-0.1-0.6-0.3c-0.2-0.2-0.3-0.4-0.3-0.6v-21
			c0-0.2,0.1-0.4,0.3-0.6s0.4-0.3,0.6-0.3h1.2c0.2,0,0.4,0.1,0.6,0.3c0.2,0.2,0.3,0.4,0.3,0.6v21C42.3,208.1,42.2,208.3,42.1,208.5z
			"/>
		<path class="st19" d="M59.1,193.9c1.3,1.5,2,3.4,2,5.9v0.9c0,0.2-0.1,0.4-0.3,0.6c-0.2,0.2-0.4,0.3-0.6,0.3h-11v0.2
			c0,1.4,0.5,2.5,1.3,3.3s1.9,1.2,3.2,1.2c1.1,0,1.9-0.1,2.5-0.4s1.1-0.7,1.6-1.2c0.2-0.2,0.3-0.3,0.5-0.4c0.1-0.1,0.3-0.1,0.6-0.1
			h1c0.3,0,0.5,0.1,0.6,0.3c0.2,0.2,0.2,0.4,0.2,0.6c-0.1,0.6-0.4,1.2-0.9,1.8s-1.3,1.1-2.3,1.5s-2.2,0.6-3.6,0.6s-2.6-0.3-3.6-0.9
			c-1.1-0.6-1.9-1.5-2.5-2.6s-1-2.4-1.1-3.7c0-0.6-0.1-1.1-0.1-1.5c0-0.3,0-0.8,0.1-1.5c0.1-1.3,0.5-2.5,1.1-3.6s1.5-1.9,2.5-2.5
			c1.1-0.6,2.3-0.9,3.7-0.9C56,191.8,57.8,192.5,59.1,193.9z M58.2,198.9L58.2,198.9c0-1.4-0.4-2.4-1.2-3.2s-1.9-1.2-3.3-1.2
			c-1.2,0-2.3,0.4-3.2,1.2s-1.3,1.8-1.3,3.1v0.1L58.2,198.9L58.2,198.9z"/>
	</g>
	<g>
		<path class="st19" d="M-96.1,546.5h10.8c0.2,0,0.4,0.1,0.6,0.3s0.3,0.4,0.3,0.6v1.2c0,0.2-0.1,0.4-0.3,0.6s-0.4,0.3-0.6,0.3h-13
			c-0.2,0-0.4-0.1-0.6-0.3s-0.3-0.4-0.3-0.6v-20.7c0-0.2,0.1-0.4,0.3-0.6s0.4-0.3,0.6-0.3h12.7c0.2,0,0.4,0.1,0.6,0.3
			s0.3,0.4,0.3,0.6v1.2c0,0.2-0.1,0.4-0.3,0.6c-0.2,0.2-0.4,0.3-0.6,0.3h-10.5v6.8h9.8c0.2,0,0.4,0.1,0.6,0.3s0.3,0.4,0.3,0.6v1.2
			c0,0.2-0.1,0.4-0.3,0.6s-0.4,0.3-0.6,0.3h-9.8V546.5z"/>
		<path class="st19" d="M-81.2,537.3c0-0.9,0.2-1.7,0.7-2.4s1.2-1.3,2.1-1.7s2.1-0.7,3.4-0.7s2.5,0.2,3.4,0.6
			c0.9,0.4,1.7,0.9,2.2,1.4c0.5,0.6,0.8,1.1,0.8,1.7c0,0.2-0.1,0.4-0.3,0.6s-0.4,0.2-0.6,0.2h-1.1c-0.4,0-0.7-0.1-1-0.4
			c-0.7-0.9-1.8-1.3-3.5-1.3c-1,0-1.8,0.2-2.4,0.5c-0.6,0.4-0.9,0.9-0.9,1.5c0,0.5,0.1,0.9,0.4,1.2s0.7,0.5,1.3,0.7
			c0.6,0.2,1.7,0.4,3.2,0.8c1.9,0.4,3.2,1,4,1.9c0.8,0.8,1.2,1.8,1.2,3c0,0.9-0.3,1.7-0.8,2.4s-1.3,1.3-2.3,1.8s-2.2,0.7-3.5,0.7
			s-2.5-0.2-3.5-0.6c-1-0.4-1.8-0.9-2.4-1.5s-0.8-1.2-0.8-1.7c0-0.2,0.1-0.4,0.3-0.6c0.2-0.2,0.4-0.2,0.6-0.2h1.2
			c0.2,0,0.4,0,0.5,0.1c0.1,0,0.3,0.2,0.4,0.4c0.7,1,2,1.5,3.7,1.5c1,0,1.9-0.2,2.6-0.6c0.8-0.4,1.1-0.9,1.1-1.6
			c0-0.5-0.2-0.9-0.6-1.2s-0.9-0.6-1.6-0.8s-1.8-0.5-3.3-0.8C-79.6,541.4-81.2,539.8-81.2,537.3z"/>
		<path class="st19" d="M-61.4,554.6c0,0.2-0.1,0.4-0.3,0.6c-0.2,0.2-0.4,0.3-0.6,0.3h-1.2c-0.2,0-0.4-0.1-0.6-0.3s-0.3-0.4-0.3-0.6
			v-21c0-0.2,0.1-0.4,0.3-0.6s0.4-0.3,0.6-0.3h1.2c0.2,0,0.4,0.1,0.6,0.3s0.3,0.4,0.3,0.6v1c1.1-1.5,2.7-2.2,5-2.2
			c1.3,0,2.5,0.3,3.6,0.9c1.1,0.6,1.9,1.5,2.6,2.7s1,2.5,1.1,4c0,0.2,0,0.6,0,1c0,0.5,0,0.8,0,1.1c-0.1,1.5-0.4,2.9-1.1,4
			s-1.5,2-2.6,2.6s-2.3,0.9-3.6,0.9c-1.2,0-2.2-0.2-3-0.6c-0.8-0.4-1.5-0.9-1.9-1.6L-61.4,554.6L-61.4,554.6z M-60.1,545.7
			c0.8,0.8,1.9,1.2,3.3,1.2s2.5-0.4,3.3-1.3c0.8-0.9,1.3-2.1,1.4-3.6c0-0.2,0-0.5,0-0.9s0-0.7,0-0.9c-0.1-1.5-0.5-2.8-1.4-3.6
			c-0.8-0.9-1.9-1.3-3.3-1.3c-1.3,0-2.4,0.4-3.3,1.2s-1.3,1.9-1.4,3.3v1.2v1.3C-61.4,543.7-60.9,544.9-60.1,545.7z"/>
		<path class="st19" d="M-33.2,534.6c1.3,1.5,2,3.4,2,5.9v0.9c0,0.2-0.1,0.4-0.3,0.6s-0.4,0.3-0.6,0.3h-11v0.2
			c0,1.4,0.5,2.5,1.3,3.3s1.9,1.2,3.2,1.2c1.1,0,1.9-0.1,2.5-0.4s1.1-0.7,1.6-1.2c0.2-0.2,0.3-0.3,0.5-0.4c0.1-0.1,0.3-0.1,0.6-0.1
			h1c0.3,0,0.5,0.1,0.6,0.3s0.2,0.4,0.2,0.6c-0.1,0.6-0.4,1.2-0.9,1.8s-1.3,1.1-2.3,1.5s-2.2,0.6-3.6,0.6s-2.6-0.3-3.6-0.9
			s-1.9-1.5-2.5-2.6s-1-2.4-1.1-3.7c0-0.6-0.1-1.1-0.1-1.5c0-0.3,0-0.8,0.1-1.5c0.1-1.3,0.5-2.5,1.1-3.6s1.5-1.9,2.5-2.5
			c1.1-0.6,2.3-0.9,3.7-0.9C-36.4,532.5-34.6,533.2-33.2,534.6z M-34.1,539.6L-34.1,539.6c0-1.4-0.4-2.4-1.2-3.2s-1.9-1.2-3.3-1.2
			c-1.2,0-2.3,0.4-3.2,1.2s-1.3,1.8-1.3,3.1v0.1L-34.1,539.6L-34.1,539.6z"/>
		<path class="st19" d="M-16.3,544.5c0.1-0.3,0.3-0.5,0.4-0.7c0.1-0.1,0.4-0.2,0.6-0.2h1c0.2,0,0.4,0.1,0.6,0.2
			c0.2,0.2,0.3,0.3,0.3,0.6c0,0.7-0.3,1.5-0.9,2.3s-1.4,1.5-2.5,2.1s-2.4,0.9-3.8,0.9c-1.5,0-2.8-0.3-3.9-1c-1.1-0.6-2-1.5-2.6-2.6
			s-0.9-2.4-1-3.8c0-0.3,0-0.7,0-1.5c0-0.5,0-0.9,0-1.1c0.2-2.2,0.9-3.9,2.2-5.3c1.3-1.4,3-2,5.3-2c1.5,0,2.7,0.3,3.8,0.8
			c1.1,0.6,1.9,1.3,2.5,2.1s0.9,1.6,0.9,2.3c0,0.2-0.1,0.4-0.2,0.6s-0.4,0.3-0.6,0.3h-1c-0.3,0-0.5-0.1-0.6-0.2
			c-0.2-0.1-0.3-0.4-0.4-0.7c-0.7-1.7-2.2-2.5-4.3-2.5c-1.2,0-2.2,0.4-3.1,1.2s-1.4,2-1.5,3.6c0,0.2,0,0.6,0,1.2c0,0.5,0,0.9,0,1.1
			c0.1,1.6,0.7,2.8,1.5,3.6c0.9,0.8,1.9,1.2,3.1,1.2C-18.5,547-17.1,546.2-16.3,544.5z"/>
		<path class="st19" d="M-6.6,530c-0.2,0.2-0.4,0.3-0.6,0.3H-9c-0.2,0-0.4-0.1-0.6-0.3s-0.3-0.4-0.3-0.6v-1.8c0-0.2,0.1-0.4,0.3-0.6
			s0.4-0.3,0.6-0.3h1.8c0.2,0,0.4,0.1,0.6,0.3s0.3,0.4,0.3,0.6v1.8C-6.4,529.6-6.5,529.8-6.6,530z M-7,549.2
			c-0.2,0.2-0.4,0.3-0.6,0.3h-1.2c-0.2,0-0.4-0.1-0.6-0.3s-0.3-0.4-0.3-0.6v-15c0-0.2,0.1-0.4,0.3-0.6s0.4-0.3,0.6-0.3h1.2
			c0.2,0,0.4,0.1,0.6,0.3s0.3,0.4,0.3,0.6v15C-6.7,548.8-6.8,549-7,549.2z"/>
		<path class="st19" d="M8,538.9v-0.4c0-1-0.3-1.9-1-2.4c-0.7-0.6-1.6-0.8-2.7-0.8c-0.9,0-1.5,0.1-2,0.4c-0.5,0.3-0.9,0.7-1.4,1.3
			c-0.1,0.2-0.3,0.3-0.4,0.4c-0.1,0.1-0.4,0.1-0.6,0.1h-1c-0.2,0-0.4-0.1-0.6-0.3s-0.3-0.4-0.2-0.6c0.1-0.6,0.4-1.3,0.9-1.9
			s1.3-1.1,2.3-1.6s1.9-0.6,3-0.6c2,0,3.6,0.6,4.8,1.7c1.2,1.1,1.8,2.7,1.8,4.7v9.8c0,0.2-0.1,0.4-0.3,0.6c-0.2,0.2-0.4,0.3-0.6,0.3
			H8.8c-0.2,0-0.4-0.1-0.6-0.3s-0.3-0.4-0.3-0.6v-1.3c-0.3,0.8-1.1,1.4-2.2,1.8c-1.1,0.4-2.2,0.7-3.3,0.7s-2.1-0.2-2.9-0.6
			c-0.9-0.4-1.5-0.9-2-1.6c-0.5-0.7-0.7-1.5-0.7-2.3c0-1.6,0.6-2.9,1.8-3.8c1.2-0.9,2.8-1.5,4.8-1.8L8,538.9z M8,541.4L4.2,542
			c-1.4,0.2-2.5,0.6-3.2,1c-0.8,0.5-1.2,1.1-1.2,1.8c0,0.5,0.2,1,0.7,1.4s1.2,0.6,2.2,0.6c1.5,0,2.8-0.4,3.7-1.3
			c1-0.9,1.4-2,1.4-3.4v-0.7L8,541.4L8,541.4z"/>
		<path class="st19" d="M18.2,549.2c-0.2,0.2-0.4,0.3-0.6,0.3h-1.2c-0.2,0-0.4-0.1-0.6-0.3s-0.3-0.4-0.3-0.6v-21
			c0-0.2,0.1-0.4,0.3-0.6s0.4-0.3,0.6-0.3h1.2c0.2,0,0.4,0.1,0.6,0.3s0.3,0.4,0.3,0.6v21C18.5,548.8,18.4,549,18.2,549.2z"/>
		<path class="st19" d="M35.3,534.6c1.3,1.5,2,3.4,2,5.9v0.9c0,0.2-0.1,0.4-0.3,0.6c-0.2,0.2-0.4,0.3-0.6,0.3h-11v0.2
			c0,1.4,0.5,2.5,1.3,3.3s1.9,1.2,3.2,1.2c1.1,0,1.9-0.1,2.5-0.4c0.6-0.3,1.1-0.7,1.6-1.2c0.2-0.2,0.3-0.3,0.5-0.4
			c0.1-0.1,0.3-0.1,0.6-0.1h1c0.3,0,0.5,0.1,0.6,0.3c0.2,0.2,0.2,0.4,0.2,0.6c-0.1,0.6-0.4,1.2-0.9,1.8s-1.3,1.1-2.3,1.5
			s-2.2,0.6-3.6,0.6s-2.6-0.3-3.6-0.9c-1.1-0.6-1.9-1.5-2.5-2.6s-1-2.4-1.1-3.7c0-0.6-0.1-1.1-0.1-1.5c0-0.3,0-0.8,0.1-1.5
			c0.1-1.3,0.5-2.5,1.1-3.6s1.5-1.9,2.5-2.5c1.1-0.6,2.3-0.9,3.7-0.9C32.1,532.5,33.9,533.2,35.3,534.6z M34.4,539.6L34.4,539.6
			c0-1.4-0.4-2.4-1.2-3.2s-1.9-1.2-3.3-1.2c-1.2,0-2.3,0.4-3.2,1.2c-0.9,0.8-1.3,1.8-1.3,3.1v0.1L34.4,539.6L34.4,539.6z"/>
		<path class="st19" d="M40.4,537.3c0-0.9,0.2-1.7,0.7-2.4s1.2-1.3,2.1-1.7s2.1-0.7,3.4-0.7s2.5,0.2,3.4,0.6s1.7,0.9,2.2,1.4
			c0.5,0.6,0.8,1.1,0.8,1.7c0,0.2-0.1,0.4-0.3,0.6c-0.2,0.2-0.4,0.2-0.6,0.2H51c-0.4,0-0.7-0.1-1-0.4c-0.7-0.9-1.8-1.3-3.5-1.3
			c-1,0-1.8,0.2-2.4,0.5c-0.6,0.4-0.9,0.9-0.9,1.5c0,0.5,0.1,0.9,0.4,1.2s0.7,0.5,1.3,0.7s1.7,0.4,3.2,0.8c1.9,0.4,3.2,1,4,1.9
			s1.2,1.8,1.2,3c0,0.9-0.3,1.7-0.8,2.4s-1.3,1.3-2.3,1.8s-2.2,0.7-3.5,0.7s-2.5-0.2-3.5-0.6c-1-0.4-1.8-0.9-2.4-1.5
			S40,546.5,40,546c0-0.2,0.1-0.4,0.3-0.6c0.2-0.2,0.4-0.2,0.6-0.2h1.2c0.2,0,0.4,0,0.5,0.1s0.3,0.2,0.4,0.4c0.7,1,2,1.5,3.7,1.5
			c1,0,1.9-0.2,2.6-0.6c0.8-0.4,1.1-0.9,1.1-1.6c0-0.5-0.2-0.9-0.6-1.2s-0.9-0.6-1.6-0.8s-1.8-0.5-3.3-0.8
			C42,541.4,40.4,539.8,40.4,537.3z"/>
	</g>
	<g>
		<g>
			<path class="st3" d="M26.7,351.1l2.9-31.2c0.3-3-2.1-5.5-5.1-5.5h-97.8c-3,0-5.3,2.6-5.1,5.5l2.9,31.2c-5,1.6-8.4,8.1-7.7,15.5
				c0.7,7.4,5.2,13.1,10.4,13.8l10.4,111.7c0.2,2.3,1.9,4.1,4.2,4.5c27.4,4.9,56.9,1.4,67.4-0.1c2.3-0.3,4.1-2.2,4.3-4.6l10.4-111.6
				c5.2-0.7,9.7-6.4,10.4-13.8C35.1,359.2,31.7,352.7,26.7,351.1z"/>
			<g>
				<path class="st3" d="M24.5,314.4c0,0,3.8-19-11.3-30.3c-15.1-11.2-35.9-1.3-37.6,5.6c0,0-13.4-16-26.8,2.2c0,0-22.6,0-22.1,22.5
					L24.5,314.4L24.5,314.4z"/>
				<g>
					<path class="st6" d="M-37.3,289.7c4.1,0,7.9,4.1,7.9,4.2c1.2,1.5,3.1,2.3,5,2.3c0.5,0,1-0.1,1.5-0.2c1.8-0.4,3.4-1.6,4.3-3.3
						c1.1-2,2.8-3.5,4.8-4.5c2.9-1.5,6.9-2.8,11.4-2.8s8.5,1.3,11.9,3.8c3,2.2,5.1,4.9,6.4,7.6"/>
					<path class="st6" d="M-66,307.9c0.6-1.9,1.5-3.5,2.8-4.8c4.4-4.5,11.9-4.7,12-4.7"/>
				</g>
			</g>
		</g>
		<g>
			<path class="st20" d="M-76.3,368.3c0.9,3.4,3,5.5,4.3,5.7c3,0.4,5.3,2.8,5.6,5.8l9.8,105.6c0.3,3,2.6,5.4,5.5,5.8
				c7.4,1,15.4,1.5,24,1.5l0,0c11.5,0,21.8-0.9,29-1.7c3-0.4,5.4-2.8,5.7-5.8l9.8-105.4c0.3-3,2.6-5.4,5.6-5.8
				c1.4-0.2,3.5-2.3,4.4-5.8C-31.2,372.4-67.9,369.2-76.3,368.3z"/>
			<g>
				<path class="st6" d="M-83.1,366.7c0,0,40.9,7.7,117.5,0"/>
				<g>
					<g>
						<circle class="st21" cx="-33.6" cy="384.1" r="3.7"/>
						<circle class="st21" cx="-29.9" cy="404.4" r="2.8"/>
						<circle class="st12" cx="-33.6" cy="415.8" r="1.2"/>
					</g>
					<g>
						<g>
							<g>
								<line class="st22" x1="18.6" y1="313.6" x2="9.2" y2="422.8"/>
								<polygon class="st5" points="20.3,313.8 9.2,422.8 17,313.5 								"/>
							</g>
							<g>
								<line class="st22" x1="11.1" y1="315.3" x2="5.3" y2="394.9"/>
								<polygon class="st5" points="12.7,315.4 5.3,394.9 9.4,315.1 								"/>
							</g>
						</g>
						<g>
							<path class="st8" d="M-53.1,329.5l1.9,125.8l-12.9-125.2c-0.3-3,1.9-5.8,4.9-6.1c3-0.3,5.8,1.9,6.1,4.9
								C-53.1,329.2-53.1,329.4-53.1,329.5z"/>
						</g>
					</g>
				</g>
			</g>
		</g>
	</g>
	<g>
		<path class="st18" d="M-59,581.4c0.6,0.6,1.5,1,2.6,1c1,0,1.8-0.2,2.4-0.6c0.6-0.4,1-1.1,1.2-2.2c0-0.3,0.2-0.4,0.4-0.4h0.4
			c0.1,0,0.2,0,0.3,0.1s0.1,0.2,0.1,0.3c0,0.6-0.2,1.2-0.6,1.8c-0.3,0.6-0.9,1.1-1.6,1.5c-0.7,0.4-1.6,0.6-2.7,0.6
			c-1.6,0-2.7-0.4-3.5-1.3c-0.8-0.9-1.2-2.1-1.3-3.6c0-0.3,0-0.9,0-1.6c0-0.7,0-1.3,0-1.6c0.1-1.5,0.5-2.7,1.3-3.6
			c0.8-0.9,1.9-1.3,3.5-1.3c1.1,0,2,0.2,2.7,0.6c0.7,0.4,1.2,0.9,1.6,1.5c0.3,0.6,0.5,1.2,0.6,1.8l0,0c0,0.1,0,0.2-0.1,0.2
			c-0.1,0.1-0.2,0.1-0.3,0.1h-0.4c-0.2,0-0.3-0.1-0.4-0.4c-0.2-1-0.6-1.7-1.2-2.2c-0.6-0.4-1.4-0.6-2.4-0.6c-1.1,0-2,0.3-2.6,1
			c-0.6,0.6-1,1.6-1,2.9c0,0.3,0,0.8,0,1.5s0,1.2,0,1.5C-59.9,579.8-59.6,580.8-59,581.4z"/>
		<path class="st18" d="M-41.5,578.6c0,0.4,0,0.6,0,0.8c0,1.2-0.4,2.2-1.1,3c-0.7,0.8-1.7,1.1-2.9,1.1s-2.2-0.4-2.9-1.1
			c-0.7-0.8-1.1-1.7-1.1-3v-0.8v-0.8c0-1.2,0.4-2.2,1.1-3c0.7-0.8,1.7-1.1,2.9-1.1s2.2,0.4,2.9,1.1c0.7,0.8,1.1,1.8,1.1,3
			C-41.5,578-41.5,578.2-41.5,578.6z M-47.6,575.6c-0.5,0.5-0.8,1.3-0.8,2.3v0.7v0.7c0,1,0.3,1.8,0.8,2.3s1.2,0.8,2.1,0.8
			s1.5-0.3,2.1-0.8s0.8-1.3,0.8-2.3c0-0.1,0-0.3,0-0.7c0-0.3,0-0.5,0-0.7c0-1-0.3-1.8-0.8-2.3s-1.2-0.8-2.1-0.8
			S-47.1,575.1-47.6,575.6z"/>
		<path class="st18" d="M-31.4,583.2c-0.1,0.1-0.2,0.1-0.3,0.1H-32c-0.1,0-0.2,0-0.3-0.1s-0.1-0.2-0.1-0.3v-5c0-1-0.2-1.7-0.7-2.3
			c-0.5-0.5-1.2-0.8-2-0.8c-0.9,0-1.6,0.3-2.1,0.8s-0.8,1.3-0.8,2.3v5c0,0.1,0,0.2-0.1,0.3s-0.2,0.1-0.3,0.1h-0.3
			c-0.1,0-0.2,0-0.3-0.1s-0.1-0.2-0.1-0.3v-8.6c0-0.1,0-0.2,0.1-0.3s0.2-0.1,0.3-0.1h0.3c0.1,0,0.2,0,0.3,0.1s0.1,0.2,0.1,0.3v0.8
			c0.4-0.5,0.8-0.8,1.2-1.1s1.1-0.4,1.8-0.4c1.2,0,2.1,0.4,2.7,1.1s1,1.7,1,2.9v5.1C-31.3,583-31.3,583.1-31.4,583.2z"/>
		<path class="st18" d="M-28.2,578c-0.4-0.4-0.6-1-0.6-1.6c0-0.4,0.1-0.9,0.4-1.3c0.2-0.4,0.6-0.7,1.1-1s1.1-0.4,1.8-0.4
			c0.7,0,1.3,0.1,1.8,0.4c0.5,0.2,0.9,0.5,1.1,0.9c0.2,0.3,0.4,0.6,0.4,0.8c0,0.1,0,0.2-0.1,0.3s-0.2,0.1-0.3,0.1h-0.3
			c-0.2,0-0.3-0.1-0.4-0.2c-0.2-0.4-0.5-0.6-0.8-0.8s-0.8-0.3-1.4-0.3c-0.7,0-1.2,0.1-1.6,0.4c-0.4,0.3-0.5,0.7-0.5,1.1
			c0,0.3,0.1,0.5,0.2,0.7s0.4,0.4,0.8,0.5s1,0.3,1.7,0.5c1.1,0.3,1.9,0.6,2.4,1s0.7,1,0.7,1.7c0,0.5-0.1,0.9-0.4,1.3
			c-0.3,0.4-0.7,0.7-1.2,1c-0.5,0.2-1.2,0.4-1.9,0.4c-0.8,0-1.4-0.1-2-0.4c-0.5-0.3-0.9-0.6-1.2-0.9s-0.4-0.6-0.4-0.8
			c0-0.1,0-0.2,0.1-0.3s0.2-0.1,0.3-0.1h0.3c0.1,0,0.2,0,0.2,0c0.1,0,0.1,0.1,0.2,0.2c0.3,0.4,0.6,0.7,1,0.9s0.9,0.3,1.6,0.3
			s1.3-0.1,1.8-0.4c0.5-0.3,0.7-0.7,0.7-1.2c0-0.3-0.1-0.6-0.3-0.8s-0.5-0.4-0.9-0.5s-1-0.3-1.8-0.5
			C-27.1,578.7-27.8,578.4-28.2,578z"/>
		<path class="st18" d="M-19.6,574c0.1-0.1,0.2-0.1,0.3-0.1h0.3c0.1,0,0.2,0,0.3,0.1c0.1,0.1,0.1,0.2,0.1,0.3v5
			c0,2.1,0.9,3.1,2.7,3.1c0.9,0,1.6-0.3,2.1-0.8c0.5-0.5,0.8-1.3,0.8-2.3v-5c0-0.1,0-0.2,0.1-0.3s0.2-0.1,0.3-0.1h0.3
			c0.1,0,0.2,0,0.3,0.1s0.1,0.2,0.1,0.3v8.6c0,0.1,0,0.2-0.1,0.3s-0.2,0.1-0.3,0.1h-0.3c-0.1,0-0.2,0-0.3-0.1s-0.1-0.2-0.1-0.3v-0.8
			c-0.4,0.5-0.8,0.8-1.2,1.1c-0.5,0.2-1.1,0.4-1.8,0.4c-1.2,0-2.1-0.4-2.7-1.1c-0.6-0.7-0.9-1.7-0.9-2.9v-5.1
			C-19.7,574.2-19.7,574.1-19.6,574z"/>
		<path class="st18" d="M-8.1,583.2c-0.1,0.1-0.2,0.1-0.3,0.1h-0.3c-0.1,0-0.2,0-0.3-0.1s-0.1-0.2-0.1-0.3v-12c0-0.1,0-0.2,0.1-0.3
			s0.2-0.1,0.3-0.1h0.3c0.1,0,0.2,0,0.3,0.1s0.1,0.2,0.1,0.3v12C-8,583-8,583.1-8.1,583.2z"/>
		<path class="st18" d="M-2.9,581.7c0.2,0.3,0.6,0.5,1.1,0.5h1c0.1,0,0.2,0,0.3,0.1s0.1,0.2,0.1,0.3v0.3c0,0.1,0,0.2-0.1,0.3
			s-0.2,0.1-0.3,0.1h-1.1c-0.9,0-1.5-0.3-1.9-0.8s-0.6-1.3-0.6-2.2V575h-1.4c-0.1,0-0.2,0-0.3-0.1c-0.1-0.1-0.1-0.2-0.1-0.3v-0.3
			c0-0.1,0-0.2,0.1-0.3s0.2-0.1,0.3-0.1h1.4v-3c0-0.1,0-0.2,0.1-0.3s0.2-0.1,0.3-0.1h0.3c0.1,0,0.2,0,0.3,0.1s0.1,0.2,0.1,0.3v3H-1
			c0.1,0,0.2,0,0.3,0.1s0.1,0.2,0.1,0.3v0.3c0,0.1,0,0.2-0.1,0.3S-0.9,575-1,575h-2.2v5.2C-3.2,580.9-3.1,581.4-2.9,581.7z"/>
		<path class="st18" d="M7.8,575c0.7,0.8,1.1,2,1.1,3.4v0.3c0,0.1,0,0.2-0.1,0.3s-0.2,0.1-0.3,0.1H2.1v0.2c0,0.6,0.2,1.1,0.4,1.6
			s0.6,0.9,1,1.2s0.9,0.4,1.5,0.4c0.7,0,1.2-0.1,1.6-0.4s0.7-0.5,0.9-0.8c0.1-0.1,0.2-0.2,0.2-0.3c0.1,0,0.2-0.1,0.3-0.1h0.3
			c0.1,0,0.2,0,0.3,0.1s0.1,0.1,0.1,0.2c0,0.3-0.2,0.6-0.5,0.9c-0.3,0.4-0.8,0.7-1.3,0.9s-1.3,0.5-2,0.5c-1.1,0-2.1-0.4-2.8-1.1
			c-0.7-0.7-1.1-1.8-1.2-3v-0.7V578c0.1-1.2,0.5-2.2,1.2-3s1.6-1.1,2.8-1.1C6.2,573.8,7.1,574.2,7.8,575z M7.8,578.1L7.8,578.1
			c0-1-0.3-1.8-0.8-2.4c-0.5-0.6-1.2-0.9-2.1-0.9s-1.6,0.3-2.1,0.9C2.3,576.3,2,577.1,2,578v0.1L7.8,578.1L7.8,578.1z"/>
	</g>
</g>
<g id="Texture">
</g>
<g id="Designed_by_Freepik" class="st23">
	<path class="st24" d="M-216.4-52.9"/>
	<path class="st25" d="M-206-52.9"/>
	<text transform="matrix(1 0 0 1 -948.9322 -9.5857)" class="st30 st31 st32">V</text>
	<text transform="matrix(1 0 0 1 -937.8322 -9.5857)" class="st30 st31 st32">ol.</text>
	<text transform="matrix(1 0 0 1 -918.4322 -9.5857)" class="st30 st31 st32"> </text>
	<text transform="matrix(1 0 0 1 -914.0322 -9.5857)" class="st30 st31 st32">Alc. </text>
	<text transform="matrix(1 0 0 1 -877.7322 -9.5857)" class="st30 st31 st32">4</text>
	<text transform="matrix(1 0 0 1 -866.6322 -9.5857)" class="st30 st31 st32">,</text>
	<text transform="matrix(1 0 0 1 -863.0322 -9.5857)" class="st30 st31 st32">9% </text>
	<text transform="matrix(1 0 0 1 -941.1996 -41.8882)" class="st33 st34 st35">W</text>
	<text transform="matrix(1 0 0 1 -916.5996 -41.8882)" class="st33 st34 st35">eisse</text>
	<text transform="matrix(1 0 0 1 -745.6463 333.3304)" class="st30 st31 st32">V</text>
	<text transform="matrix(1 0 0 1 -734.5463 333.3304)" class="st30 st31 st32">ol.</text>
	<text transform="matrix(1 0 0 1 -715.1463 333.3304)" class="st30 st31 st32"> </text>
	<text transform="matrix(1 0 0 1 -710.7463 333.3304)" class="st30 st31 st32">Alc.  5,6%</text>
	<text transform="matrix(1 0 0 1 -573.4198 333.3297)" class="st30 st31 st32">V</text>
	<text transform="matrix(1 0 0 1 -562.3198 333.3297)" class="st30 st31 st32">ol.</text>
	<text transform="matrix(1 0 0 1 -542.9198 333.3297)" class="st30 st31 st32"> </text>
	<text transform="matrix(1 0 0 1 -538.5198 333.3297)" class="st30 st31 st32">Alc. 6</text>
	<text transform="matrix(1 0 0 1 -491.2198 333.3297)" class="st30 st31 st32">,</text>
	<text transform="matrix(1 0 0 1 -487.5198 333.3297)" class="st30 st31 st32">9%</text>
	<text transform="matrix(1 0 0 1 -217.7236 333.3305)" class="st30 st31 st32">V</text>
	<text transform="matrix(1 0 0 1 -206.6238 333.3305)" class="st30 st31 st32">ol.</text>
	<text transform="matrix(1 0 0 1 -187.2236 333.3305)" class="st30 st31 st32"> </text>
	<text transform="matrix(1 0 0 1 -182.8237 333.3305)" class="st30 st31 st32">Alc. </text>
	<text transform="matrix(1 0 0 1 -146.5237 333.3305)" class="st30 st31 st32">9</text>
	<text transform="matrix(1 0 0 1 -136.9237 333.3305)" class="st30 st31 st32">,</text>
	<text transform="matrix(1 0 0 1 -133.6238 333.3305)" class="st30 st31 st32">1%</text>
	<text transform="matrix(1 0 0 1 -403.49 333.3303)" class="st30 st31 st32">V</text>
	<text transform="matrix(1 0 0 1 -392.39 333.3303)" class="st30 st31 st32">ol.</text>
	<text transform="matrix(1 0 0 1 -372.99 333.3303)" class="st30 st31 st32"> </text>
	<text transform="matrix(1 0 0 1 -368.5898 333.3303)" class="st30 st31 st32">Alc. 6</text>
	<text transform="matrix(1 0 0 1 -321.2899 333.3303)" class="st30 st31 st32">,</text>
	<text transform="matrix(1 0 0 1 -317.99 333.3303)" class="st30 st31 st32">1%</text>
	<text transform="matrix(1 0 0 1 -939.6426 333.3303)" class="st30 st31 st32">V</text>
	<text transform="matrix(1 0 0 1 -928.5426 333.3303)" class="st30 st31 st32">ol.</text>
	<text transform="matrix(1 0 0 1 -909.1426 333.3303)" class="st30 st31 st32"> </text>
	<text transform="matrix(1 0 0 1 -904.7426 333.3303)" class="st30 st31 st32">Alc. 5</text>
	<text transform="matrix(1 0 0 1 -857.6426 333.3303)" class="st30 st31 st32">,</text>
	<text transform="matrix(1 0 0 1 -853.3426 333.3303)" class="st30 st31 st32">0%</text>
	<text transform="matrix(1 0 0 1 -948.293 298.3163)" class="st33 st34 st35">Irish </text>
	<text transform="matrix(1 0 0 1 -876.493 298.3163)" class="st33 st34 st35">R</text>
	<text transform="matrix(1 0 0 1 -855.893 298.3163)" class="st33 st34 st35">ed</text>
	<text transform="matrix(1 0 0 1 -280.449 298.3165)" class="st33 st34 st35">Dar</text>
	<text transform="matrix(1 0 0 1 -228.849 298.3165)" class="st33 st34 st35">k</text>
	<text transform="matrix(1 0 0 1 -212.849 298.3165)" class="st33 st34 st35"> St</text>
	<text transform="matrix(1 0 0 1 -172.449 298.3165)" class="st33 st34 st35">r</text>
	<text transform="matrix(1 0 0 1 -160.5491 298.3165)" class="st33 st34 st35">ong</text>
	<text transform="matrix(1 0 0 1 -103.5491 298.3165)" class="st33 st34 st35"> </text>
	<text transform="matrix(1 0 0 1 -96.5491 298.3165)" class="st33 st34 st35">Ale</text>
	<text transform="matrix(1 0 0 1 -779.834 298.3163)" class="st33 st34 st35">Pumpkin</text>
	<text transform="matrix(1 0 0 1 -649.134 298.3163)" class="st33 st34 st35"> </text>
	<text transform="matrix(1 0 0 1 -642.134 298.3163)" class="st33 st34 st35">Ale</text>
	<text transform="matrix(1 0 0 1 -570.4608 298.3157)" class="st33 st34 st35">Dubbel</text>
	<text transform="matrix(1 0 0 1 -391.4011 298.3163)" class="st33 st34 st35">Stout</text>
	<text transform="matrix(1 0 0 1 -776.2906 -9.5857)" class="st30 st31 st32">V</text>
	<text transform="matrix(1 0 0 1 -765.1906 -9.5857)" class="st30 st31 st32">ol.</text>
	<text transform="matrix(1 0 0 1 -745.7906 -9.5857)" class="st30 st31 st32"> </text>
	<text transform="matrix(1 0 0 1 -741.3906 -9.5857)" class="st30 st31 st32">Alc. 5</text>
	<text transform="matrix(1 0 0 1 -694.2906 -9.5857)" class="st30 st31 st32">,</text>
	<text transform="matrix(1 0 0 1 -689.9906 -9.5857)" class="st30 st31 st32">0%</text>
	<text transform="matrix(1 0 0 1 -78.5264 -9.5855)" class="st30 st31 st32">V</text>
	<text transform="matrix(1 0 0 1 -67.4265 -9.5855)" class="st30 st31 st32">ol.</text>
	<text transform="matrix(1 0 0 1 -48.0264 -9.5855)" class="st30 st31 st32"> </text>
	<text transform="matrix(1 0 0 1 -43.6265 -9.5855)" class="st30 st31 st32">Alc. 5,6%</text>
	<text transform="matrix(1 0 0 1 -261.9841 -9.5855)" class="st30 st31 st32">V</text>
	<text transform="matrix(1 0 0 1 -250.8843 -9.5855)" class="st30 st31 st32">ol.</text>
	<text transform="matrix(1 0 0 1 -231.4841 -9.5855)" class="st30 st31 st32"> </text>
	<text transform="matrix(1 0 0 1 -227.0842 -9.5855)" class="st30 st31 st32">Alc. 5</text>
	<text transform="matrix(1 0 0 1 -179.9841 -9.5855)" class="st30 st31 st32">,</text>
	<text transform="matrix(1 0 0 1 -175.6842 -9.5855)" class="st30 st31 st32">0%</text>
	<text transform="matrix(1 0 0 1 -592.7618 -9.5853)" class="st30 st31 st32">V</text>
	<text transform="matrix(1 0 0 1 -581.6618 -9.5853)" class="st30 st31 st32">ol.</text>
	<text transform="matrix(1 0 0 1 -562.2618 -9.5853)" class="st30 st31 st32"> </text>
	<text transform="matrix(1 0 0 1 -557.8618 -9.5853)" class="st30 st31 st32">Alc. 5</text>
	<text transform="matrix(1 0 0 1 -510.7618 -9.5853)" class="st30 st31 st32">,</text>
	<text transform="matrix(1 0 0 1 -506.4618 -9.5853)" class="st30 st31 st32">0%</text>
	<text transform="matrix(1 0 0 1 -401.4583 -41.8879)" class="st33 st34 st35">I</text>
	<text transform="matrix(1 0 0 1 -392.9583 -41.8879)" class="st33 st34 st35">P</text>
	<text transform="matrix(1 0 0 1 -373.7583 -41.8879)" class="st33 st34 st35">A</text>
	<text transform="matrix(1 0 0 1 -352.8583 -41.8879)" class="st33 st34 st35"> </text>
	<text transform="matrix(1 0 0 1 -237.2905 -41.8882)" class="st33 st34 st35">A</text>
	<text transform="matrix(1 0 0 1 -215.4906 -41.8882)" class="st33 st34 st35">P</text>
	<text transform="matrix(1 0 0 1 -196.3906 -41.8882)" class="st33 st34 st35">A</text>
	<text transform="matrix(1 0 0 1 -566.6606 -41.8879)" class="st33 st34 st35">E</text>
	<text transform="matrix(1 0 0 1 -547.7606 -41.8879)" class="st33 st34 st35">P</text>
	<text transform="matrix(1 0 0 1 -528.5606 -41.8879)" class="st33 st34 st35">A</text>
	<text transform="matrix(1 0 0 1 -112.2053 -41.8879)" class="st33 st34 st35">Sc</text>
	<text transform="matrix(1 0 0 1 -74.7053 -41.8879)" class="st33 st34 st35">o</text>
	<text transform="matrix(1 0 0 1 -56.4053 -41.8879)" class="st33 st34 st35">ttish</text>
	<text transform="matrix(1 0 0 1 12.5947 -41.8879)" class="st33 st34 st35"> </text>
	<text transform="matrix(1 0 0 1 19.4946 -41.8879)" class="st33 st34 st35">Ale</text>
	<text transform="matrix(1 0 0 1 -799.3567 -41.8883)" class="st33 st34 st35">Blonde</text>
	<text transform="matrix(1 0 0 1 -695.4567 -41.8883)" class="st33 st34 st35"> </text>
	<text transform="matrix(1 0 0 1 -688.4567 -41.8883)" class="st33 st34 st35">Ale</text>
	<text transform="matrix(1 0 0 1 -429.2712 -9.5854)" class="st30 st31 st32">V</text>
	<text transform="matrix(1 0 0 1 -418.1711 -9.5854)" class="st30 st31 st32">ol.</text>
	<text transform="matrix(1 0 0 1 -398.7712 -9.5854)" class="st30 st31 st32"> </text>
	<text transform="matrix(1 0 0 1 -394.3712 -9.5854)" class="st30 st31 st32">Alc. 5</text>
	<text transform="matrix(1 0 0 1 -347.2712 -9.5854)" class="st30 st31 st32">,</text>
	<text transform="matrix(1 0 0 1 -342.9712 -9.5854)" class="st30 st31 st32">0%</text>
</g>
</svg>
