<?xml version="1.0" encoding="UTF-8" standalone="no"?>
<svg width="32px" height="33px" viewBox="0 0 32 33" version="1.1" xmlns="http://www.w3.org/2000/svg" xmlns:xlink="http://www.w3.org/1999/xlink">
    <!-- Generator: Sketch 39.1 (31720) - http://www.bohemiancoding.com/sketch -->
    <title>Facebook</title>
    <desc>Created with Sketch.</desc>
    <defs></defs>
    <g id="Welcome" stroke="none" stroke-width="1" fill="none" fill-rule="evenodd">
        <g id="Desktop" transform="translate(-521.000000, -2892.000000)">
            <g id="Footer" transform="translate(0.000000, 2761.000000)">
                <g id="Footer-Section" transform="translate(1.000000, 0.000000)">
                    <g id="Social-Buttons" transform="translate(520.000000, 131.000000)">
                        <g id="Facebook">
                            <ellipse id="Facebook-BG" fill="#FFFFFF" cx="15.8636716" cy="16.5" rx="15.8636716" ry="16"></ellipse>
                            <path d="M17.0085273,23 L17.0085273,16.4992389 L19.061753,16.4992389 L19.3338497,14.2590406 L17.0085273,14.2590406 L17.0120157,13.1377998 C17.0120157,12.5535216 17.075534,12.240452 18.0357216,12.240452 L19.3193147,12.240452 L19.3193147,10 L17.2657983,10 C14.7991949,10 13.9310144,11.0867372 13.9310144,12.9142874 L13.9310144,14.2592943 L12.3934934,14.2592943 L12.3934934,16.4994926 L13.9310144,16.4994926 L13.9310144,23 L17.0085273,23 L17.0085273,23 L17.0085273,23 L17.0085273,23 Z" id="Facebook-Logo" fill="#333333"></path>
                        </g>
                    </g>
                </g>
            </g>
        </g>
    </g>
</svg>