<?xml version="1.0" encoding="UTF-8" standalone="no"?>
<svg width="33px" height="33px" viewBox="0 0 33 33" version="1.1" xmlns="http://www.w3.org/2000/svg" xmlns:xlink="http://www.w3.org/1999/xlink">
    <!-- Generator: Sketch 39.1 (31720) - http://www.bohemiancoding.com/sketch -->
    <title>Instagram</title>
    <desc>Created with Sketch.</desc>
    <defs></defs>
    <g id="Welcome" stroke="none" stroke-width="1" fill="none" fill-rule="evenodd">
        <g id="Desktop" transform="translate(-659.000000, -2892.000000)">
            <g id="Footer" transform="translate(0.000000, 2761.000000)">
                <g id="Footer-Section" transform="translate(1.000000, 0.000000)">
                    <g id="Social-Buttons" transform="translate(520.000000, 131.000000)">
                        <g id="Instagram" transform="translate(138.807126, 0.000000)">
                            <ellipse id="Instagram-BG" fill="#FFFFFF" cx="15.8636716" cy="16.5" rx="15.8636716" ry="16"></ellipse>
                            <path d="M22.2797636,22.2884923 C22.2908054,22.2263278 22.2989027,22.1631639 22.3082881,22.1007995 L22.3082881,10.8992005 C22.2992707,10.8378355 22.2915415,10.7762707 22.2804997,10.7151057 C22.1676897,10.0876642 21.6912377,9.60074243 21.1062083,9.51379212 C21.0819164,9.51039406 21.0581766,9.50459737 21.0342528,9.5 L10.6930903,9.5 C10.6307044,9.51219303 10.5679504,9.52138778 10.5064846,9.5365791 C9.93544141,9.67789834 9.51290998,10.1774129 9.43156899,10.8058538 C9.42825646,10.8320388 9.42328767,10.858024 9.419055,10.884209 L9.419055,22.1163906 C9.43083288,22.18755 9.44021837,22.259309 9.45494072,22.3300685 C9.58118487,22.936522 10.0578209,23.4066533 10.6248154,23.4858081 C10.6522358,23.4894061 10.6798402,23.4952027 10.7072606,23.5 L21.0200825,23.5 C21.0870692,23.4876071 21.15424,23.4774129 21.2204905,23.4618218 C21.7468145,23.3404911 22.1768912,22.8635637 22.2797636,22.2884923 Z M10.8136296,21.429783 C10.8136296,21.7278127 11.0512115,21.9840662 11.3255993,21.9840662 C14.350306,21.9842661 17.3748288,21.9842661 20.3995355,21.9840662 C20.6764997,21.9840662 20.9127934,21.7282125 20.9127934,21.427984 C20.9129775,19.3585665 20.9127934,17.2893489 20.9127934,15.2201314 L20.9127934,15.1771559 L19.682373,15.1771559 C19.8560968,15.7802113 19.9094653,16.3936608 19.8413744,17.0189035 C19.7729155,17.6443461 19.5874139,18.2264135 19.2852377,18.7639063 C18.9828774,19.3019989 18.5908948,19.7477441 18.1109462,20.1025414 C16.8669077,21.0228155 15.2290463,21.1037693 13.9090036,20.2990291 C13.2417131,19.8926613 12.7177815,19.3259852 12.3524832,18.5958024 C11.8075722,17.506225 11.7205263,16.3626785 12.0401853,15.1761565 C11.6320082,15.1765563 11.2254873,15.1765563 10.8134455,15.1765563 L10.8134455,15.2143347 C10.8134455,17.2861508 10.8132615,19.3579669 10.8136296,21.429783 Z M15.80377,19.3353798 C17.2631229,19.3693604 18.4434873,18.1028841 18.4742202,16.5625642 C18.5056892,14.974072 17.326061,13.6620217 15.8637636,13.6630211 C14.4342234,13.6620217 13.2720779,14.9113078 13.2520187,16.4570246 C13.2314075,18.0443175 14.4012822,19.3025985 15.80377,19.3353798 Z M20.9126094,12.5322673 C20.9127934,12.0903198 20.9127934,11.6481725 20.9126094,11.206225 C20.9126094,10.8892062 20.6816525,10.6369503 20.39015,10.6367504 C19.9843652,10.6365505 19.5785805,10.6363507 19.1726117,10.6367504 C18.8818453,10.6371502 18.6501523,10.8900057 18.6499683,11.2070246 C18.6497842,11.6451742 18.6486801,12.0833238 18.6514405,12.5216733 C18.6518086,12.587036 18.6632184,12.6549971 18.6823574,12.7169617 C18.7552331,12.9502284 18.9519605,13.0933467 19.1928549,13.094546 C19.3886622,13.0949457 19.5844694,13.0943461 19.7804607,13.0943461 C19.9924625,13.0917476 20.2052005,13.0961451 20.4173864,13.0905483 C20.6903019,13.0831525 20.9126094,12.8290977 20.9126094,12.5322673 Z" id="Instagram-Logo" fill="#333333"></path>
                        </g>
                    </g>
                </g>
            </g>
        </g>
    </g>
</svg>