<?xml version="1.0" encoding="UTF-8" standalone="no"?>
<svg width="56px" height="57px" viewBox="0 0 56 57" version="1.1" xmlns="http://www.w3.org/2000/svg" xmlns:xlink="http://www.w3.org/1999/xlink">
    <!-- Generator: Sketch 39.1 (31720) - http://www.bohemiancoding.com/sketch -->
    <title>logo</title>
    <desc>Created with Sketch.</desc>
    <defs>
        <polygon id="path-1" points="0 0.210228261 0 4.26254348 4.51124938 4.26254348 4.51124938 0.210228261 6.24643227e-21 0.210228261"></polygon>
        <polygon id="path-3" points="2.75022222 3.47058573 2.75022222 0.122005435 0.0723146152 0.122005435 0.0723146152 3.47058573 2.75022222 3.47058573"></polygon>
    </defs>
    <g id="Welcome" stroke="none" stroke-width="1" fill="none" fill-rule="evenodd">
        <g id="Desktop" transform="translate(-81.000000, -12.000000)">
            <g id="Header">
                <g id="logo" transform="translate(81.000000, 6.000000)">
                    <path d="M55.3892082,34.8069978 C55.3892082,49.7140304 43.1885827,61.7988457 28.1381794,61.7988457 C13.0880066,61.7988457 0.88738107,49.7140304 0.88738107,34.8069978 C0.88738107,19.8999652 13.0880066,7.81515 28.1381794,7.81515 C43.1885827,7.81515 55.3892082,19.8999652 55.3892082,34.8069978 L55.3892082,34.8069978 Z" id="Stroke-1" stroke="#FEFEFE"></path>
                    <path d="M13.06041,37.8614098 C13.2124192,37.8614098 13.3489173,37.8360598 13.4699043,37.785872 C13.5908912,37.7359402 13.6930063,37.6662918 13.777025,37.5774388 C13.8610437,37.4885859 13.9342046,37.3843693 13.9965077,37.264533 C14.0588108,37.1446968 14.1076709,37.014106 14.1428295,36.8732728 C14.1777296,36.7321835 14.2072008,36.5864852 14.2304675,36.4356656 C14.2539928,36.2851021 14.2687284,36.1335143 14.2744158,35.9806463 C14.2803617,35.8282904 14.2850151,35.678495 14.2891514,35.5315164 C14.2930292,35.3847938 14.2930292,35.245753 14.2891514,35.114138 L14.2891514,34.940529 L14.2891514,34.7377292 C14.2850151,34.5984324 14.2850151,34.4517098 14.2891514,34.2970493 C14.2930292,34.1429009 14.2860491,33.9831193 14.2687284,33.8189846 C14.2508905,33.6548499 14.2294335,33.4953242 14.2043571,33.3409198 C14.1787637,33.1862594 14.1348155,33.0395368 14.0725123,32.900496 C14.0102092,32.7614552 13.9370483,32.6395704 13.8530296,32.5353539 C13.7692694,32.4311373 13.6588818,32.3489419 13.5226422,32.2890238 C13.3861441,32.2291057 13.2318082,32.1991466 13.06041,32.1991466 C12.9081422,32.1991466 12.7708686,32.2224481 12.6478135,32.268795 C12.5250169,32.3151419 12.4226433,32.3799252 12.3406927,32.4628888 C12.2587422,32.5458523 12.1855813,32.6423871 12.12121,32.7527491 C12.0568388,32.8628551 12.0082372,32.9824353 11.9751467,33.1120019 C11.9417977,33.2415684 11.9125851,33.3765122 11.8872502,33.5176015 C11.8616568,33.6586908 11.8471797,33.79978 11.843302,33.9406132 C11.8394242,34.0817025 11.8345123,34.2197191 11.8285664,34.355175 C11.8228789,34.4903749 11.823913,34.6178929 11.8316686,34.7377292 L11.8316686,34.940529 L11.8316686,35.114138 C11.8355464,35.2303894 11.8355464,35.351762 11.8316686,35.4792801 C11.8275323,35.6067981 11.8306345,35.7394374 11.8404582,35.8764297 C11.8500235,36.013422 11.8608813,36.1496461 11.8725146,36.2851021 C11.884148,36.420302 11.904571,36.5537094 11.9340422,36.6848123 C11.9632548,36.8161713 11.9973794,36.9398485 12.0364157,37.0558438 C12.0751936,37.1718392 12.1261219,37.2791285 12.188425,37.3774557 C12.2507281,37.4760389 12.3223379,37.561051 12.4019618,37.6322357 C12.4821027,37.7039326 12.5785303,37.7600099 12.6917617,37.8004674 C12.8049931,37.841181 12.9275312,37.8614098 13.06041,37.8614098 M17.8582664,35.0275896 C17.8582664,35.9355797 17.6486074,36.7600941 17.2292893,37.5021571 C16.8099713,38.2437079 16.2334737,38.8254771 15.5003135,39.2464404 C14.7668947,39.6676597 13.9535936,39.8781413 13.06041,39.8781413 C12.1669679,39.8781413 11.3536667,39.6676597 10.6205065,39.2464404 C9.88708776,38.8254771 9.31059012,38.2437079 8.89153062,37.5021571 C8.47221261,36.7600941 8.26229508,35.9355797 8.26229508,35.0275896 C8.26229508,34.0304904 8.47221261,33.1583488 8.89153062,32.4106525 C9.31059012,31.6632122 9.88010775,31.0960385 10.599825,30.7096434 C11.3198007,30.3235043 12.1437012,30.1304348 13.0720433,30.1304348 C13.9848744,30.1304348 14.8010192,30.3235043 15.5207365,30.7096434 C16.2404537,31.0960385 16.8099713,31.6632122 17.2292893,32.4106525 C17.6486074,33.1583488 17.8582664,34.0304904 17.8582664,35.0275896" id="Fill-3" fill="#FEFEFE"></path>
                    <path d="M29.2562058,49.4091747 L29.4961115,49.4091747 C30.3815395,49.4091747 30.8241242,49.0207311 30.8241242,48.2443561 C30.8241242,47.8966261 30.7207166,47.6415899 30.5139013,47.4792476 C30.307086,47.3171614 30.0519276,47.2359903 29.7473921,47.2359903 L29.2562058,47.2359903 L29.2562058,49.4091747 Z M25.0723323,52.5156993 L25.9854218,52.5156993 L25.9854218,47.2359903 L25.1018035,47.2359903 L25.1018035,45.1900678 L28.9108242,45.1900678 L29.0512001,45.1900678 L29.1770989,45.1900678 L29.3203185,45.1900678 C29.5739258,45.1939088 29.827533,45.1939088 30.0808818,45.1900678 C30.3347475,45.186483 30.5834429,45.194933 30.8269679,45.216186 C31.07101,45.237439 31.3078135,45.262789 31.5378955,45.2914678 C31.7682361,45.3204026 31.9874603,45.3698222 32.1963437,45.4392146 C32.4049687,45.5091191 32.5991165,45.5920826 32.7785288,45.6886174 C32.9576825,45.7851522 33.1215837,45.9108778 33.2699736,46.0650262 C33.4183636,46.2199427 33.545038,46.3948319 33.6502553,46.5896939 C33.7554726,46.7848119 33.8384572,47.0175708 33.8989507,47.2882266 C33.9591856,47.5583703 33.9915005,47.8579609 33.9953783,48.1864864 C34.0031339,48.7582692 33.9162714,49.2519537 33.7350495,49.6672836 C33.5538276,50.0826135 33.288587,50.4119072 32.9393277,50.6551645 C32.5900683,50.8984219 32.1844518,51.0763839 31.7222197,51.1882823 C31.2599875,51.3006928 30.7305403,51.3562579 30.1338782,51.3562579 C29.8567457,51.3562579 29.564102,51.3370533 29.2562058,51.2986443 L29.2562058,52.5156993 L30.1103529,52.5156993 L30.1103529,54.5961899 L25.0723323,54.5961899 L25.0723323,52.5156993 Z" id="Fill-5" fill="#FEFEFE"></path>
                    <path d="M43.5711283,35.4854255 L43.5711283,37.4558101 L43.6998708,37.4558101 C43.7779436,37.459651 43.8549823,37.4606753 43.9309869,37.4586268 C44.00725,37.4568344 44.0811865,37.4537617 44.1533133,37.4501768 C44.2254402,37.4460798 44.2947233,37.4394223 44.3611627,37.429692 C44.4273436,37.4202177 44.4906808,37.408695 44.5511743,37.3948678 C44.6116678,37.3812966 44.669059,37.362092 44.723865,37.3369981 C44.7784126,37.3119042 44.8280483,37.2829694 44.8730306,37.2501937 C44.9177544,37.2174179 44.9578249,37.1759361 44.9929835,37.1254923 C45.0281421,37.0753044 45.0583888,37.0202514 45.0837237,36.9603333 C45.1090585,36.9004152 45.1284475,36.8299986 45.142149,36.7488274 C45.1558505,36.6676563 45.162572,36.5788033 45.162572,36.4822686 C45.162572,36.3084036 45.1364616,36.157584 45.0837237,36.0300659 C45.0309858,35.9025479 44.9666145,35.8039646 44.8906099,35.7345723 C44.8146053,35.6649238 44.7207628,35.6098709 44.6098581,35.5694133 C44.4986949,35.5289558 44.398131,35.5036058 44.3084248,35.4941316 C44.2187187,35.4844013 44.1171207,35.4797922 44.0041478,35.4797922 C43.9612336,35.4797922 43.81698,35.4815846 43.5711283,35.4854255 L43.5711283,35.4854255 Z M43.5711283,33.9669875 L43.811034,33.9669875 C44.0178493,33.9669875 44.1884719,33.9562329 44.3229019,33.9349799 C44.4575904,33.9137269 44.5909862,33.8712209 44.723865,33.8074618 C44.8564854,33.7437028 44.9549811,33.6435832 45.0193524,33.5063348 C45.0837237,33.3690865 45.1160386,33.1941972 45.1160386,32.9819232 C45.1160386,32.7230461 45.0358976,32.5240872 44.8758743,32.3847904 C44.7161095,32.2457496 44.526615,32.1761012 44.3084248,32.1761012 L43.5711283,32.1761012 L43.5711283,33.9669875 Z M39.4754098,37.4558101 L40.4818248,37.4558101 L40.4875122,32.1761012 L39.5162559,32.1761012 L39.5162559,30.1360681 L44.2789536,30.1304348 C44.7548873,30.1304348 45.1731713,30.1506636 45.5343225,30.1911211 C45.8949567,30.2315786 46.2364604,30.3060922 46.5583167,30.4141497 C46.8799145,30.5224632 47.143087,30.6676495 47.3478341,30.8491963 C47.5528398,31.0307431 47.7136387,31.2645262 47.8310064,31.5502896 C47.947857,31.836309 48.0062823,32.1725163 48.0062823,32.5586554 C48.0062823,33.0377443 47.873662,33.4599879 47.6084214,33.82513 C47.3431808,34.1900161 46.9980578,34.4519658 46.5727938,34.6102111 L46.5727938,34.6217339 C47.1578226,34.787917 47.610231,35.0795698 47.9302777,35.4969482 C48.2500659,35.9143267 48.4100892,36.4494928 48.4100892,37.1021908 C48.4100892,37.5351889 48.3242609,37.9108294 48.1526042,38.2296246 C47.9809475,38.5481637 47.7379395,38.8014074 47.4240973,38.9888436 C47.1099965,39.1760238 46.751172,39.3142964 46.3473651,39.4031493 C45.9438168,39.4920023 45.4903742,39.5363007 44.987296,39.5363007 L39.4754098,39.5363007 L39.4754098,37.4558101 Z" id="Fill-7" fill="#FEFEFE"></path>
                    <g id="Group-12" transform="translate(4.378601, 11.558446)">
                        <path d="M48.8250864,48.0755739 L0.215012346,0.0456065217" id="Fill-9" fill="#FEFEFE"></path>
                        <path d="M48.8250864,48.0755739 L0.215012346,0.0456065217" id="Stroke-11" stroke="#FEFEFE"></path>
                    </g>
                    <g id="Group-16" transform="translate(2.995885, 11.330185)">
                        <path d="M0.0769711934,48.3038348 L48.702716,0.140563043" id="Fill-13" fill="#FEFEFE"></path>
                        <path d="M0.0769711934,48.3038348 L48.702716,0.140563043" id="Stroke-15" stroke="#FEFEFE"></path>
                    </g>
                    <path d="M6.03182222,13.3162826 C6.4219786,13.7047826 6.70174815,14.1891522 6.70105679,14.1738587 C6.70243951,14.1893804 6.47383045,14.2249891 6.10625844,14.3653696 C5.73776461,14.4884022 5.22961646,14.7187174 4.63942716,14.7520435 C4.04992922,14.7865109 3.47679342,14.4308804 3.07096626,13.9608913 C2.66329547,13.5077935 2.43030782,12.9476413 2.43053827,12.9645326 C2.43076872,12.9478696 2.67182222,12.9583696 3.05829136,12.8695761 C3.44499095,12.7969891 3.9750321,12.6264783 4.55047243,12.6132391 C5.12499095,12.6011413 5.63774815,12.9136304 6.03182222,13.3162826" id="Fill-17" fill="#FEFEFE"></path>
                    <path d="M0.933609877,11.2714304 C0.580786831,10.7754196 0.414630453,10.1940391 0.413017284,10.2111587 C0.414860905,10.1949522 0.65222716,10.2328435 1.04676214,10.1874196 C1.43922305,10.1586587 1.98539588,10.0481804 2.55830123,10.0993109 C3.13028477,10.1513543 3.60363457,10.5190826 3.94654815,10.9625935 C4.28877037,11.3903543 4.50954403,11.9012022 4.51000494,11.8863652 C4.50954403,11.901887 4.27816955,11.9114739 3.89769218,12.0093978 C3.51790617,12.0915717 2.98786502,12.2627674 2.39790617,12.2301261 C1.80863868,12.1988543 1.28228477,11.782963 0.933609877,11.2714304" id="Fill-19" fill="#FEFEFE"></path>
                    <path d="M6.63881152,12.3493239 C6.51044938,12.7131717 6.49270453,12.9414326 6.4772642,12.9416609 C6.49362634,12.9425739 5.98616955,12.7111174 5.59808724,12.31965 C5.19433416,11.9290957 4.91756049,11.3865196 5.01895967,10.8366391 C5.11897613,10.2867587 5.39897613,9.81791087 5.56144527,9.47757391 C5.73958519,9.13906304 5.80065514,8.92906304 5.81517366,8.92997609 C5.8013465,8.9292913 6.23390617,9.1917913 6.55838354,9.55723696 C6.89622716,9.9267913 7.13359342,10.40865 7.05500905,10.9482587 C6.97504198,11.4885522 6.75150288,11.9857043 6.63881152,12.3493239" id="Fill-21" fill="#FEFEFE"></path>
                    <path d="M4.41648724,10.6049315 C4.43261893,10.6074424 3.9560428,10.3221163 3.61658601,9.88979022 C3.26030617,9.45837717 3.04875062,8.8888663 3.21283292,8.35496413 C3.37530206,7.82014891 3.70738436,7.38599674 3.9088,7.06665978 C4.1245037,6.75074674 4.20884938,6.54850761 4.2233679,6.55193152 C4.20977119,6.54942065 4.60868477,6.85825761 4.88891523,7.25794239 C5.18274239,7.66173587 5.36203457,8.16664891 5.22168889,8.69324674 C5.07996049,9.21893152 4.79973004,9.68777935 4.64532675,10.0351924 C4.47571358,10.3821489 4.43192757,10.6069859 4.41648724,10.6049315" id="Fill-23" fill="#FEFEFE"></path>
                    <path d="M2.900293,9.32183152 C2.91596379,9.31452717 2.3315358,9.36017935 1.77407078,9.19697283 C1.20254815,9.04358152 0.6685893,8.68544022 0.478235391,8.12871196 C0.286268313,7.57335326 0.302169547,7.000875 0.276358848,6.60575543 C0.265066667,6.2040163 0.212293004,5.98032065 0.226120165,5.97392935 C0.212984362,5.98009239 0.745790947,6.00154891 1.23204609,6.17342935 C1.73374156,6.34028804 2.19994733,6.66350543 2.40528066,7.19832065 C2.60992263,7.73427717 2.66085267,8.30538587 2.74335473,8.69639674 C2.81295144,9.09539674 2.91527243,9.31429891 2.900293,9.32183152" id="Fill-25" fill="#FEFEFE"></path>
                    <polygon id="Fill-27" fill="#FEFEFE" points="53.5036675 57.4683489 55.2389761 61.7402511 50.8820379 60.1342076"></polygon>
                    <g id="Group-31" transform="translate(0.000000, 58.123663)">
                        <mask id="mask-2" fill="white">
                            <use xlink:href="#path-1"></use>
                        </mask>
                        <g id="Clip-30"></g>
                        <polygon id="Fill-29" fill="#FEFEFE" mask="url(#mask-2)" points="4.51124938 3.15022826 -9.21810697e-05 4.26254348 2.20764444 0.210228261"></polygon>
                    </g>
                    <path d="M50.1768296,13.3162826 C49.7866733,13.7047826 49.5069037,14.1891522 49.5075951,14.1738587 C49.5062123,14.1893804 49.7348214,14.2249891 50.1023934,14.3653696 C50.4708872,14.4884022 50.9790354,14.7187174 51.5692247,14.7520435 C52.1587226,14.7865109 52.7318584,14.4308804 53.1376856,13.9608913 C53.5453564,13.5077935 53.778344,12.9476413 53.7781136,12.9645326 C53.7778831,12.9478696 53.5368296,12.9583696 53.1503605,12.8695761 C52.7636609,12.7969891 52.2336198,12.6264783 51.6581794,12.6132391 C51.0836609,12.6011413 50.5709037,12.9136304 50.1768296,13.3162826" id="Fill-32" fill="#FEFEFE"></path>
                    <path d="M55.275042,11.2714304 C55.627865,10.7754196 55.7940214,10.1940391 55.7956346,10.2111587 C55.7937909,10.1949522 55.5564247,10.2328435 55.1618897,10.1874196 C54.7694288,10.1586587 54.223256,10.0481804 53.6503506,10.0993109 C53.0783671,10.1513543 52.6047868,10.5190826 52.2621037,10.9625935 C51.9198815,11.3903543 51.6991078,11.9012022 51.6986469,11.8863652 C51.6991078,11.901887 51.9304823,11.9114739 52.3109597,12.0093978 C52.6907457,12.0915717 53.2207868,12.2627674 53.8107457,12.2301261 C54.4000132,12.1988543 54.9263671,11.782963 55.275042,11.2714304" id="Fill-34" fill="#FEFEFE"></path>
                    <path d="M49.5698403,12.3493239 C49.6982025,12.7131717 49.7159473,12.9414326 49.7313877,12.9416609 C49.7150255,12.9425739 50.2224823,12.7111174 50.6105646,12.31965 C51.0143177,11.9290957 51.2910914,11.3865196 51.1896922,10.8366391 C51.0896757,10.2867587 50.8096757,9.81791087 50.6472066,9.47757391 C50.4690667,9.13906304 50.4079967,8.92906304 50.3934782,8.92997609 C50.4073053,8.9292913 49.9747457,9.1917913 49.6502683,9.55723696 C49.3124247,9.9267913 49.0750584,10.40865 49.1536428,10.9482587 C49.2336099,11.4885522 49.457149,11.9857043 49.5698403,12.3493239" id="Fill-36" fill="#FEFEFE"></path>
                    <path d="M51.7921646,10.6049315 C51.7760329,10.6074424 52.2526091,10.3221163 52.5920658,9.88979022 C52.9483457,9.45837717 53.1599012,8.8888663 52.9958189,8.35496413 C52.8333498,7.82014891 52.5012675,7.38599674 52.2998519,7.06665978 C52.0841481,6.75074674 51.9998025,6.54850761 51.985284,6.55193152 C51.9988807,6.54942065 51.5999671,6.85825761 51.3197366,7.25794239 C51.0259095,7.66173587 50.8466173,8.16664891 50.986963,8.69324674 C51.1286914,9.21893152 51.4089218,9.68777935 51.5633251,10.0351924 C51.7329383,10.3821489 51.7767243,10.6069859 51.7921646,10.6049315" id="Fill-38" fill="#FEFEFE"></path>
                    <g id="Group-42" transform="translate(53.234568, 5.851924)">
                        <mask id="mask-4" fill="white">
                            <use xlink:href="#path-3"></use>
                        </mask>
                        <g id="Clip-41"></g>
                        <path d="M0.0737909465,3.46990761 C0.0581201646,3.46260326 0.642548148,3.50825543 1.20001317,3.34504891 C1.7715358,3.19165761 2.30549465,2.8335163 2.49584856,2.27678804 C2.68781564,1.72142935 2.6719144,1.14895109 2.6977251,0.753831522 C2.70901728,0.352092391 2.76179095,0.128396739 2.74796379,0.122005435 C2.76109959,0.128168478 2.228293,0.149625 1.74203786,0.321505435 C1.24034239,0.48836413 0.774136626,0.811581522 0.568803292,1.34639674 C0.364161317,1.88235326 0.313231276,2.45346196 0.230729218,2.84447283 C0.16113251,3.24347283 0.0588115226,3.462375 0.0737909465,3.46990761" id="Fill-40" fill="#FEFEFE" mask="url(#mask-4)"></path>
                    </g>
                    <path d="M32.3954862,15.7070063 C32.3549265,15.0352345 32.0984327,14.4230389 32.1346138,13.7362019 C32.1452146,13.5309954 32.2715027,13.1308541 32.1283915,12.9434519 C31.9129183,12.6613215 30.9987125,12.8361693 30.7044245,12.8361693 L27.1437002,12.8361693 L25.9499553,12.8361693 C25.7407043,12.8361693 25.4726878,12.7898324 25.2680459,12.8361693 C25.0760788,12.8799954 25.019157,12.9397998 24.9933463,13.1358758 C24.9712228,13.3047889 25.0230747,13.5033758 25.0322928,13.6738867 C25.0541858,14.0808758 25.0316014,14.4682345 24.9373463,14.8676911 C24.8124409,15.3965715 24.7230253,15.868615 24.8447043,16.4111911 C24.9306632,16.7930715 25.1726385,17.1272454 25.2475356,17.5050171 C25.3339553,17.9428215 25.3275027,18.4176041 25.3606878,18.8613432 C25.4849018,20.5171476 25.5973627,22.173865 25.7100541,23.8305824 C25.7483092,24.3937019 25.7861035,24.9568215 25.8238977,25.5199411 C25.834729,25.6836041 25.8303504,25.8465824 25.8976426,25.9990606 C26.1191076,26.5012345 26.8141529,26.7105498 27.2969512,26.826278 C28.3452804,27.0775932 29.4922434,27.0552237 30.4958648,26.6276911 C31.2208689,26.3188541 31.3188113,25.9461041 31.3644409,25.2633758 C31.4808195,23.5313324 31.5983504,21.7995171 31.7223339,20.0681584 C31.7755685,19.3258541 31.8258072,18.582865 31.8910253,17.8414737 C31.9567043,17.0939193 32.3844245,16.4858324 32.3954862,15.7070063 C32.3977907,15.5403758 32.1366878,15.5403758 32.1343833,15.7070063 C32.1242434,16.4189519 31.7324739,16.9441802 31.6502022,17.6184628 C31.5923586,18.0914193 31.5706961,18.5707671 31.5354368,19.0455498 C31.4234368,20.5550389 31.320194,22.0652128 31.2174121,23.5751584 C31.1777743,24.1572237 31.1385973,24.7390606 31.0994204,25.3211258 C31.08905,25.4747454 31.1095603,25.6689954 31.0632393,25.818278 C30.8880953,26.384365 29.9918648,26.5493976 29.5030747,26.6400171 C28.5492311,26.8166911 27.2460212,26.7966041 26.4182352,26.1985606 C25.9165397,25.8360824 26.0552722,25.0746041 26.0186302,24.5313432 C25.9170006,23.025278 25.8139883,21.5194411 25.7061364,20.0138324 C25.6614286,19.3909084 25.6169512,18.7677563 25.5664821,18.1450606 C25.5392887,17.8063215 25.5332969,17.4689519 25.4074697,17.1500715 C25.2166549,16.6659302 25.0189265,16.2454737 25.0369018,15.7070063 C25.0599471,15.0183432 25.330729,14.4068324 25.2952393,13.6992237 C25.2878648,13.5554193 25.1979883,13.1662345 25.2924739,13.0950171 C25.3899553,13.0212889 25.8854286,13.0950171 25.9983504,13.0950171 L29.5885726,13.0950171 L30.9201282,13.0950171 C31.154729,13.0950171 31.5799142,13.0139845 31.8036837,13.0950171 C31.9569348,13.1504845 31.8566878,13.0347563 31.9126878,13.1897454 C31.9567043,13.3111802 31.8820376,13.5853215 31.8748936,13.7147454 C31.8357167,14.4216693 32.0926714,15.0178867 32.1343833,15.7070063 C32.1442928,15.8724954 32.4056261,15.8736367 32.3954862,15.7070063" id="Fill-43" stroke="#FFFFFF" fill="#FEFEFE"></path>
                    <path d="M24.8206954,14.1781957 L31.6755102,14.1781957 C31.6559218,13.9709348 31.6538477,13.7616196 31.6688271,13.5532174 L31.7139958,12.9275543 C31.7195267,12.8494891 31.6616831,12.7826087 31.5881687,12.7826087 L24.913107,12.7826087 C24.8395925,12.7826087 24.7815185,12.8494891 24.7872798,12.9275543 L24.8296831,13.5160109 C24.8455843,13.7371957 24.8421275,13.958837 24.8206954,14.1781957" id="Fill-45" fill="#FEFEFE"></path>
                    <path d="M24.9446333,14.4482344 L31.7994481,14.4482344 C31.8667403,14.4482344 31.9347238,14.3888866 31.9301148,14.3188105 C31.9079913,13.9855497 31.9257362,13.6609627 31.9497033,13.3292997 C31.9596127,13.1907453 32.007086,12.9910171 31.8969296,12.8750605 C31.7768638,12.7483758 31.517374,12.7940279 31.3659666,12.7940279 L28.4320736,12.7940279 L25.4396456,12.7940279 C25.2847814,12.7940279 25.0126168,12.7435823 24.8784934,12.8547453 C24.7510531,12.9602018 24.7936868,13.1126801 24.7939172,13.2544301 C24.7948391,13.6125714 24.8393164,13.9574736 24.8139666,14.3188105 C24.802444,14.4849844 25.0635469,14.4842997 25.0753,14.3188105 C25.084979,14.1797997 24.9782794,13.1307127 25.0780654,13.0526475 C25.1663288,12.9834844 25.5912835,13.0526475 25.7019008,13.0526475 L28.4320736,13.0526475 L31.1177691,13.0526475 C31.2104111,13.0526475 31.6111683,12.9919301 31.6888308,13.0526475 C31.7653411,13.1126801 31.6625592,14.2224844 31.6687814,14.3188105 C31.712337,14.2756692 31.7558926,14.2327562 31.7994481,14.1896149 L24.9446333,14.1896149 C24.7766333,14.1896149 24.7764028,14.4482344 24.9446333,14.4482344" id="Fill-47" fill="#FEFEFE"></path>
                </g>
            </g>
        </g>
    </g>
</svg>