<?xml version="1.0" encoding="UTF-8" standalone="no"?>
<svg width="33px" height="33px" viewBox="0 0 33 33" version="1.1" xmlns="http://www.w3.org/2000/svg" xmlns:xlink="http://www.w3.org/1999/xlink">
    <!-- Generator: Sketch 39.1 (31720) - http://www.bohemiancoding.com/sketch -->
    <title>Twitter</title>
    <desc>Created with Sketch.</desc>
    <defs></defs>
    <g id="Welcome" stroke="none" stroke-width="1" fill="none" fill-rule="evenodd">
        <g id="Desktop" transform="translate(-590.000000, -2892.000000)">
            <g id="Footer" transform="translate(0.000000, 2761.000000)">
                <g id="Footer-Section" transform="translate(1.000000, 0.000000)">
                    <g id="Social-Buttons" transform="translate(520.000000, 131.000000)">
                        <g id="Twitter" transform="translate(69.403563, 0.000000)">
                            <ellipse id="Twitter-BG" fill="#FFFFFF" cx="15.8636716" cy="16.5" rx="15.8636716" ry="16"></ellipse>
                            <path d="M15.6775132,13.9261722 L15.7054527,14.4019533 L15.2397936,14.3436944 C13.5447945,14.1203686 12.0639986,13.3630028 10.8067191,12.0910169 L10.1920491,11.4598788 L10.033725,11.92595 C9.69845045,12.9649004 9.91265362,14.0621097 10.6111423,14.8000557 C10.9836695,15.207868 10.8998509,15.266127 10.2572414,15.0233815 C10.033725,14.945703 9.83814818,14.8874441 9.8195218,14.9165735 C9.75432955,14.9845423 9.97784591,15.8681356 10.1547964,16.217689 C10.3969391,16.7031798 10.8905377,17.1789608 11.4307022,17.4605455 L11.8870481,17.6838713 L11.3468836,17.6935811 C10.8253454,17.6935811 10.8067191,17.7032909 10.8625982,17.9071971 C11.0488618,18.5383352 11.7846032,19.2083126 12.6041632,19.499607 L13.1815804,19.7035132 L12.6786686,20.0142273 C11.9336141,20.4608789 11.058175,20.7133342 10.1827359,20.7327538 C9.7636427,20.7424636 9.419055,20.7813028 9.419055,20.8104323 C9.419055,20.9075305 10.5552632,21.4512802 11.2164991,21.6648962 C13.2002068,22.2960343 15.5564418,22.0241594 17.3259464,20.9463698 C18.5832259,20.1792942 19.8405055,18.654853 20.4272359,17.1789608 C20.7438841,16.3924657 21.0605323,14.9554128 21.0605323,14.2660158 C21.0605323,13.8193642 21.0884718,13.7611054 21.61001,13.2270654 C21.917345,12.9163513 22.2060537,12.5765077 22.2619327,12.4794095 C22.3550645,12.294923 22.3457514,12.294923 21.8707791,12.4599899 C21.0791586,12.7512844 20.9674004,12.7124451 21.3585541,12.2755034 C21.6472627,11.9647892 21.9918504,11.4016199 21.9918504,11.236553 C21.9918504,11.2074235 21.8521527,11.2559726 21.6938286,11.3433609 C21.5261913,11.4404591 21.1536641,11.5861064 20.8742686,11.6734947 L20.3713568,11.8385616 L19.9150109,11.5181377 C19.663555,11.3433609 19.3096541,11.1491647 19.1233904,11.0909057 C18.6484182,10.9549683 17.92199,10.9743879 17.4935836,11.129745 C16.3294359,11.5666868 15.5936945,12.6930255 15.6775132,13.9261722 C15.6775132,13.9261722 15.5936945,12.6930255 15.6775132,13.9261722 L15.6775132,13.9261722 L15.6775132,13.9261722 Z" id="Twitter-Logo" fill="#333333"></path>
                        </g>
                    </g>
                </g>
            </g>
        </g>
    </g>
</svg>